<svg width="199" height="201" viewBox="0 0 199 201" fill="none" xmlns="http://www.w3.org/2000/svg">
<g id="icon=icon-dark">
<g id="icon-frame-dark">
<g id="Frame" filter="url(#filter0_d_86_6647)">
<path id="Vector" d="M172.887 10H26.1129C18.3186 10 12 16.3186 12 24.1129V170.887C12 178.681 18.3186 185 26.1129 185H172.887C180.681 185 187 178.681 187 170.887V24.1129C187 16.3186 180.681 10 172.887 10Z" fill="#727D86"/>
<path id="Vector_2" d="M172.887 10H26.1129C18.3186 10 12 16.3186 12 24.1129V170.887C12 178.681 18.3186 185 26.1129 185H172.887C180.681 185 187 178.681 187 170.887V24.1129C187 16.3186 180.681 10 172.887 10Z" stroke="#484B4F" stroke-width="15" stroke-linecap="round"/>
<g id="Vector_3">
<path d="M172.887 10H26.1129C18.3186 10 12 16.3186 12 24.1129V170.887C12 178.681 18.3186 185 26.1129 185H172.887C180.681 185 187 178.681 187 170.887V24.1129C187 16.3186 180.681 10 172.887 10Z" fill="url(#paint0_linear_86_6647)" fill-opacity="0.2"/>
<path d="M26.1129 10.5H172.887C180.405 10.5 186.5 16.5948 186.5 24.1129V170.887C186.5 178.405 180.405 184.5 172.887 184.5H26.1129C18.5948 184.5 12.5 178.405 12.5 170.887V24.1129C12.5 16.5947 18.5947 10.5 26.1129 10.5Z" stroke="#F7F7F7" stroke-opacity="0.27"/>
</g>
</g>
<g id="combo">
<g id="Vector_4">
<path d="M71.3327 80.9889L65.3408 74.997C61.0262 81.5102 58.5 89.3112 58.5 97.7097C58.5 105.268 60.5461 112.346 64.1025 118.434C64.7062 119.469 66.1506 119.615 66.9975 118.766L70.3767 115.387C70.9433 114.82 71.0484 113.959 70.6693 113.254C68.1781 108.62 66.742 103.339 66.742 97.7097C66.742 91.5983 68.4336 85.897 71.3327 80.9889Z" fill="#50E6FF" fill-opacity="0.5"/>
<path d="M132.678 97.7097C132.678 103.821 130.986 109.523 128.087 114.431L134.079 120.423C138.394 113.91 140.92 106.106 140.92 97.7097C140.92 90.1519 138.874 83.0741 135.317 76.9854C134.714 75.951 133.269 75.8068 132.422 76.6536L129.043 80.0328C128.476 80.5995 128.371 81.4607 128.75 82.1654C131.242 86.7995 132.678 92.0805 132.678 97.7097Z" fill="#199BE2" fill-opacity="0.5"/>
<path d="M82.0328 68.3767C82.5995 68.9433 83.4607 69.0484 84.1654 68.6693C88.7995 66.1781 94.0805 64.742 99.7097 64.742C105.821 64.742 111.523 66.4336 116.431 69.3327L122.425 63.3388C115.91 59.0262 108.109 56.5 99.7097 56.5C92.189 56.5 85.1462 58.5255 79.0781 62.0489C78.0046 62.6732 77.7779 64.1218 78.6557 64.9995L82.0328 68.3767Z" fill="#35C1F1" fill-opacity="0.5"/>
<path d="M117.387 127.043C116.82 126.476 115.959 126.371 115.254 126.75C110.62 129.242 105.339 130.678 99.7097 130.678C93.5983 130.678 87.897 128.986 82.9889 126.087L76.997 132.079C83.5102 136.394 91.3132 138.92 99.7097 138.92C107.268 138.92 114.346 136.874 120.434 133.317C121.469 132.714 121.615 131.269 120.766 130.422L117.387 127.043Z" fill="#0078D4" fill-opacity="0.5"/>
<path d="M124.3 73.1384L114.339 72.7964C113.635 72.7717 113.284 71.9289 113.769 71.4138L123.364 61.1629C123.863 60.6292 124.757 60.963 124.786 61.6925L125.2 72.236C125.219 72.7408 124.805 73.1549 124.3 73.1384Z" fill="#35C1F1" fill-opacity="0.5"/>
<path d="M75.1199 122.281L85.0803 122.623C85.785 122.648 86.1352 123.491 85.651 124.006L76.0554 134.257C75.5567 134.79 74.6625 134.457 74.6336 133.727L74.2195 123.184C74.2009 122.679 74.6151 122.265 75.1199 122.281Z" fill="#0078D4" fill-opacity="0.5"/>
<path d="M124.281 122.3L124.623 112.339C124.648 111.635 125.491 111.284 126.006 111.769L136.257 121.364C136.79 121.863 136.457 122.757 135.727 122.786L125.184 123.2C124.679 123.219 124.265 122.805 124.281 122.3Z" fill="#199BE2" fill-opacity="0.5"/>
<path d="M75.1384 73.1199L74.7964 83.0803C74.7717 83.785 73.9289 84.1352 73.4138 83.651L63.1609 74.0554C62.6272 73.5567 62.961 72.6625 63.6904 72.6336L74.2339 72.2195C74.7408 72.2009 75.1549 72.6151 75.1384 73.1199Z" fill="#50E6FF" fill-opacity="0.5"/>
</g>
<g id="Frame_2">
<rect x="31.5" y="31.5" width="60" height="60" rx="3" fill="url(#paint1_linear_86_6647)"/>
<rect x="31.5" y="31.5" width="60" height="60" rx="3" fill="white" fill-opacity="0.2"/>
<g id="Group">
<g id="Vector_5">
<path d="M41.5 61.5C41.5 50.455 50.455 41.5 61.5 41.5C72.545 41.5 81.5 50.455 81.5 61.5C81.5 72.545 72.545 81.5 61.5 81.5C50.455 81.5 41.5 72.545 41.5 61.5Z" fill="url(#paint2_radial_86_6647)"/>
<path d="M78.5 61.5C78.5 58.261 77.827 55.209 76.661 52.5H79.343C78.995 51.811 78.618 51.14 78.195 50.5H75.683C72.638 45.084 67.421 41.5 61.5 41.5C55.579 41.5 50.362 45.084 47.317 50.5H44.805C44.382 51.14 44.005 51.811 43.657 52.5H46.339C45.173 55.209 44.5 58.261 44.5 61.5C44.5 64.739 45.173 67.791 46.339 70.5H43.657C44.005 71.189 44.382 71.86 44.805 72.5H47.317C50.362 77.916 55.579 81.5 61.5 81.5C67.421 81.5 72.638 77.916 75.683 72.5H78.195C78.618 71.86 78.995 71.189 79.343 70.5H76.661C77.827 67.791 78.5 64.739 78.5 61.5ZM76.5 61.5C76.5 64.78 75.753 67.849 74.471 70.5H68.678C69.221 67.667 69.5 64.553 69.5 61.5C69.5 58.447 69.221 55.333 68.678 52.5H74.471C75.753 55.151 76.5 58.22 76.5 61.5ZM61.5 79.5C59.81 79.5 58.009 76.863 56.826 72.5H66.175C64.991 76.863 63.19 79.5 61.5 79.5ZM56.348 70.5C55.821 67.913 55.5 64.871 55.5 61.5C55.5 58.129 55.821 55.087 56.348 52.5H66.652C67.179 55.087 67.5 58.129 67.5 61.5C67.5 64.871 67.179 67.913 66.652 70.5H56.348ZM61.5 43.5C63.19 43.5 64.991 46.137 66.174 50.5H56.825C58.009 46.137 59.81 43.5 61.5 43.5ZM73.347 50.5H68.236C67.61 48.001 66.757 45.816 65.684 44.227C68.763 45.303 71.429 47.532 73.347 50.5ZM57.316 44.227C56.243 45.817 55.39 48.001 54.764 50.5H49.653C51.571 47.532 54.237 45.303 57.316 44.227ZM46.5 61.5C46.5 58.22 47.247 55.151 48.529 52.5H54.322C53.779 55.333 53.5 58.447 53.5 61.5C53.5 64.553 53.779 67.667 54.322 70.5H48.529C47.247 67.849 46.5 64.78 46.5 61.5ZM49.653 72.5H54.764C55.39 74.999 56.243 77.184 57.316 78.773C54.237 77.697 51.571 75.468 49.653 72.5ZM65.684 78.773C66.757 77.183 67.61 74.999 68.236 72.5H73.347C71.429 75.468 68.763 77.697 65.684 78.773Z" fill="url(#paint3_radial_86_6647)"/>
<path d="M65.405 57.5L64.093 63.743L62.5 57.5H60.5L58.907 63.743L57.595 57.5H55.5L57.5 65.5H59.951C59.951 65.5 61.464 59.864 61.5 59.5C61.536 59.864 63.049 65.5 63.049 65.5H65.5L67.5 57.5H65.405Z" fill="white"/>
<path d="M53.405 57.5L52.093 63.743L50.5 57.5H48.5L46.907 63.743L45.595 57.5H43.5L45.5 65.5H47.951C47.951 65.5 49.464 59.864 49.5 59.5C49.536 59.864 51.049 65.5 51.049 65.5H53.5L55.5 57.5H53.405Z" fill="white"/>
<path d="M77.405 57.5L76.093 63.743L74.5 57.5H72.5L70.907 63.743L69.595 57.5H67.5L69.5 65.5H71.951C71.951 65.5 73.464 59.864 73.5 59.5C73.536 59.864 75.049 65.5 75.049 65.5H77.5L79.5 57.5H77.405Z" fill="white"/>
</g>
</g>
<rect x="30.5" y="30.5" width="62" height="62" rx="4" stroke="#E2E2E2" stroke-opacity="0.59" stroke-width="2"/>
</g>
<g id="Frame_3">
<rect x="99.5" y="102.5" width="60" height="60" rx="3" fill="url(#paint4_linear_86_6647)"/>
<rect x="99.5" y="102.5" width="60" height="60" rx="3" fill="white" fill-opacity="0.2"/>
<g id="event-track">
<path id="Vector_6" d="M107 148.903V118.202H146.474V148.903C146.474 150.11 145.487 151.096 144.281 151.096H109.193C107.987 151.096 107 150.11 107 148.903Z" fill="url(#paint5_linear_86_6647)"/>
<path id="Vector_7" d="M126.35 125.442L124.024 130.657L118.346 131.257C117.981 131.295 117.834 131.748 118.106 131.995L122.348 135.817L121.163 141.404C121.088 141.763 121.473 142.043 121.79 141.859L126.737 139.005L131.683 141.858C132.001 142.041 132.386 141.761 132.31 141.403L131.126 135.816L135.367 131.994C135.64 131.748 135.493 131.295 135.127 131.256L129.449 130.656L127.124 125.441C126.975 125.107 126.499 125.107 126.35 125.442Z" fill="white"/>
<path id="Vector_8" d="M146.474 113.816V120.394H107V113.816C107 112.609 107.987 111.623 109.193 111.623H144.281C145.487 111.623 146.474 112.609 146.474 113.816Z" fill="url(#paint6_linear_86_6647)"/>
<path id="Vector_9" opacity="0.05" d="M139.346 118.75C137.53 118.75 136.057 117.277 136.057 115.46V111.623H142.636V115.46C142.636 117.277 141.163 118.75 139.346 118.75Z" fill="black"/>
<path id="Vector_10" opacity="0.07" d="M139.347 117.927C137.984 117.927 136.879 116.823 136.879 115.46V111.623H141.814V115.46C141.814 116.823 140.709 117.927 139.347 117.927Z" fill="black"/>
<path id="Vector_11" opacity="0.05" d="M114.127 118.75C112.31 118.75 110.838 117.277 110.838 115.46V111.623H117.417V115.46C117.417 117.277 115.944 118.75 114.127 118.75Z" fill="black"/>
<path id="Vector_12" opacity="0.07" d="M114.127 117.927C112.764 117.927 111.66 116.823 111.66 115.46V111.623H116.594V115.46C116.594 116.823 115.49 117.927 114.127 117.927Z" fill="black"/>
<path id="Vector_13" d="M114.127 117.105C113.219 117.105 112.482 116.368 112.482 115.46V111.074C112.482 110.167 113.219 109.43 114.127 109.43C115.035 109.43 115.772 110.167 115.772 111.074V115.46C115.772 116.368 115.035 117.105 114.127 117.105Z" fill="#3CCBF4"/>
<path id="Vector_14" d="M139.347 117.105C138.439 117.105 137.702 116.368 137.702 115.46V111.074C137.702 110.167 138.439 109.43 139.347 109.43C140.254 109.43 140.991 110.167 140.991 111.074V115.46C140.991 116.368 140.254 117.105 139.347 117.105Z" fill="#3CCBF4"/>
<g id="Group 9">
<path id="Vector_15" opacity="0.2" d="M144.436 151.009C145.512 151.005 146.383 150.135 146.386 149.059V134.327C144.959 133.783 143.422 133.465 141.805 133.465C134.646 133.465 128.842 139.269 128.842 146.428C128.842 148.045 129.16 149.582 129.704 151.009H144.436Z" fill="url(#paint7_radial_86_6647)"/>
<g id="Ellipse" filter="url(#filter1_bd_86_6647)">
<circle cx="141.474" cy="145.043" r="10.5263" fill="url(#paint8_linear_86_6647)" shape-rendering="crispEdges"/>
<circle cx="141.474" cy="145.043" r="10.5263" fill="white" fill-opacity="0.8" shape-rendering="crispEdges"/>
</g>
<g id="Vector_16">
<path d="M147.193 142.648H140.124C139.955 142.648 139.817 142.501 139.817 142.321V141.666C139.817 141.486 139.955 141.339 140.124 141.339H147.193C147.362 141.339 147.5 141.486 147.5 141.666V142.321C147.5 142.501 147.362 142.648 147.193 142.648Z" fill="url(#paint9_linear_86_6647)"/>
<path d="M136.056 143.219L134.979 142.072C134.874 141.96 134.874 141.778 134.979 141.666L135.36 141.261C135.465 141.149 135.635 141.149 135.74 141.261L136.246 141.799L137.829 140.114C137.934 140.002 138.105 140.002 138.21 140.114L138.591 140.519C138.696 140.631 138.696 140.813 138.591 140.925L136.436 143.219C136.331 143.331 136.161 143.331 136.056 143.219Z" fill="#42A4EB"/>
<path d="M147.193 146.575H140.124C139.955 146.575 139.817 146.428 139.817 146.248V145.593C139.817 145.414 139.955 145.266 140.124 145.266H147.193C147.362 145.266 147.5 145.414 147.5 145.593V146.248C147.5 146.428 147.362 146.575 147.193 146.575Z" fill="url(#paint10_linear_86_6647)"/>
<path d="M136.056 147.146L134.979 145.999C134.874 145.887 134.874 145.705 134.979 145.593L135.36 145.188C135.465 145.076 135.635 145.076 135.74 145.188L136.246 145.727L137.829 144.041C137.934 143.929 138.105 143.929 138.21 144.041L138.591 144.446C138.696 144.558 138.696 144.74 138.591 144.852L136.436 147.146C136.331 147.258 136.161 147.258 136.056 147.146Z" fill="#42A4EB"/>
<path d="M147.193 150.503H140.124C139.955 150.503 139.817 150.355 139.817 150.175V149.521C139.817 149.341 139.955 149.193 140.124 149.193H147.193C147.362 149.193 147.5 149.341 147.5 149.521V150.175C147.5 150.355 147.362 150.503 147.193 150.503Z" fill="url(#paint11_linear_86_6647)"/>
<path d="M136.744 148.866C136.235 148.866 135.822 149.306 135.822 149.848C135.822 150.39 136.235 150.83 136.744 150.83C137.253 150.83 137.666 150.39 137.666 149.848C137.666 149.306 137.253 148.866 136.744 148.866Z" fill="url(#paint12_linear_86_6647)"/>
</g>
</g>
</g>
<rect x="98.5" y="101.5" width="62" height="62" rx="4" stroke="#E2E2E2" stroke-opacity="0.59" stroke-width="2"/>
</g>
</g>
</g>
</g>
<defs>
<filter id="filter0_d_86_6647" x="0.5" y="2.5" width="198" height="198" filterUnits="userSpaceOnUse" color-interpolation-filters="sRGB">
<feFlood flood-opacity="0" result="BackgroundImageFix"/>
<feColorMatrix in="SourceAlpha" type="matrix" values="0 0 0 0 0 0 0 0 0 0 0 0 0 0 0 0 0 0 127 0" result="hardAlpha"/>
<feOffset dy="4"/>
<feGaussianBlur stdDeviation="2"/>
<feComposite in2="hardAlpha" operator="out"/>
<feColorMatrix type="matrix" values="0 0 0 0 0 0 0 0 0 0 0 0 0 0 0 0 0 0 0.25 0"/>
<feBlend mode="normal" in2="BackgroundImageFix" result="effect1_dropShadow_86_6647"/>
<feBlend mode="normal" in="SourceGraphic" in2="effect1_dropShadow_86_6647" result="shape"/>
</filter>
<filter id="filter1_bd_86_6647" x="126.947" y="130.517" width="29.0526" height="31.0527" filterUnits="userSpaceOnUse" color-interpolation-filters="sRGB">
<feFlood flood-opacity="0" result="BackgroundImageFix"/>
<feGaussianBlur in="BackgroundImageFix" stdDeviation="2"/>
<feComposite in2="SourceAlpha" operator="in" result="effect1_backgroundBlur_86_6647"/>
<feColorMatrix in="SourceAlpha" type="matrix" values="0 0 0 0 0 0 0 0 0 0 0 0 0 0 0 0 0 0 127 0" result="hardAlpha"/>
<feOffset dy="2"/>
<feGaussianBlur stdDeviation="2"/>
<feComposite in2="hardAlpha" operator="out"/>
<feColorMatrix type="matrix" values="0 0 0 0 1 0 0 0 0 1 0 0 0 0 1 0 0 0 1 0"/>
<feBlend mode="normal" in2="effect1_backgroundBlur_86_6647" result="effect2_dropShadow_86_6647"/>
<feBlend mode="normal" in="SourceGraphic" in2="effect2_dropShadow_86_6647" result="shape"/>
</filter>
<linearGradient id="paint0_linear_86_6647" x1="99.5" y1="18.4677" x2="99.5" y2="176.532" gradientUnits="userSpaceOnUse">
<stop stop-color="white"/>
<stop offset="0.472222" stop-color="#0D5176" stop-opacity="0.527778"/>
<stop offset="0.940972" stop-color="#12A6F7" stop-opacity="0.465278"/>
</linearGradient>
<linearGradient id="paint1_linear_86_6647" x1="61.5" y1="31.5" x2="88.3" y2="99.9" gradientUnits="userSpaceOnUse">
<stop stop-color="#B8DFFC"/>
<stop offset="0.453125" stop-color="#E5EFF7" stop-opacity="0.98"/>
<stop offset="1" stop-color="#8FC3EB"/>
</linearGradient>
<radialGradient id="paint2_radial_86_6647" cx="0" cy="0" r="1" gradientUnits="userSpaceOnUse" gradientTransform="translate(47.832 46.681) scale(40.041)">
<stop stop-color="#6FCEFC"/>
<stop offset="1" stop-color="#167CF7"/>
</radialGradient>
<radialGradient id="paint3_radial_86_6647" cx="0" cy="0" r="1" gradientUnits="userSpaceOnUse" gradientTransform="translate(47.2255 45.98) scale(45.0092 40.155)">
<stop offset="0.001" stop-color="#54C0F5"/>
<stop offset="0.998" stop-color="#0B69DB"/>
</radialGradient>
<linearGradient id="paint4_linear_86_6647" x1="129.5" y1="102.5" x2="156.3" y2="170.9" gradientUnits="userSpaceOnUse">
<stop stop-color="#B8DFFC"/>
<stop offset="0.453125" stop-color="#E5EFF7" stop-opacity="0.98"/>
<stop offset="1" stop-color="#8FC3EB"/>
</linearGradient>
<linearGradient id="paint5_linear_86_6647" x1="107.454" y1="120.024" x2="139.144" y2="143.17" gradientUnits="userSpaceOnUse">
<stop stop-color="#28AFEA"/>
<stop offset="1" stop-color="#047ED6"/>
</linearGradient>
<linearGradient id="paint6_linear_86_6647" x1="107.461" y1="112.289" x2="145.594" y2="120.044" gradientUnits="userSpaceOnUse">
<stop stop-color="#0077D2"/>
<stop offset="1" stop-color="#0B59A2"/>
</linearGradient>
<radialGradient id="paint7_radial_86_6647" cx="0" cy="0" r="1" gradientUnits="userSpaceOnUse" gradientTransform="translate(141.553 146.281) scale(12.318)">
<stop offset="0.847"/>
<stop offset="1" stop-opacity="0"/>
</radialGradient>
<linearGradient id="paint8_linear_86_6647" x1="141.474" y1="134.517" x2="143.579" y2="162.412" gradientUnits="userSpaceOnUse">
<stop offset="0.0260417" stop-color="white"/>
<stop offset="0.494792" stop-color="white"/>
<stop offset="0.973958" stop-opacity="0.98"/>
</linearGradient>
<linearGradient id="paint9_linear_86_6647" x1="137.534" y1="125.79" x2="151.085" y2="128.32" gradientUnits="userSpaceOnUse">
<stop stop-color="#1D59B3"/>
<stop offset="1" stop-color="#195BBC"/>
</linearGradient>
<linearGradient id="paint10_linear_86_6647" x1="137.534" y1="125.79" x2="151.085" y2="128.32" gradientUnits="userSpaceOnUse">
<stop stop-color="#1D59B3"/>
<stop offset="1" stop-color="#195BBC"/>
</linearGradient>
<linearGradient id="paint11_linear_86_6647" x1="137.534" y1="125.79" x2="151.085" y2="128.32" gradientUnits="userSpaceOnUse">
<stop stop-color="#1D59B3"/>
<stop offset="1" stop-color="#195BBC"/>
</linearGradient>
<linearGradient id="paint12_linear_86_6647" x1="135.822" y1="149.848" x2="137.666" y2="149.848" gradientUnits="userSpaceOnUse">
<stop stop-color="#1D59B3"/>
<stop offset="1" stop-color="#195BBC"/>
</linearGradient>
</defs>
</svg>
