<svg width="195" height="195" viewBox="0 0 195 195" fill="none" xmlns="http://www.w3.org/2000/svg">
<g id="icon=icon-plain">
<g id="icon-plain">
<g id="Frame" filter="url(#filter0_d_86_6643)">
<g id="Vector">
<path d="M170.887 10H24.1129C16.3186 10 10 16.3186 10 24.1129V170.887C10 178.681 16.3186 185 24.1129 185H170.887C178.681 185 185 178.681 185 170.887V24.1129C185 16.3186 178.681 10 170.887 10Z" fill="url(#paint0_linear_86_6643)" fill-opacity="0.2"/>
<path d="M24.1129 10.5H170.887C178.405 10.5 184.5 16.5948 184.5 24.1129V170.887C184.5 178.405 178.405 184.5 170.887 184.5H24.1129C16.5948 184.5 10.5 178.405 10.5 170.887V24.1129C10.5 16.5947 16.5947 10.5 24.1129 10.5Z" stroke="#F7F7F7" stroke-opacity="0.27"/>
</g>
</g>
<g id="combo">
<g id="Vector_2">
<path d="M69.3327 80.9889L63.3408 74.997C59.0262 81.5102 56.5 89.3112 56.5 97.7097C56.5 105.268 58.5461 112.346 62.1025 118.434C62.7062 119.469 64.1506 119.615 64.9975 118.766L68.3767 115.387C68.9433 114.82 69.0484 113.959 68.6693 113.254C66.1781 108.62 64.742 103.339 64.742 97.7097C64.742 91.5983 66.4336 85.897 69.3327 80.9889Z" fill="#50E6FF" fill-opacity="0.5"/>
<path d="M130.678 97.7097C130.678 103.821 128.986 109.523 126.087 114.431L132.079 120.423C136.394 113.91 138.92 106.106 138.92 97.7097C138.92 90.1519 136.874 83.0741 133.317 76.9854C132.714 75.951 131.269 75.8068 130.422 76.6536L127.043 80.0328C126.476 80.5995 126.371 81.4607 126.75 82.1654C129.242 86.7995 130.678 92.0805 130.678 97.7097Z" fill="#199BE2" fill-opacity="0.5"/>
<path d="M80.0328 68.3767C80.5995 68.9433 81.4607 69.0484 82.1654 68.6693C86.7995 66.1781 92.0805 64.742 97.7097 64.742C103.821 64.742 109.523 66.4336 114.431 69.3327L120.425 63.3388C113.91 59.0262 106.109 56.5 97.7097 56.5C90.189 56.5 83.1462 58.5255 77.0781 62.0489C76.0046 62.6732 75.7779 64.1218 76.6557 64.9995L80.0328 68.3767Z" fill="#35C1F1" fill-opacity="0.5"/>
<path d="M115.387 127.043C114.82 126.476 113.959 126.371 113.254 126.75C108.62 129.242 103.339 130.678 97.7097 130.678C91.5983 130.678 85.897 128.986 80.9889 126.087L74.997 132.079C81.5102 136.394 89.3132 138.92 97.7097 138.92C105.268 138.92 112.346 136.874 118.434 133.317C119.469 132.714 119.615 131.269 118.766 130.422L115.387 127.043Z" fill="#0078D4" fill-opacity="0.5"/>
<path d="M122.3 73.1384L112.339 72.7964C111.635 72.7717 111.284 71.9289 111.769 71.4138L121.364 61.1629C121.863 60.6292 122.757 60.963 122.786 61.6925L123.2 72.236C123.219 72.7408 122.805 73.1549 122.3 73.1384Z" fill="#35C1F1" fill-opacity="0.5"/>
<path d="M73.1199 122.281L83.0803 122.623C83.785 122.648 84.1352 123.491 83.651 124.006L74.0554 134.257C73.5567 134.79 72.6625 134.457 72.6336 133.727L72.2195 123.184C72.2009 122.679 72.6151 122.265 73.1199 122.281Z" fill="#0078D4" fill-opacity="0.5"/>
<path d="M122.281 122.3L122.623 112.339C122.648 111.635 123.491 111.284 124.006 111.769L134.257 121.364C134.79 121.863 134.457 122.757 133.727 122.786L123.184 123.2C122.679 123.219 122.265 122.805 122.281 122.3Z" fill="#199BE2" fill-opacity="0.5"/>
<path d="M73.1384 73.1199L72.7964 83.0803C72.7717 83.785 71.9289 84.1352 71.4138 83.651L61.1609 74.0554C60.6272 73.5567 60.961 72.6625 61.6904 72.6336L72.2339 72.2195C72.7408 72.2009 73.1549 72.6151 73.1384 73.1199Z" fill="#50E6FF" fill-opacity="0.5"/>
</g>
<g id="Frame_2">
<rect x="29.5" y="31.5" width="60" height="60" rx="3" fill="url(#paint1_linear_86_6643)"/>
<rect x="29.5" y="31.5" width="60" height="60" rx="3" fill="white" fill-opacity="0.2"/>
<g id="Group">
<g id="Vector_3">
<path d="M39.5 61.5C39.5 50.455 48.455 41.5 59.5 41.5C70.545 41.5 79.5 50.455 79.5 61.5C79.5 72.545 70.545 81.5 59.5 81.5C48.455 81.5 39.5 72.545 39.5 61.5Z" fill="url(#paint2_radial_86_6643)"/>
<path d="M76.5 61.5C76.5 58.261 75.827 55.209 74.661 52.5H77.343C76.995 51.811 76.618 51.14 76.195 50.5H73.683C70.638 45.084 65.421 41.5 59.5 41.5C53.579 41.5 48.362 45.084 45.317 50.5H42.805C42.382 51.14 42.005 51.811 41.657 52.5H44.339C43.173 55.209 42.5 58.261 42.5 61.5C42.5 64.739 43.173 67.791 44.339 70.5H41.657C42.005 71.189 42.382 71.86 42.805 72.5H45.317C48.362 77.916 53.579 81.5 59.5 81.5C65.421 81.5 70.638 77.916 73.683 72.5H76.195C76.618 71.86 76.995 71.189 77.343 70.5H74.661C75.827 67.791 76.5 64.739 76.5 61.5ZM74.5 61.5C74.5 64.78 73.753 67.849 72.471 70.5H66.678C67.221 67.667 67.5 64.553 67.5 61.5C67.5 58.447 67.221 55.333 66.678 52.5H72.471C73.753 55.151 74.5 58.22 74.5 61.5ZM59.5 79.5C57.81 79.5 56.009 76.863 54.826 72.5H64.175C62.991 76.863 61.19 79.5 59.5 79.5ZM54.348 70.5C53.821 67.913 53.5 64.871 53.5 61.5C53.5 58.129 53.821 55.087 54.348 52.5H64.652C65.179 55.087 65.5 58.129 65.5 61.5C65.5 64.871 65.179 67.913 64.652 70.5H54.348ZM59.5 43.5C61.19 43.5 62.991 46.137 64.174 50.5H54.825C56.009 46.137 57.81 43.5 59.5 43.5ZM71.347 50.5H66.236C65.61 48.001 64.757 45.816 63.684 44.227C66.763 45.303 69.429 47.532 71.347 50.5ZM55.316 44.227C54.243 45.817 53.39 48.001 52.764 50.5H47.653C49.571 47.532 52.237 45.303 55.316 44.227ZM44.5 61.5C44.5 58.22 45.247 55.151 46.529 52.5H52.322C51.779 55.333 51.5 58.447 51.5 61.5C51.5 64.553 51.779 67.667 52.322 70.5H46.529C45.247 67.849 44.5 64.78 44.5 61.5ZM47.653 72.5H52.764C53.39 74.999 54.243 77.184 55.316 78.773C52.237 77.697 49.571 75.468 47.653 72.5ZM63.684 78.773C64.757 77.183 65.61 74.999 66.236 72.5H71.347C69.429 75.468 66.763 77.697 63.684 78.773Z" fill="url(#paint3_radial_86_6643)"/>
<path d="M63.405 57.5L62.093 63.743L60.5 57.5H58.5L56.907 63.743L55.595 57.5H53.5L55.5 65.5H57.951C57.951 65.5 59.464 59.864 59.5 59.5C59.536 59.864 61.049 65.5 61.049 65.5H63.5L65.5 57.5H63.405Z" fill="white"/>
<path d="M51.405 57.5L50.093 63.743L48.5 57.5H46.5L44.907 63.743L43.595 57.5H41.5L43.5 65.5H45.951C45.951 65.5 47.464 59.864 47.5 59.5C47.536 59.864 49.049 65.5 49.049 65.5H51.5L53.5 57.5H51.405Z" fill="white"/>
<path d="M75.405 57.5L74.093 63.743L72.5 57.5H70.5L68.907 63.743L67.595 57.5H65.5L67.5 65.5H69.951C69.951 65.5 71.464 59.864 71.5 59.5C71.536 59.864 73.049 65.5 73.049 65.5H75.5L77.5 57.5H75.405Z" fill="white"/>
</g>
</g>
<rect x="28.5" y="30.5" width="62" height="62" rx="4" stroke="#E2E2E2" stroke-opacity="0.59" stroke-width="2"/>
</g>
<g id="Frame_3">
<rect x="97.5" y="102.5" width="60" height="60" rx="3" fill="url(#paint4_linear_86_6643)"/>
<rect x="97.5" y="102.5" width="60" height="60" rx="3" fill="white" fill-opacity="0.2"/>
<g id="event-track">
<path id="Vector_4" d="M105 148.903V118.202H144.474V148.903C144.474 150.11 143.487 151.096 142.281 151.096H107.193C105.987 151.096 105 150.11 105 148.903Z" fill="url(#paint5_linear_86_6643)"/>
<path id="Vector_5" d="M124.35 125.442L122.024 130.657L116.346 131.257C115.981 131.295 115.834 131.748 116.106 131.995L120.348 135.817L119.163 141.404C119.088 141.763 119.473 142.043 119.79 141.859L124.737 139.005L129.683 141.858C130.001 142.041 130.386 141.761 130.31 141.403L129.126 135.816L133.367 131.994C133.64 131.748 133.493 131.295 133.127 131.256L127.449 130.656L125.124 125.441C124.975 125.107 124.499 125.107 124.35 125.442Z" fill="white"/>
<path id="Vector_6" d="M144.474 113.816V120.394H105V113.816C105 112.609 105.987 111.623 107.193 111.623H142.281C143.487 111.623 144.474 112.609 144.474 113.816Z" fill="url(#paint6_linear_86_6643)"/>
<path id="Vector_7" opacity="0.05" d="M137.346 118.75C135.53 118.75 134.057 117.277 134.057 115.46V111.623H140.636V115.46C140.636 117.277 139.163 118.75 137.346 118.75Z" fill="black"/>
<path id="Vector_8" opacity="0.07" d="M137.347 117.927C135.984 117.927 134.879 116.823 134.879 115.46V111.623H139.814V115.46C139.814 116.823 138.709 117.927 137.347 117.927Z" fill="black"/>
<path id="Vector_9" opacity="0.05" d="M112.127 118.75C110.31 118.75 108.838 117.277 108.838 115.46V111.623H115.417V115.46C115.417 117.277 113.944 118.75 112.127 118.75Z" fill="black"/>
<path id="Vector_10" opacity="0.07" d="M112.127 117.927C110.764 117.927 109.66 116.823 109.66 115.46V111.623H114.594V115.46C114.594 116.823 113.49 117.927 112.127 117.927Z" fill="black"/>
<path id="Vector_11" d="M112.127 117.105C111.219 117.105 110.482 116.368 110.482 115.46V111.074C110.482 110.167 111.219 109.43 112.127 109.43C113.035 109.43 113.772 110.167 113.772 111.074V115.46C113.772 116.368 113.035 117.105 112.127 117.105Z" fill="#3CCBF4"/>
<path id="Vector_12" d="M137.347 117.105C136.439 117.105 135.702 116.368 135.702 115.46V111.074C135.702 110.167 136.439 109.43 137.347 109.43C138.254 109.43 138.991 110.167 138.991 111.074V115.46C138.991 116.368 138.254 117.105 137.347 117.105Z" fill="#3CCBF4"/>
<g id="Group 9">
<path id="Vector_13" opacity="0.2" d="M142.436 151.009C143.512 151.005 144.383 150.135 144.386 149.059V134.327C142.959 133.783 141.422 133.465 139.805 133.465C132.646 133.465 126.842 139.269 126.842 146.428C126.842 148.045 127.16 149.582 127.704 151.009H142.436Z" fill="url(#paint7_radial_86_6643)"/>
<g id="Ellipse" filter="url(#filter1_bd_86_6643)">
<circle cx="139.474" cy="145.043" r="10.5263" fill="url(#paint8_linear_86_6643)" shape-rendering="crispEdges"/>
<circle cx="139.474" cy="145.043" r="10.5263" fill="white" fill-opacity="0.8" shape-rendering="crispEdges"/>
</g>
<g id="Vector_14">
<path d="M145.193 142.648H138.124C137.955 142.648 137.817 142.501 137.817 142.321V141.666C137.817 141.486 137.955 141.339 138.124 141.339H145.193C145.362 141.339 145.5 141.486 145.5 141.666V142.321C145.5 142.501 145.362 142.648 145.193 142.648Z" fill="url(#paint9_linear_86_6643)"/>
<path d="M134.056 143.219L132.979 142.072C132.874 141.96 132.874 141.778 132.979 141.666L133.36 141.261C133.465 141.149 133.635 141.149 133.74 141.261L134.246 141.799L135.829 140.114C135.934 140.002 136.105 140.002 136.21 140.114L136.591 140.519C136.696 140.631 136.696 140.813 136.591 140.925L134.436 143.219C134.331 143.331 134.161 143.331 134.056 143.219Z" fill="#42A4EB"/>
<path d="M145.193 146.575H138.124C137.955 146.575 137.817 146.428 137.817 146.248V145.593C137.817 145.414 137.955 145.266 138.124 145.266H145.193C145.362 145.266 145.5 145.414 145.5 145.593V146.248C145.5 146.428 145.362 146.575 145.193 146.575Z" fill="url(#paint10_linear_86_6643)"/>
<path d="M134.056 147.146L132.979 145.999C132.874 145.887 132.874 145.705 132.979 145.593L133.36 145.188C133.465 145.076 133.635 145.076 133.74 145.188L134.246 145.727L135.829 144.041C135.934 143.929 136.105 143.929 136.21 144.041L136.591 144.446C136.696 144.558 136.696 144.74 136.591 144.852L134.436 147.146C134.331 147.258 134.161 147.258 134.056 147.146Z" fill="#42A4EB"/>
<path d="M145.193 150.503H138.124C137.955 150.503 137.817 150.355 137.817 150.175V149.521C137.817 149.341 137.955 149.193 138.124 149.193H145.193C145.362 149.193 145.5 149.341 145.5 149.521V150.175C145.5 150.355 145.362 150.503 145.193 150.503Z" fill="url(#paint11_linear_86_6643)"/>
<path d="M134.744 148.866C134.235 148.866 133.822 149.306 133.822 149.848C133.822 150.39 134.235 150.83 134.744 150.83C135.253 150.83 135.666 150.39 135.666 149.848C135.666 149.306 135.253 148.866 134.744 148.866Z" fill="url(#paint12_linear_86_6643)"/>
</g>
</g>
</g>
<rect x="96.5" y="101.5" width="62" height="62" rx="4" stroke="#E2E2E2" stroke-opacity="0.59" stroke-width="2"/>
</g>
</g>
</g>
</g>
<defs>
<filter id="filter0_d_86_6643" x="6" y="10" width="183" height="183" filterUnits="userSpaceOnUse" color-interpolation-filters="sRGB">
<feFlood flood-opacity="0" result="BackgroundImageFix"/>
<feColorMatrix in="SourceAlpha" type="matrix" values="0 0 0 0 0 0 0 0 0 0 0 0 0 0 0 0 0 0 127 0" result="hardAlpha"/>
<feOffset dy="4"/>
<feGaussianBlur stdDeviation="2"/>
<feComposite in2="hardAlpha" operator="out"/>
<feColorMatrix type="matrix" values="0 0 0 0 0 0 0 0 0 0 0 0 0 0 0 0 0 0 0.25 0"/>
<feBlend mode="normal" in2="BackgroundImageFix" result="effect1_dropShadow_86_6643"/>
<feBlend mode="normal" in="SourceGraphic" in2="effect1_dropShadow_86_6643" result="shape"/>
</filter>
<filter id="filter1_bd_86_6643" x="124.947" y="130.517" width="29.0526" height="31.0527" filterUnits="userSpaceOnUse" color-interpolation-filters="sRGB">
<feFlood flood-opacity="0" result="BackgroundImageFix"/>
<feGaussianBlur in="BackgroundImageFix" stdDeviation="2"/>
<feComposite in2="SourceAlpha" operator="in" result="effect1_backgroundBlur_86_6643"/>
<feColorMatrix in="SourceAlpha" type="matrix" values="0 0 0 0 0 0 0 0 0 0 0 0 0 0 0 0 0 0 127 0" result="hardAlpha"/>
<feOffset dy="2"/>
<feGaussianBlur stdDeviation="2"/>
<feComposite in2="hardAlpha" operator="out"/>
<feColorMatrix type="matrix" values="0 0 0 0 1 0 0 0 0 1 0 0 0 0 1 0 0 0 1 0"/>
<feBlend mode="normal" in2="effect1_backgroundBlur_86_6643" result="effect2_dropShadow_86_6643"/>
<feBlend mode="normal" in="SourceGraphic" in2="effect2_dropShadow_86_6643" result="shape"/>
</filter>
<linearGradient id="paint0_linear_86_6643" x1="97.5" y1="18.4677" x2="97.5" y2="176.532" gradientUnits="userSpaceOnUse">
<stop stop-color="white"/>
<stop offset="0.472222" stop-color="#0D5176" stop-opacity="0.527778"/>
<stop offset="0.940972" stop-color="#12A6F7" stop-opacity="0.465278"/>
</linearGradient>
<linearGradient id="paint1_linear_86_6643" x1="59.5" y1="31.5" x2="86.3" y2="99.9" gradientUnits="userSpaceOnUse">
<stop stop-color="#B8DFFC"/>
<stop offset="0.453125" stop-color="#E5EFF7" stop-opacity="0.98"/>
<stop offset="1" stop-color="#8FC3EB"/>
</linearGradient>
<radialGradient id="paint2_radial_86_6643" cx="0" cy="0" r="1" gradientUnits="userSpaceOnUse" gradientTransform="translate(45.832 46.681) scale(40.041)">
<stop stop-color="#6FCEFC"/>
<stop offset="1" stop-color="#167CF7"/>
</radialGradient>
<radialGradient id="paint3_radial_86_6643" cx="0" cy="0" r="1" gradientUnits="userSpaceOnUse" gradientTransform="translate(45.2255 45.98) scale(45.0092 40.155)">
<stop offset="0.001" stop-color="#54C0F5"/>
<stop offset="0.998" stop-color="#0B69DB"/>
</radialGradient>
<linearGradient id="paint4_linear_86_6643" x1="127.5" y1="102.5" x2="154.3" y2="170.9" gradientUnits="userSpaceOnUse">
<stop stop-color="#B8DFFC"/>
<stop offset="0.453125" stop-color="#E5EFF7" stop-opacity="0.98"/>
<stop offset="1" stop-color="#8FC3EB"/>
</linearGradient>
<linearGradient id="paint5_linear_86_6643" x1="105.454" y1="120.024" x2="137.144" y2="143.17" gradientUnits="userSpaceOnUse">
<stop stop-color="#28AFEA"/>
<stop offset="1" stop-color="#047ED6"/>
</linearGradient>
<linearGradient id="paint6_linear_86_6643" x1="105.461" y1="112.289" x2="143.594" y2="120.044" gradientUnits="userSpaceOnUse">
<stop stop-color="#0077D2"/>
<stop offset="1" stop-color="#0B59A2"/>
</linearGradient>
<radialGradient id="paint7_radial_86_6643" cx="0" cy="0" r="1" gradientUnits="userSpaceOnUse" gradientTransform="translate(139.553 146.281) scale(12.318)">
<stop offset="0.847"/>
<stop offset="1" stop-opacity="0"/>
</radialGradient>
<linearGradient id="paint8_linear_86_6643" x1="139.474" y1="134.517" x2="141.579" y2="162.412" gradientUnits="userSpaceOnUse">
<stop offset="0.0260417" stop-color="white"/>
<stop offset="0.494792" stop-color="white"/>
<stop offset="0.973958" stop-opacity="0.98"/>
</linearGradient>
<linearGradient id="paint9_linear_86_6643" x1="135.534" y1="125.79" x2="149.085" y2="128.32" gradientUnits="userSpaceOnUse">
<stop stop-color="#1D59B3"/>
<stop offset="1" stop-color="#195BBC"/>
</linearGradient>
<linearGradient id="paint10_linear_86_6643" x1="135.534" y1="125.79" x2="149.085" y2="128.32" gradientUnits="userSpaceOnUse">
<stop stop-color="#1D59B3"/>
<stop offset="1" stop-color="#195BBC"/>
</linearGradient>
<linearGradient id="paint11_linear_86_6643" x1="135.534" y1="125.79" x2="149.085" y2="128.32" gradientUnits="userSpaceOnUse">
<stop stop-color="#1D59B3"/>
<stop offset="1" stop-color="#195BBC"/>
</linearGradient>
<linearGradient id="paint12_linear_86_6643" x1="133.822" y1="149.848" x2="135.666" y2="149.848" gradientUnits="userSpaceOnUse">
<stop stop-color="#1D59B3"/>
<stop offset="1" stop-color="#195BBC"/>
</linearGradient>
</defs>
</svg>
