<svg width="195" height="195" viewBox="0 0 195 195" fill="none" xmlns="http://www.w3.org/2000/svg">
<g id="icon=icon-blank">
<g id="icon-blank">
<g id="icon-blank_2">
<g id="combo">
<g id="Vector">
<path d="M69.3327 80.9889L63.3408 74.997C59.0262 81.5102 56.5 89.3112 56.5 97.7097C56.5 105.268 58.5461 112.346 62.1025 118.434C62.7062 119.469 64.1506 119.615 64.9975 118.766L68.3767 115.387C68.9433 114.82 69.0484 113.959 68.6693 113.254C66.1781 108.62 64.742 103.339 64.742 97.7097C64.742 91.5983 66.4336 85.897 69.3327 80.9889Z" fill="#50E6FF" fill-opacity="0.5"/>
<path d="M130.678 97.7097C130.678 103.821 128.986 109.523 126.087 114.431L132.079 120.423C136.394 113.91 138.92 106.106 138.92 97.7097C138.92 90.1519 136.874 83.0741 133.317 76.9854C132.714 75.951 131.269 75.8068 130.422 76.6536L127.043 80.0328C126.476 80.5995 126.371 81.4607 126.75 82.1654C129.242 86.7995 130.678 92.0805 130.678 97.7097Z" fill="#199BE2" fill-opacity="0.5"/>
<path d="M80.0328 68.3767C80.5995 68.9433 81.4607 69.0484 82.1654 68.6693C86.7995 66.1781 92.0805 64.742 97.7097 64.742C103.821 64.742 109.523 66.4336 114.431 69.3327L120.425 63.3388C113.91 59.0262 106.109 56.5 97.7097 56.5C90.189 56.5 83.1462 58.5255 77.0781 62.0489C76.0046 62.6732 75.7779 64.1218 76.6557 64.9995L80.0328 68.3767Z" fill="#35C1F1" fill-opacity="0.5"/>
<path d="M115.387 127.043C114.82 126.476 113.959 126.371 113.254 126.75C108.62 129.242 103.339 130.678 97.7097 130.678C91.5983 130.678 85.897 128.986 80.9889 126.087L74.997 132.079C81.5102 136.394 89.3132 138.92 97.7097 138.92C105.268 138.92 112.346 136.874 118.434 133.317C119.469 132.714 119.615 131.269 118.766 130.422L115.387 127.043Z" fill="#0078D4" fill-opacity="0.5"/>
<path d="M122.3 73.1384L112.339 72.7964C111.635 72.7717 111.284 71.9289 111.769 71.4138L121.364 61.1629C121.863 60.6292 122.757 60.963 122.786 61.6925L123.2 72.236C123.219 72.7408 122.805 73.1549 122.3 73.1384Z" fill="#35C1F1" fill-opacity="0.5"/>
<path d="M73.1199 122.281L83.0803 122.623C83.785 122.648 84.1352 123.491 83.651 124.006L74.0554 134.257C73.5567 134.79 72.6625 134.457 72.6336 133.727L72.2195 123.184C72.2009 122.679 72.6151 122.265 73.1199 122.281Z" fill="#0078D4" fill-opacity="0.5"/>
<path d="M122.281 122.3L122.623 112.339C122.648 111.635 123.491 111.284 124.006 111.769L134.257 121.364C134.79 121.863 134.457 122.757 133.727 122.786L123.184 123.2C122.679 123.219 122.265 122.805 122.281 122.3Z" fill="#199BE2" fill-opacity="0.5"/>
<path d="M73.1384 73.1199L72.7964 83.0803C72.7717 83.785 71.9289 84.1352 71.4138 83.651L61.1609 74.0554C60.6272 73.5567 60.961 72.6625 61.6904 72.6336L72.2339 72.2195C72.7408 72.2009 73.1549 72.6151 73.1384 73.1199Z" fill="#50E6FF" fill-opacity="0.5"/>
</g>
<g id="Frame">
<rect x="29.5" y="31.5" width="60" height="60" rx="3" fill="url(#paint0_linear_87_5141)"/>
<rect x="29.5" y="31.5" width="60" height="60" rx="3" fill="white" fill-opacity="0.2"/>
<g id="Group">
<g id="Vector_2">
<path d="M39.5 61.5C39.5 50.455 48.455 41.5 59.5 41.5C70.545 41.5 79.5 50.455 79.5 61.5C79.5 72.545 70.545 81.5 59.5 81.5C48.455 81.5 39.5 72.545 39.5 61.5Z" fill="url(#paint1_radial_87_5141)"/>
<path d="M76.5 61.5C76.5 58.261 75.827 55.209 74.661 52.5H77.343C76.995 51.811 76.618 51.14 76.195 50.5H73.683C70.638 45.084 65.421 41.5 59.5 41.5C53.579 41.5 48.362 45.084 45.317 50.5H42.805C42.382 51.14 42.005 51.811 41.657 52.5H44.339C43.173 55.209 42.5 58.261 42.5 61.5C42.5 64.739 43.173 67.791 44.339 70.5H41.657C42.005 71.189 42.382 71.86 42.805 72.5H45.317C48.362 77.916 53.579 81.5 59.5 81.5C65.421 81.5 70.638 77.916 73.683 72.5H76.195C76.618 71.86 76.995 71.189 77.343 70.5H74.661C75.827 67.791 76.5 64.739 76.5 61.5ZM74.5 61.5C74.5 64.78 73.753 67.849 72.471 70.5H66.678C67.221 67.667 67.5 64.553 67.5 61.5C67.5 58.447 67.221 55.333 66.678 52.5H72.471C73.753 55.151 74.5 58.22 74.5 61.5ZM59.5 79.5C57.81 79.5 56.009 76.863 54.826 72.5H64.175C62.991 76.863 61.19 79.5 59.5 79.5ZM54.348 70.5C53.821 67.913 53.5 64.871 53.5 61.5C53.5 58.129 53.821 55.087 54.348 52.5H64.652C65.179 55.087 65.5 58.129 65.5 61.5C65.5 64.871 65.179 67.913 64.652 70.5H54.348ZM59.5 43.5C61.19 43.5 62.991 46.137 64.174 50.5H54.825C56.009 46.137 57.81 43.5 59.5 43.5ZM71.347 50.5H66.236C65.61 48.001 64.757 45.816 63.684 44.227C66.763 45.303 69.429 47.532 71.347 50.5ZM55.316 44.227C54.243 45.817 53.39 48.001 52.764 50.5H47.653C49.571 47.532 52.237 45.303 55.316 44.227ZM44.5 61.5C44.5 58.22 45.247 55.151 46.529 52.5H52.322C51.779 55.333 51.5 58.447 51.5 61.5C51.5 64.553 51.779 67.667 52.322 70.5H46.529C45.247 67.849 44.5 64.78 44.5 61.5ZM47.653 72.5H52.764C53.39 74.999 54.243 77.184 55.316 78.773C52.237 77.697 49.571 75.468 47.653 72.5ZM63.684 78.773C64.757 77.183 65.61 74.999 66.236 72.5H71.347C69.429 75.468 66.763 77.697 63.684 78.773Z" fill="url(#paint2_radial_87_5141)"/>
<path d="M63.405 57.5L62.093 63.743L60.5 57.5H58.5L56.907 63.743L55.595 57.5H53.5L55.5 65.5H57.951C57.951 65.5 59.464 59.864 59.5 59.5C59.536 59.864 61.049 65.5 61.049 65.5H63.5L65.5 57.5H63.405Z" fill="white"/>
<path d="M51.405 57.5L50.093 63.743L48.5 57.5H46.5L44.907 63.743L43.595 57.5H41.5L43.5 65.5H45.951C45.951 65.5 47.464 59.864 47.5 59.5C47.536 59.864 49.049 65.5 49.049 65.5H51.5L53.5 57.5H51.405Z" fill="white"/>
<path d="M75.405 57.5L74.093 63.743L72.5 57.5H70.5L68.907 63.743L67.595 57.5H65.5L67.5 65.5H69.951C69.951 65.5 71.464 59.864 71.5 59.5C71.536 59.864 73.049 65.5 73.049 65.5H75.5L77.5 57.5H75.405Z" fill="white"/>
</g>
</g>
<rect x="28.5" y="30.5" width="62" height="62" rx="4" stroke="#E2E2E2" stroke-opacity="0.59" stroke-width="2"/>
</g>
<g id="Frame_2">
<rect x="97.5" y="102.5" width="60" height="60" rx="3" fill="url(#paint3_linear_87_5141)"/>
<rect x="97.5" y="102.5" width="60" height="60" rx="3" fill="white" fill-opacity="0.2"/>
<g id="Group 15" filter="url(#filter0_bd_87_5141)">
<path id="Vector_3" d="M105 148.25V120.125L127.5 117.875L150 120.125L134.25 150.5H107.25C106.012 150.5 105 149.488 105 148.25Z" fill="#88B0CE"/>
<path id="Vector_4" d="M134.25 150.5H147.75C148.993 150.5 150 149.493 150 148.25V120.125H134.25V150.5Z" fill="#ECEEEF"/>
<path id="Vector_5" d="M150 116.808V120.269H105V116.808C105 115.538 106.012 114.5 107.25 114.5H147.75C148.988 114.5 150 115.538 150 116.808ZM146.625 127.769V126.615C146.625 126.297 146.373 126.038 146.062 126.038H138.188C137.877 126.038 137.625 126.297 137.625 126.615V127.769C137.625 128.088 137.877 128.346 138.188 128.346H146.062C146.373 128.346 146.625 128.088 146.625 127.769ZM146.625 135.846V134.692C146.625 134.374 146.373 134.115 146.062 134.115H138.188C137.877 134.115 137.625 134.374 137.625 134.692V135.846C137.625 136.165 137.877 136.423 138.188 136.423H146.062C146.373 136.423 146.625 136.165 146.625 135.846ZM146.625 143.923V142.769C146.625 142.451 146.373 142.192 146.062 142.192H138.188C137.877 142.192 137.625 142.451 137.625 142.769V143.923C137.625 144.242 137.877 144.5 138.188 144.5H146.062C146.373 144.5 146.625 144.242 146.625 143.923Z" fill="url(#paint4_linear_87_5141)"/>
<rect id="Rectangle 5" x="137" y="124.5" width="11" height="23" fill="#ECEEEF"/>
<g id="Group 11">
<rect id="Rectangle 4" x="138" y="125.5" width="8.36364" height="10.2222" rx="1" fill="url(#paint5_linear_87_5141)"/>
<path id="Vector_6" d="M140.788 127.823C140.788 127.053 141.412 126.429 142.182 126.429C142.952 126.429 143.576 127.053 143.576 127.823C143.576 128.593 142.952 129.217 142.182 129.217C141.412 129.217 140.788 128.593 140.788 127.823ZM142.182 130.146C140.899 130.146 139.859 131.187 139.859 132.47V134.328C139.859 134.585 140.067 134.793 140.323 134.793H144.04C144.297 134.793 144.505 134.585 144.505 134.328V132.47C144.505 131.187 143.465 130.146 142.182 130.146Z" fill="url(#paint6_linear_87_5141)"/>
</g>
<rect id="Rectangle 6" x="138" y="137.5" width="9" height="1" rx="0.5" fill="#D9D9D9"/>
<rect id="Rectangle 7" x="138" y="139.5" width="8" height="1" rx="0.5" fill="#D9D9D9"/>
<rect id="Rectangle 8" x="138" y="144.5" width="5" height="1" rx="0.5" fill="#D9D9D9"/>
<g id="Group 12">
<path id="Vector_7" d="M125.858 124.5H111.954C110.875 124.5 110 125.375 110 126.454V141.546C110 142.625 110.875 143.5 111.954 143.5H125.858C126.937 143.5 127.812 142.625 127.812 141.546V126.454C127.812 125.375 126.937 124.5 125.858 124.5Z" fill="white" fill-opacity="0.3"/>
<path id="Vector_8" d="M123.524 130.957H116.863V128.062H123.277C123.414 128.062 123.524 128.18 123.524 128.326V130.957Z" fill="url(#paint7_linear_87_5141)" fill-opacity="0.8"/>
<path id="Vector_9" d="M121.057 130.957H114.889C114.753 130.957 114.642 130.839 114.642 130.694V128.326C114.642 128.18 114.753 128.062 114.889 128.062H121.057C121.193 128.062 121.304 128.18 121.304 128.326V130.694C121.304 130.839 121.193 130.957 121.057 130.957Z" fill="url(#paint8_linear_87_5141)"/>
<path id="Vector_10" d="M123.524 137.536H120.81V130.431H123.771C123.907 130.431 124.018 130.549 124.018 130.694V137.01C124.018 137.301 123.797 137.536 123.524 137.536Z" fill="url(#paint9_linear_87_5141)"/>
<path id="Vector_11" d="M120.81 137.536H114.642C114.37 137.536 114.149 137.301 114.149 137.01V130.694C114.149 130.549 114.26 130.431 114.396 130.431H121.304V137.01C121.304 137.301 121.083 137.536 120.81 137.536Z" fill="url(#paint10_linear_87_5141)"/>
<path id="Vector_12" d="M121.304 130.431H114.302C114.208 130.431 114.123 130.487 114.081 130.576L113.498 131.819C113.457 131.907 113.517 132.01 113.609 132.01H120.411C120.505 132.01 120.59 131.953 120.632 131.864L121.304 130.431Z" fill="url(#paint11_linear_87_5141)" fill-opacity="0.8"/>
<path id="Vector_13" d="M121.304 130.431H123.865C123.959 130.431 124.044 130.487 124.086 130.576L124.668 131.819C124.709 131.907 124.65 132.01 124.558 132.01H122.196C122.103 132.01 122.017 131.953 121.976 131.864L121.304 130.431Z" fill="url(#paint12_linear_87_5141)"/>
<path id="Vector_14" d="M122.757 140.333H124.951C125.153 140.333 125.317 140.509 125.317 140.725V141.508C125.317 141.725 125.153 141.9 124.951 141.9H122.757C122.555 141.9 122.391 141.725 122.391 141.508V140.725C122.391 140.509 122.555 140.333 122.757 140.333Z" fill="white"/>
<path id="Vector_15" d="M118.11 140.333H120.304C120.506 140.333 120.67 140.509 120.67 140.725V141.508C120.67 141.725 120.506 141.9 120.304 141.9H118.11C117.908 141.9 117.745 141.725 117.745 141.508V140.725C117.745 140.509 117.908 140.333 118.11 140.333Z" fill="white"/>
<path id="Vector_16" d="M113.464 140.333H115.658C115.859 140.333 116.023 140.509 116.023 140.725V141.508C116.023 141.725 115.859 141.9 115.658 141.9H113.464C113.262 141.9 113.098 141.725 113.098 141.508V140.725C113.098 140.509 113.262 140.333 113.464 140.333Z" fill="white"/>
</g>
<g id="Group 13">
<path id="Vector_17" d="M145.788 141.5H144.125C144.056 141.5 144 141.556 144 141.625V142.679C144 142.748 144.056 142.804 144.125 142.804H145.788C145.857 142.804 145.913 142.748 145.913 142.679V141.625C145.913 141.556 145.857 141.5 145.788 141.5Z" fill="url(#paint13_linear_87_5141)"/>
<path id="Vector_18" d="M145.913 141.717H144V141.891H145.913V141.717Z" fill="url(#paint14_linear_87_5141)"/>
<path id="Vector_19" d="M145.739 142.152H144.174C144.15 142.152 144.13 142.133 144.13 142.109V142.022C144.13 141.998 144.15 141.978 144.174 141.978H145.739C145.763 141.978 145.783 141.998 145.783 142.022V142.109C145.783 142.133 145.763 142.152 145.739 142.152Z" fill="#A8E7FF"/>
<path id="Vector_20" d="M145.565 142.239C145.278 142.239 145.043 142.473 145.043 142.761C145.043 142.775 145.044 142.79 145.046 142.804H145.788C145.857 142.804 145.913 142.748 145.913 142.679V142.373C145.821 142.29 145.699 142.239 145.565 142.239Z" fill="url(#paint15_radial_87_5141)"/>
<path id="Vector_21" d="M145.565 143.195C145.805 143.195 146 143.001 146 142.761C146 142.521 145.805 142.326 145.565 142.326C145.325 142.326 145.13 142.521 145.13 142.761C145.13 143.001 145.325 143.195 145.565 143.195Z" fill="url(#paint16_linear_87_5141)"/>
<path id="Vector_22" d="M145.565 143.108C145.757 143.108 145.913 142.953 145.913 142.761C145.913 142.569 145.757 142.413 145.565 142.413C145.373 142.413 145.217 142.569 145.217 142.761C145.217 142.953 145.373 143.108 145.565 143.108Z" fill="#F5BE00"/>
<path id="Vector_23" d="M145.468 142.921V142.856C145.492 142.871 145.517 142.878 145.543 142.878C145.563 142.878 145.579 142.873 145.59 142.864C145.601 142.854 145.607 142.841 145.607 142.825C145.607 142.791 145.583 142.774 145.535 142.774C145.519 142.774 145.5 142.775 145.478 142.778V142.586H145.669V142.648H145.543V142.717C145.553 142.716 145.562 142.715 145.571 142.715C145.607 142.715 145.634 142.724 145.654 142.743C145.674 142.761 145.684 142.786 145.684 142.818C145.684 142.853 145.672 142.881 145.649 142.903C145.625 142.925 145.592 142.936 145.552 142.936C145.519 142.936 145.491 142.931 145.468 142.921Z" fill="#FEE119"/>
</g>
<g id="Vector_24">
<path d="M138.359 141.5L138.581 141.923L138.809 141.5H139.153L138.803 142.105L139.162 142.71H138.82L138.581 142.292L138.347 142.71H138L138.359 142.105L138.013 141.5H138.359Z" fill="#64717C" fill-opacity="0.5"/>
<path d="M139.653 141.5L139.875 141.923L140.103 141.5H140.447L140.096 142.105L140.456 142.71H140.114L139.875 142.292L139.64 142.71H139.294L139.653 142.105L139.306 141.5H139.653Z" fill="#64717C" fill-opacity="0.5"/>
<path d="M140.947 141.5L141.169 141.923L141.396 141.5H141.741L141.39 142.105L141.75 142.71H141.407L141.169 142.292L140.934 142.71H140.588L140.947 142.105L140.6 141.5H140.947Z" fill="#64717C" fill-opacity="0.5"/>
<path d="M138.364 141.498L138.369 141.495H138.359H138.013V141.5V141.505V141.51L138.353 142.105L137.996 142.707L138 142.71L138.004 142.712L138.008 142.715H138.347V142.72L138.351 142.712L138.581 142.302L138.816 142.712L138.811 142.715H138.82H139.162V142.71V142.705V142.7L138.808 142.105L139.157 141.503L139.153 141.5L139.149 141.497L139.144 141.495H138.809V141.489L138.804 141.498L138.581 141.912L138.364 141.498ZM139.657 141.498L139.662 141.495H139.653H139.306V141.5V141.505V141.51L139.647 142.105L139.289 142.707L139.294 142.71L139.298 142.712L139.302 142.715H139.64V142.72L139.645 142.712L139.875 142.302L140.109 142.712L140.105 142.715H140.114H140.456V142.71V142.705V142.7L140.102 142.105L140.451 141.503L140.447 141.5L140.442 141.497L140.438 141.495H140.103V141.489L140.098 141.498L139.875 141.912L139.657 141.498ZM140.951 141.498L140.956 141.495H140.947H140.6V141.5V141.505V141.51L140.941 142.105L140.583 142.707L140.588 142.71L140.592 142.712L140.596 142.715H140.934V142.72L140.938 142.712L141.169 142.302L141.403 142.712L141.399 142.715H141.407H141.75V142.71V142.705V142.7L141.396 142.105L141.745 141.503L141.741 141.5L141.736 141.497L141.732 141.495H141.396V141.489L141.392 141.498L141.169 141.912L140.951 141.498Z" stroke="black" stroke-opacity="0.5" stroke-width="0.01" stroke-linejoin="round"/>
</g>
<circle id="Ellipse 1" cx="109" cy="117.5" r="1" fill="url(#paint17_linear_87_5141)"/>
<circle id="Ellipse 2" cx="112" cy="117.5" r="1" fill="url(#paint18_linear_87_5141)"/>
<circle id="Ellipse 3" cx="115" cy="117.5" r="1" fill="url(#paint19_linear_87_5141)"/>
</g>
<rect x="96.5" y="101.5" width="62" height="62" rx="4" stroke="#E2E2E2" stroke-opacity="0.59" stroke-width="2"/>
</g>
</g>
</g>
</g>
</g>
<defs>
<filter id="filter0_bd_87_5141" x="101" y="110.5" width="53" height="46" filterUnits="userSpaceOnUse" color-interpolation-filters="sRGB">
<feFlood flood-opacity="0" result="BackgroundImageFix"/>
<feGaussianBlur in="BackgroundImageFix" stdDeviation="2"/>
<feComposite in2="SourceAlpha" operator="in" result="effect1_backgroundBlur_87_5141"/>
<feColorMatrix in="SourceAlpha" type="matrix" values="0 0 0 0 0 0 0 0 0 0 0 0 0 0 0 0 0 0 127 0" result="hardAlpha"/>
<feOffset dy="2"/>
<feGaussianBlur stdDeviation="2"/>
<feComposite in2="hardAlpha" operator="out"/>
<feColorMatrix type="matrix" values="0 0 0 0 1 0 0 0 0 1 0 0 0 0 1 0 0 0 1 0"/>
<feBlend mode="normal" in2="effect1_backgroundBlur_87_5141" result="effect2_dropShadow_87_5141"/>
<feBlend mode="normal" in="SourceGraphic" in2="effect2_dropShadow_87_5141" result="shape"/>
</filter>
<linearGradient id="paint0_linear_87_5141" x1="59.5" y1="31.5" x2="86.3" y2="99.9" gradientUnits="userSpaceOnUse">
<stop stop-color="#B8DFFC"/>
<stop offset="0.453125" stop-color="#E5EFF7" stop-opacity="0.98"/>
<stop offset="1" stop-color="#8FC3EB"/>
</linearGradient>
<radialGradient id="paint1_radial_87_5141" cx="0" cy="0" r="1" gradientUnits="userSpaceOnUse" gradientTransform="translate(45.832 46.681) scale(40.041)">
<stop stop-color="#6FCEFC"/>
<stop offset="1" stop-color="#167CF7"/>
</radialGradient>
<radialGradient id="paint2_radial_87_5141" cx="0" cy="0" r="1" gradientUnits="userSpaceOnUse" gradientTransform="translate(45.2255 45.98) scale(45.0092 40.155)">
<stop offset="0.001" stop-color="#54C0F5"/>
<stop offset="0.998" stop-color="#0B69DB"/>
</radialGradient>
<linearGradient id="paint3_linear_87_5141" x1="127.5" y1="102.5" x2="154.3" y2="170.9" gradientUnits="userSpaceOnUse">
<stop stop-color="#B8DFFC"/>
<stop offset="0.453125" stop-color="#E5EFF7" stop-opacity="0.98"/>
<stop offset="1" stop-color="#8FC3EB"/>
</linearGradient>
<linearGradient id="paint4_linear_87_5141" x1="104.265" y1="121.412" x2="148.275" y2="130.136" gradientUnits="userSpaceOnUse">
<stop stop-color="#0077D2"/>
<stop offset="1" stop-color="#0B59A2"/>
</linearGradient>
<linearGradient id="paint5_linear_87_5141" x1="142.182" y1="125.5" x2="142.182" y2="135.722" gradientUnits="userSpaceOnUse">
<stop stop-color="white"/>
<stop offset="1" stop-color="white"/>
</linearGradient>
<linearGradient id="paint6_linear_87_5141" x1="142.182" y1="126.429" x2="142.182" y2="134.793" gradientUnits="userSpaceOnUse">
<stop stop-color="#0A85D9"/>
<stop offset="1" stop-color="#0B66A4"/>
</linearGradient>
<linearGradient id="paint7_linear_87_5141" x1="119.212" y1="128.543" x2="123.19" y2="132.262" gradientUnits="userSpaceOnUse">
<stop stop-color="#C26715"/>
<stop offset="0.508" stop-color="#B85515"/>
<stop offset="1" stop-color="#AD3F16"/>
</linearGradient>
<linearGradient id="paint8_linear_87_5141" x1="114.961" y1="127.004" x2="120.308" y2="130.914" gradientUnits="userSpaceOnUse">
<stop stop-color="#EBA84B"/>
<stop offset="1" stop-color="#D97218"/>
</linearGradient>
<linearGradient id="paint9_linear_87_5141" x1="119.955" y1="131.361" x2="124.932" y2="136.165" gradientUnits="userSpaceOnUse">
<stop stop-color="#EBA600"/>
<stop offset="1" stop-color="#C28200"/>
</linearGradient>
<linearGradient id="paint10_linear_87_5141" x1="114.499" y1="130.282" x2="121.411" y2="136.955" gradientUnits="userSpaceOnUse">
<stop stop-color="#FFD869"/>
<stop offset="1" stop-color="#FEC52B"/>
</linearGradient>
<linearGradient id="paint11_linear_87_5141" x1="117.394" y1="131.941" x2="117.394" y2="123.596" gradientUnits="userSpaceOnUse">
<stop stop-color="#EBA600"/>
<stop offset="1" stop-color="#C28200"/>
</linearGradient>
<linearGradient id="paint12_linear_87_5141" x1="122.993" y1="131.938" x2="122.993" y2="130.844" gradientUnits="userSpaceOnUse">
<stop stop-color="#FFD869"/>
<stop offset="1" stop-color="#FEC52B"/>
</linearGradient>
<linearGradient id="paint13_linear_87_5141" x1="144.799" y1="141.59" x2="145.163" y2="142.889" gradientUnits="userSpaceOnUse">
<stop stop-color="#32BDEF"/>
<stop offset="1" stop-color="#1EA2E4"/>
</linearGradient>
<linearGradient id="paint14_linear_87_5141" x1="144" y1="141.804" x2="145.913" y2="141.804" gradientUnits="userSpaceOnUse">
<stop stop-color="#45494D"/>
<stop offset="1" stop-color="#6D7479"/>
</linearGradient>
<radialGradient id="paint15_radial_87_5141" cx="0" cy="0" r="1" gradientUnits="userSpaceOnUse" gradientTransform="translate(145.545 142.762) scale(0.513435)">
<stop/>
<stop offset="0.979" stop-opacity="0"/>
</radialGradient>
<linearGradient id="paint16_linear_87_5141" x1="145.267" y1="142.462" x2="145.872" y2="143.067" gradientUnits="userSpaceOnUse">
<stop stop-color="#FEDE00"/>
<stop offset="1" stop-color="#FFD000"/>
</linearGradient>
<linearGradient id="paint17_linear_87_5141" x1="109" y1="116.5" x2="109" y2="118.5" gradientUnits="userSpaceOnUse">
<stop stop-color="#32BDEF"/>
<stop offset="1" stop-color="#32BDEF"/>
</linearGradient>
<linearGradient id="paint18_linear_87_5141" x1="112" y1="116.5" x2="112" y2="118.5" gradientUnits="userSpaceOnUse">
<stop stop-color="#32BDEF"/>
<stop offset="1" stop-color="#32BDEF"/>
</linearGradient>
<linearGradient id="paint19_linear_87_5141" x1="115" y1="116.5" x2="115" y2="118.5" gradientUnits="userSpaceOnUse">
<stop stop-color="#32BDEF"/>
<stop offset="1" stop-color="#32BDEF"/>
</linearGradient>
</defs>
</svg>
