<svg width="199" height="201" viewBox="0 0 199 201" fill="none" xmlns="http://www.w3.org/2000/svg">
<g id="icon=icon">
<g id="Frame" filter="url(#filter0_d_87_5113)">
<path id="Vector" d="M172.887 10H26.1129C18.3186 10 12 16.3186 12 24.1129V170.887C12 178.681 18.3186 185 26.1129 185H172.887C180.681 185 187 178.681 187 170.887V24.1129C187 16.3186 180.681 10 172.887 10Z" fill="white"/>
<path id="Vector_2" d="M172.887 10H26.1129C18.3186 10 12 16.3186 12 24.1129V170.887C12 178.681 18.3186 185 26.1129 185H172.887C180.681 185 187 178.681 187 170.887V24.1129C187 16.3186 180.681 10 172.887 10Z" stroke="#D5EAF6" stroke-width="15" stroke-linecap="round"/>
<g id="Vector_3">
<path d="M172.887 10H26.1129C18.3186 10 12 16.3186 12 24.1129V170.887C12 178.681 18.3186 185 26.1129 185H172.887C180.681 185 187 178.681 187 170.887V24.1129C187 16.3186 180.681 10 172.887 10Z" fill="url(#paint0_linear_87_5113)" fill-opacity="0.2"/>
<path d="M26.1129 10.5H172.887C180.405 10.5 186.5 16.5948 186.5 24.1129V170.887C186.5 178.405 180.405 184.5 172.887 184.5H26.1129C18.5948 184.5 12.5 178.405 12.5 170.887V24.1129C12.5 16.5947 18.5947 10.5 26.1129 10.5Z" stroke="#F7F7F7" stroke-opacity="0.27"/>
</g>
</g>
<g id="combo">
<g id="Vector_4">
<path d="M71.3327 80.9889L65.3408 74.997C61.0262 81.5102 58.5 89.3112 58.5 97.7097C58.5 105.268 60.5461 112.346 64.1025 118.434C64.7062 119.469 66.1506 119.615 66.9975 118.766L70.3767 115.387C70.9433 114.82 71.0484 113.959 70.6693 113.254C68.1781 108.62 66.742 103.339 66.742 97.7097C66.742 91.5983 68.4336 85.897 71.3327 80.9889Z" fill="#50E6FF" fill-opacity="0.5"/>
<path d="M132.678 97.7097C132.678 103.821 130.986 109.523 128.087 114.431L134.079 120.423C138.394 113.91 140.92 106.106 140.92 97.7097C140.92 90.1519 138.874 83.0741 135.317 76.9854C134.714 75.951 133.269 75.8068 132.422 76.6536L129.043 80.0328C128.476 80.5995 128.371 81.4607 128.75 82.1654C131.242 86.7995 132.678 92.0805 132.678 97.7097Z" fill="#199BE2" fill-opacity="0.5"/>
<path d="M82.0328 68.3767C82.5995 68.9433 83.4607 69.0484 84.1654 68.6693C88.7995 66.1781 94.0805 64.742 99.7097 64.742C105.821 64.742 111.523 66.4336 116.431 69.3327L122.425 63.3388C115.91 59.0262 108.109 56.5 99.7097 56.5C92.189 56.5 85.1462 58.5255 79.0781 62.0489C78.0046 62.6732 77.7779 64.1218 78.6557 64.9995L82.0328 68.3767Z" fill="#35C1F1" fill-opacity="0.5"/>
<path d="M117.387 127.043C116.82 126.476 115.959 126.371 115.254 126.75C110.62 129.242 105.339 130.678 99.7097 130.678C93.5983 130.678 87.897 128.986 82.9889 126.087L76.997 132.079C83.5102 136.394 91.3132 138.92 99.7097 138.92C107.268 138.92 114.346 136.874 120.434 133.317C121.469 132.714 121.615 131.269 120.766 130.422L117.387 127.043Z" fill="#0078D4" fill-opacity="0.5"/>
<path d="M124.3 73.1384L114.339 72.7964C113.635 72.7717 113.284 71.9289 113.769 71.4138L123.364 61.1629C123.863 60.6292 124.757 60.963 124.786 61.6925L125.2 72.236C125.219 72.7408 124.805 73.1549 124.3 73.1384Z" fill="#35C1F1" fill-opacity="0.5"/>
<path d="M75.1199 122.281L85.0803 122.623C85.785 122.648 86.1352 123.491 85.651 124.006L76.0554 134.257C75.5567 134.79 74.6625 134.457 74.6336 133.727L74.2195 123.184C74.2009 122.679 74.6151 122.265 75.1199 122.281Z" fill="#0078D4" fill-opacity="0.5"/>
<path d="M124.281 122.3L124.623 112.339C124.648 111.635 125.491 111.284 126.006 111.769L136.257 121.364C136.79 121.863 136.457 122.757 135.727 122.786L125.184 123.2C124.679 123.219 124.265 122.805 124.281 122.3Z" fill="#199BE2" fill-opacity="0.5"/>
<path d="M75.1384 73.1199L74.7964 83.0803C74.7717 83.785 73.9289 84.1352 73.4138 83.651L63.1609 74.0554C62.6272 73.5567 62.961 72.6625 63.6904 72.6336L74.2339 72.2195C74.7408 72.2009 75.1549 72.6151 75.1384 73.1199Z" fill="#50E6FF" fill-opacity="0.5"/>
</g>
<g id="Frame_2">
<rect x="31.5" y="31.5" width="60" height="60" rx="3" fill="url(#paint1_linear_87_5113)"/>
<rect x="31.5" y="31.5" width="60" height="60" rx="3" fill="white" fill-opacity="0.2"/>
<g id="Group">
<g id="Vector_5">
<path d="M41.5 61.5C41.5 50.455 50.455 41.5 61.5 41.5C72.545 41.5 81.5 50.455 81.5 61.5C81.5 72.545 72.545 81.5 61.5 81.5C50.455 81.5 41.5 72.545 41.5 61.5Z" fill="url(#paint2_radial_87_5113)"/>
<path d="M78.5 61.5C78.5 58.261 77.827 55.209 76.661 52.5H79.343C78.995 51.811 78.618 51.14 78.195 50.5H75.683C72.638 45.084 67.421 41.5 61.5 41.5C55.579 41.5 50.362 45.084 47.317 50.5H44.805C44.382 51.14 44.005 51.811 43.657 52.5H46.339C45.173 55.209 44.5 58.261 44.5 61.5C44.5 64.739 45.173 67.791 46.339 70.5H43.657C44.005 71.189 44.382 71.86 44.805 72.5H47.317C50.362 77.916 55.579 81.5 61.5 81.5C67.421 81.5 72.638 77.916 75.683 72.5H78.195C78.618 71.86 78.995 71.189 79.343 70.5H76.661C77.827 67.791 78.5 64.739 78.5 61.5ZM76.5 61.5C76.5 64.78 75.753 67.849 74.471 70.5H68.678C69.221 67.667 69.5 64.553 69.5 61.5C69.5 58.447 69.221 55.333 68.678 52.5H74.471C75.753 55.151 76.5 58.22 76.5 61.5ZM61.5 79.5C59.81 79.5 58.009 76.863 56.826 72.5H66.175C64.991 76.863 63.19 79.5 61.5 79.5ZM56.348 70.5C55.821 67.913 55.5 64.871 55.5 61.5C55.5 58.129 55.821 55.087 56.348 52.5H66.652C67.179 55.087 67.5 58.129 67.5 61.5C67.5 64.871 67.179 67.913 66.652 70.5H56.348ZM61.5 43.5C63.19 43.5 64.991 46.137 66.174 50.5H56.825C58.009 46.137 59.81 43.5 61.5 43.5ZM73.347 50.5H68.236C67.61 48.001 66.757 45.816 65.684 44.227C68.763 45.303 71.429 47.532 73.347 50.5ZM57.316 44.227C56.243 45.817 55.39 48.001 54.764 50.5H49.653C51.571 47.532 54.237 45.303 57.316 44.227ZM46.5 61.5C46.5 58.22 47.247 55.151 48.529 52.5H54.322C53.779 55.333 53.5 58.447 53.5 61.5C53.5 64.553 53.779 67.667 54.322 70.5H48.529C47.247 67.849 46.5 64.78 46.5 61.5ZM49.653 72.5H54.764C55.39 74.999 56.243 77.184 57.316 78.773C54.237 77.697 51.571 75.468 49.653 72.5ZM65.684 78.773C66.757 77.183 67.61 74.999 68.236 72.5H73.347C71.429 75.468 68.763 77.697 65.684 78.773Z" fill="url(#paint3_radial_87_5113)"/>
<path d="M65.405 57.5L64.093 63.743L62.5 57.5H60.5L58.907 63.743L57.595 57.5H55.5L57.5 65.5H59.951C59.951 65.5 61.464 59.864 61.5 59.5C61.536 59.864 63.049 65.5 63.049 65.5H65.5L67.5 57.5H65.405Z" fill="white"/>
<path d="M53.405 57.5L52.093 63.743L50.5 57.5H48.5L46.907 63.743L45.595 57.5H43.5L45.5 65.5H47.951C47.951 65.5 49.464 59.864 49.5 59.5C49.536 59.864 51.049 65.5 51.049 65.5H53.5L55.5 57.5H53.405Z" fill="white"/>
<path d="M77.405 57.5L76.093 63.743L74.5 57.5H72.5L70.907 63.743L69.595 57.5H67.5L69.5 65.5H71.951C71.951 65.5 73.464 59.864 73.5 59.5C73.536 59.864 75.049 65.5 75.049 65.5H77.5L79.5 57.5H77.405Z" fill="white"/>
</g>
</g>
<rect x="30.5" y="30.5" width="62" height="62" rx="4" stroke="#E2E2E2" stroke-opacity="0.59" stroke-width="2"/>
</g>
<g id="Frame_3">
<rect x="99.5" y="102.5" width="60" height="60" rx="3" fill="url(#paint4_linear_87_5113)"/>
<rect x="99.5" y="102.5" width="60" height="60" rx="3" fill="white" fill-opacity="0.2"/>
<g id="Group 15" filter="url(#filter1_bd_87_5113)">
<path id="Vector_6" d="M107 148.25V120.125L129.5 117.875L152 120.125L136.25 150.5H109.25C108.012 150.5 107 149.488 107 148.25Z" fill="#88B0CE"/>
<path id="Vector_7" d="M136.25 150.5H149.75C150.993 150.5 152 149.493 152 148.25V120.125H136.25V150.5Z" fill="#ECEEEF"/>
<path id="Vector_8" d="M152 116.808V120.269H107V116.808C107 115.538 108.012 114.5 109.25 114.5H149.75C150.988 114.5 152 115.538 152 116.808ZM148.625 127.769V126.615C148.625 126.297 148.373 126.038 148.062 126.038H140.188C139.877 126.038 139.625 126.297 139.625 126.615V127.769C139.625 128.088 139.877 128.346 140.188 128.346H148.062C148.373 128.346 148.625 128.088 148.625 127.769ZM148.625 135.846V134.692C148.625 134.374 148.373 134.115 148.062 134.115H140.188C139.877 134.115 139.625 134.374 139.625 134.692V135.846C139.625 136.165 139.877 136.423 140.188 136.423H148.062C148.373 136.423 148.625 136.165 148.625 135.846ZM148.625 143.923V142.769C148.625 142.451 148.373 142.192 148.062 142.192H140.188C139.877 142.192 139.625 142.451 139.625 142.769V143.923C139.625 144.242 139.877 144.5 140.188 144.5H148.062C148.373 144.5 148.625 144.242 148.625 143.923Z" fill="url(#paint5_linear_87_5113)"/>
<rect id="Rectangle 5" x="139" y="124.5" width="11" height="23" fill="#ECEEEF"/>
<g id="Group 11">
<rect id="Rectangle 4" x="140" y="125.5" width="8.36364" height="10.2222" rx="1" fill="url(#paint6_linear_87_5113)"/>
<path id="Vector_9" d="M142.788 127.823C142.788 127.053 143.412 126.429 144.182 126.429C144.952 126.429 145.576 127.053 145.576 127.823C145.576 128.593 144.952 129.217 144.182 129.217C143.412 129.217 142.788 128.593 142.788 127.823ZM144.182 130.146C142.899 130.146 141.859 131.187 141.859 132.47V134.328C141.859 134.585 142.067 134.793 142.323 134.793H146.04C146.297 134.793 146.505 134.585 146.505 134.328V132.47C146.505 131.187 145.465 130.146 144.182 130.146Z" fill="url(#paint7_linear_87_5113)"/>
</g>
<rect id="Rectangle 6" x="140" y="137.5" width="9" height="1" rx="0.5" fill="#D9D9D9"/>
<rect id="Rectangle 7" x="140" y="139.5" width="8" height="1" rx="0.5" fill="#D9D9D9"/>
<rect id="Rectangle 8" x="140" y="144.5" width="5" height="1" rx="0.5" fill="#D9D9D9"/>
<g id="Group 12">
<path id="Vector_10" d="M127.858 124.5H113.954C112.875 124.5 112 125.375 112 126.454V141.546C112 142.625 112.875 143.5 113.954 143.5H127.858C128.937 143.5 129.812 142.625 129.812 141.546V126.454C129.812 125.375 128.937 124.5 127.858 124.5Z" fill="white" fill-opacity="0.3"/>
<path id="Vector_11" d="M125.524 130.957H118.863V128.062H125.277C125.414 128.062 125.524 128.18 125.524 128.326V130.957Z" fill="url(#paint8_linear_87_5113)" fill-opacity="0.8"/>
<path id="Vector_12" d="M123.057 130.957H116.889C116.753 130.957 116.643 130.839 116.643 130.694V128.326C116.643 128.18 116.753 128.062 116.889 128.062H123.057C123.193 128.062 123.304 128.18 123.304 128.326V130.694C123.304 130.839 123.193 130.957 123.057 130.957Z" fill="url(#paint9_linear_87_5113)"/>
<path id="Vector_13" d="M125.524 137.536H122.81V130.431H125.771C125.907 130.431 126.018 130.549 126.018 130.694V137.01C126.018 137.301 125.797 137.536 125.524 137.536Z" fill="url(#paint10_linear_87_5113)"/>
<path id="Vector_14" d="M122.81 137.536H116.642C116.37 137.536 116.149 137.301 116.149 137.01V130.694C116.149 130.549 116.26 130.431 116.396 130.431H123.304V137.01C123.304 137.301 123.083 137.536 122.81 137.536Z" fill="url(#paint11_linear_87_5113)"/>
<path id="Vector_15" d="M123.304 130.431H116.302C116.208 130.431 116.123 130.487 116.081 130.576L115.498 131.819C115.457 131.907 115.517 132.01 115.609 132.01H122.411C122.505 132.01 122.59 131.953 122.632 131.864L123.304 130.431Z" fill="url(#paint12_linear_87_5113)" fill-opacity="0.8"/>
<path id="Vector_16" d="M123.304 130.431H125.865C125.959 130.431 126.044 130.487 126.086 130.576L126.668 131.819C126.709 131.907 126.65 132.01 126.558 132.01H124.196C124.103 132.01 124.017 131.953 123.976 131.864L123.304 130.431Z" fill="url(#paint13_linear_87_5113)"/>
<path id="Vector_17" d="M124.757 140.333H126.951C127.153 140.333 127.317 140.509 127.317 140.725V141.508C127.317 141.725 127.153 141.9 126.951 141.9H124.757C124.555 141.9 124.391 141.725 124.391 141.508V140.725C124.391 140.509 124.555 140.333 124.757 140.333Z" fill="white"/>
<path id="Vector_18" d="M120.11 140.333H122.304C122.506 140.333 122.67 140.509 122.67 140.725V141.508C122.67 141.725 122.506 141.9 122.304 141.9H120.11C119.908 141.9 119.745 141.725 119.745 141.508V140.725C119.745 140.509 119.908 140.333 120.11 140.333Z" fill="white"/>
<path id="Vector_19" d="M115.464 140.333H117.658C117.859 140.333 118.023 140.509 118.023 140.725V141.508C118.023 141.725 117.859 141.9 117.658 141.9H115.464C115.262 141.9 115.098 141.725 115.098 141.508V140.725C115.098 140.509 115.262 140.333 115.464 140.333Z" fill="white"/>
</g>
<g id="Group 13">
<path id="Vector_20" d="M147.788 141.5H146.125C146.056 141.5 146 141.556 146 141.625V142.679C146 142.748 146.056 142.804 146.125 142.804H147.788C147.857 142.804 147.913 142.748 147.913 142.679V141.625C147.913 141.556 147.857 141.5 147.788 141.5Z" fill="url(#paint14_linear_87_5113)"/>
<path id="Vector_21" d="M147.913 141.717H146V141.891H147.913V141.717Z" fill="url(#paint15_linear_87_5113)"/>
<path id="Vector_22" d="M147.739 142.152H146.174C146.15 142.152 146.13 142.133 146.13 142.109V142.022C146.13 141.998 146.15 141.978 146.174 141.978H147.739C147.763 141.978 147.783 141.998 147.783 142.022V142.109C147.783 142.133 147.763 142.152 147.739 142.152Z" fill="#A8E7FF"/>
<path id="Vector_23" d="M147.565 142.239C147.278 142.239 147.043 142.473 147.043 142.761C147.043 142.775 147.044 142.79 147.046 142.804H147.788C147.857 142.804 147.913 142.748 147.913 142.679V142.373C147.821 142.29 147.699 142.239 147.565 142.239Z" fill="url(#paint16_radial_87_5113)"/>
<path id="Vector_24" d="M147.565 143.195C147.805 143.195 148 143.001 148 142.761C148 142.521 147.805 142.326 147.565 142.326C147.325 142.326 147.13 142.521 147.13 142.761C147.13 143.001 147.325 143.195 147.565 143.195Z" fill="url(#paint17_linear_87_5113)"/>
<path id="Vector_25" d="M147.565 143.108C147.757 143.108 147.913 142.953 147.913 142.761C147.913 142.569 147.757 142.413 147.565 142.413C147.373 142.413 147.217 142.569 147.217 142.761C147.217 142.953 147.373 143.108 147.565 143.108Z" fill="#F5BE00"/>
<path id="Vector_26" d="M147.468 142.921V142.856C147.492 142.871 147.517 142.878 147.543 142.878C147.563 142.878 147.579 142.873 147.59 142.864C147.601 142.854 147.607 142.841 147.607 142.825C147.607 142.791 147.583 142.774 147.535 142.774C147.519 142.774 147.5 142.775 147.478 142.778V142.586H147.669V142.648H147.543V142.717C147.553 142.716 147.562 142.715 147.571 142.715C147.607 142.715 147.634 142.724 147.654 142.743C147.674 142.761 147.684 142.786 147.684 142.818C147.684 142.853 147.672 142.881 147.649 142.903C147.625 142.925 147.592 142.936 147.552 142.936C147.519 142.936 147.491 142.931 147.468 142.921Z" fill="#FEE119"/>
</g>
<g id="Vector_27">
<path d="M140.359 141.5L140.581 141.923L140.809 141.5H141.153L140.803 142.105L141.162 142.71H140.82L140.581 142.292L140.347 142.71H140L140.359 142.105L140.013 141.5H140.359Z" fill="#64717C" fill-opacity="0.5"/>
<path d="M141.653 141.5L141.875 141.923L142.103 141.5H142.447L142.096 142.105L142.456 142.71H142.114L141.875 142.292L141.64 142.71H141.294L141.653 142.105L141.306 141.5H141.653Z" fill="#64717C" fill-opacity="0.5"/>
<path d="M142.947 141.5L143.169 141.923L143.396 141.5H143.741L143.39 142.105L143.75 142.71H143.407L143.169 142.292L142.934 142.71H142.588L142.947 142.105L142.6 141.5H142.947Z" fill="#64717C" fill-opacity="0.5"/>
<path d="M140.364 141.498L140.369 141.495H140.359H140.013V141.5V141.505V141.51L140.353 142.105L139.996 142.707L140 142.71L140.004 142.712L140.008 142.715H140.347V142.72L140.351 142.712L140.581 142.302L140.816 142.712L140.811 142.715H140.82H141.162V142.71V142.705V142.7L140.808 142.105L141.157 141.503L141.153 141.5L141.149 141.497L141.144 141.495H140.809V141.489L140.804 141.498L140.581 141.912L140.364 141.498ZM141.657 141.498L141.662 141.495H141.653H141.306V141.5V141.505V141.51L141.647 142.105L141.289 142.707L141.294 142.71L141.298 142.712L141.302 142.715H141.64V142.72L141.645 142.712L141.875 142.302L142.109 142.712L142.105 142.715H142.114H142.456V142.71V142.705V142.7L142.102 142.105L142.451 141.503L142.447 141.5L142.442 141.497L142.438 141.495H142.103V141.489L142.098 141.498L141.875 141.912L141.657 141.498ZM142.951 141.498L142.956 141.495H142.947H142.6V141.5V141.505V141.51L142.941 142.105L142.583 142.707L142.588 142.71L142.592 142.712L142.596 142.715H142.934V142.72L142.938 142.712L143.169 142.302L143.403 142.712L143.399 142.715H143.407H143.75V142.71V142.705V142.7L143.396 142.105L143.745 141.503L143.741 141.5L143.736 141.497L143.732 141.495H143.396V141.489L143.392 141.498L143.169 141.912L142.951 141.498Z" stroke="black" stroke-opacity="0.5" stroke-width="0.01" stroke-linejoin="round"/>
</g>
<circle id="Ellipse 1" cx="111" cy="117.5" r="1" fill="url(#paint18_linear_87_5113)"/>
<circle id="Ellipse 2" cx="114" cy="117.5" r="1" fill="url(#paint19_linear_87_5113)"/>
<circle id="Ellipse 3" cx="117" cy="117.5" r="1" fill="url(#paint20_linear_87_5113)"/>
</g>
<rect x="98.5" y="101.5" width="62" height="62" rx="4" stroke="#E2E2E2" stroke-opacity="0.59" stroke-width="2"/>
</g>
</g>
</g>
<defs>
<filter id="filter0_d_87_5113" x="0.5" y="2.5" width="198" height="198" filterUnits="userSpaceOnUse" color-interpolation-filters="sRGB">
<feFlood flood-opacity="0" result="BackgroundImageFix"/>
<feColorMatrix in="SourceAlpha" type="matrix" values="0 0 0 0 0 0 0 0 0 0 0 0 0 0 0 0 0 0 127 0" result="hardAlpha"/>
<feOffset dy="4"/>
<feGaussianBlur stdDeviation="2"/>
<feComposite in2="hardAlpha" operator="out"/>
<feColorMatrix type="matrix" values="0 0 0 0 0 0 0 0 0 0 0 0 0 0 0 0 0 0 0.25 0"/>
<feBlend mode="normal" in2="BackgroundImageFix" result="effect1_dropShadow_87_5113"/>
<feBlend mode="normal" in="SourceGraphic" in2="effect1_dropShadow_87_5113" result="shape"/>
</filter>
<filter id="filter1_bd_87_5113" x="103" y="110.5" width="53" height="46" filterUnits="userSpaceOnUse" color-interpolation-filters="sRGB">
<feFlood flood-opacity="0" result="BackgroundImageFix"/>
<feGaussianBlur in="BackgroundImageFix" stdDeviation="2"/>
<feComposite in2="SourceAlpha" operator="in" result="effect1_backgroundBlur_87_5113"/>
<feColorMatrix in="SourceAlpha" type="matrix" values="0 0 0 0 0 0 0 0 0 0 0 0 0 0 0 0 0 0 127 0" result="hardAlpha"/>
<feOffset dy="2"/>
<feGaussianBlur stdDeviation="2"/>
<feComposite in2="hardAlpha" operator="out"/>
<feColorMatrix type="matrix" values="0 0 0 0 1 0 0 0 0 1 0 0 0 0 1 0 0 0 1 0"/>
<feBlend mode="normal" in2="effect1_backgroundBlur_87_5113" result="effect2_dropShadow_87_5113"/>
<feBlend mode="normal" in="SourceGraphic" in2="effect2_dropShadow_87_5113" result="shape"/>
</filter>
<linearGradient id="paint0_linear_87_5113" x1="99.5" y1="18.4677" x2="99.5" y2="176.532" gradientUnits="userSpaceOnUse">
<stop stop-color="white"/>
<stop offset="0.472222" stop-color="#0D5176" stop-opacity="0.527778"/>
<stop offset="0.940972" stop-color="#12A6F7" stop-opacity="0.465278"/>
</linearGradient>
<linearGradient id="paint1_linear_87_5113" x1="61.5" y1="31.5" x2="88.3" y2="99.9" gradientUnits="userSpaceOnUse">
<stop stop-color="#B8DFFC"/>
<stop offset="0.453125" stop-color="#E5EFF7" stop-opacity="0.98"/>
<stop offset="1" stop-color="#8FC3EB"/>
</linearGradient>
<radialGradient id="paint2_radial_87_5113" cx="0" cy="0" r="1" gradientUnits="userSpaceOnUse" gradientTransform="translate(47.832 46.681) scale(40.041)">
<stop stop-color="#6FCEFC"/>
<stop offset="1" stop-color="#167CF7"/>
</radialGradient>
<radialGradient id="paint3_radial_87_5113" cx="0" cy="0" r="1" gradientUnits="userSpaceOnUse" gradientTransform="translate(47.2255 45.98) scale(45.0092 40.155)">
<stop offset="0.001" stop-color="#54C0F5"/>
<stop offset="0.998" stop-color="#0B69DB"/>
</radialGradient>
<linearGradient id="paint4_linear_87_5113" x1="129.5" y1="102.5" x2="156.3" y2="170.9" gradientUnits="userSpaceOnUse">
<stop stop-color="#B8DFFC"/>
<stop offset="0.453125" stop-color="#E5EFF7" stop-opacity="0.98"/>
<stop offset="1" stop-color="#8FC3EB"/>
</linearGradient>
<linearGradient id="paint5_linear_87_5113" x1="106.265" y1="121.412" x2="150.275" y2="130.136" gradientUnits="userSpaceOnUse">
<stop stop-color="#0077D2"/>
<stop offset="1" stop-color="#0B59A2"/>
</linearGradient>
<linearGradient id="paint6_linear_87_5113" x1="144.182" y1="125.5" x2="144.182" y2="135.722" gradientUnits="userSpaceOnUse">
<stop stop-color="white"/>
<stop offset="1" stop-color="white"/>
</linearGradient>
<linearGradient id="paint7_linear_87_5113" x1="144.182" y1="126.429" x2="144.182" y2="134.793" gradientUnits="userSpaceOnUse">
<stop stop-color="#0A85D9"/>
<stop offset="1" stop-color="#0B66A4"/>
</linearGradient>
<linearGradient id="paint8_linear_87_5113" x1="121.212" y1="128.543" x2="125.19" y2="132.262" gradientUnits="userSpaceOnUse">
<stop stop-color="#C26715"/>
<stop offset="0.508" stop-color="#B85515"/>
<stop offset="1" stop-color="#AD3F16"/>
</linearGradient>
<linearGradient id="paint9_linear_87_5113" x1="116.961" y1="127.004" x2="122.308" y2="130.914" gradientUnits="userSpaceOnUse">
<stop stop-color="#EBA84B"/>
<stop offset="1" stop-color="#D97218"/>
</linearGradient>
<linearGradient id="paint10_linear_87_5113" x1="121.955" y1="131.361" x2="126.932" y2="136.165" gradientUnits="userSpaceOnUse">
<stop stop-color="#EBA600"/>
<stop offset="1" stop-color="#C28200"/>
</linearGradient>
<linearGradient id="paint11_linear_87_5113" x1="116.499" y1="130.282" x2="123.411" y2="136.955" gradientUnits="userSpaceOnUse">
<stop stop-color="#FFD869"/>
<stop offset="1" stop-color="#FEC52B"/>
</linearGradient>
<linearGradient id="paint12_linear_87_5113" x1="119.394" y1="131.941" x2="119.394" y2="123.596" gradientUnits="userSpaceOnUse">
<stop stop-color="#EBA600"/>
<stop offset="1" stop-color="#C28200"/>
</linearGradient>
<linearGradient id="paint13_linear_87_5113" x1="124.993" y1="131.938" x2="124.993" y2="130.844" gradientUnits="userSpaceOnUse">
<stop stop-color="#FFD869"/>
<stop offset="1" stop-color="#FEC52B"/>
</linearGradient>
<linearGradient id="paint14_linear_87_5113" x1="146.799" y1="141.59" x2="147.163" y2="142.889" gradientUnits="userSpaceOnUse">
<stop stop-color="#32BDEF"/>
<stop offset="1" stop-color="#1EA2E4"/>
</linearGradient>
<linearGradient id="paint15_linear_87_5113" x1="146" y1="141.804" x2="147.913" y2="141.804" gradientUnits="userSpaceOnUse">
<stop stop-color="#45494D"/>
<stop offset="1" stop-color="#6D7479"/>
</linearGradient>
<radialGradient id="paint16_radial_87_5113" cx="0" cy="0" r="1" gradientUnits="userSpaceOnUse" gradientTransform="translate(147.545 142.762) scale(0.513435)">
<stop/>
<stop offset="0.979" stop-opacity="0"/>
</radialGradient>
<linearGradient id="paint17_linear_87_5113" x1="147.267" y1="142.462" x2="147.872" y2="143.067" gradientUnits="userSpaceOnUse">
<stop stop-color="#FEDE00"/>
<stop offset="1" stop-color="#FFD000"/>
</linearGradient>
<linearGradient id="paint18_linear_87_5113" x1="111" y1="116.5" x2="111" y2="118.5" gradientUnits="userSpaceOnUse">
<stop stop-color="#32BDEF"/>
<stop offset="1" stop-color="#32BDEF"/>
</linearGradient>
<linearGradient id="paint19_linear_87_5113" x1="114" y1="116.5" x2="114" y2="118.5" gradientUnits="userSpaceOnUse">
<stop stop-color="#32BDEF"/>
<stop offset="1" stop-color="#32BDEF"/>
</linearGradient>
<linearGradient id="paint20_linear_87_5113" x1="117" y1="116.5" x2="117" y2="118.5" gradientUnits="userSpaceOnUse">
<stop stop-color="#32BDEF"/>
<stop offset="1" stop-color="#32BDEF"/>
</linearGradient>
</defs>
</svg>
