<svg width="195" height="195" viewBox="0 0 195 195" fill="none" xmlns="http://www.w3.org/2000/svg">
<g filter="url(#filter0_d_84_19180)">
<path d="M170.887 10H24.1129C16.3186 10 10 16.3186 10 24.1129V170.887C10 178.681 16.3186 185 24.1129 185H170.887C178.681 185 185 178.681 185 170.887V24.1129C185 16.3186 178.681 10 170.887 10Z" fill="url(#paint0_linear_84_19180)" fill-opacity="0.2"/>
<path d="M24.1129 10.5H170.887C178.405 10.5 184.5 16.5948 184.5 24.1129V170.887C184.5 178.405 178.405 184.5 170.887 184.5H24.1129C16.5948 184.5 10.5 178.405 10.5 170.887V24.1129C10.5 16.5947 16.5947 10.5 24.1129 10.5Z" stroke="#F7F7F7" stroke-opacity="0.27"/>
</g>
<path d="M69.3327 80.9889L63.3408 74.997C59.0262 81.5102 56.5 89.3112 56.5 97.7097C56.5 105.268 58.5461 112.346 62.1025 118.434C62.7062 119.469 64.1506 119.615 64.9975 118.766L68.3767 115.387C68.9433 114.82 69.0484 113.959 68.6693 113.254C66.1781 108.62 64.742 103.339 64.742 97.7097C64.742 91.5983 66.4336 85.897 69.3327 80.9889Z" fill="#50E6FF" fill-opacity="0.5"/>
<path d="M130.678 97.7097C130.678 103.821 128.986 109.523 126.087 114.431L132.079 120.423C136.394 113.91 138.92 106.106 138.92 97.7097C138.92 90.1519 136.874 83.0741 133.317 76.9854C132.714 75.951 131.269 75.8068 130.422 76.6536L127.043 80.0328C126.476 80.5995 126.371 81.4607 126.75 82.1654C129.242 86.7995 130.678 92.0805 130.678 97.7097Z" fill="#199BE2" fill-opacity="0.5"/>
<path d="M80.0328 68.3767C80.5995 68.9433 81.4607 69.0484 82.1654 68.6693C86.7995 66.1781 92.0805 64.742 97.7097 64.742C103.821 64.742 109.523 66.4336 114.431 69.3327L120.425 63.3388C113.91 59.0262 106.109 56.5 97.7097 56.5C90.189 56.5 83.1462 58.5255 77.0781 62.0489C76.0046 62.6732 75.7779 64.1218 76.6557 64.9995L80.0328 68.3767Z" fill="#35C1F1" fill-opacity="0.5"/>
<path d="M115.387 127.043C114.82 126.476 113.959 126.371 113.254 126.75C108.62 129.242 103.339 130.678 97.7097 130.678C91.5983 130.678 85.897 128.986 80.9889 126.087L74.997 132.079C81.5102 136.394 89.3132 138.92 97.7097 138.92C105.268 138.92 112.346 136.874 118.434 133.317C119.469 132.714 119.615 131.269 118.766 130.422L115.387 127.043Z" fill="#0078D4" fill-opacity="0.5"/>
<path d="M122.3 73.1384L112.339 72.7964C111.635 72.7717 111.284 71.9289 111.769 71.4138L121.364 61.1629C121.863 60.6292 122.757 60.963 122.786 61.6925L123.2 72.236C123.219 72.7408 122.805 73.1549 122.3 73.1384Z" fill="#35C1F1" fill-opacity="0.5"/>
<path d="M73.1199 122.281L83.0803 122.623C83.785 122.648 84.1352 123.491 83.651 124.006L74.0554 134.257C73.5567 134.79 72.6625 134.457 72.6336 133.727L72.2195 123.184C72.2009 122.679 72.6151 122.265 73.1199 122.281Z" fill="#0078D4" fill-opacity="0.5"/>
<path d="M122.281 122.3L122.623 112.339C122.648 111.635 123.491 111.284 124.006 111.769L134.257 121.364C134.79 121.863 134.457 122.757 133.727 122.786L123.184 123.2C122.679 123.219 122.265 122.805 122.281 122.3Z" fill="#199BE2" fill-opacity="0.5"/>
<path d="M73.1384 73.1199L72.7964 83.0803C72.7717 83.785 71.9289 84.1352 71.4138 83.651L61.1609 74.0554C60.6272 73.5567 60.961 72.6625 61.6904 72.6336L72.2339 72.2195C72.7408 72.2009 73.1549 72.6151 73.1384 73.1199Z" fill="#50E6FF" fill-opacity="0.5"/>
<rect x="29.5" y="31.5" width="60" height="60" rx="3" fill="url(#paint1_linear_84_19180)"/>
<rect x="29.5" y="31.5" width="60" height="60" rx="3" fill="white" fill-opacity="0.2"/>
<path d="M39.5 61.5C39.5 50.455 48.455 41.5 59.5 41.5C70.545 41.5 79.5 50.455 79.5 61.5C79.5 72.545 70.545 81.5 59.5 81.5C48.455 81.5 39.5 72.545 39.5 61.5Z" fill="url(#paint2_radial_84_19180)"/>
<path d="M76.5 61.5C76.5 58.261 75.827 55.209 74.661 52.5H77.343C76.995 51.811 76.618 51.14 76.195 50.5H73.683C70.638 45.084 65.421 41.5 59.5 41.5C53.579 41.5 48.362 45.084 45.317 50.5H42.805C42.382 51.14 42.005 51.811 41.657 52.5H44.339C43.173 55.209 42.5 58.261 42.5 61.5C42.5 64.739 43.173 67.791 44.339 70.5H41.657C42.005 71.189 42.382 71.86 42.805 72.5H45.317C48.362 77.916 53.579 81.5 59.5 81.5C65.421 81.5 70.638 77.916 73.683 72.5H76.195C76.618 71.86 76.995 71.189 77.343 70.5H74.661C75.827 67.791 76.5 64.739 76.5 61.5ZM74.5 61.5C74.5 64.78 73.753 67.849 72.471 70.5H66.678C67.221 67.667 67.5 64.553 67.5 61.5C67.5 58.447 67.221 55.333 66.678 52.5H72.471C73.753 55.151 74.5 58.22 74.5 61.5ZM59.5 79.5C57.81 79.5 56.009 76.863 54.826 72.5H64.175C62.991 76.863 61.19 79.5 59.5 79.5ZM54.348 70.5C53.821 67.913 53.5 64.871 53.5 61.5C53.5 58.129 53.821 55.087 54.348 52.5H64.652C65.179 55.087 65.5 58.129 65.5 61.5C65.5 64.871 65.179 67.913 64.652 70.5H54.348ZM59.5 43.5C61.19 43.5 62.991 46.137 64.174 50.5H54.825C56.009 46.137 57.81 43.5 59.5 43.5ZM71.347 50.5H66.236C65.61 48.001 64.757 45.816 63.684 44.227C66.763 45.303 69.429 47.532 71.347 50.5ZM55.316 44.227C54.243 45.817 53.39 48.001 52.764 50.5H47.653C49.571 47.532 52.237 45.303 55.316 44.227ZM44.5 61.5C44.5 58.22 45.247 55.151 46.529 52.5H52.322C51.779 55.333 51.5 58.447 51.5 61.5C51.5 64.553 51.779 67.667 52.322 70.5H46.529C45.247 67.849 44.5 64.78 44.5 61.5ZM47.653 72.5H52.764C53.39 74.999 54.243 77.184 55.316 78.773C52.237 77.697 49.571 75.468 47.653 72.5ZM63.684 78.773C64.757 77.183 65.61 74.999 66.236 72.5H71.347C69.429 75.468 66.763 77.697 63.684 78.773Z" fill="url(#paint3_radial_84_19180)"/>
<path d="M63.405 57.5L62.093 63.743L60.5 57.5H58.5L56.907 63.743L55.595 57.5H53.5L55.5 65.5H57.951C57.951 65.5 59.464 59.864 59.5 59.5C59.536 59.864 61.049 65.5 61.049 65.5H63.5L65.5 57.5H63.405Z" fill="white"/>
<path d="M51.405 57.5L50.093 63.743L48.5 57.5H46.5L44.907 63.743L43.595 57.5H41.5L43.5 65.5H45.951C45.951 65.5 47.464 59.864 47.5 59.5C47.536 59.864 49.049 65.5 49.049 65.5H51.5L53.5 57.5H51.405Z" fill="white"/>
<path d="M75.405 57.5L74.093 63.743L72.5 57.5H70.5L68.907 63.743L67.595 57.5H65.5L67.5 65.5H69.951C69.951 65.5 71.464 59.864 71.5 59.5C71.536 59.864 73.049 65.5 73.049 65.5H75.5L77.5 57.5H75.405Z" fill="white"/>
<rect x="28.5" y="30.5" width="62" height="62" rx="4" stroke="#E2E2E2" stroke-opacity="0.59" stroke-width="2"/>
<rect x="97.5" y="102.5" width="60" height="60" rx="3" fill="url(#paint4_linear_84_19180)"/>
<rect x="97.5" y="102.5" width="60" height="60" rx="3" fill="white" fill-opacity="0.2"/>
<path d="M127.5 113.75C117.144 113.75 108.75 122.144 108.75 132.5C108.75 142.856 117.144 151.25 127.5 151.25C137.856 151.25 146.25 142.856 146.25 132.5C146.25 122.144 137.856 113.75 127.5 113.75Z" fill="url(#paint5_linear_84_19180)"/>
<path opacity="0.05" d="M123.75 142.812C120.712 142.812 117.796 142.068 115.748 140.771L115.432 140.571L115.987 139.004L116.359 139.047C116.498 139.064 116.608 139.067 116.72 139.067L117.183 139.062C118.117 139.062 119.482 138.912 120.788 138.522C119.48 138.075 117.82 137.208 117.301 135.601L116.903 134.375H117.866C116.836 133.435 116.25 132.127 116.25 130.678V129.16L116.821 129.423C116.451 128.706 116.255 127.982 116.255 127.302C116.255 126.319 116.515 125.357 117.01 124.522L117.694 123.371L118.543 124.404C120.415 126.683 123.459 129.181 126.562 129.619V128.75C126.562 125.596 128.876 123.125 131.828 123.125C133.277 123.125 134.531 123.539 135.473 124.326C136.447 124.081 137.637 123.629 138.276 123.253L140.398 122.005L139.642 124.348C139.606 124.461 139.561 124.573 139.507 124.688L141.324 123.882L139.301 126.913C138.88 127.554 138.481 128.162 137.806 128.731C137.811 128.974 137.812 129.229 137.812 129.341C137.812 135.871 132.884 142.812 123.75 142.812Z" fill="black"/>
<path opacity="0.07" d="M123.75 142.344C120.8 142.344 117.974 141.626 115.999 140.374L116.303 139.513C116.465 139.531 116.59 139.536 116.718 139.536L117.187 139.531C118.7 139.531 120.749 139.185 122.32 138.441C120.421 138.088 118.283 137.114 117.747 135.456L117.548 134.844H118.193C118.64 134.844 118.995 134.82 119.286 134.783C117.689 133.981 116.72 132.482 116.72 130.679V129.893L117.411 130.213C117.612 130.321 117.88 130.446 118.173 130.567C117.348 129.62 116.724 128.453 116.724 127.304C116.724 126.404 116.963 125.525 117.414 124.762L117.756 124.186L118.18 124.703C120.251 127.224 123.622 129.91 127.03 130.14V128.75C127.03 125.859 129.138 123.594 131.827 123.594C133.261 123.594 134.47 124.023 135.344 124.839C136.398 124.603 137.767 124.096 138.512 123.659L139.573 123.034L139.195 124.206C139.016 124.763 138.582 125.324 138.073 125.824C138.236 125.76 138.399 125.693 138.561 125.622L140.039 124.966L138.912 126.655C138.459 127.345 138.063 127.949 137.334 128.512C137.34 128.796 137.344 129.194 137.344 129.34C137.344 135.644 132.579 142.344 123.75 142.344Z" fill="black"/>
<path d="M138.75 124.062C137.858 124.587 136.246 125.146 135.194 125.349C134.354 124.458 133.156 124.062 131.828 124.062C129.278 124.062 127.5 126.223 127.5 128.75V130.625C123.75 130.625 120.094 127.768 117.818 125C117.418 125.676 117.193 126.467 117.193 127.303C117.193 129.009 118.76 130.739 120 131.562C119.243 131.539 117.811 130.962 117.188 130.625V130.678C117.188 132.897 118.745 134.404 120.855 134.824C120.47 134.93 120 135.312 118.192 135.312C118.779 137.127 121.73 138.086 123.75 138.125C122.169 139.35 119.351 140 117.188 140C116.813 140 116.611 140.021 116.25 139.978C118.292 141.272 121.144 141.875 123.75 141.875C132.241 141.875 136.875 135.389 136.875 129.341C136.875 129.142 136.868 128.476 136.858 128.281C137.766 127.642 138.133 126.973 138.75 126.05C137.923 126.417 136.876 126.761 135.938 126.875C136.892 126.309 138.406 125.129 138.75 124.062Z" fill="white"/>
<rect x="96.5" y="101.5" width="62" height="62" rx="4" stroke="#E2E2E2" stroke-opacity="0.59" stroke-width="2"/>
<defs>
<filter id="filter0_d_84_19180" x="6" y="10" width="183" height="183" filterUnits="userSpaceOnUse" color-interpolation-filters="sRGB">
<feFlood flood-opacity="0" result="BackgroundImageFix"/>
<feColorMatrix in="SourceAlpha" type="matrix" values="0 0 0 0 0 0 0 0 0 0 0 0 0 0 0 0 0 0 127 0" result="hardAlpha"/>
<feOffset dy="4"/>
<feGaussianBlur stdDeviation="2"/>
<feComposite in2="hardAlpha" operator="out"/>
<feColorMatrix type="matrix" values="0 0 0 0 0 0 0 0 0 0 0 0 0 0 0 0 0 0 0.25 0"/>
<feBlend mode="normal" in2="BackgroundImageFix" result="effect1_dropShadow_84_19180"/>
<feBlend mode="normal" in="SourceGraphic" in2="effect1_dropShadow_84_19180" result="shape"/>
</filter>
<linearGradient id="paint0_linear_84_19180" x1="97.5" y1="18.4677" x2="97.5" y2="176.532" gradientUnits="userSpaceOnUse">
<stop stop-color="white"/>
<stop offset="0.472222" stop-color="#0D5176" stop-opacity="0.527778"/>
<stop offset="0.940972" stop-color="#12A6F7" stop-opacity="0.465278"/>
</linearGradient>
<linearGradient id="paint1_linear_84_19180" x1="59.5" y1="31.5" x2="86.3" y2="99.9" gradientUnits="userSpaceOnUse">
<stop stop-color="#B8DFFC"/>
<stop offset="0.453125" stop-color="#E5EFF7" stop-opacity="0.98"/>
<stop offset="1" stop-color="#8FC3EB"/>
</linearGradient>
<radialGradient id="paint2_radial_84_19180" cx="0" cy="0" r="1" gradientUnits="userSpaceOnUse" gradientTransform="translate(45.832 46.681) scale(40.041)">
<stop stop-color="#6FCEFC"/>
<stop offset="1" stop-color="#167CF7"/>
</radialGradient>
<radialGradient id="paint3_radial_84_19180" cx="0" cy="0" r="1" gradientUnits="userSpaceOnUse" gradientTransform="translate(45.2255 45.98) scale(45.0092 40.155)">
<stop offset="0.001" stop-color="#54C0F5"/>
<stop offset="0.998" stop-color="#0B69DB"/>
</radialGradient>
<linearGradient id="paint4_linear_84_19180" x1="127.5" y1="102.5" x2="154.3" y2="170.9" gradientUnits="userSpaceOnUse">
<stop stop-color="#B8DFFC"/>
<stop offset="0.453125" stop-color="#E5EFF7" stop-opacity="0.98"/>
<stop offset="1" stop-color="#8FC3EB"/>
</linearGradient>
<linearGradient id="paint5_linear_84_19180" x1="112.927" y1="117.39" x2="143.325" y2="148.906" gradientUnits="userSpaceOnUse">
<stop stop-color="#2AA4F4"/>
<stop offset="1" stop-color="#007AD9"/>
</linearGradient>
</defs>
</svg>
