<svg width="199" height="201" viewBox="0 0 199 201" fill="none" xmlns="http://www.w3.org/2000/svg">
<g filter="url(#filter0_d_84_17597)">
<path d="M172.887 10H26.1129C18.3186 10 12 16.3186 12 24.1129V170.887C12 178.681 18.3186 185 26.1129 185H172.887C180.681 185 187 178.681 187 170.887V24.1129C187 16.3186 180.681 10 172.887 10Z" fill="#727D86"/>
<path d="M172.887 10H26.1129C18.3186 10 12 16.3186 12 24.1129V170.887C12 178.681 18.3186 185 26.1129 185H172.887C180.681 185 187 178.681 187 170.887V24.1129C187 16.3186 180.681 10 172.887 10Z" stroke="#484B4F" stroke-width="15" stroke-linecap="round"/>
<path d="M172.887 10H26.1129C18.3186 10 12 16.3186 12 24.1129V170.887C12 178.681 18.3186 185 26.1129 185H172.887C180.681 185 187 178.681 187 170.887V24.1129C187 16.3186 180.681 10 172.887 10Z" fill="url(#paint0_linear_84_17597)" fill-opacity="0.2"/>
<path d="M26.1129 10.5H172.887C180.405 10.5 186.5 16.5948 186.5 24.1129V170.887C186.5 178.405 180.405 184.5 172.887 184.5H26.1129C18.5948 184.5 12.5 178.405 12.5 170.887V24.1129C12.5 16.5947 18.5947 10.5 26.1129 10.5Z" stroke="#F7F7F7" stroke-opacity="0.27"/>
</g>
<path d="M71.3327 80.9889L65.3408 74.997C61.0262 81.5102 58.5 89.3112 58.5 97.7097C58.5 105.268 60.5461 112.346 64.1025 118.434C64.7062 119.469 66.1506 119.615 66.9975 118.766L70.3767 115.387C70.9433 114.82 71.0484 113.959 70.6693 113.254C68.1781 108.62 66.742 103.339 66.742 97.7097C66.742 91.5983 68.4336 85.897 71.3327 80.9889Z" fill="#50E6FF" fill-opacity="0.5"/>
<path d="M132.678 97.7097C132.678 103.821 130.986 109.523 128.087 114.431L134.079 120.423C138.394 113.91 140.92 106.106 140.92 97.7097C140.92 90.1519 138.874 83.0741 135.317 76.9854C134.714 75.951 133.269 75.8068 132.422 76.6536L129.043 80.0328C128.476 80.5995 128.371 81.4607 128.75 82.1654C131.242 86.7995 132.678 92.0805 132.678 97.7097Z" fill="#199BE2" fill-opacity="0.5"/>
<path d="M82.0328 68.3767C82.5995 68.9433 83.4607 69.0484 84.1654 68.6693C88.7995 66.1781 94.0805 64.742 99.7097 64.742C105.821 64.742 111.523 66.4336 116.431 69.3327L122.425 63.3388C115.91 59.0262 108.109 56.5 99.7097 56.5C92.189 56.5 85.1462 58.5255 79.0781 62.0489C78.0046 62.6732 77.7779 64.1218 78.6557 64.9995L82.0328 68.3767Z" fill="#35C1F1" fill-opacity="0.5"/>
<path d="M117.387 127.043C116.82 126.476 115.959 126.371 115.254 126.75C110.62 129.242 105.339 130.678 99.7097 130.678C93.5983 130.678 87.897 128.986 82.9889 126.087L76.997 132.079C83.5102 136.394 91.3132 138.92 99.7097 138.92C107.268 138.92 114.346 136.874 120.434 133.317C121.469 132.714 121.615 131.269 120.766 130.422L117.387 127.043Z" fill="#0078D4" fill-opacity="0.5"/>
<path d="M124.3 73.1384L114.339 72.7964C113.635 72.7717 113.284 71.9289 113.769 71.4138L123.364 61.1629C123.863 60.6292 124.757 60.963 124.786 61.6925L125.2 72.236C125.219 72.7408 124.805 73.1549 124.3 73.1384Z" fill="#35C1F1" fill-opacity="0.5"/>
<path d="M75.1199 122.281L85.0803 122.623C85.785 122.648 86.1352 123.491 85.651 124.006L76.0554 134.257C75.5567 134.79 74.6625 134.457 74.6336 133.727L74.2195 123.184C74.2009 122.679 74.6151 122.265 75.1199 122.281Z" fill="#0078D4" fill-opacity="0.5"/>
<path d="M124.281 122.3L124.623 112.339C124.648 111.635 125.491 111.284 126.006 111.769L136.257 121.364C136.79 121.863 136.457 122.757 135.727 122.786L125.184 123.2C124.679 123.219 124.265 122.805 124.281 122.3Z" fill="#199BE2" fill-opacity="0.5"/>
<path d="M75.1384 73.1199L74.7964 83.0803C74.7717 83.785 73.9289 84.1352 73.4138 83.651L63.1609 74.0554C62.6272 73.5567 62.961 72.6625 63.6904 72.6336L74.2339 72.2195C74.7408 72.2009 75.1549 72.6151 75.1384 73.1199Z" fill="#50E6FF" fill-opacity="0.5"/>
<rect x="31.5" y="31.5" width="60" height="60" rx="3" fill="url(#paint1_linear_84_17597)"/>
<rect x="31.5" y="31.5" width="60" height="60" rx="3" fill="white" fill-opacity="0.2"/>
<path d="M41.5 61.5C41.5 50.455 50.455 41.5 61.5 41.5C72.545 41.5 81.5 50.455 81.5 61.5C81.5 72.545 72.545 81.5 61.5 81.5C50.455 81.5 41.5 72.545 41.5 61.5Z" fill="url(#paint2_radial_84_17597)"/>
<path d="M78.5 61.5C78.5 58.261 77.827 55.209 76.661 52.5H79.343C78.995 51.811 78.618 51.14 78.195 50.5H75.683C72.638 45.084 67.421 41.5 61.5 41.5C55.579 41.5 50.362 45.084 47.317 50.5H44.805C44.382 51.14 44.005 51.811 43.657 52.5H46.339C45.173 55.209 44.5 58.261 44.5 61.5C44.5 64.739 45.173 67.791 46.339 70.5H43.657C44.005 71.189 44.382 71.86 44.805 72.5H47.317C50.362 77.916 55.579 81.5 61.5 81.5C67.421 81.5 72.638 77.916 75.683 72.5H78.195C78.618 71.86 78.995 71.189 79.343 70.5H76.661C77.827 67.791 78.5 64.739 78.5 61.5ZM76.5 61.5C76.5 64.78 75.753 67.849 74.471 70.5H68.678C69.221 67.667 69.5 64.553 69.5 61.5C69.5 58.447 69.221 55.333 68.678 52.5H74.471C75.753 55.151 76.5 58.22 76.5 61.5ZM61.5 79.5C59.81 79.5 58.009 76.863 56.826 72.5H66.175C64.991 76.863 63.19 79.5 61.5 79.5ZM56.348 70.5C55.821 67.913 55.5 64.871 55.5 61.5C55.5 58.129 55.821 55.087 56.348 52.5H66.652C67.179 55.087 67.5 58.129 67.5 61.5C67.5 64.871 67.179 67.913 66.652 70.5H56.348ZM61.5 43.5C63.19 43.5 64.991 46.137 66.174 50.5H56.825C58.009 46.137 59.81 43.5 61.5 43.5ZM73.347 50.5H68.236C67.61 48.001 66.757 45.816 65.684 44.227C68.763 45.303 71.429 47.532 73.347 50.5ZM57.316 44.227C56.243 45.817 55.39 48.001 54.764 50.5H49.653C51.571 47.532 54.237 45.303 57.316 44.227ZM46.5 61.5C46.5 58.22 47.247 55.151 48.529 52.5H54.322C53.779 55.333 53.5 58.447 53.5 61.5C53.5 64.553 53.779 67.667 54.322 70.5H48.529C47.247 67.849 46.5 64.78 46.5 61.5ZM49.653 72.5H54.764C55.39 74.999 56.243 77.184 57.316 78.773C54.237 77.697 51.571 75.468 49.653 72.5ZM65.684 78.773C66.757 77.183 67.61 74.999 68.236 72.5H73.347C71.429 75.468 68.763 77.697 65.684 78.773Z" fill="url(#paint3_radial_84_17597)"/>
<path d="M65.405 57.5L64.093 63.743L62.5 57.5H60.5L58.907 63.743L57.595 57.5H55.5L57.5 65.5H59.951C59.951 65.5 61.464 59.864 61.5 59.5C61.536 59.864 63.049 65.5 63.049 65.5H65.5L67.5 57.5H65.405Z" fill="white"/>
<path d="M53.405 57.5L52.093 63.743L50.5 57.5H48.5L46.907 63.743L45.595 57.5H43.5L45.5 65.5H47.951C47.951 65.5 49.464 59.864 49.5 59.5C49.536 59.864 51.049 65.5 51.049 65.5H53.5L55.5 57.5H53.405Z" fill="white"/>
<path d="M77.405 57.5L76.093 63.743L74.5 57.5H72.5L70.907 63.743L69.595 57.5H67.5L69.5 65.5H71.951C71.951 65.5 73.464 59.864 73.5 59.5C73.536 59.864 75.049 65.5 75.049 65.5H77.5L79.5 57.5H77.405Z" fill="white"/>
<rect x="30.5" y="30.5" width="62" height="62" rx="4" stroke="#E2E2E2" stroke-opacity="0.59" stroke-width="2"/>
<rect x="99.5" y="102.5" width="60" height="60" rx="3" fill="url(#paint4_linear_84_17597)"/>
<rect x="99.5" y="102.5" width="60" height="60" rx="3" fill="white" fill-opacity="0.2"/>
<path d="M151.235 136.231H144.432C144.413 132.365 142.851 128.664 140.088 125.937C137.324 123.21 133.584 121.679 129.686 121.679C125.788 121.679 122.048 123.21 119.285 125.937C116.522 128.664 114.96 132.365 114.941 136.231H108.138C108.137 134.201 108.434 132.182 109.02 130.237C110.348 125.824 113.076 121.953 116.799 119.201C120.523 116.449 125.043 114.963 129.686 114.963C134.33 114.963 138.85 116.449 142.574 119.201C146.297 121.953 149.025 125.824 150.352 130.237C150.939 132.182 151.236 134.201 151.235 136.231Z" fill="#50E6FF"/>
<path d="M150.816 132.297V139.421C150.814 139.96 150.597 140.477 150.213 140.858C149.828 141.239 149.307 141.454 148.763 141.456H145.172V130.262H148.763C148.811 130.26 148.859 130.263 148.907 130.272C149.424 130.308 149.909 130.536 150.263 130.912C150.617 131.288 150.814 131.783 150.816 132.297Z" fill="#42A4ED"/>
<path d="M112.756 130.227V141.421H109.164C108.62 141.419 108.099 141.204 107.715 140.823C107.33 140.442 107.114 139.925 107.112 139.386V132.262C107.113 131.748 107.31 131.253 107.665 130.877C108.019 130.502 108.503 130.273 109.02 130.237C109.068 130.229 109.116 130.225 109.164 130.227H112.756Z" fill="#42A4ED"/>
<path d="M149.183 136.231V136.333C149.185 138.052 148.954 139.764 148.495 141.421H146.617L146.618 136.231H144.432C144.413 132.365 142.851 128.664 140.088 125.937C137.324 123.21 133.585 121.679 129.686 121.679C125.788 121.679 122.048 123.21 119.285 125.937C116.522 128.664 114.96 132.365 114.941 136.231H112.756V141.421H110.878C110.419 139.764 110.188 138.052 110.19 136.333V136.231C110.197 134.189 110.537 132.162 111.196 130.227C112.487 126.376 114.968 123.025 118.287 120.651C121.606 118.276 125.594 116.998 129.687 116.998C133.779 116.998 137.768 118.276 141.087 120.651C144.405 123.025 146.887 126.376 148.177 130.227C148.836 132.162 149.176 134.189 149.183 136.231Z" fill="url(#paint5_radial_84_17597)"/>
<path d="M129.686 118.016C124.788 118.016 120.09 119.946 116.626 123.381C113.162 126.816 111.216 131.475 111.216 136.333H148.156C148.156 131.475 146.211 126.816 142.747 123.381C139.283 119.946 134.585 118.016 129.686 118.016Z" fill="url(#paint6_linear_84_17597)"/>
<path d="M136.971 147.425H122.401C121.066 147.426 119.745 147.165 118.513 146.659C117.28 146.153 116.161 145.41 115.217 144.474C114.274 143.539 113.526 142.429 113.015 141.206C112.505 139.984 112.242 138.674 112.242 137.351C112.242 136.028 112.505 134.718 113.015 133.495C113.526 132.273 114.274 131.162 115.217 130.227C116.161 129.291 117.28 128.549 118.513 128.043C119.745 127.537 121.066 127.276 122.401 127.276H136.971C138.305 127.276 139.627 127.537 140.859 128.043C142.092 128.549 143.211 129.291 144.155 130.227C145.098 131.162 145.846 132.273 146.357 133.495C146.867 134.718 147.13 136.028 147.13 137.351C147.13 138.674 146.867 139.984 146.357 141.206C145.846 142.429 145.098 143.539 144.155 144.474C143.211 145.41 142.092 146.153 140.859 146.659C139.627 147.165 138.305 147.426 136.971 147.425Z" fill="#64717C"/>
<path d="M136.92 148.545H122.452C119.473 148.541 116.617 147.366 114.511 145.277C112.404 143.188 111.219 140.356 111.216 137.402V137.3C111.219 134.345 112.404 131.513 114.511 129.424C116.617 127.335 119.473 126.16 122.452 126.157H136.92C139.899 126.16 142.755 127.335 144.861 129.424C146.968 131.513 148.153 134.345 148.156 137.3V137.403C148.153 140.357 146.968 143.189 144.861 145.278C142.755 147.366 139.899 148.541 136.92 148.545ZM122.452 128.192C120.017 128.195 117.683 129.155 115.961 130.863C114.24 132.57 113.271 134.885 113.268 137.3V137.403C113.271 139.817 114.24 142.132 115.962 143.839C117.683 145.546 120.017 146.507 122.452 146.509H136.92C139.355 146.507 141.69 145.546 143.411 143.839C145.133 142.131 146.101 139.816 146.104 137.402V137.3C146.101 134.885 145.133 132.57 143.411 130.863C141.689 129.155 139.355 128.195 136.92 128.192H122.452Z" fill="url(#paint7_linear_84_17597)"/>
<path d="M126.606 138.368C126.373 138.368 126.147 138.289 125.965 138.144C125.783 137.999 125.656 137.797 125.605 137.571C125.434 136.896 125.03 136.301 124.464 135.889C123.898 135.477 123.204 135.274 122.503 135.315C121.802 135.274 121.108 135.477 120.542 135.889C119.976 136.301 119.572 136.896 119.401 137.571C119.341 137.834 119.179 138.063 118.949 138.207C118.72 138.352 118.442 138.4 118.177 138.341C117.911 138.283 117.68 138.123 117.534 137.896C117.388 137.669 117.338 137.393 117.397 137.13C117.668 136.002 118.325 135.001 119.256 134.299C120.187 133.597 121.334 133.237 122.503 133.28C123.672 133.237 124.819 133.597 125.751 134.299C126.682 135.001 127.339 136.002 127.61 137.13C127.668 137.393 127.619 137.669 127.473 137.897C127.327 138.125 127.096 138.286 126.83 138.344C126.757 138.36 126.682 138.368 126.606 138.368Z" fill="#50E6FF"/>
<path d="M140.972 138.368C140.739 138.368 140.513 138.289 140.331 138.144C140.149 137.999 140.022 137.797 139.972 137.571C139.8 136.896 139.397 136.301 138.83 135.889C138.264 135.477 137.57 135.274 136.869 135.315C136.168 135.274 135.474 135.477 134.908 135.889C134.342 136.301 133.938 136.896 133.767 137.571C133.707 137.834 133.545 138.063 133.315 138.207C133.086 138.352 132.808 138.4 132.543 138.341C132.278 138.283 132.046 138.123 131.9 137.896C131.754 137.669 131.704 137.393 131.763 137.13C132.034 136.002 132.691 135.001 133.622 134.299C134.553 133.597 135.7 133.237 136.869 133.28C138.038 133.237 139.186 133.597 140.117 134.299C141.048 135.001 141.704 136.002 141.976 137.13C142.034 137.393 141.985 137.669 141.839 137.897C141.693 138.125 141.462 138.286 141.196 138.344C141.123 138.36 141.048 138.368 140.972 138.368Z" fill="#50E6FF"/>
<path d="M151.888 150.411H138.828V148.047H151.888C152.369 148.047 152.759 147.518 152.759 146.866V136.231H154.5V146.866C154.5 148.82 153.328 150.411 151.888 150.411Z" fill="#727D86"/>
<path d="M129.5 114.993C114.575 114.993 110.887 125.202 110.887 125.202H111.315C112.956 125.202 114.491 124.562 115.669 123.521C119.251 120.352 124.127 118.396 129.5 118.396C134.873 118.396 139.749 120.352 143.331 123.521C144.509 124.562 146.045 125.202 147.685 125.202H148.113C148.113 125.202 144.425 114.993 129.5 114.993Z" fill="url(#paint8_linear_84_17597)"/>
<path d="M109.6 141.082V133.142C109.6 123.135 118.527 114.993 129.5 114.993C140.473 114.993 149.4 123.135 149.4 133.142V141.082H151.888C151.888 136.852 151.888 134.522 151.888 133.142C151.888 121.865 141.864 112.724 129.5 112.724C117.136 112.724 107.112 121.865 107.112 133.142C107.112 134.522 107.112 136.852 107.112 141.082H109.6Z" fill="#727D86"/>
<path d="M153.007 131.38L154.063 132.476C154.343 132.767 154.5 133.161 154.5 133.572V139.263C154.5 139.673 154.343 140.068 154.063 140.358L153.007 141.455V131.38Z" fill="#5C6369"/>
<path d="M153.007 141.455H150.076C149.428 141.455 148.903 140.761 148.903 139.905V132.93C148.903 132.074 149.428 131.38 150.076 131.38H153.007V141.455Z" fill="#727D86"/>
<path d="M153.007 131.38H151.142V141.455H153.007V131.38Z" fill="url(#paint9_linear_84_17597)"/>
<path d="M106.241 130.692L105.01 131.821C104.684 132.12 104.5 132.526 104.5 132.949V138.81C104.5 139.233 104.684 139.639 105.01 139.938L106.241 141.068V130.692Z" fill="#5C6369"/>
<path d="M106.328 141.082H109.127C109.745 141.082 110.246 140.363 110.246 139.475V132.242C110.246 131.354 109.745 130.634 109.127 130.634H106.328V141.082Z" fill="#727D86"/>
<path d="M106.241 130.692H107.983V141.068H106.241V130.692Z" fill="url(#paint10_linear_84_17597)"/>
<path d="M139.575 148.545C139.575 150.606 137.904 152.276 135.843 152.276C133.782 152.276 132.112 150.606 132.112 148.545C132.112 146.484 133.782 144.813 135.843 144.813C137.904 144.813 139.575 146.484 139.575 148.545Z" fill="url(#paint11_linear_84_17597)"/>
<rect x="98.5" y="101.5" width="62" height="62" rx="4" stroke="#E2E2E2" stroke-opacity="0.59" stroke-width="2"/>
<defs>
<filter id="filter0_d_84_17597" x="0.5" y="2.5" width="198" height="198" filterUnits="userSpaceOnUse" color-interpolation-filters="sRGB">
<feFlood flood-opacity="0" result="BackgroundImageFix"/>
<feColorMatrix in="SourceAlpha" type="matrix" values="0 0 0 0 0 0 0 0 0 0 0 0 0 0 0 0 0 0 127 0" result="hardAlpha"/>
<feOffset dy="4"/>
<feGaussianBlur stdDeviation="2"/>
<feComposite in2="hardAlpha" operator="out"/>
<feColorMatrix type="matrix" values="0 0 0 0 0 0 0 0 0 0 0 0 0 0 0 0 0 0 0.25 0"/>
<feBlend mode="normal" in2="BackgroundImageFix" result="effect1_dropShadow_84_17597"/>
<feBlend mode="normal" in="SourceGraphic" in2="effect1_dropShadow_84_17597" result="shape"/>
</filter>
<linearGradient id="paint0_linear_84_17597" x1="99.5" y1="18.4677" x2="99.5" y2="176.532" gradientUnits="userSpaceOnUse">
<stop stop-color="white"/>
<stop offset="0.472222" stop-color="#0D5176" stop-opacity="0.527778"/>
<stop offset="0.940972" stop-color="#12A6F7" stop-opacity="0.465278"/>
</linearGradient>
<linearGradient id="paint1_linear_84_17597" x1="61.5" y1="31.5" x2="88.3" y2="99.9" gradientUnits="userSpaceOnUse">
<stop stop-color="#B8DFFC"/>
<stop offset="0.453125" stop-color="#E5EFF7" stop-opacity="0.98"/>
<stop offset="1" stop-color="#8FC3EB"/>
</linearGradient>
<radialGradient id="paint2_radial_84_17597" cx="0" cy="0" r="1" gradientUnits="userSpaceOnUse" gradientTransform="translate(47.832 46.681) scale(40.041)">
<stop stop-color="#6FCEFC"/>
<stop offset="1" stop-color="#167CF7"/>
</radialGradient>
<radialGradient id="paint3_radial_84_17597" cx="0" cy="0" r="1" gradientUnits="userSpaceOnUse" gradientTransform="translate(47.2255 45.98) scale(45.0092 40.155)">
<stop offset="0.001" stop-color="#54C0F5"/>
<stop offset="0.998" stop-color="#0B69DB"/>
</radialGradient>
<linearGradient id="paint4_linear_84_17597" x1="129.5" y1="102.5" x2="156.3" y2="170.9" gradientUnits="userSpaceOnUse">
<stop stop-color="#B8DFFC"/>
<stop offset="0.453125" stop-color="#E5EFF7" stop-opacity="0.98"/>
<stop offset="1" stop-color="#8FC3EB"/>
</linearGradient>
<radialGradient id="paint5_radial_84_17597" cx="0" cy="0" r="1" gradientUnits="userSpaceOnUse" gradientTransform="translate(129.512 141.473) scale(22.4581 26.692)">
<stop offset="0.934" stop-opacity="0.2"/>
<stop offset="1" stop-opacity="0"/>
</radialGradient>
<linearGradient id="paint6_linear_84_17597" x1="120.63" y1="108.556" x2="145.203" y2="153.939" gradientUnits="userSpaceOnUse">
<stop stop-color="#FFD869"/>
<stop offset="1" stop-color="#FEC52B"/>
</linearGradient>
<linearGradient id="paint7_linear_84_17597" x1="122.726" y1="108.477" x2="146.917" y2="163.088" gradientUnits="userSpaceOnUse">
<stop stop-color="#EBC500"/>
<stop offset="1" stop-color="#FFD869"/>
</linearGradient>
<linearGradient id="paint8_linear_84_17597" x1="110.887" y1="120.097" x2="148.113" y2="120.097" gradientUnits="userSpaceOnUse">
<stop stop-color="#3079D6"/>
<stop offset="1" stop-color="#297CD2"/>
</linearGradient>
<linearGradient id="paint9_linear_84_17597" x1="148.577" y1="133.512" x2="154.29" y2="140.389" gradientUnits="userSpaceOnUse">
<stop stop-color="#33BEF0"/>
<stop offset="1" stop-color="#0A85D9"/>
</linearGradient>
<linearGradient id="paint10_linear_84_17597" x1="110.377" y1="132.887" x2="104.414" y2="139.392" gradientUnits="userSpaceOnUse">
<stop stop-color="#33BEF0"/>
<stop offset="1" stop-color="#0A85D9"/>
</linearGradient>
<linearGradient id="paint11_linear_84_17597" x1="133.205" y1="145.907" x2="138.481" y2="151.183" gradientUnits="userSpaceOnUse">
<stop stop-color="#33BEF0"/>
<stop offset="1" stop-color="#0A85D9"/>
</linearGradient>
</defs>
</svg>
