<svg width="195" height="195" viewBox="0 0 195 195" fill="none" xmlns="http://www.w3.org/2000/svg">
<path d="M69.3327 80.9889L63.3408 74.997C59.0262 81.5102 56.5 89.3112 56.5 97.7097C56.5 105.268 58.5461 112.346 62.1025 118.434C62.7062 119.469 64.1506 119.615 64.9975 118.766L68.3767 115.387C68.9433 114.82 69.0484 113.959 68.6693 113.254C66.1781 108.62 64.742 103.339 64.742 97.7097C64.742 91.5983 66.4336 85.897 69.3327 80.9889Z" fill="#50E6FF" fill-opacity="0.5"/>
<path d="M130.678 97.7097C130.678 103.821 128.986 109.523 126.087 114.431L132.079 120.423C136.394 113.91 138.92 106.106 138.92 97.7097C138.92 90.1519 136.874 83.0741 133.317 76.9854C132.714 75.951 131.269 75.8068 130.422 76.6536L127.043 80.0328C126.476 80.5995 126.371 81.4607 126.75 82.1654C129.242 86.7995 130.678 92.0805 130.678 97.7097Z" fill="#199BE2" fill-opacity="0.5"/>
<path d="M80.0328 68.3767C80.5995 68.9433 81.4607 69.0484 82.1654 68.6693C86.7995 66.1781 92.0805 64.742 97.7097 64.742C103.821 64.742 109.523 66.4336 114.431 69.3327L120.425 63.3388C113.91 59.0262 106.109 56.5 97.7097 56.5C90.189 56.5 83.1462 58.5255 77.0781 62.0489C76.0046 62.6732 75.7779 64.1218 76.6557 64.9995L80.0328 68.3767Z" fill="#35C1F1" fill-opacity="0.5"/>
<path d="M115.387 127.043C114.82 126.476 113.959 126.371 113.254 126.75C108.62 129.242 103.339 130.678 97.7097 130.678C91.5983 130.678 85.897 128.986 80.9889 126.087L74.997 132.079C81.5102 136.394 89.3132 138.92 97.7097 138.92C105.268 138.92 112.346 136.874 118.434 133.317C119.469 132.714 119.615 131.269 118.766 130.422L115.387 127.043Z" fill="#0078D4" fill-opacity="0.5"/>
<path d="M122.3 73.1384L112.339 72.7964C111.635 72.7717 111.284 71.9289 111.769 71.4138L121.364 61.1629C121.863 60.6292 122.757 60.963 122.786 61.6925L123.2 72.236C123.219 72.7408 122.805 73.1549 122.3 73.1384Z" fill="#35C1F1" fill-opacity="0.5"/>
<path d="M73.1199 122.281L83.0803 122.623C83.785 122.648 84.1352 123.491 83.651 124.006L74.0554 134.257C73.5567 134.79 72.6625 134.457 72.6336 133.727L72.2195 123.184C72.2009 122.679 72.6151 122.265 73.1199 122.281Z" fill="#0078D4" fill-opacity="0.5"/>
<path d="M122.281 122.3L122.623 112.339C122.648 111.635 123.491 111.284 124.006 111.769L134.257 121.364C134.79 121.863 134.457 122.757 133.727 122.786L123.184 123.2C122.679 123.219 122.265 122.805 122.281 122.3Z" fill="#199BE2" fill-opacity="0.5"/>
<path d="M73.1384 73.1199L72.7964 83.0803C72.7717 83.785 71.9289 84.1352 71.4138 83.651L61.1609 74.0554C60.6272 73.5567 60.961 72.6625 61.6904 72.6336L72.2339 72.2195C72.7408 72.2009 73.1549 72.6151 73.1384 73.1199Z" fill="#50E6FF" fill-opacity="0.5"/>
<rect x="29.5" y="31.5" width="60" height="60" rx="3" fill="url(#paint0_linear_84_17595)"/>
<rect x="29.5" y="31.5" width="60" height="60" rx="3" fill="white" fill-opacity="0.2"/>
<path d="M39.5 61.5C39.5 50.455 48.455 41.5 59.5 41.5C70.545 41.5 79.5 50.455 79.5 61.5C79.5 72.545 70.545 81.5 59.5 81.5C48.455 81.5 39.5 72.545 39.5 61.5Z" fill="url(#paint1_radial_84_17595)"/>
<path d="M76.5 61.5C76.5 58.261 75.827 55.209 74.661 52.5H77.343C76.995 51.811 76.618 51.14 76.195 50.5H73.683C70.638 45.084 65.421 41.5 59.5 41.5C53.579 41.5 48.362 45.084 45.317 50.5H42.805C42.382 51.14 42.005 51.811 41.657 52.5H44.339C43.173 55.209 42.5 58.261 42.5 61.5C42.5 64.739 43.173 67.791 44.339 70.5H41.657C42.005 71.189 42.382 71.86 42.805 72.5H45.317C48.362 77.916 53.579 81.5 59.5 81.5C65.421 81.5 70.638 77.916 73.683 72.5H76.195C76.618 71.86 76.995 71.189 77.343 70.5H74.661C75.827 67.791 76.5 64.739 76.5 61.5ZM74.5 61.5C74.5 64.78 73.753 67.849 72.471 70.5H66.678C67.221 67.667 67.5 64.553 67.5 61.5C67.5 58.447 67.221 55.333 66.678 52.5H72.471C73.753 55.151 74.5 58.22 74.5 61.5ZM59.5 79.5C57.81 79.5 56.009 76.863 54.826 72.5H64.175C62.991 76.863 61.19 79.5 59.5 79.5ZM54.348 70.5C53.821 67.913 53.5 64.871 53.5 61.5C53.5 58.129 53.821 55.087 54.348 52.5H64.652C65.179 55.087 65.5 58.129 65.5 61.5C65.5 64.871 65.179 67.913 64.652 70.5H54.348ZM59.5 43.5C61.19 43.5 62.991 46.137 64.174 50.5H54.825C56.009 46.137 57.81 43.5 59.5 43.5ZM71.347 50.5H66.236C65.61 48.001 64.757 45.816 63.684 44.227C66.763 45.303 69.429 47.532 71.347 50.5ZM55.316 44.227C54.243 45.817 53.39 48.001 52.764 50.5H47.653C49.571 47.532 52.237 45.303 55.316 44.227ZM44.5 61.5C44.5 58.22 45.247 55.151 46.529 52.5H52.322C51.779 55.333 51.5 58.447 51.5 61.5C51.5 64.553 51.779 67.667 52.322 70.5H46.529C45.247 67.849 44.5 64.78 44.5 61.5ZM47.653 72.5H52.764C53.39 74.999 54.243 77.184 55.316 78.773C52.237 77.697 49.571 75.468 47.653 72.5ZM63.684 78.773C64.757 77.183 65.61 74.999 66.236 72.5H71.347C69.429 75.468 66.763 77.697 63.684 78.773Z" fill="url(#paint2_radial_84_17595)"/>
<path d="M63.405 57.5L62.093 63.743L60.5 57.5H58.5L56.907 63.743L55.595 57.5H53.5L55.5 65.5H57.951C57.951 65.5 59.464 59.864 59.5 59.5C59.536 59.864 61.049 65.5 61.049 65.5H63.5L65.5 57.5H63.405Z" fill="white"/>
<path d="M51.405 57.5L50.093 63.743L48.5 57.5H46.5L44.907 63.743L43.595 57.5H41.5L43.5 65.5H45.951C45.951 65.5 47.464 59.864 47.5 59.5C47.536 59.864 49.049 65.5 49.049 65.5H51.5L53.5 57.5H51.405Z" fill="white"/>
<path d="M75.405 57.5L74.093 63.743L72.5 57.5H70.5L68.907 63.743L67.595 57.5H65.5L67.5 65.5H69.951C69.951 65.5 71.464 59.864 71.5 59.5C71.536 59.864 73.049 65.5 73.049 65.5H75.5L77.5 57.5H75.405Z" fill="white"/>
<rect x="28.5" y="30.5" width="62" height="62" rx="4" stroke="#E2E2E2" stroke-opacity="0.59" stroke-width="2"/>
<rect x="97.5" y="102.5" width="60" height="60" rx="3" fill="url(#paint3_linear_84_17595)"/>
<rect x="97.5" y="102.5" width="60" height="60" rx="3" fill="white" fill-opacity="0.2"/>
<path d="M149.235 136.231H142.432C142.413 132.365 140.851 128.664 138.088 125.937C135.324 123.21 131.584 121.679 127.686 121.679C123.788 121.679 120.048 123.21 117.285 125.937C114.522 128.664 112.96 132.365 112.941 136.231H106.138C106.137 134.201 106.434 132.182 107.02 130.237C108.348 125.824 111.076 121.953 114.799 119.201C118.523 116.449 123.043 114.963 127.686 114.963C132.33 114.963 136.85 116.449 140.574 119.201C144.297 121.953 147.025 125.824 148.352 130.237C148.939 132.182 149.236 134.201 149.235 136.231Z" fill="#50E6FF"/>
<path d="M148.816 132.297V139.421C148.814 139.96 148.597 140.477 148.213 140.858C147.828 141.239 147.307 141.454 146.763 141.456H143.172V130.262H146.763C146.811 130.26 146.859 130.263 146.907 130.272C147.424 130.308 147.909 130.536 148.263 130.912C148.617 131.288 148.814 131.783 148.816 132.297Z" fill="#42A4ED"/>
<path d="M110.756 130.227V141.421H107.164C106.62 141.419 106.099 141.204 105.715 140.823C105.33 140.442 105.114 139.925 105.112 139.386V132.262C105.113 131.748 105.31 131.253 105.665 130.877C106.019 130.502 106.503 130.273 107.02 130.237C107.068 130.229 107.116 130.225 107.164 130.227H110.756Z" fill="#42A4ED"/>
<path d="M147.183 136.231V136.333C147.185 138.052 146.954 139.764 146.495 141.421H144.617L144.618 136.231H142.432C142.413 132.365 140.851 128.664 138.088 125.937C135.324 123.21 131.585 121.679 127.686 121.679C123.788 121.679 120.048 123.21 117.285 125.937C114.522 128.664 112.96 132.365 112.941 136.231H110.756V141.421H108.878C108.419 139.764 108.188 138.052 108.19 136.333V136.231C108.197 134.189 108.537 132.162 109.196 130.227C110.487 126.376 112.968 123.025 116.287 120.651C119.606 118.276 123.594 116.998 127.687 116.998C131.779 116.998 135.768 118.276 139.087 120.651C142.405 123.025 144.887 126.376 146.177 130.227C146.836 132.162 147.176 134.189 147.183 136.231Z" fill="url(#paint4_radial_84_17595)"/>
<path d="M127.686 118.016C122.788 118.016 118.09 119.946 114.626 123.381C111.162 126.816 109.216 131.475 109.216 136.333H146.156C146.156 131.475 144.211 126.816 140.747 123.381C137.283 119.946 132.585 118.016 127.686 118.016Z" fill="url(#paint5_linear_84_17595)"/>
<path d="M134.971 147.425H120.401C119.066 147.426 117.745 147.165 116.513 146.659C115.28 146.153 114.16 145.41 113.217 144.474C112.274 143.539 111.526 142.429 111.015 141.206C110.505 139.984 110.242 138.674 110.242 137.351C110.242 136.028 110.505 134.718 111.015 133.495C111.526 132.273 112.274 131.162 113.217 130.227C114.16 129.291 115.28 128.549 116.513 128.043C117.745 127.537 119.066 127.276 120.401 127.276H134.971C136.305 127.276 137.627 127.537 138.859 128.043C140.092 128.549 141.211 129.291 142.155 130.227C143.098 131.162 143.846 132.273 144.357 133.495C144.867 134.718 145.13 136.028 145.13 137.351C145.13 138.674 144.867 139.984 144.357 141.206C143.846 142.429 143.098 143.539 142.155 144.474C141.211 145.41 140.092 146.153 138.859 146.659C137.627 147.165 136.305 147.426 134.971 147.425Z" fill="#64717C"/>
<path d="M134.92 148.545H120.452C117.473 148.541 114.617 147.366 112.511 145.277C110.404 143.188 109.219 140.356 109.216 137.402V137.3C109.219 134.345 110.404 131.513 112.511 129.424C114.617 127.335 117.473 126.16 120.452 126.157H134.92C137.899 126.16 140.755 127.335 142.861 129.424C144.968 131.513 146.153 134.345 146.156 137.3V137.403C146.153 140.357 144.968 143.189 142.861 145.278C140.755 147.366 137.899 148.541 134.92 148.545ZM120.452 128.192C118.017 128.195 115.683 129.155 113.961 130.863C112.24 132.57 111.271 134.885 111.268 137.3V137.403C111.271 139.817 112.24 142.132 113.962 143.839C115.683 145.546 118.017 146.507 120.452 146.509H134.92C137.355 146.507 139.69 145.546 141.411 143.839C143.133 142.131 144.101 139.816 144.104 137.402V137.3C144.101 134.885 143.133 132.57 141.411 130.863C139.689 129.155 137.355 128.195 134.92 128.192H120.452Z" fill="url(#paint6_linear_84_17595)"/>
<path d="M124.606 138.368C124.373 138.368 124.147 138.289 123.965 138.144C123.783 137.999 123.656 137.797 123.605 137.571C123.434 136.896 123.03 136.301 122.464 135.889C121.898 135.477 121.204 135.274 120.503 135.315C119.802 135.274 119.108 135.477 118.542 135.889C117.976 136.301 117.572 136.896 117.401 137.571C117.341 137.834 117.179 138.063 116.949 138.207C116.72 138.352 116.442 138.4 116.177 138.341C115.911 138.283 115.68 138.123 115.534 137.896C115.388 137.669 115.338 137.393 115.397 137.13C115.668 136.002 116.325 135.001 117.256 134.299C118.187 133.597 119.334 133.237 120.503 133.28C121.672 133.237 122.819 133.597 123.751 134.299C124.682 135.001 125.339 136.002 125.61 137.13C125.668 137.393 125.619 137.669 125.473 137.897C125.327 138.125 125.096 138.286 124.83 138.344C124.757 138.36 124.682 138.368 124.606 138.368Z" fill="#50E6FF"/>
<path d="M138.973 138.368C138.739 138.368 138.513 138.289 138.331 138.144C138.149 137.999 138.022 137.797 137.972 137.571C137.8 136.896 137.397 136.301 136.83 135.889C136.264 135.477 135.57 135.274 134.869 135.315C134.168 135.274 133.474 135.477 132.908 135.889C132.342 136.301 131.938 136.896 131.767 137.571C131.707 137.834 131.545 138.063 131.315 138.207C131.086 138.352 130.808 138.4 130.543 138.341C130.278 138.283 130.046 138.123 129.9 137.896C129.754 137.669 129.704 137.393 129.763 137.13C130.034 136.002 130.691 135.001 131.622 134.299C132.553 133.597 133.7 133.237 134.869 133.28C136.038 133.237 137.186 133.597 138.117 134.299C139.048 135.001 139.704 136.002 139.976 137.13C140.034 137.393 139.985 137.669 139.839 137.897C139.693 138.125 139.462 138.286 139.196 138.344C139.123 138.36 139.048 138.368 138.973 138.368Z" fill="#50E6FF"/>
<path d="M149.888 150.411H136.828V148.047H149.888C150.369 148.047 150.759 147.518 150.759 146.866V136.231H152.5V146.866C152.5 148.82 151.328 150.411 149.888 150.411Z" fill="#727D86"/>
<path d="M127.5 114.993C112.575 114.993 108.887 125.202 108.887 125.202H109.315C110.956 125.202 112.491 124.562 113.669 123.521C117.251 120.352 122.127 118.396 127.5 118.396C132.873 118.396 137.749 120.352 141.331 123.521C142.509 124.562 144.045 125.202 145.685 125.202H146.113C146.113 125.202 142.425 114.993 127.5 114.993Z" fill="url(#paint7_linear_84_17595)"/>
<path d="M107.6 141.082V133.142C107.6 123.135 116.527 114.993 127.5 114.993C138.473 114.993 147.4 123.135 147.4 133.142V141.082H149.888C149.888 136.852 149.888 134.522 149.888 133.142C149.888 121.865 139.864 112.724 127.5 112.724C115.136 112.724 105.112 121.865 105.112 133.142C105.112 134.522 105.112 136.852 105.112 141.082H107.6Z" fill="#727D86"/>
<path d="M151.007 131.38L152.063 132.476C152.343 132.767 152.5 133.161 152.5 133.572V139.263C152.5 139.673 152.343 140.068 152.063 140.358L151.007 141.455V131.38Z" fill="#5C6369"/>
<path d="M151.007 141.455H148.076C147.428 141.455 146.903 140.761 146.903 139.905V132.93C146.903 132.074 147.428 131.38 148.076 131.38H151.007V141.455Z" fill="#727D86"/>
<path d="M151.007 131.38H149.142V141.455H151.007V131.38Z" fill="url(#paint8_linear_84_17595)"/>
<path d="M104.241 130.692L103.01 131.821C102.684 132.12 102.5 132.526 102.5 132.949V138.81C102.5 139.233 102.684 139.639 103.01 139.938L104.241 141.068V130.692Z" fill="#5C6369"/>
<path d="M104.328 141.082H107.127C107.745 141.082 108.246 140.363 108.246 139.475V132.242C108.246 131.354 107.745 130.634 107.127 130.634H104.328V141.082Z" fill="#727D86"/>
<path d="M104.241 130.692H105.983V141.068H104.241V130.692Z" fill="url(#paint9_linear_84_17595)"/>
<path d="M137.575 148.545C137.575 150.606 135.904 152.276 133.843 152.276C131.782 152.276 130.112 150.606 130.112 148.545C130.112 146.484 131.782 144.813 133.843 144.813C135.904 144.813 137.575 146.484 137.575 148.545Z" fill="url(#paint10_linear_84_17595)"/>
<rect x="96.5" y="101.5" width="62" height="62" rx="4" stroke="#E2E2E2" stroke-opacity="0.59" stroke-width="2"/>
<defs>
<linearGradient id="paint0_linear_84_17595" x1="59.5" y1="31.5" x2="86.3" y2="99.9" gradientUnits="userSpaceOnUse">
<stop stop-color="#B8DFFC"/>
<stop offset="0.453125" stop-color="#E5EFF7" stop-opacity="0.98"/>
<stop offset="1" stop-color="#8FC3EB"/>
</linearGradient>
<radialGradient id="paint1_radial_84_17595" cx="0" cy="0" r="1" gradientUnits="userSpaceOnUse" gradientTransform="translate(45.832 46.681) scale(40.041)">
<stop stop-color="#6FCEFC"/>
<stop offset="1" stop-color="#167CF7"/>
</radialGradient>
<radialGradient id="paint2_radial_84_17595" cx="0" cy="0" r="1" gradientUnits="userSpaceOnUse" gradientTransform="translate(45.2255 45.98) scale(45.0092 40.155)">
<stop offset="0.001" stop-color="#54C0F5"/>
<stop offset="0.998" stop-color="#0B69DB"/>
</radialGradient>
<linearGradient id="paint3_linear_84_17595" x1="127.5" y1="102.5" x2="154.3" y2="170.9" gradientUnits="userSpaceOnUse">
<stop stop-color="#B8DFFC"/>
<stop offset="0.453125" stop-color="#E5EFF7" stop-opacity="0.98"/>
<stop offset="1" stop-color="#8FC3EB"/>
</linearGradient>
<radialGradient id="paint4_radial_84_17595" cx="0" cy="0" r="1" gradientUnits="userSpaceOnUse" gradientTransform="translate(127.512 141.473) scale(22.4581 26.692)">
<stop offset="0.934" stop-opacity="0.2"/>
<stop offset="1" stop-opacity="0"/>
</radialGradient>
<linearGradient id="paint5_linear_84_17595" x1="118.63" y1="108.556" x2="143.203" y2="153.939" gradientUnits="userSpaceOnUse">
<stop stop-color="#FFD869"/>
<stop offset="1" stop-color="#FEC52B"/>
</linearGradient>
<linearGradient id="paint6_linear_84_17595" x1="120.726" y1="108.477" x2="144.917" y2="163.088" gradientUnits="userSpaceOnUse">
<stop stop-color="#EBC500"/>
<stop offset="1" stop-color="#FFD869"/>
</linearGradient>
<linearGradient id="paint7_linear_84_17595" x1="108.887" y1="120.097" x2="146.113" y2="120.097" gradientUnits="userSpaceOnUse">
<stop stop-color="#3079D6"/>
<stop offset="1" stop-color="#297CD2"/>
</linearGradient>
<linearGradient id="paint8_linear_84_17595" x1="146.576" y1="133.512" x2="152.29" y2="140.389" gradientUnits="userSpaceOnUse">
<stop stop-color="#33BEF0"/>
<stop offset="1" stop-color="#0A85D9"/>
</linearGradient>
<linearGradient id="paint9_linear_84_17595" x1="108.377" y1="132.887" x2="102.414" y2="139.392" gradientUnits="userSpaceOnUse">
<stop stop-color="#33BEF0"/>
<stop offset="1" stop-color="#0A85D9"/>
</linearGradient>
<linearGradient id="paint10_linear_84_17595" x1="131.205" y1="145.907" x2="136.481" y2="151.183" gradientUnits="userSpaceOnUse">
<stop stop-color="#33BEF0"/>
<stop offset="1" stop-color="#0A85D9"/>
</linearGradient>
</defs>
</svg>
