<svg width="199" height="201" viewBox="0 0 199 201" fill="none" xmlns="http://www.w3.org/2000/svg">
<g id="Property 1=icon-light">
<g id="icon-frame-light">
<g id="Frame" filter="url(#filter0_d_83_2767)">
<path id="Vector" d="M172.887 10H26.1129C18.3186 10 12 16.3186 12 24.1129V170.887C12 178.681 18.3186 185 26.1129 185H172.887C180.681 185 187 178.681 187 170.887V24.1129C187 16.3186 180.681 10 172.887 10Z" fill="white"/>
<path id="Vector_2" d="M172.887 10H26.1129C18.3186 10 12 16.3186 12 24.1129V170.887C12 178.681 18.3186 185 26.1129 185H172.887C180.681 185 187 178.681 187 170.887V24.1129C187 16.3186 180.681 10 172.887 10Z" stroke="#F2F2F2" stroke-width="15" stroke-linecap="round"/>
<path id="Vector_3" d="M26.1129 10.5H172.887C180.405 10.5 186.5 16.5948 186.5 24.1129V170.887C186.5 178.405 180.405 184.5 172.887 184.5H26.1129C18.5948 184.5 12.5 178.405 12.5 170.887V24.1129C12.5 16.5947 18.5947 10.5 26.1129 10.5Z" fill="url(#paint0_linear_83_2767)" fill-opacity="0.2" stroke="white"/>
</g>
<g id="Group 3" filter="url(#filter1_bd_83_2767)">
<path id="Vector_4" d="M147.061 48.1098H90.9634C89.6171 48.1098 88.5244 49.2024 88.5244 50.5488V84.6951C88.5244 86.0415 89.6171 87.1341 90.9634 87.1341H105.598V99.022C105.598 100.034 106.822 100.541 107.539 99.8268L120.232 87.1341H147.061C148.407 87.1341 149.5 86.0415 149.5 84.6951V50.5488C149.5 49.2024 148.407 48.1098 147.061 48.1098Z" fill="url(#paint1_linear_83_2767)"/>
<path id="Vector_5" d="M77.5487 104.207C86.3045 104.207 93.4024 97.1094 93.4024 88.3537C93.4024 79.5979 86.3045 72.5 77.5487 72.5C68.793 72.5 61.6951 79.5979 61.6951 88.3537C61.6951 97.1094 68.793 104.207 77.5487 104.207Z" fill="url(#paint2_linear_83_2767)"/>
<path id="Vector_6" d="M105.598 137.134C105.598 121.468 92.7537 108.802 77.0244 109.09C61.5829 109.373 49.5 122.62 49.5 138.063V144.451C49.5 145.798 50.5927 146.89 51.939 146.89H103.159C104.505 146.89 105.598 145.798 105.598 144.451V137.134Z" fill="url(#paint3_linear_83_2767)"/>
</g>
</g>
</g>
<defs>
<filter id="filter0_d_83_2767" x="0.5" y="2.5" width="198" height="198" filterUnits="userSpaceOnUse" color-interpolation-filters="sRGB">
<feFlood flood-opacity="0" result="BackgroundImageFix"/>
<feColorMatrix in="SourceAlpha" type="matrix" values="0 0 0 0 0 0 0 0 0 0 0 0 0 0 0 0 0 0 127 0" result="hardAlpha"/>
<feOffset dy="4"/>
<feGaussianBlur stdDeviation="2"/>
<feComposite in2="hardAlpha" operator="out"/>
<feColorMatrix type="matrix" values="0 0 0 0 0 0 0 0 0 0 0 0 0 0 0 0 0 0 0.25 0"/>
<feBlend mode="normal" in2="BackgroundImageFix" result="effect1_dropShadow_83_2767"/>
<feBlend mode="normal" in="SourceGraphic" in2="effect1_dropShadow_83_2767" result="shape"/>
</filter>
<filter id="filter1_bd_83_2767" x="45.5" y="44.1098" width="108" height="110.781" filterUnits="userSpaceOnUse" color-interpolation-filters="sRGB">
<feFlood flood-opacity="0" result="BackgroundImageFix"/>
<feGaussianBlur in="BackgroundImageFix" stdDeviation="2"/>
<feComposite in2="SourceAlpha" operator="in" result="effect1_backgroundBlur_83_2767"/>
<feColorMatrix in="SourceAlpha" type="matrix" values="0 0 0 0 0 0 0 0 0 0 0 0 0 0 0 0 0 0 127 0" result="hardAlpha"/>
<feOffset dy="4"/>
<feGaussianBlur stdDeviation="2"/>
<feComposite in2="hardAlpha" operator="out"/>
<feColorMatrix type="matrix" values="0 0 0 0 1 0 0 0 0 0.923611 0 0 0 0 0.923611 0 0 0 0.25 0"/>
<feBlend mode="normal" in2="effect1_backgroundBlur_83_2767" result="effect2_dropShadow_83_2767"/>
<feBlend mode="normal" in="SourceGraphic" in2="effect2_dropShadow_83_2767" result="shape"/>
</filter>
<linearGradient id="paint0_linear_83_2767" x1="99.5" y1="18.4677" x2="99.5" y2="176.532" gradientUnits="userSpaceOnUse">
<stop stop-color="white"/>
<stop offset="0.472222" stop-color="#0D5176" stop-opacity="0.527778"/>
<stop offset="0.940972" stop-color="#12A6F7" stop-opacity="0.465278"/>
</linearGradient>
<linearGradient id="paint1_linear_83_2767" x1="119.012" y1="48.4341" x2="119.012" y2="102.307" gradientUnits="userSpaceOnUse">
<stop stop-color="#0471C7"/>
<stop offset="1" stop-color="#0968B5"/>
</linearGradient>
<linearGradient id="paint2_linear_83_2767" x1="66.7951" y1="77.5976" x2="88.9146" y2="99.7195" gradientUnits="userSpaceOnUse">
<stop stop-color="#32BDEF"/>
<stop offset="1" stop-color="#1EA2E4"/>
</linearGradient>
<linearGradient id="paint3_linear_83_2767" x1="58.7" y1="116.641" x2="96.2756" y2="154.217" gradientUnits="userSpaceOnUse">
<stop stop-color="#32BDEF"/>
<stop offset="1" stop-color="#1EA2E4"/>
</linearGradient>
</defs>
</svg>
