<svg width="199" height="201" viewBox="0 0 199 201" fill="none" xmlns="http://www.w3.org/2000/svg">
<g id="icon=icon">
<g id="Frame" filter="url(#filter0_d_87_6206)">
<path id="Vector" d="M172.887 10H26.1129C18.3186 10 12 16.3186 12 24.1129V170.887C12 178.681 18.3186 185 26.1129 185H172.887C180.681 185 187 178.681 187 170.887V24.1129C187 16.3186 180.681 10 172.887 10Z" fill="white"/>
<path id="Vector_2" d="M172.887 10H26.1129C18.3186 10 12 16.3186 12 24.1129V170.887C12 178.681 18.3186 185 26.1129 185H172.887C180.681 185 187 178.681 187 170.887V24.1129C187 16.3186 180.681 10 172.887 10Z" stroke="#D5EAF6" stroke-width="15" stroke-linecap="round"/>
<g id="Vector_3">
<path d="M172.887 10H26.1129C18.3186 10 12 16.3186 12 24.1129V170.887C12 178.681 18.3186 185 26.1129 185H172.887C180.681 185 187 178.681 187 170.887V24.1129C187 16.3186 180.681 10 172.887 10Z" fill="url(#paint0_linear_87_6206)" fill-opacity="0.2"/>
<path d="M26.1129 10.5H172.887C180.405 10.5 186.5 16.5948 186.5 24.1129V170.887C186.5 178.405 180.405 184.5 172.887 184.5H26.1129C18.5948 184.5 12.5 178.405 12.5 170.887V24.1129C12.5 16.5947 18.5947 10.5 26.1129 10.5Z" stroke="#F7F7F7" stroke-opacity="0.27"/>
</g>
</g>
<g id="combo">
<g id="Vector_4">
<path d="M71.3327 80.9889L65.3408 74.997C61.0262 81.5102 58.5 89.3112 58.5 97.7097C58.5 105.268 60.5461 112.346 64.1025 118.434C64.7062 119.469 66.1506 119.615 66.9975 118.766L70.3767 115.387C70.9433 114.82 71.0484 113.959 70.6693 113.254C68.1781 108.62 66.742 103.339 66.742 97.7097C66.742 91.5983 68.4336 85.897 71.3327 80.9889Z" fill="#50E6FF" fill-opacity="0.5"/>
<path d="M132.678 97.7097C132.678 103.821 130.986 109.523 128.087 114.431L134.079 120.423C138.394 113.91 140.92 106.106 140.92 97.7097C140.92 90.1519 138.874 83.0741 135.317 76.9854C134.714 75.951 133.269 75.8068 132.422 76.6536L129.043 80.0328C128.476 80.5995 128.371 81.4607 128.75 82.1654C131.242 86.7995 132.678 92.0805 132.678 97.7097Z" fill="#199BE2" fill-opacity="0.5"/>
<path d="M82.0328 68.3767C82.5995 68.9433 83.4607 69.0484 84.1654 68.6693C88.7995 66.1781 94.0805 64.742 99.7097 64.742C105.821 64.742 111.523 66.4336 116.431 69.3327L122.425 63.3388C115.91 59.0262 108.109 56.5 99.7097 56.5C92.189 56.5 85.1462 58.5255 79.0781 62.0489C78.0046 62.6732 77.7779 64.1218 78.6557 64.9995L82.0328 68.3767Z" fill="#35C1F1" fill-opacity="0.5"/>
<path d="M117.387 127.043C116.82 126.476 115.959 126.371 115.254 126.75C110.62 129.242 105.339 130.678 99.7097 130.678C93.5983 130.678 87.897 128.986 82.9889 126.087L76.997 132.079C83.5102 136.394 91.3132 138.92 99.7097 138.92C107.268 138.92 114.346 136.874 120.434 133.317C121.469 132.714 121.615 131.269 120.766 130.422L117.387 127.043Z" fill="#0078D4" fill-opacity="0.5"/>
<path d="M124.3 73.1384L114.339 72.7964C113.635 72.7717 113.284 71.9289 113.769 71.4138L123.364 61.1629C123.863 60.6292 124.757 60.963 124.786 61.6925L125.2 72.236C125.219 72.7408 124.805 73.1549 124.3 73.1384Z" fill="#35C1F1" fill-opacity="0.5"/>
<path d="M75.1199 122.281L85.0803 122.623C85.785 122.648 86.1352 123.491 85.651 124.006L76.0554 134.257C75.5567 134.79 74.6625 134.457 74.6336 133.727L74.2195 123.184C74.2009 122.679 74.6151 122.265 75.1199 122.281Z" fill="#0078D4" fill-opacity="0.5"/>
<path d="M124.281 122.3L124.623 112.339C124.648 111.635 125.491 111.284 126.006 111.769L136.257 121.364C136.79 121.863 136.457 122.757 135.727 122.786L125.184 123.2C124.679 123.219 124.265 122.805 124.281 122.3Z" fill="#199BE2" fill-opacity="0.5"/>
<path d="M75.1384 73.1199L74.7964 83.0803C74.7717 83.785 73.9289 84.1352 73.4138 83.651L63.1609 74.0554C62.6272 73.5567 62.961 72.6625 63.6904 72.6336L74.2339 72.2195C74.7408 72.2009 75.1549 72.6151 75.1384 73.1199Z" fill="#50E6FF" fill-opacity="0.5"/>
</g>
<g id="Frame_2">
<rect x="31.5" y="31.5" width="60" height="60" rx="3" fill="url(#paint1_linear_87_6206)"/>
<rect x="31.5" y="31.5" width="60" height="60" rx="3" fill="white" fill-opacity="0.2"/>
<g id="Group">
<g id="Vector_5">
<path d="M41.5 61.5C41.5 50.455 50.455 41.5 61.5 41.5C72.545 41.5 81.5 50.455 81.5 61.5C81.5 72.545 72.545 81.5 61.5 81.5C50.455 81.5 41.5 72.545 41.5 61.5Z" fill="url(#paint2_radial_87_6206)"/>
<path d="M78.5 61.5C78.5 58.261 77.827 55.209 76.661 52.5H79.343C78.995 51.811 78.618 51.14 78.195 50.5H75.683C72.638 45.084 67.421 41.5 61.5 41.5C55.579 41.5 50.362 45.084 47.317 50.5H44.805C44.382 51.14 44.005 51.811 43.657 52.5H46.339C45.173 55.209 44.5 58.261 44.5 61.5C44.5 64.739 45.173 67.791 46.339 70.5H43.657C44.005 71.189 44.382 71.86 44.805 72.5H47.317C50.362 77.916 55.579 81.5 61.5 81.5C67.421 81.5 72.638 77.916 75.683 72.5H78.195C78.618 71.86 78.995 71.189 79.343 70.5H76.661C77.827 67.791 78.5 64.739 78.5 61.5ZM76.5 61.5C76.5 64.78 75.753 67.849 74.471 70.5H68.678C69.221 67.667 69.5 64.553 69.5 61.5C69.5 58.447 69.221 55.333 68.678 52.5H74.471C75.753 55.151 76.5 58.22 76.5 61.5ZM61.5 79.5C59.81 79.5 58.009 76.863 56.826 72.5H66.175C64.991 76.863 63.19 79.5 61.5 79.5ZM56.348 70.5C55.821 67.913 55.5 64.871 55.5 61.5C55.5 58.129 55.821 55.087 56.348 52.5H66.652C67.179 55.087 67.5 58.129 67.5 61.5C67.5 64.871 67.179 67.913 66.652 70.5H56.348ZM61.5 43.5C63.19 43.5 64.991 46.137 66.174 50.5H56.825C58.009 46.137 59.81 43.5 61.5 43.5ZM73.347 50.5H68.236C67.61 48.001 66.757 45.816 65.684 44.227C68.763 45.303 71.429 47.532 73.347 50.5ZM57.316 44.227C56.243 45.817 55.39 48.001 54.764 50.5H49.653C51.571 47.532 54.237 45.303 57.316 44.227ZM46.5 61.5C46.5 58.22 47.247 55.151 48.529 52.5H54.322C53.779 55.333 53.5 58.447 53.5 61.5C53.5 64.553 53.779 67.667 54.322 70.5H48.529C47.247 67.849 46.5 64.78 46.5 61.5ZM49.653 72.5H54.764C55.39 74.999 56.243 77.184 57.316 78.773C54.237 77.697 51.571 75.468 49.653 72.5ZM65.684 78.773C66.757 77.183 67.61 74.999 68.236 72.5H73.347C71.429 75.468 68.763 77.697 65.684 78.773Z" fill="url(#paint3_radial_87_6206)"/>
<path d="M65.405 57.5L64.093 63.743L62.5 57.5H60.5L58.907 63.743L57.595 57.5H55.5L57.5 65.5H59.951C59.951 65.5 61.464 59.864 61.5 59.5C61.536 59.864 63.049 65.5 63.049 65.5H65.5L67.5 57.5H65.405Z" fill="white"/>
<path d="M53.405 57.5L52.093 63.743L50.5 57.5H48.5L46.907 63.743L45.595 57.5H43.5L45.5 65.5H47.951C47.951 65.5 49.464 59.864 49.5 59.5C49.536 59.864 51.049 65.5 51.049 65.5H53.5L55.5 57.5H53.405Z" fill="white"/>
<path d="M77.405 57.5L76.093 63.743L74.5 57.5H72.5L70.907 63.743L69.595 57.5H67.5L69.5 65.5H71.951C71.951 65.5 73.464 59.864 73.5 59.5C73.536 59.864 75.049 65.5 75.049 65.5H77.5L79.5 57.5H77.405Z" fill="white"/>
</g>
</g>
<rect x="30.5" y="30.5" width="62" height="62" rx="4" stroke="#E2E2E2" stroke-opacity="0.59" stroke-width="2"/>
</g>
<g id="Frame_3">
<rect x="99.5" y="102.5" width="60" height="60" rx="3" fill="url(#paint4_linear_87_6206)"/>
<rect x="99.5" y="102.5" width="60" height="60" rx="3" fill="white" fill-opacity="0.2"/>
<g id="event-track">
<path id="Vector_6" d="M109.763 151.14V120.438H149.237V151.14C149.237 152.346 148.25 153.333 147.044 153.333H111.956C110.75 153.333 109.763 152.346 109.763 151.14Z" fill="url(#paint5_linear_87_6206)"/>
<path id="Vector_7" d="M129.113 127.679L126.787 132.894L121.11 133.494C120.744 133.532 120.598 133.985 120.869 134.232L125.111 138.054L123.926 143.641C123.851 144 124.236 144.28 124.554 144.096L129.5 141.242L134.446 144.095C134.764 144.278 135.149 143.998 135.073 143.64L133.889 138.053L138.13 134.231C138.403 133.985 138.257 133.532 137.89 133.493L132.213 132.893L129.887 127.678C129.738 127.344 129.262 127.344 129.113 127.679Z" fill="white"/>
<path id="Vector_8" d="M149.237 116.052V122.631H109.763V116.052C109.763 114.846 110.75 113.859 111.956 113.859H147.044C148.25 113.859 149.237 114.846 149.237 116.052Z" fill="url(#paint6_linear_87_6206)"/>
<path id="Vector_9" opacity="0.05" d="M142.11 120.987C140.293 120.987 138.82 119.514 138.82 117.697V113.859H145.399V117.697C145.399 119.514 143.926 120.987 142.11 120.987Z" fill="black"/>
<path id="Vector_10" opacity="0.07" d="M142.11 120.164C140.747 120.164 139.643 119.06 139.643 117.697V113.859H144.577V117.697C144.577 119.06 143.473 120.164 142.11 120.164Z" fill="black"/>
<path id="Vector_11" opacity="0.05" d="M116.89 120.987C115.073 120.987 113.601 119.514 113.601 117.697V113.859H120.18V117.697C120.18 119.514 118.707 120.987 116.89 120.987Z" fill="black"/>
<path id="Vector_12" opacity="0.07" d="M116.89 120.164C115.528 120.164 114.423 119.06 114.423 117.697V113.859H119.358V117.697C119.358 119.06 118.253 120.164 116.89 120.164Z" fill="black"/>
<path id="Vector_13" d="M116.89 119.342C115.982 119.342 115.246 118.605 115.246 117.697V113.311C115.246 112.403 115.982 111.667 116.89 111.667C117.798 111.667 118.535 112.403 118.535 113.311V117.697C118.535 118.605 117.798 119.342 116.89 119.342Z" fill="#3CCBF4"/>
<path id="Vector_14" d="M142.11 119.342C141.202 119.342 140.465 118.605 140.465 117.697V113.311C140.465 112.403 141.202 111.667 142.11 111.667C143.017 111.667 143.754 112.403 143.754 113.311V117.697C143.754 118.605 143.017 119.342 142.11 119.342Z" fill="#3CCBF4"/>
</g>
<rect x="98.5" y="101.5" width="62" height="62" rx="4" stroke="#E2E2E2" stroke-opacity="0.59" stroke-width="2"/>
</g>
</g>
</g>
<defs>
<filter id="filter0_d_87_6206" x="0.5" y="2.5" width="198" height="198" filterUnits="userSpaceOnUse" color-interpolation-filters="sRGB">
<feFlood flood-opacity="0" result="BackgroundImageFix"/>
<feColorMatrix in="SourceAlpha" type="matrix" values="0 0 0 0 0 0 0 0 0 0 0 0 0 0 0 0 0 0 127 0" result="hardAlpha"/>
<feOffset dy="4"/>
<feGaussianBlur stdDeviation="2"/>
<feComposite in2="hardAlpha" operator="out"/>
<feColorMatrix type="matrix" values="0 0 0 0 0 0 0 0 0 0 0 0 0 0 0 0 0 0 0.25 0"/>
<feBlend mode="normal" in2="BackgroundImageFix" result="effect1_dropShadow_87_6206"/>
<feBlend mode="normal" in="SourceGraphic" in2="effect1_dropShadow_87_6206" result="shape"/>
</filter>
<linearGradient id="paint0_linear_87_6206" x1="99.5" y1="18.4677" x2="99.5" y2="176.532" gradientUnits="userSpaceOnUse">
<stop stop-color="white"/>
<stop offset="0.472222" stop-color="#0D5176" stop-opacity="0.527778"/>
<stop offset="0.940972" stop-color="#12A6F7" stop-opacity="0.465278"/>
</linearGradient>
<linearGradient id="paint1_linear_87_6206" x1="61.5" y1="31.5" x2="88.3" y2="99.9" gradientUnits="userSpaceOnUse">
<stop stop-color="#B8DFFC"/>
<stop offset="0.453125" stop-color="#E5EFF7" stop-opacity="0.98"/>
<stop offset="1" stop-color="#8FC3EB"/>
</linearGradient>
<radialGradient id="paint2_radial_87_6206" cx="0" cy="0" r="1" gradientUnits="userSpaceOnUse" gradientTransform="translate(47.832 46.681) scale(40.041)">
<stop stop-color="#6FCEFC"/>
<stop offset="1" stop-color="#167CF7"/>
</radialGradient>
<radialGradient id="paint3_radial_87_6206" cx="0" cy="0" r="1" gradientUnits="userSpaceOnUse" gradientTransform="translate(47.2255 45.98) scale(45.0092 40.155)">
<stop offset="0.001" stop-color="#54C0F5"/>
<stop offset="0.998" stop-color="#0B69DB"/>
</radialGradient>
<linearGradient id="paint4_linear_87_6206" x1="129.5" y1="102.5" x2="156.3" y2="170.9" gradientUnits="userSpaceOnUse">
<stop stop-color="#B8DFFC"/>
<stop offset="0.453125" stop-color="#E5EFF7" stop-opacity="0.98"/>
<stop offset="1" stop-color="#8FC3EB"/>
</linearGradient>
<linearGradient id="paint5_linear_87_6206" x1="110.217" y1="122.261" x2="141.907" y2="145.407" gradientUnits="userSpaceOnUse">
<stop stop-color="#28AFEA"/>
<stop offset="1" stop-color="#047ED6"/>
</linearGradient>
<linearGradient id="paint6_linear_87_6206" x1="110.224" y1="114.526" x2="148.358" y2="122.28" gradientUnits="userSpaceOnUse">
<stop stop-color="#0077D2"/>
<stop offset="1" stop-color="#0B59A2"/>
</linearGradient>
</defs>
</svg>
