<svg width="195" height="195" viewBox="0 0 195 195" fill="none" xmlns="http://www.w3.org/2000/svg">
<g filter="url(#filter0_d_87_7141)">
<path d="M170.887 10H24.1129C16.3186 10 10 16.3186 10 24.1129V170.887C10 178.681 16.3186 185 24.1129 185H170.887C178.681 185 185 178.681 185 170.887V24.1129C185 16.3186 178.681 10 170.887 10Z" fill="url(#paint0_linear_87_7141)" fill-opacity="0.2"/>
<path d="M24.1129 10.5H170.887C178.405 10.5 184.5 16.5948 184.5 24.1129V170.887C184.5 178.405 178.405 184.5 170.887 184.5H24.1129C16.5948 184.5 10.5 178.405 10.5 170.887V24.1129C10.5 16.5947 16.5947 10.5 24.1129 10.5Z" stroke="#F7F7F7" stroke-opacity="0.27"/>
</g>
<g filter="url(#filter1_bd_87_7141)">
<path d="M32.5 143V68.25H162.5V143C162.5 146.575 159.575 149.5 156 149.5H39C35.425 149.5 32.5 146.575 32.5 143Z" fill="url(#paint1_linear_87_7141)"/>
<path d="M162.5 52V68.25H32.5V52C32.5 48.425 35.425 45.5 39 45.5H156C159.575 45.5 162.5 48.425 162.5 52Z" fill="url(#paint2_linear_87_7141)"/>
<path d="M73.125 61.75H154.375C155.272 61.75 156 61.022 156 60.125V53.625C156 52.728 155.272 52 154.375 52H73.125C72.228 52 71.5 52.728 71.5 53.625V60.125C71.5 61.022 72.228 61.75 73.125 61.75Z" fill="url(#paint3_linear_87_7141)"/>
<path d="M43.875 61.75C46.5674 61.75 48.75 59.5674 48.75 56.875C48.75 54.1827 46.5674 52 43.875 52C41.1827 52 39 54.1827 39 56.875C39 59.5674 41.1827 61.75 43.875 61.75Z" fill="url(#paint4_linear_87_7141)"/>
<path d="M60.115 61.75C62.8074 61.75 64.99 59.5674 64.99 56.875C64.99 54.1827 62.8074 52 60.115 52C57.4227 52 55.24 54.1827 55.24 56.875C55.24 59.5674 57.4227 61.75 60.115 61.75Z" fill="url(#paint5_linear_87_7141)"/>
<path d="M91.5668 125.3H49.9668V127.9H91.5668V125.3Z" fill="#F2F2F2"/>
<path d="M145.367 104.5H102.367C100.71 104.5 99.3669 105.843 99.3669 107.5V134.5C99.3669 136.157 100.71 137.5 102.367 137.5H145.367C147.024 137.5 148.367 136.157 148.367 134.5V107.5C148.367 105.843 147.024 104.5 145.367 104.5Z" fill="#D5D5D5" fill-opacity="0.2"/>
<path d="M113.367 119.5H111.367C110.815 119.5 110.367 119.052 110.367 118.5V116.5C110.367 115.948 110.815 115.5 111.367 115.5H113.367C113.919 115.5 114.367 115.948 114.367 116.5V118.5C114.367 119.052 113.919 119.5 113.367 119.5Z" fill="white" fill-opacity="0.88"/>
<path d="M113.367 126.5H111.367C110.815 126.5 110.367 126.052 110.367 125.5V123.5C110.367 122.948 110.815 122.5 111.367 122.5H113.367C113.919 122.5 114.367 122.948 114.367 123.5V125.5C114.367 126.052 113.919 126.5 113.367 126.5Z" fill="white" fill-opacity="0.88"/>
<path d="M113.367 133.5H111.367C110.815 133.5 110.367 133.052 110.367 132.5V130.5C110.367 129.948 110.815 129.5 111.367 129.5H113.367C113.919 129.5 114.367 129.948 114.367 130.5V132.5C114.367 133.052 113.919 133.5 113.367 133.5Z" fill="white" fill-opacity="0.88"/>
<path d="M113.367 112.5H111.367C110.815 112.5 110.367 112.052 110.367 111.5V109.5C110.367 108.948 110.815 108.5 111.367 108.5H113.367C113.919 108.5 114.367 108.948 114.367 109.5V111.5C114.367 112.052 113.919 112.5 113.367 112.5Z" fill="white" fill-opacity="0.88"/>
<path d="M104.367 109.3C104.367 108.858 104.725 108.5 105.167 108.5H107.567C108.009 108.5 108.367 108.858 108.367 109.3V111.7C108.367 112.142 108.009 112.5 107.567 112.5H105.167C104.725 112.5 104.367 112.142 104.367 111.7V109.3Z" fill="white" fill-opacity="0.5"/>
<path d="M107.033 110.253C107.21 110.358 107.212 110.625 107.036 110.733L106.173 111.262C105.997 111.369 105.775 111.238 105.773 111.024L105.767 109.979C105.765 109.766 105.986 109.631 106.163 109.737L107.033 110.253Z" fill="url(#paint6_radial_87_7141)"/>
<path d="M107.033 110.253C107.21 110.358 107.212 110.625 107.036 110.733L106.173 111.262C105.997 111.369 105.775 111.238 105.773 111.024L105.767 109.979C105.765 109.766 105.986 109.631 106.163 109.737L107.033 110.253Z" fill="black" fill-opacity="0.2"/>
<path d="M104.367 116.3C104.367 115.858 104.725 115.5 105.167 115.5H107.567C108.009 115.5 108.367 115.858 108.367 116.3V118.7C108.367 119.142 108.009 119.5 107.567 119.5H105.167C104.725 119.5 104.367 119.142 104.367 118.7V116.3Z" fill="white" fill-opacity="0.5"/>
<path d="M107.033 117.253C107.21 117.358 107.212 117.625 107.036 117.733L106.173 118.262C105.997 118.369 105.775 118.238 105.773 118.024L105.767 116.979C105.765 116.766 105.986 116.631 106.163 116.737L107.033 117.253Z" fill="url(#paint7_radial_87_7141)"/>
<path d="M107.033 117.253C107.21 117.358 107.212 117.625 107.036 117.733L106.173 118.262C105.997 118.369 105.775 118.238 105.773 118.024L105.767 116.979C105.765 116.766 105.986 116.631 106.163 116.737L107.033 117.253Z" fill="black" fill-opacity="0.2"/>
<path d="M104.367 123.3C104.367 122.858 104.725 122.5 105.167 122.5H107.567C108.009 122.5 108.367 122.858 108.367 123.3V125.7C108.367 126.142 108.009 126.5 107.567 126.5H105.167C104.725 126.5 104.367 126.142 104.367 125.7V123.3Z" fill="white" fill-opacity="0.5"/>
<path d="M107.033 124.253C107.21 124.358 107.212 124.625 107.036 124.733L106.173 125.262C105.997 125.369 105.775 125.238 105.773 125.024L105.767 123.979C105.765 123.766 105.986 123.631 106.163 123.737L107.033 124.253Z" fill="url(#paint8_radial_87_7141)"/>
<path d="M107.033 124.253C107.21 124.358 107.212 124.625 107.036 124.733L106.173 125.262C105.997 125.369 105.775 125.238 105.773 125.024L105.767 123.979C105.765 123.766 105.986 123.631 106.163 123.737L107.033 124.253Z" fill="black" fill-opacity="0.2"/>
<path d="M104.367 130.3C104.367 129.858 104.725 129.5 105.167 129.5H107.567C108.009 129.5 108.367 129.858 108.367 130.3V132.7C108.367 133.142 108.009 133.5 107.567 133.5H105.167C104.725 133.5 104.367 133.142 104.367 132.7V130.3Z" fill="white" fill-opacity="0.5"/>
<path d="M107.033 131.253C107.21 131.358 107.212 131.625 107.036 131.733L106.173 132.262C105.997 132.369 105.775 132.238 105.773 132.024L105.767 130.979C105.765 130.766 105.986 130.631 106.163 130.737L107.033 131.253Z" fill="url(#paint9_radial_87_7141)"/>
<path d="M107.033 131.253C107.21 131.358 107.212 131.625 107.036 131.733L106.173 132.262C105.997 132.369 105.775 132.238 105.773 132.024L105.767 130.979C105.765 130.766 105.986 130.631 106.163 130.737L107.033 131.253Z" fill="black" fill-opacity="0.2"/>
<path d="M115.367 109.5H143.367C143.919 109.5 144.367 109.948 144.367 110.5C144.367 111.052 143.919 111.5 143.367 111.5H115.367V109.5Z" fill="#D9D9D9" fill-opacity="0.5"/>
<path d="M115.367 116.5H143.367C143.919 116.5 144.367 116.948 144.367 117.5C144.367 118.052 143.919 118.5 143.367 118.5H115.367V116.5Z" fill="#D9D9D9" fill-opacity="0.5"/>
<path d="M115.367 123.5H143.367C143.919 123.5 144.367 123.948 144.367 124.5C144.367 125.052 143.919 125.5 143.367 125.5H115.367V123.5Z" fill="#D9D9D9" fill-opacity="0.5"/>
<path d="M115.367 130.5H143.367C143.919 130.5 144.367 130.948 144.367 131.5C144.367 132.052 143.919 132.5 143.367 132.5H115.367V130.5Z" fill="#D9D9D9" fill-opacity="0.5"/>
<path d="M54.3348 120.967C51.9224 120.967 49.9668 119.011 49.9668 116.599V83.7347C49.9668 81.3223 51.9224 79.3667 54.3348 79.3667H87.1988C89.6112 79.3667 91.5668 81.3223 91.5668 83.7347V116.599C91.5668 119.011 89.6112 120.967 87.1988 120.967H54.3348Z" fill="white"/>
<path d="M84.3665 90.2466H57.1665V109.287H84.3665V90.2466Z" fill="url(#paint10_radial_87_7141)"/>
<path d="M70.0867 109.287H71.4467V113.367H70.0867V109.287Z" fill="#64717C"/>
<path d="M84.3666 90.9268H57.1666C56.7913 90.9268 56.4866 90.6221 56.4866 90.2468V88.8868C56.4866 88.5114 56.7913 88.2068 57.1666 88.2068H84.3666C84.742 88.2068 85.0466 88.5114 85.0466 88.8868V90.2468C85.0466 90.6221 84.742 90.9268 84.3666 90.9268Z" fill="#35C1F1"/>
<path d="M84.3665 108.607H57.1665V109.967H84.3665V108.607Z" fill="#35C1F1"/>
<path d="M69.4067 113.367C69.4067 114.117 70.016 114.727 70.7667 114.727C71.5174 114.727 72.1267 114.117 72.1267 113.367C72.1267 112.616 71.5174 112.007 70.7667 112.007C70.016 112.007 69.4067 112.616 69.4067 113.367Z" fill="#ABB4BE"/>
<path d="M64.6467 95.0066C62.0178 95.0066 59.8867 97.1377 59.8867 99.7666C59.8867 102.396 62.0178 104.527 64.6467 104.527C67.2755 104.527 69.4067 102.396 69.4067 99.7666H64.6467V95.0066Z" fill="white"/>
<path d="M66.0066 93.6467V98.4067H70.7666C70.7666 95.7778 68.6354 93.6467 66.0066 93.6467Z" fill="white"/>
<path d="M81.3068 95.6867H73.8268C73.6391 95.6867 73.4868 95.5343 73.4868 95.3467V94.6667C73.4868 94.479 73.6391 94.3267 73.8268 94.3267H81.3068C81.4945 94.3267 81.6468 94.479 81.6468 94.6667V95.3467C81.6468 95.5343 81.4945 95.6867 81.3068 95.6867Z" fill="white"/>
<path d="M79.9466 97.0466H73.8266C73.639 97.0466 73.4866 97.1989 73.4866 97.3866V98.0666C73.4866 98.2543 73.639 98.4066 73.8266 98.4066H79.9466C80.1343 98.4066 80.2866 98.2543 80.2866 98.0666V97.3866C80.2866 97.199 80.1343 97.0466 79.9466 97.0466Z" fill="white"/>
<path d="M81.3068 99.7666H73.8268C73.6391 99.7666 73.4868 99.9189 73.4868 100.107V100.787C73.4868 100.974 73.6391 101.127 73.8268 101.127H81.3068C81.4945 101.127 81.6468 100.974 81.6468 100.787V100.107C81.6468 99.9189 81.4945 99.7666 81.3068 99.7666Z" fill="white"/>
<path d="M79.9466 102.487H73.8266C73.639 102.487 73.4866 102.639 73.4866 102.827V103.507C73.4866 103.694 73.639 103.847 73.8266 103.847H79.9466C80.1343 103.847 80.2866 103.694 80.2866 103.507V102.827C80.2866 102.639 80.1343 102.487 79.9466 102.487Z" fill="white"/>
<path d="M84.3668 109.967C84.7424 109.967 85.0468 109.662 85.0468 109.287C85.0468 108.911 84.7424 108.607 84.3668 108.607C83.9913 108.607 83.6868 108.911 83.6868 109.287C83.6868 109.662 83.9913 109.967 84.3668 109.967Z" fill="#35C1F1"/>
<path d="M57.1666 109.967C57.5422 109.967 57.8466 109.662 57.8466 109.287C57.8466 108.911 57.5422 108.607 57.1666 108.607C56.7911 108.607 56.4866 108.911 56.4866 109.287C56.4866 109.662 56.7911 109.967 57.1666 109.967Z" fill="#35C1F1"/>
<path d="M106.5 98.5H100.5V102.5H106.5V98.5Z" fill="#D9D9D9" fill-opacity="0.5"/>
<path d="M137.5 94.1001H100.233V95.8334H137.5V94.1001Z" fill="#D9D9D9" fill-opacity="0.5"/>
<path d="M140.966 91.5H100.233V89.7667H140.966V91.5Z" fill="#D9D9D9" fill-opacity="0.5"/>
<path d="M101.972 86.5853C101.523 86.5853 101.136 86.4944 100.813 86.3126C100.491 86.1288 100.242 85.8694 100.068 85.5341C99.8941 85.197 99.8071 84.7984 99.8071 84.3381C99.8071 83.8893 99.8941 83.4953 100.068 83.1563C100.242 82.8173 100.488 82.5531 100.804 82.3637C101.122 82.1743 101.495 82.0796 101.923 82.0796C102.211 82.0796 102.479 82.126 102.727 82.2188C102.977 82.3097 103.195 82.447 103.381 82.6307C103.568 82.8144 103.714 83.0455 103.818 83.3239C103.922 83.6004 103.974 83.9243 103.974 84.2955V84.6279H100.29V83.8779H102.835C102.835 83.7037 102.797 83.5493 102.722 83.4148C102.646 83.2804 102.541 83.1752 102.406 83.0995C102.274 83.0218 102.119 82.983 101.943 82.983C101.759 82.983 101.597 83.0256 101.455 83.1109C101.314 83.1942 101.205 83.3069 101.125 83.4489C101.045 83.5891 101.005 83.7453 101.003 83.9177V84.6307C101.003 84.8466 101.043 85.0332 101.122 85.1904C101.204 85.3476 101.318 85.4688 101.466 85.554C101.614 85.6393 101.789 85.6819 101.991 85.6819C102.126 85.6819 102.249 85.6629 102.361 85.6251C102.473 85.5872 102.568 85.5304 102.648 85.4546C102.727 85.3788 102.788 85.286 102.83 85.1762L103.949 85.2501C103.892 85.519 103.776 85.7538 103.599 85.9546C103.425 86.1535 103.2 86.3088 102.923 86.4205C102.649 86.5304 102.331 86.5853 101.972 86.5853Z" fill="#FFD869"/>
<path d="M104.787 86.5001V80.6819H106.017V85.4859H108.511V86.5001H104.787Z" fill="#FFD869"/>
<path d="M111.292 86.5853C110.843 86.5853 110.457 86.4944 110.133 86.3126C109.811 86.1288 109.563 85.8694 109.389 85.5341C109.214 85.197 109.127 84.7984 109.127 84.3381C109.127 83.8893 109.214 83.4953 109.389 83.1563C109.563 82.8173 109.808 82.5531 110.124 82.3637C110.442 82.1743 110.816 82.0796 111.244 82.0796C111.531 82.0796 111.799 82.126 112.048 82.2188C112.298 82.3097 112.515 82.447 112.701 82.6307C112.889 82.8144 113.034 83.0455 113.139 83.3239C113.243 83.6004 113.295 83.9243 113.295 84.2955V84.6279H109.61V83.8779H112.156C112.156 83.7037 112.118 83.5493 112.042 83.4148C111.966 83.2804 111.861 83.1752 111.727 83.0995C111.594 83.0218 111.44 82.983 111.264 82.983C111.08 82.983 110.917 83.0256 110.775 83.1109C110.635 83.1942 110.525 83.3069 110.445 83.4489C110.366 83.5891 110.325 83.7453 110.323 83.9177V84.6307C110.323 84.8466 110.363 85.0332 110.442 85.1904C110.524 85.3476 110.638 85.4688 110.786 85.554C110.934 85.6393 111.109 85.6819 111.312 85.6819C111.446 85.6819 111.569 85.6629 111.681 85.6251C111.793 85.5872 111.888 85.5304 111.968 85.4546C112.048 85.3788 112.108 85.286 112.15 85.1762L113.269 85.2501C113.212 85.519 113.096 85.7538 112.92 85.9546C112.746 86.1535 112.52 86.3088 112.244 86.4205C111.969 86.5304 111.652 86.5853 111.292 86.5853Z" fill="#FFD869"/>
<path d="M115.329 86.5824C115.05 86.5824 114.802 86.5341 114.585 86.4376C114.367 86.3391 114.194 86.1942 114.067 86.0029C113.942 85.8097 113.88 85.5692 113.88 85.2813C113.88 85.0389 113.924 84.8353 114.014 84.6705C114.103 84.5057 114.224 84.3732 114.377 84.2728C114.531 84.1724 114.705 84.0966 114.9 84.0455C115.097 83.9944 115.303 83.9584 115.519 83.9376C115.773 83.911 115.978 83.8864 116.133 83.8637C116.288 83.8391 116.401 83.8031 116.471 83.7557C116.541 83.7084 116.576 83.6383 116.576 83.5455V83.5285C116.576 83.3485 116.519 83.2093 116.406 83.1109C116.294 83.0124 116.135 82.9631 115.928 82.9631C115.71 82.9631 115.537 83.0114 115.408 83.108C115.28 83.2027 115.194 83.322 115.153 83.466L114.033 83.3751C114.09 83.1099 114.202 82.8807 114.369 82.6876C114.535 82.4925 114.75 82.3429 115.014 82.2387C115.279 82.1326 115.585 82.0796 115.934 82.0796C116.176 82.0796 116.408 82.108 116.63 82.1648C116.853 82.2216 117.051 82.3097 117.224 82.429C117.398 82.5484 117.535 82.7018 117.636 82.8893C117.736 83.0749 117.786 83.2974 117.786 83.5569V86.5001H116.639V85.8949H116.604C116.534 86.0313 116.441 86.1516 116.323 86.2557C116.206 86.358 116.065 86.4385 115.9 86.4972C115.735 86.554 115.545 86.5824 115.329 86.5824ZM115.675 85.7472C115.853 85.7472 116.011 85.7122 116.147 85.6421C116.283 85.5701 116.39 85.4735 116.468 85.3523C116.546 85.2311 116.585 85.0938 116.585 84.9404V84.4773C116.547 84.5019 116.495 84.5247 116.428 84.5455C116.364 84.5644 116.291 84.5824 116.21 84.5995C116.128 84.6146 116.047 84.6288 115.965 84.6421C115.884 84.6535 115.81 84.6639 115.744 84.6734C115.602 84.6942 115.478 84.7273 115.371 84.7728C115.265 84.8182 115.183 84.8798 115.124 84.9574C115.066 85.0332 115.036 85.1279 115.036 85.2415C115.036 85.4063 115.096 85.5323 115.215 85.6194C115.336 85.7046 115.49 85.7472 115.675 85.7472Z" fill="#FFD869"/>
<path d="M118.725 86.5002V82.1365H119.898V82.8979H119.944C120.023 82.627 120.157 82.4225 120.344 82.2842C120.532 82.1441 120.748 82.074 120.992 82.074C121.053 82.074 121.118 82.0778 121.188 82.0854C121.258 82.093 121.32 82.1034 121.373 82.1166V83.1905C121.316 83.1735 121.237 83.1583 121.137 83.145C121.037 83.1318 120.945 83.1252 120.862 83.1252C120.683 83.1252 120.524 83.164 120.384 83.2416C120.246 83.3174 120.136 83.4235 120.055 83.5598C119.975 83.6962 119.935 83.8534 119.935 84.0314V86.5002H118.725Z" fill="#FFD869"/>
<path d="M123.209 83.9773V86.5001H121.999V82.1364H123.152V82.9063H123.203C123.3 82.6525 123.462 82.4518 123.689 82.304C123.916 82.1544 124.192 82.0796 124.516 82.0796C124.819 82.0796 125.083 82.1459 125.308 82.2785C125.534 82.411 125.709 82.6004 125.834 82.8466C125.959 83.091 126.021 83.3826 126.021 83.7216V86.5001H124.811V83.9376C124.813 83.6705 124.745 83.4622 124.607 83.3126C124.468 83.161 124.278 83.0853 124.036 83.0853C123.873 83.0853 123.729 83.1203 123.604 83.1904C123.481 83.2605 123.384 83.3627 123.314 83.4972C123.246 83.6298 123.211 83.7898 123.209 83.9773Z" fill="#FFD869"/>
<path d="M126.975 86.5002V82.1365H128.185V86.5002H126.975ZM127.583 81.574C127.403 81.574 127.249 81.5144 127.12 81.395C126.993 81.2738 126.93 81.1289 126.93 80.9604C126.93 80.7937 126.993 80.6507 127.12 80.5314C127.249 80.4102 127.403 80.3496 127.583 80.3496C127.763 80.3496 127.916 80.4102 128.043 80.5314C128.172 80.6507 128.237 80.7937 128.237 80.9604C128.237 81.1289 128.172 81.2738 128.043 81.395C127.916 81.5144 127.763 81.574 127.583 81.574Z" fill="#FFD869"/>
<path d="M130.365 83.9773V86.5001H129.155V82.1364H130.308V82.9063H130.359C130.456 82.6525 130.618 82.4518 130.845 82.304C131.072 82.1544 131.348 82.0796 131.672 82.0796C131.975 82.0796 132.239 82.1459 132.464 82.2785C132.69 82.411 132.865 82.6004 132.99 82.8466C133.115 83.091 133.178 83.3826 133.178 83.7216V86.5001H131.967V83.9376C131.969 83.6705 131.901 83.4622 131.763 83.3126C131.625 83.161 131.434 83.0853 131.192 83.0853C131.029 83.0853 130.885 83.1203 130.76 83.1904C130.637 83.2605 130.54 83.3627 130.47 83.4972C130.402 83.6298 130.367 83.7898 130.365 83.9773Z" fill="#FFD869"/>
<path d="M136.097 88.2273C135.705 88.2273 135.369 88.1734 135.089 88.0654C134.81 87.9593 134.589 87.8144 134.424 87.6307C134.259 87.447 134.152 87.2406 134.103 87.0114L135.222 86.8609C135.256 86.948 135.31 87.0294 135.384 87.1052C135.458 87.1809 135.556 87.2415 135.677 87.287C135.8 87.3343 135.95 87.358 136.126 87.358C136.389 87.358 136.606 87.2936 136.776 87.1648C136.949 87.0379 137.035 86.8249 137.035 86.5256V85.7273H136.984C136.931 85.8485 136.851 85.9631 136.745 86.0711C136.639 86.179 136.503 86.2671 136.336 86.3353C136.169 86.4035 135.97 86.4376 135.739 86.4376C135.412 86.4376 135.113 86.3618 134.844 86.2103C134.577 86.0569 134.364 85.823 134.205 85.5086C134.048 85.1923 133.969 84.7927 133.969 84.3097C133.969 83.8154 134.05 83.4025 134.211 83.0711C134.372 82.7396 134.586 82.4915 134.853 82.3268C135.122 82.162 135.416 82.0796 135.737 82.0796C135.981 82.0796 136.185 82.1213 136.35 82.2046C136.515 82.286 136.647 82.3883 136.748 82.5114C136.85 82.6326 136.929 82.7519 136.984 82.8694H137.029V82.1364H138.231V86.5427C138.231 86.9139 138.14 87.2245 137.958 87.4745C137.776 87.7245 137.524 87.912 137.202 88.037C136.882 88.1639 136.514 88.2273 136.097 88.2273ZM136.123 85.5285C136.318 85.5285 136.483 85.4802 136.617 85.3836C136.754 85.2851 136.858 85.1449 136.93 84.9631C137.004 84.7794 137.04 84.5597 137.04 84.304C137.04 84.0484 137.005 83.8268 136.933 83.6393C136.861 83.4499 136.756 83.3031 136.62 83.1989C136.484 83.0948 136.318 83.0427 136.123 83.0427C135.924 83.0427 135.756 83.0966 135.62 83.2046C135.484 83.3107 135.38 83.4584 135.31 83.6478C135.24 83.8372 135.205 84.0559 135.205 84.304C135.205 84.5559 135.24 84.7737 135.31 84.9574C135.382 85.1393 135.486 85.2804 135.62 85.3807C135.756 85.4792 135.924 85.5285 136.123 85.5285Z" fill="#FFD869"/>
</g>
<defs>
<filter id="filter0_d_87_7141" x="6" y="10" width="183" height="183" filterUnits="userSpaceOnUse" color-interpolation-filters="sRGB">
<feFlood flood-opacity="0" result="BackgroundImageFix"/>
<feColorMatrix in="SourceAlpha" type="matrix" values="0 0 0 0 0 0 0 0 0 0 0 0 0 0 0 0 0 0 127 0" result="hardAlpha"/>
<feOffset dy="4"/>
<feGaussianBlur stdDeviation="2"/>
<feComposite in2="hardAlpha" operator="out"/>
<feColorMatrix type="matrix" values="0 0 0 0 0 0 0 0 0 0 0 0 0 0 0 0 0 0 0.25 0"/>
<feBlend mode="normal" in2="BackgroundImageFix" result="effect1_dropShadow_87_7141"/>
<feBlend mode="normal" in="SourceGraphic" in2="effect1_dropShadow_87_7141" result="shape"/>
</filter>
<filter id="filter1_bd_87_7141" x="28.5" y="41.5" width="138" height="114" filterUnits="userSpaceOnUse" color-interpolation-filters="sRGB">
<feFlood flood-opacity="0" result="BackgroundImageFix"/>
<feGaussianBlur in="BackgroundImageFix" stdDeviation="2"/>
<feComposite in2="SourceAlpha" operator="in" result="effect1_backgroundBlur_87_7141"/>
<feColorMatrix in="SourceAlpha" type="matrix" values="0 0 0 0 0 0 0 0 0 0 0 0 0 0 0 0 0 0 127 0" result="hardAlpha"/>
<feOffset dy="2"/>
<feGaussianBlur stdDeviation="2"/>
<feComposite in2="hardAlpha" operator="out"/>
<feColorMatrix type="matrix" values="0 0 0 0 1 0 0 0 0 1 0 0 0 0 1 0 0 0 1 0"/>
<feBlend mode="normal" in2="effect1_backgroundBlur_87_7141" result="effect2_dropShadow_87_7141"/>
<feBlend mode="normal" in="SourceGraphic" in2="effect2_dropShadow_87_7141" result="shape"/>
</filter>
<linearGradient id="paint0_linear_87_7141" x1="97.5" y1="18.4677" x2="97.5" y2="176.532" gradientUnits="userSpaceOnUse">
<stop stop-color="white"/>
<stop offset="0.472222" stop-color="#0D5176" stop-opacity="0.527778"/>
<stop offset="0.940972" stop-color="#12A6F7" stop-opacity="0.465278"/>
</linearGradient>
<linearGradient id="paint1_linear_87_7141" x1="63.31" y1="57.1773" x2="122.311" y2="142.523" gradientUnits="userSpaceOnUse">
<stop stop-color="#7DD8F3"/>
<stop offset="1" stop-color="#45B0D0"/>
</linearGradient>
<linearGradient id="paint2_linear_87_7141" x1="34.4955" y1="44.6582" x2="159.042" y2="69.9822" gradientUnits="userSpaceOnUse">
<stop stop-color="#0077D2"/>
<stop offset="1" stop-color="#0B59A2"/>
</linearGradient>
<linearGradient id="paint3_linear_87_7141" x1="71.5" y1="56.875" x2="156" y2="56.875" gradientUnits="userSpaceOnUse">
<stop stop-color="#7DD8F3"/>
<stop offset="1" stop-color="#45B0D0"/>
</linearGradient>
<linearGradient id="paint4_linear_87_7141" x1="41.4408" y1="53.352" x2="45.604" y2="59.3742" gradientUnits="userSpaceOnUse">
<stop stop-color="#75DAFF"/>
<stop offset="1" stop-color="#49BEF1"/>
</linearGradient>
<linearGradient id="paint5_linear_87_7141" x1="57.6807" y1="53.352" x2="61.844" y2="59.3743" gradientUnits="userSpaceOnUse">
<stop stop-color="#75DAFF"/>
<stop offset="1" stop-color="#49BEF1"/>
</linearGradient>
<radialGradient id="paint6_radial_87_7141" cx="0" cy="0" r="1" gradientUnits="userSpaceOnUse" gradientTransform="translate(106.952 110.498) rotate(179.744) scale(1.73578 1.81351)">
<stop stop-color="#64717C" stop-opacity="0.19"/>
<stop offset="1" stop-color="white" stop-opacity="0.465278"/>
</radialGradient>
<radialGradient id="paint7_radial_87_7141" cx="0" cy="0" r="1" gradientUnits="userSpaceOnUse" gradientTransform="translate(106.952 117.498) rotate(179.744) scale(1.73578 1.81351)">
<stop stop-color="#64717C" stop-opacity="0.19"/>
<stop offset="1" stop-color="white" stop-opacity="0.465278"/>
</radialGradient>
<radialGradient id="paint8_radial_87_7141" cx="0" cy="0" r="1" gradientUnits="userSpaceOnUse" gradientTransform="translate(106.952 124.498) rotate(179.744) scale(1.73578 1.81351)">
<stop stop-color="#64717C" stop-opacity="0.19"/>
<stop offset="1" stop-color="white" stop-opacity="0.465278"/>
</radialGradient>
<radialGradient id="paint9_radial_87_7141" cx="0" cy="0" r="1" gradientUnits="userSpaceOnUse" gradientTransform="translate(106.952 131.498) rotate(179.744) scale(1.73578 1.8135)">
<stop stop-color="#64717C" stop-opacity="0.19"/>
<stop offset="1" stop-color="white" stop-opacity="0.465278"/>
</radialGradient>
<radialGradient id="paint10_radial_87_7141" cx="0" cy="0" r="1" gradientUnits="userSpaceOnUse" gradientTransform="translate(166.395 182.919) scale(146.205 146.205)">
<stop offset="0.131" stop-color="#23D9D6"/>
<stop offset="0.214" stop-color="#21BDDD"/>
<stop offset="0.364" stop-color="#1E90E7"/>
<stop offset="0.508" stop-color="#3498DB"/>
<stop offset="0.642" stop-color="#3498DB"/>
<stop offset="0.764" stop-color="#3498DB"/>
<stop offset="0.862" stop-color="#3498DB"/>
</radialGradient>
</defs>
</svg>
