<svg width="199" height="201" viewBox="0 0 199 201" fill="none" xmlns="http://www.w3.org/2000/svg">
<g filter="url(#filter0_d_87_7134)">
<path d="M172.887 10H26.1129C18.3186 10 12 16.3186 12 24.1129V170.887C12 178.681 18.3186 185 26.1129 185H172.887C180.681 185 187 178.681 187 170.887V24.1129C187 16.3186 180.681 10 172.887 10Z" fill="white"/>
<path d="M172.887 10H26.1129C18.3186 10 12 16.3186 12 24.1129V170.887C12 178.681 18.3186 185 26.1129 185H172.887C180.681 185 187 178.681 187 170.887V24.1129C187 16.3186 180.681 10 172.887 10Z" stroke="#D5EAF6" stroke-width="15" stroke-linecap="round"/>
<path d="M172.887 10H26.1129C18.3186 10 12 16.3186 12 24.1129V170.887C12 178.681 18.3186 185 26.1129 185H172.887C180.681 185 187 178.681 187 170.887V24.1129C187 16.3186 180.681 10 172.887 10Z" fill="url(#paint0_linear_87_7134)" fill-opacity="0.2"/>
<path d="M26.1129 10.5H172.887C180.405 10.5 186.5 16.5948 186.5 24.1129V170.887C186.5 178.405 180.405 184.5 172.887 184.5H26.1129C18.5948 184.5 12.5 178.405 12.5 170.887V24.1129C12.5 16.5947 18.5947 10.5 26.1129 10.5Z" stroke="#F7F7F7" stroke-opacity="0.27"/>
</g>
<g filter="url(#filter1_bd_87_7134)">
<path d="M34.5 143V68.25H164.5V143C164.5 146.575 161.575 149.5 158 149.5H41C37.425 149.5 34.5 146.575 34.5 143Z" fill="url(#paint1_linear_87_7134)"/>
<path d="M164.5 52V68.25H34.5V52C34.5 48.425 37.425 45.5 41 45.5H158C161.575 45.5 164.5 48.425 164.5 52Z" fill="url(#paint2_linear_87_7134)"/>
<path d="M75.125 61.75H156.375C157.272 61.75 158 61.022 158 60.125V53.625C158 52.728 157.272 52 156.375 52H75.125C74.228 52 73.5 52.728 73.5 53.625V60.125C73.5 61.022 74.228 61.75 75.125 61.75Z" fill="url(#paint3_linear_87_7134)"/>
<path d="M45.875 61.75C48.5674 61.75 50.75 59.5674 50.75 56.875C50.75 54.1827 48.5674 52 45.875 52C43.1827 52 41 54.1827 41 56.875C41 59.5674 43.1827 61.75 45.875 61.75Z" fill="url(#paint4_linear_87_7134)"/>
<path d="M62.115 61.75C64.8074 61.75 66.99 59.5674 66.99 56.875C66.99 54.1827 64.8074 52 62.115 52C59.4227 52 57.24 54.1827 57.24 56.875C57.24 59.5674 59.4227 61.75 62.115 61.75Z" fill="url(#paint5_linear_87_7134)"/>
<path d="M93.5668 125.3H51.9668V127.9H93.5668V125.3Z" fill="#F2F2F2"/>
<path d="M147.367 104.5H104.367C102.71 104.5 101.367 105.843 101.367 107.5V134.5C101.367 136.157 102.71 137.5 104.367 137.5H147.367C149.024 137.5 150.367 136.157 150.367 134.5V107.5C150.367 105.843 149.024 104.5 147.367 104.5Z" fill="#D5D5D5" fill-opacity="0.2"/>
<path d="M115.367 119.5H113.367C112.815 119.5 112.367 119.052 112.367 118.5V116.5C112.367 115.948 112.815 115.5 113.367 115.5H115.367C115.919 115.5 116.367 115.948 116.367 116.5V118.5C116.367 119.052 115.919 119.5 115.367 119.5Z" fill="white" fill-opacity="0.88"/>
<path d="M115.367 126.5H113.367C112.815 126.5 112.367 126.052 112.367 125.5V123.5C112.367 122.948 112.815 122.5 113.367 122.5H115.367C115.919 122.5 116.367 122.948 116.367 123.5V125.5C116.367 126.052 115.919 126.5 115.367 126.5Z" fill="white" fill-opacity="0.88"/>
<path d="M115.367 133.5H113.367C112.815 133.5 112.367 133.052 112.367 132.5V130.5C112.367 129.948 112.815 129.5 113.367 129.5H115.367C115.919 129.5 116.367 129.948 116.367 130.5V132.5C116.367 133.052 115.919 133.5 115.367 133.5Z" fill="white" fill-opacity="0.88"/>
<path d="M115.367 112.5H113.367C112.815 112.5 112.367 112.052 112.367 111.5V109.5C112.367 108.948 112.815 108.5 113.367 108.5H115.367C115.919 108.5 116.367 108.948 116.367 109.5V111.5C116.367 112.052 115.919 112.5 115.367 112.5Z" fill="white" fill-opacity="0.88"/>
<path d="M106.367 109.3C106.367 108.858 106.725 108.5 107.167 108.5H109.567C110.009 108.5 110.367 108.858 110.367 109.3V111.7C110.367 112.142 110.009 112.5 109.567 112.5H107.167C106.725 112.5 106.367 112.142 106.367 111.7V109.3Z" fill="white" fill-opacity="0.5"/>
<path d="M109.033 110.253C109.21 110.358 109.212 110.625 109.036 110.733L108.173 111.262C107.997 111.369 107.775 111.238 107.773 111.024L107.767 109.979C107.765 109.766 107.986 109.631 108.163 109.737L109.033 110.253Z" fill="url(#paint6_radial_87_7134)"/>
<path d="M109.033 110.253C109.21 110.358 109.212 110.625 109.036 110.733L108.173 111.262C107.997 111.369 107.775 111.238 107.773 111.024L107.767 109.979C107.765 109.766 107.986 109.631 108.163 109.737L109.033 110.253Z" fill="black" fill-opacity="0.2"/>
<path d="M106.367 116.3C106.367 115.858 106.725 115.5 107.167 115.5H109.567C110.009 115.5 110.367 115.858 110.367 116.3V118.7C110.367 119.142 110.009 119.5 109.567 119.5H107.167C106.725 119.5 106.367 119.142 106.367 118.7V116.3Z" fill="white" fill-opacity="0.5"/>
<path d="M109.033 117.253C109.21 117.358 109.212 117.625 109.036 117.733L108.173 118.262C107.997 118.369 107.775 118.238 107.773 118.024L107.767 116.979C107.765 116.766 107.986 116.631 108.163 116.737L109.033 117.253Z" fill="url(#paint7_radial_87_7134)"/>
<path d="M109.033 117.253C109.21 117.358 109.212 117.625 109.036 117.733L108.173 118.262C107.997 118.369 107.775 118.238 107.773 118.024L107.767 116.979C107.765 116.766 107.986 116.631 108.163 116.737L109.033 117.253Z" fill="black" fill-opacity="0.2"/>
<path d="M106.367 123.3C106.367 122.858 106.725 122.5 107.167 122.5H109.567C110.009 122.5 110.367 122.858 110.367 123.3V125.7C110.367 126.142 110.009 126.5 109.567 126.5H107.167C106.725 126.5 106.367 126.142 106.367 125.7V123.3Z" fill="white" fill-opacity="0.5"/>
<path d="M109.033 124.253C109.21 124.358 109.212 124.625 109.036 124.733L108.173 125.262C107.997 125.369 107.775 125.238 107.773 125.024L107.767 123.979C107.765 123.766 107.986 123.631 108.163 123.737L109.033 124.253Z" fill="url(#paint8_radial_87_7134)"/>
<path d="M109.033 124.253C109.21 124.358 109.212 124.625 109.036 124.733L108.173 125.262C107.997 125.369 107.775 125.238 107.773 125.024L107.767 123.979C107.765 123.766 107.986 123.631 108.163 123.737L109.033 124.253Z" fill="black" fill-opacity="0.2"/>
<path d="M106.367 130.3C106.367 129.858 106.725 129.5 107.167 129.5H109.567C110.009 129.5 110.367 129.858 110.367 130.3V132.7C110.367 133.142 110.009 133.5 109.567 133.5H107.167C106.725 133.5 106.367 133.142 106.367 132.7V130.3Z" fill="white" fill-opacity="0.5"/>
<path d="M109.033 131.253C109.21 131.358 109.212 131.625 109.036 131.733L108.173 132.262C107.997 132.369 107.775 132.238 107.773 132.024L107.767 130.979C107.765 130.766 107.986 130.631 108.163 130.737L109.033 131.253Z" fill="url(#paint9_radial_87_7134)"/>
<path d="M109.033 131.253C109.21 131.358 109.212 131.625 109.036 131.733L108.173 132.262C107.997 132.369 107.775 132.238 107.773 132.024L107.767 130.979C107.765 130.766 107.986 130.631 108.163 130.737L109.033 131.253Z" fill="black" fill-opacity="0.2"/>
<path d="M117.367 109.5H145.367C145.919 109.5 146.367 109.948 146.367 110.5C146.367 111.052 145.919 111.5 145.367 111.5H117.367V109.5Z" fill="#D9D9D9" fill-opacity="0.5"/>
<path d="M117.367 116.5H145.367C145.919 116.5 146.367 116.948 146.367 117.5C146.367 118.052 145.919 118.5 145.367 118.5H117.367V116.5Z" fill="#D9D9D9" fill-opacity="0.5"/>
<path d="M117.367 123.5H145.367C145.919 123.5 146.367 123.948 146.367 124.5C146.367 125.052 145.919 125.5 145.367 125.5H117.367V123.5Z" fill="#D9D9D9" fill-opacity="0.5"/>
<path d="M117.367 130.5H145.367C145.919 130.5 146.367 130.948 146.367 131.5C146.367 132.052 145.919 132.5 145.367 132.5H117.367V130.5Z" fill="#D9D9D9" fill-opacity="0.5"/>
<path d="M56.3348 120.967C53.9224 120.967 51.9668 119.011 51.9668 116.599V83.7347C51.9668 81.3223 53.9224 79.3667 56.3348 79.3667H89.1988C91.6112 79.3667 93.5668 81.3223 93.5668 83.7347V116.599C93.5668 119.011 91.6112 120.967 89.1988 120.967H56.3348Z" fill="white"/>
<path d="M86.3665 90.2466H59.1665V109.287H86.3665V90.2466Z" fill="url(#paint10_radial_87_7134)"/>
<path d="M72.0867 109.287H73.4467V113.367H72.0867V109.287Z" fill="#64717C"/>
<path d="M86.3666 90.9268H59.1666C58.7913 90.9268 58.4866 90.6221 58.4866 90.2468V88.8868C58.4866 88.5114 58.7913 88.2068 59.1666 88.2068H86.3666C86.742 88.2068 87.0466 88.5114 87.0466 88.8868V90.2468C87.0466 90.6221 86.742 90.9268 86.3666 90.9268Z" fill="#35C1F1"/>
<path d="M86.3665 108.607H59.1665V109.967H86.3665V108.607Z" fill="#35C1F1"/>
<path d="M71.4067 113.367C71.4067 114.117 72.016 114.727 72.7667 114.727C73.5174 114.727 74.1267 114.117 74.1267 113.367C74.1267 112.616 73.5174 112.007 72.7667 112.007C72.016 112.007 71.4067 112.616 71.4067 113.367Z" fill="#ABB4BE"/>
<path d="M66.6467 95.0066C64.0178 95.0066 61.8867 97.1377 61.8867 99.7666C61.8867 102.396 64.0178 104.527 66.6467 104.527C69.2755 104.527 71.4067 102.396 71.4067 99.7666H66.6467V95.0066Z" fill="white"/>
<path d="M68.0066 93.6467V98.4067H72.7666C72.7666 95.7778 70.6354 93.6467 68.0066 93.6467Z" fill="white"/>
<path d="M83.3068 95.6867H75.8268C75.6391 95.6867 75.4868 95.5343 75.4868 95.3467V94.6667C75.4868 94.479 75.6391 94.3267 75.8268 94.3267H83.3068C83.4945 94.3267 83.6468 94.479 83.6468 94.6667V95.3467C83.6468 95.5343 83.4945 95.6867 83.3068 95.6867Z" fill="white"/>
<path d="M81.9466 97.0466H75.8266C75.639 97.0466 75.4866 97.1989 75.4866 97.3866V98.0666C75.4866 98.2543 75.639 98.4066 75.8266 98.4066H81.9466C82.1343 98.4066 82.2866 98.2543 82.2866 98.0666V97.3866C82.2866 97.199 82.1343 97.0466 81.9466 97.0466Z" fill="white"/>
<path d="M83.3068 99.7666H75.8268C75.6391 99.7666 75.4868 99.9189 75.4868 100.107V100.787C75.4868 100.974 75.6391 101.127 75.8268 101.127H83.3068C83.4945 101.127 83.6468 100.974 83.6468 100.787V100.107C83.6468 99.9189 83.4945 99.7666 83.3068 99.7666Z" fill="white"/>
<path d="M81.9466 102.487H75.8266C75.639 102.487 75.4866 102.639 75.4866 102.827V103.507C75.4866 103.694 75.639 103.847 75.8266 103.847H81.9466C82.1343 103.847 82.2866 103.694 82.2866 103.507V102.827C82.2866 102.639 82.1343 102.487 81.9466 102.487Z" fill="white"/>
<path d="M86.3668 109.967C86.7424 109.967 87.0468 109.662 87.0468 109.287C87.0468 108.911 86.7424 108.607 86.3668 108.607C85.9913 108.607 85.6868 108.911 85.6868 109.287C85.6868 109.662 85.9913 109.967 86.3668 109.967Z" fill="#35C1F1"/>
<path d="M59.1666 109.967C59.5422 109.967 59.8466 109.662 59.8466 109.287C59.8466 108.911 59.5422 108.607 59.1666 108.607C58.7911 108.607 58.4866 108.911 58.4866 109.287C58.4866 109.662 58.7911 109.967 59.1666 109.967Z" fill="#35C1F1"/>
<path d="M108.5 98.5H102.5V102.5H108.5V98.5Z" fill="#D9D9D9" fill-opacity="0.5"/>
<path d="M139.5 94.1001H102.233V95.8334H139.5V94.1001Z" fill="#D9D9D9" fill-opacity="0.5"/>
<path d="M142.966 91.5H102.233V89.7667H142.966V91.5Z" fill="#D9D9D9" fill-opacity="0.5"/>
<path d="M103.972 86.5853C103.523 86.5853 103.136 86.4944 102.813 86.3126C102.491 86.1288 102.242 85.8694 102.068 85.5341C101.894 85.197 101.807 84.7984 101.807 84.3381C101.807 83.8893 101.894 83.4953 102.068 83.1563C102.242 82.8173 102.488 82.5531 102.804 82.3637C103.122 82.1743 103.495 82.0796 103.923 82.0796C104.211 82.0796 104.479 82.126 104.727 82.2188C104.977 82.3097 105.195 82.447 105.381 82.6307C105.568 82.8144 105.714 83.0455 105.818 83.3239C105.922 83.6004 105.974 83.9243 105.974 84.2955V84.6279H102.29V83.8779H104.835C104.835 83.7037 104.797 83.5493 104.722 83.4148C104.646 83.2804 104.541 83.1752 104.406 83.0995C104.274 83.0218 104.119 82.983 103.943 82.983C103.759 82.983 103.597 83.0256 103.455 83.1109C103.314 83.1942 103.205 83.3069 103.125 83.4489C103.045 83.5891 103.005 83.7453 103.003 83.9177V84.6307C103.003 84.8466 103.043 85.0332 103.122 85.1904C103.204 85.3476 103.318 85.4688 103.466 85.554C103.614 85.6393 103.789 85.6819 103.991 85.6819C104.126 85.6819 104.249 85.6629 104.361 85.6251C104.473 85.5872 104.568 85.5304 104.648 85.4546C104.727 85.3788 104.788 85.286 104.83 85.1762L105.949 85.2501C105.892 85.519 105.776 85.7538 105.599 85.9546C105.425 86.1535 105.2 86.3088 104.923 86.4205C104.649 86.5304 104.331 86.5853 103.972 86.5853Z" fill="#FFD869"/>
<path d="M106.787 86.5001V80.6819H108.017V85.4859H110.511V86.5001H106.787Z" fill="#FFD869"/>
<path d="M113.292 86.5853C112.843 86.5853 112.457 86.4944 112.133 86.3126C111.811 86.1288 111.563 85.8694 111.389 85.5341C111.214 85.197 111.127 84.7984 111.127 84.3381C111.127 83.8893 111.214 83.4953 111.389 83.1563C111.563 82.8173 111.808 82.5531 112.124 82.3637C112.442 82.1743 112.816 82.0796 113.244 82.0796C113.531 82.0796 113.799 82.126 114.048 82.2188C114.298 82.3097 114.515 82.447 114.701 82.6307C114.889 82.8144 115.034 83.0455 115.139 83.3239C115.243 83.6004 115.295 83.9243 115.295 84.2955V84.6279H111.61V83.8779H114.156C114.156 83.7037 114.118 83.5493 114.042 83.4148C113.966 83.2804 113.861 83.1752 113.727 83.0995C113.594 83.0218 113.44 82.983 113.264 82.983C113.08 82.983 112.917 83.0256 112.775 83.1109C112.635 83.1942 112.525 83.3069 112.445 83.4489C112.366 83.5891 112.325 83.7453 112.323 83.9177V84.6307C112.323 84.8466 112.363 85.0332 112.442 85.1904C112.524 85.3476 112.638 85.4688 112.786 85.554C112.934 85.6393 113.109 85.6819 113.312 85.6819C113.446 85.6819 113.569 85.6629 113.681 85.6251C113.793 85.5872 113.888 85.5304 113.968 85.4546C114.048 85.3788 114.108 85.286 114.15 85.1762L115.269 85.2501C115.212 85.519 115.096 85.7538 114.92 85.9546C114.746 86.1535 114.52 86.3088 114.244 86.4205C113.969 86.5304 113.652 86.5853 113.292 86.5853Z" fill="#FFD869"/>
<path d="M117.329 86.5824C117.05 86.5824 116.802 86.5341 116.585 86.4376C116.367 86.3391 116.194 86.1942 116.067 86.0029C115.942 85.8097 115.88 85.5692 115.88 85.2813C115.88 85.0389 115.924 84.8353 116.014 84.6705C116.103 84.5057 116.224 84.3732 116.377 84.2728C116.531 84.1724 116.705 84.0966 116.9 84.0455C117.097 83.9944 117.303 83.9584 117.519 83.9376C117.773 83.911 117.978 83.8864 118.133 83.8637C118.288 83.8391 118.401 83.8031 118.471 83.7557C118.541 83.7084 118.576 83.6383 118.576 83.5455V83.5285C118.576 83.3485 118.519 83.2093 118.406 83.1109C118.294 83.0124 118.135 82.9631 117.928 82.9631C117.71 82.9631 117.537 83.0114 117.408 83.108C117.28 83.2027 117.194 83.322 117.153 83.466L116.033 83.3751C116.09 83.1099 116.202 82.8807 116.369 82.6876C116.535 82.4925 116.75 82.3429 117.014 82.2387C117.279 82.1326 117.585 82.0796 117.934 82.0796C118.176 82.0796 118.408 82.108 118.63 82.1648C118.853 82.2216 119.051 82.3097 119.224 82.429C119.398 82.5484 119.535 82.7018 119.636 82.8893C119.736 83.0749 119.786 83.2974 119.786 83.5569V86.5001H118.639V85.8949H118.604C118.534 86.0313 118.441 86.1516 118.323 86.2557C118.206 86.358 118.065 86.4385 117.9 86.4972C117.735 86.554 117.545 86.5824 117.329 86.5824ZM117.675 85.7472C117.853 85.7472 118.011 85.7122 118.147 85.6421C118.283 85.5701 118.39 85.4735 118.468 85.3523C118.546 85.2311 118.585 85.0938 118.585 84.9404V84.4773C118.547 84.5019 118.495 84.5247 118.428 84.5455C118.364 84.5644 118.291 84.5824 118.21 84.5995C118.128 84.6146 118.047 84.6288 117.965 84.6421C117.884 84.6535 117.81 84.6639 117.744 84.6734C117.602 84.6942 117.478 84.7273 117.371 84.7728C117.265 84.8182 117.183 84.8798 117.124 84.9574C117.066 85.0332 117.036 85.1279 117.036 85.2415C117.036 85.4063 117.096 85.5323 117.215 85.6194C117.336 85.7046 117.49 85.7472 117.675 85.7472Z" fill="#FFD869"/>
<path d="M120.725 86.5002V82.1365H121.898V82.8979H121.944C122.023 82.627 122.157 82.4225 122.344 82.2842C122.532 82.1441 122.748 82.074 122.992 82.074C123.053 82.074 123.118 82.0778 123.188 82.0854C123.258 82.093 123.32 82.1034 123.373 82.1166V83.1905C123.316 83.1735 123.237 83.1583 123.137 83.145C123.037 83.1318 122.945 83.1252 122.862 83.1252C122.683 83.1252 122.524 83.164 122.384 83.2416C122.246 83.3174 122.136 83.4235 122.055 83.5598C121.975 83.6962 121.935 83.8534 121.935 84.0314V86.5002H120.725Z" fill="#FFD869"/>
<path d="M125.209 83.9773V86.5001H123.999V82.1364H125.152V82.9063H125.203C125.3 82.6525 125.462 82.4518 125.689 82.304C125.916 82.1544 126.192 82.0796 126.516 82.0796C126.819 82.0796 127.083 82.1459 127.308 82.2785C127.534 82.411 127.709 82.6004 127.834 82.8466C127.959 83.091 128.021 83.3826 128.021 83.7216V86.5001H126.811V83.9376C126.813 83.6705 126.745 83.4622 126.607 83.3126C126.468 83.161 126.278 83.0853 126.036 83.0853C125.873 83.0853 125.729 83.1203 125.604 83.1904C125.481 83.2605 125.384 83.3627 125.314 83.4972C125.246 83.6298 125.211 83.7898 125.209 83.9773Z" fill="#FFD869"/>
<path d="M128.975 86.5002V82.1365H130.185V86.5002H128.975ZM129.583 81.574C129.403 81.574 129.249 81.5144 129.12 81.395C128.993 81.2738 128.93 81.1289 128.93 80.9604C128.93 80.7937 128.993 80.6507 129.12 80.5314C129.249 80.4102 129.403 80.3496 129.583 80.3496C129.763 80.3496 129.916 80.4102 130.043 80.5314C130.172 80.6507 130.237 80.7937 130.237 80.9604C130.237 81.1289 130.172 81.2738 130.043 81.395C129.916 81.5144 129.763 81.574 129.583 81.574Z" fill="#FFD869"/>
<path d="M132.365 83.9773V86.5001H131.155V82.1364H132.308V82.9063H132.359C132.456 82.6525 132.618 82.4518 132.845 82.304C133.072 82.1544 133.348 82.0796 133.672 82.0796C133.975 82.0796 134.239 82.1459 134.464 82.2785C134.69 82.411 134.865 82.6004 134.99 82.8466C135.115 83.091 135.178 83.3826 135.178 83.7216V86.5001H133.967V83.9376C133.969 83.6705 133.901 83.4622 133.763 83.3126C133.625 83.161 133.434 83.0853 133.192 83.0853C133.029 83.0853 132.885 83.1203 132.76 83.1904C132.637 83.2605 132.54 83.3627 132.47 83.4972C132.402 83.6298 132.367 83.7898 132.365 83.9773Z" fill="#FFD869"/>
<path d="M138.097 88.2273C137.705 88.2273 137.369 88.1734 137.089 88.0654C136.81 87.9593 136.589 87.8144 136.424 87.6307C136.259 87.447 136.152 87.2406 136.103 87.0114L137.222 86.8609C137.256 86.948 137.31 87.0294 137.384 87.1052C137.458 87.1809 137.556 87.2415 137.677 87.287C137.8 87.3343 137.95 87.358 138.126 87.358C138.389 87.358 138.606 87.2936 138.776 87.1648C138.949 87.0379 139.035 86.8249 139.035 86.5256V85.7273H138.984C138.931 85.8485 138.851 85.9631 138.745 86.0711C138.639 86.179 138.503 86.2671 138.336 86.3353C138.169 86.4035 137.97 86.4376 137.739 86.4376C137.412 86.4376 137.113 86.3618 136.844 86.2103C136.577 86.0569 136.364 85.823 136.205 85.5086C136.048 85.1923 135.969 84.7927 135.969 84.3097C135.969 83.8154 136.05 83.4025 136.211 83.0711C136.372 82.7396 136.586 82.4915 136.853 82.3268C137.122 82.162 137.416 82.0796 137.737 82.0796C137.981 82.0796 138.185 82.1213 138.35 82.2046C138.515 82.286 138.647 82.3883 138.748 82.5114C138.85 82.6326 138.929 82.7519 138.984 82.8694H139.029V82.1364H140.231V86.5427C140.231 86.9139 140.14 87.2245 139.958 87.4745C139.776 87.7245 139.524 87.912 139.202 88.037C138.882 88.1639 138.514 88.2273 138.097 88.2273ZM138.123 85.5285C138.318 85.5285 138.483 85.4802 138.617 85.3836C138.754 85.2851 138.858 85.1449 138.93 84.9631C139.004 84.7794 139.04 84.5597 139.04 84.304C139.04 84.0484 139.005 83.8268 138.933 83.6393C138.861 83.4499 138.756 83.3031 138.62 83.1989C138.484 83.0948 138.318 83.0427 138.123 83.0427C137.924 83.0427 137.756 83.0966 137.62 83.2046C137.484 83.3107 137.38 83.4584 137.31 83.6478C137.24 83.8372 137.205 84.0559 137.205 84.304C137.205 84.5559 137.24 84.7737 137.31 84.9574C137.382 85.1393 137.486 85.2804 137.62 85.3807C137.756 85.4792 137.924 85.5285 138.123 85.5285Z" fill="#FFD869"/>
</g>
<defs>
<filter id="filter0_d_87_7134" x="0.5" y="2.5" width="198" height="198" filterUnits="userSpaceOnUse" color-interpolation-filters="sRGB">
<feFlood flood-opacity="0" result="BackgroundImageFix"/>
<feColorMatrix in="SourceAlpha" type="matrix" values="0 0 0 0 0 0 0 0 0 0 0 0 0 0 0 0 0 0 127 0" result="hardAlpha"/>
<feOffset dy="4"/>
<feGaussianBlur stdDeviation="2"/>
<feComposite in2="hardAlpha" operator="out"/>
<feColorMatrix type="matrix" values="0 0 0 0 0 0 0 0 0 0 0 0 0 0 0 0 0 0 0.25 0"/>
<feBlend mode="normal" in2="BackgroundImageFix" result="effect1_dropShadow_87_7134"/>
<feBlend mode="normal" in="SourceGraphic" in2="effect1_dropShadow_87_7134" result="shape"/>
</filter>
<filter id="filter1_bd_87_7134" x="30.5" y="41.5" width="138" height="114" filterUnits="userSpaceOnUse" color-interpolation-filters="sRGB">
<feFlood flood-opacity="0" result="BackgroundImageFix"/>
<feGaussianBlur in="BackgroundImageFix" stdDeviation="2"/>
<feComposite in2="SourceAlpha" operator="in" result="effect1_backgroundBlur_87_7134"/>
<feColorMatrix in="SourceAlpha" type="matrix" values="0 0 0 0 0 0 0 0 0 0 0 0 0 0 0 0 0 0 127 0" result="hardAlpha"/>
<feOffset dy="2"/>
<feGaussianBlur stdDeviation="2"/>
<feComposite in2="hardAlpha" operator="out"/>
<feColorMatrix type="matrix" values="0 0 0 0 1 0 0 0 0 1 0 0 0 0 1 0 0 0 1 0"/>
<feBlend mode="normal" in2="effect1_backgroundBlur_87_7134" result="effect2_dropShadow_87_7134"/>
<feBlend mode="normal" in="SourceGraphic" in2="effect2_dropShadow_87_7134" result="shape"/>
</filter>
<linearGradient id="paint0_linear_87_7134" x1="99.5" y1="18.4677" x2="99.5" y2="176.532" gradientUnits="userSpaceOnUse">
<stop stop-color="white"/>
<stop offset="0.472222" stop-color="#0D5176" stop-opacity="0.527778"/>
<stop offset="0.940972" stop-color="#12A6F7" stop-opacity="0.465278"/>
</linearGradient>
<linearGradient id="paint1_linear_87_7134" x1="65.31" y1="57.1773" x2="124.311" y2="142.523" gradientUnits="userSpaceOnUse">
<stop stop-color="#7DD8F3"/>
<stop offset="1" stop-color="#45B0D0"/>
</linearGradient>
<linearGradient id="paint2_linear_87_7134" x1="36.4955" y1="44.6582" x2="161.042" y2="69.9822" gradientUnits="userSpaceOnUse">
<stop stop-color="#0077D2"/>
<stop offset="1" stop-color="#0B59A2"/>
</linearGradient>
<linearGradient id="paint3_linear_87_7134" x1="73.5" y1="56.875" x2="158" y2="56.875" gradientUnits="userSpaceOnUse">
<stop stop-color="#7DD8F3"/>
<stop offset="1" stop-color="#45B0D0"/>
</linearGradient>
<linearGradient id="paint4_linear_87_7134" x1="43.4408" y1="53.352" x2="47.604" y2="59.3742" gradientUnits="userSpaceOnUse">
<stop stop-color="#75DAFF"/>
<stop offset="1" stop-color="#49BEF1"/>
</linearGradient>
<linearGradient id="paint5_linear_87_7134" x1="59.6807" y1="53.352" x2="63.844" y2="59.3743" gradientUnits="userSpaceOnUse">
<stop stop-color="#75DAFF"/>
<stop offset="1" stop-color="#49BEF1"/>
</linearGradient>
<radialGradient id="paint6_radial_87_7134" cx="0" cy="0" r="1" gradientUnits="userSpaceOnUse" gradientTransform="translate(108.952 110.498) rotate(179.744) scale(1.73578 1.81351)">
<stop stop-color="#64717C" stop-opacity="0.19"/>
<stop offset="1" stop-color="white" stop-opacity="0.465278"/>
</radialGradient>
<radialGradient id="paint7_radial_87_7134" cx="0" cy="0" r="1" gradientUnits="userSpaceOnUse" gradientTransform="translate(108.952 117.498) rotate(179.744) scale(1.73578 1.81351)">
<stop stop-color="#64717C" stop-opacity="0.19"/>
<stop offset="1" stop-color="white" stop-opacity="0.465278"/>
</radialGradient>
<radialGradient id="paint8_radial_87_7134" cx="0" cy="0" r="1" gradientUnits="userSpaceOnUse" gradientTransform="translate(108.952 124.498) rotate(179.744) scale(1.73578 1.81351)">
<stop stop-color="#64717C" stop-opacity="0.19"/>
<stop offset="1" stop-color="white" stop-opacity="0.465278"/>
</radialGradient>
<radialGradient id="paint9_radial_87_7134" cx="0" cy="0" r="1" gradientUnits="userSpaceOnUse" gradientTransform="translate(108.952 131.498) rotate(179.744) scale(1.73578 1.8135)">
<stop stop-color="#64717C" stop-opacity="0.19"/>
<stop offset="1" stop-color="white" stop-opacity="0.465278"/>
</radialGradient>
<radialGradient id="paint10_radial_87_7134" cx="0" cy="0" r="1" gradientUnits="userSpaceOnUse" gradientTransform="translate(168.395 182.919) scale(146.205 146.205)">
<stop offset="0.131" stop-color="#23D9D6"/>
<stop offset="0.214" stop-color="#21BDDD"/>
<stop offset="0.364" stop-color="#1E90E7"/>
<stop offset="0.508" stop-color="#3498DB"/>
<stop offset="0.642" stop-color="#3498DB"/>
<stop offset="0.764" stop-color="#3498DB"/>
<stop offset="0.862" stop-color="#3498DB"/>
</radialGradient>
</defs>
</svg>
