<svg width="195" height="195" viewBox="0 0 195 195" fill="none" xmlns="http://www.w3.org/2000/svg">
<path d="M69.3327 80.9889L63.3408 74.997C59.0262 81.5102 56.5 89.3112 56.5 97.7097C56.5 105.268 58.5461 112.346 62.1025 118.434C62.7062 119.469 64.1506 119.615 64.9975 118.766L68.3767 115.387C68.9433 114.82 69.0484 113.959 68.6693 113.254C66.1781 108.62 64.742 103.339 64.742 97.7097C64.742 91.5983 66.4336 85.897 69.3327 80.9889Z" fill="#50E6FF" fill-opacity="0.5"/>
<path d="M130.678 97.7097C130.678 103.821 128.986 109.523 126.087 114.431L132.079 120.423C136.394 113.91 138.92 106.106 138.92 97.7097C138.92 90.1519 136.874 83.0741 133.317 76.9854C132.714 75.951 131.269 75.8068 130.422 76.6536L127.043 80.0328C126.476 80.5995 126.371 81.4607 126.75 82.1654C129.242 86.7995 130.678 92.0805 130.678 97.7097Z" fill="#199BE2" fill-opacity="0.5"/>
<path d="M80.0328 68.3767C80.5995 68.9433 81.4607 69.0484 82.1654 68.6693C86.7995 66.1781 92.0805 64.742 97.7097 64.742C103.821 64.742 109.523 66.4336 114.431 69.3327L120.425 63.3388C113.91 59.0262 106.109 56.5 97.7097 56.5C90.189 56.5 83.1462 58.5255 77.0781 62.0489C76.0046 62.6732 75.7779 64.1218 76.6557 64.9995L80.0328 68.3767Z" fill="#35C1F1" fill-opacity="0.5"/>
<path d="M115.387 127.043C114.82 126.476 113.959 126.371 113.254 126.75C108.62 129.242 103.339 130.678 97.7097 130.678C91.5983 130.678 85.897 128.986 80.9889 126.087L74.997 132.079C81.5102 136.394 89.3132 138.92 97.7097 138.92C105.268 138.92 112.346 136.874 118.434 133.317C119.469 132.714 119.615 131.269 118.766 130.422L115.387 127.043Z" fill="#0078D4" fill-opacity="0.5"/>
<path d="M122.3 73.1384L112.339 72.7964C111.635 72.7717 111.284 71.9289 111.769 71.4138L121.364 61.1629C121.863 60.6292 122.757 60.963 122.786 61.6925L123.2 72.236C123.219 72.7408 122.805 73.1549 122.3 73.1384Z" fill="#35C1F1" fill-opacity="0.5"/>
<path d="M73.1199 122.281L83.0803 122.623C83.785 122.648 84.1352 123.491 83.651 124.006L74.0554 134.257C73.5567 134.79 72.6625 134.457 72.6336 133.727L72.2195 123.184C72.2009 122.679 72.6151 122.265 73.1199 122.281Z" fill="#0078D4" fill-opacity="0.5"/>
<path d="M122.281 122.3L122.623 112.339C122.648 111.635 123.491 111.284 124.006 111.769L134.257 121.364C134.79 121.863 134.457 122.757 133.727 122.786L123.184 123.2C122.679 123.219 122.265 122.805 122.281 122.3Z" fill="#199BE2" fill-opacity="0.5"/>
<path d="M73.1384 73.1199L72.7964 83.0803C72.7717 83.785 71.9289 84.1352 71.4138 83.651L61.1609 74.0554C60.6272 73.5567 60.961 72.6625 61.6904 72.6336L72.2339 72.2195C72.7408 72.2009 73.1549 72.6151 73.1384 73.1199Z" fill="#50E6FF" fill-opacity="0.5"/>
<rect x="29.5" y="31.5" width="60" height="60" rx="3" fill="url(#paint0_linear_84_18180)"/>
<rect x="29.5" y="31.5" width="60" height="60" rx="3" fill="white" fill-opacity="0.2"/>
<path d="M39.5 61.5C39.5 50.455 48.455 41.5 59.5 41.5C70.545 41.5 79.5 50.455 79.5 61.5C79.5 72.545 70.545 81.5 59.5 81.5C48.455 81.5 39.5 72.545 39.5 61.5Z" fill="url(#paint1_radial_84_18180)"/>
<path d="M76.5 61.5C76.5 58.261 75.827 55.209 74.661 52.5H77.343C76.995 51.811 76.618 51.14 76.195 50.5H73.683C70.638 45.084 65.421 41.5 59.5 41.5C53.579 41.5 48.362 45.084 45.317 50.5H42.805C42.382 51.14 42.005 51.811 41.657 52.5H44.339C43.173 55.209 42.5 58.261 42.5 61.5C42.5 64.739 43.173 67.791 44.339 70.5H41.657C42.005 71.189 42.382 71.86 42.805 72.5H45.317C48.362 77.916 53.579 81.5 59.5 81.5C65.421 81.5 70.638 77.916 73.683 72.5H76.195C76.618 71.86 76.995 71.189 77.343 70.5H74.661C75.827 67.791 76.5 64.739 76.5 61.5ZM74.5 61.5C74.5 64.78 73.753 67.849 72.471 70.5H66.678C67.221 67.667 67.5 64.553 67.5 61.5C67.5 58.447 67.221 55.333 66.678 52.5H72.471C73.753 55.151 74.5 58.22 74.5 61.5ZM59.5 79.5C57.81 79.5 56.009 76.863 54.826 72.5H64.175C62.991 76.863 61.19 79.5 59.5 79.5ZM54.348 70.5C53.821 67.913 53.5 64.871 53.5 61.5C53.5 58.129 53.821 55.087 54.348 52.5H64.652C65.179 55.087 65.5 58.129 65.5 61.5C65.5 64.871 65.179 67.913 64.652 70.5H54.348ZM59.5 43.5C61.19 43.5 62.991 46.137 64.174 50.5H54.825C56.009 46.137 57.81 43.5 59.5 43.5ZM71.347 50.5H66.236C65.61 48.001 64.757 45.816 63.684 44.227C66.763 45.303 69.429 47.532 71.347 50.5ZM55.316 44.227C54.243 45.817 53.39 48.001 52.764 50.5H47.653C49.571 47.532 52.237 45.303 55.316 44.227ZM44.5 61.5C44.5 58.22 45.247 55.151 46.529 52.5H52.322C51.779 55.333 51.5 58.447 51.5 61.5C51.5 64.553 51.779 67.667 52.322 70.5H46.529C45.247 67.849 44.5 64.78 44.5 61.5ZM47.653 72.5H52.764C53.39 74.999 54.243 77.184 55.316 78.773C52.237 77.697 49.571 75.468 47.653 72.5ZM63.684 78.773C64.757 77.183 65.61 74.999 66.236 72.5H71.347C69.429 75.468 66.763 77.697 63.684 78.773Z" fill="url(#paint2_radial_84_18180)"/>
<path d="M63.405 57.5L62.093 63.743L60.5 57.5H58.5L56.907 63.743L55.595 57.5H53.5L55.5 65.5H57.951C57.951 65.5 59.464 59.864 59.5 59.5C59.536 59.864 61.049 65.5 61.049 65.5H63.5L65.5 57.5H63.405Z" fill="white"/>
<path d="M51.405 57.5L50.093 63.743L48.5 57.5H46.5L44.907 63.743L43.595 57.5H41.5L43.5 65.5H45.951C45.951 65.5 47.464 59.864 47.5 59.5C47.536 59.864 49.049 65.5 49.049 65.5H51.5L53.5 57.5H51.405Z" fill="white"/>
<path d="M75.405 57.5L74.093 63.743L72.5 57.5H70.5L68.907 63.743L67.595 57.5H65.5L67.5 65.5H69.951C69.951 65.5 71.464 59.864 71.5 59.5C71.536 59.864 73.049 65.5 73.049 65.5H75.5L77.5 57.5H75.405Z" fill="white"/>
<rect x="28.5" y="30.5" width="62" height="62" rx="4" stroke="#E2E2E2" stroke-opacity="0.59" stroke-width="2"/>
<rect x="97.5" y="102.5" width="60" height="60" rx="3" fill="url(#paint3_linear_84_18180)"/>
<rect x="97.5" y="102.5" width="60" height="60" rx="3" fill="white" fill-opacity="0.2"/>
<path d="M147.5 132.5C147.5 143.545 138.545 152.5 127.5 152.5C116.455 152.5 107.5 143.545 107.5 132.5C107.5 121.455 116.455 112.5 127.5 112.5C138.545 112.5 147.5 121.455 147.5 132.5Z" fill="url(#paint4_radial_84_18180)"/>
<path d="M144.5 132.5C144.5 130.035 144.101 127.682 143.404 125.5H146.215C145.959 124.815 145.669 124.147 145.342 123.5H142.66C139.855 116.985 134.121 112.5 127.5 112.5C120.879 112.5 115.145 116.985 112.339 123.5H109.657C109.33 124.147 109.041 124.815 108.784 125.5H111.595C110.899 127.682 110.5 130.035 110.5 132.5C110.5 134.965 110.899 137.318 111.596 139.5H108.785C109.041 140.185 109.331 140.853 109.658 141.5H112.34C115.146 148.015 120.88 152.5 127.501 152.5C134.122 152.5 139.856 148.015 142.662 141.5H145.344C145.671 140.853 145.96 140.185 146.217 139.5H143.406C144.101 137.318 144.5 134.965 144.5 132.5ZM142.5 132.5C142.5 134.981 142.079 137.347 141.319 139.5H135.01C135.333 137.234 135.5 134.85 135.5 132.5C135.5 130.15 135.334 127.766 135.01 125.5H141.319C142.079 127.653 142.5 130.019 142.5 132.5ZM127.5 150.5C125.564 150.5 123.479 147.055 122.348 141.5H132.652C131.521 147.055 129.436 150.5 127.5 150.5ZM122 139.5C121.685 137.387 121.5 135.039 121.5 132.5C121.5 129.961 121.685 127.613 122 125.5H133C133.315 127.613 133.5 129.961 133.5 132.5C133.5 135.039 133.315 137.387 133 139.5H122ZM127.5 114.5C129.436 114.5 131.521 117.945 132.652 123.5H122.348C123.479 117.945 125.564 114.5 127.5 114.5ZM140.47 123.5H134.678C134.039 120.17 133.035 117.228 131.684 115.227C135.422 116.533 138.554 119.538 140.47 123.5ZM123.316 115.227C121.966 117.229 120.961 120.17 120.322 123.5H114.53C116.446 119.538 119.578 116.533 123.316 115.227ZM112.5 132.5C112.5 130.019 112.921 127.653 113.681 125.5H119.99C119.666 127.766 119.5 130.15 119.5 132.5C119.5 134.85 119.666 137.234 119.99 139.5H113.681C112.921 137.347 112.5 134.981 112.5 132.5ZM114.53 141.5H120.322C120.961 144.83 121.965 147.772 123.316 149.773C119.578 148.467 116.446 145.462 114.53 141.5ZM131.684 149.773C133.034 147.771 134.039 144.83 134.678 141.5H140.47C138.554 145.462 135.422 148.467 131.684 149.773Z" fill="url(#paint5_radial_84_18180)"/>
<path opacity="0.07" d="M134 116.5V126.898C134 127.349 134.293 127.731 134.73 127.848C134.817 127.87 134.905 127.882 134.991 127.882C135.335 127.882 135.656 127.701 135.836 127.389L137.789 123.999H145.583C143.788 120.189 140.842 117.032 137.174 114.999H135.5C134.673 115 134 115.673 134 116.5Z" fill="black"/>
<path opacity="0.07" d="M120.5 123H109.898C108.497 125.589 107.675 128.528 107.543 131.645C107.804 131.863 108.135 132 108.5 132H118.211L120.164 135.389C120.344 135.702 120.665 135.883 121.01 135.883C121.096 135.883 121.183 135.871 121.271 135.849C121.708 135.732 122.001 135.35 122.001 134.899V124.5C122 123.673 121.327 123 120.5 123Z" fill="black"/>
<path opacity="0.05" d="M133.5 116.5V126.898C133.5 127.579 133.942 128.155 134.601 128.331C134.733 128.366 134.865 128.384 134.995 128.384C135.515 128.384 135.998 128.111 136.27 127.639L138.078 124.5H145.824C143.908 120.12 140.466 116.573 136.173 114.5H135.5C134.397 114.5 133.5 115.397 133.5 116.5Z" fill="black"/>
<path opacity="0.05" d="M141.5 130.5H129.5C128.397 130.5 127.5 131.397 127.5 132.5V142.898C127.5 143.579 127.942 144.155 128.601 144.331C128.733 144.366 128.865 144.384 128.995 144.384C129.515 144.384 129.998 144.111 130.27 143.639L132.078 140.5H141.5C142.603 140.5 143.5 139.603 143.5 138.5V132.5C143.5 131.397 142.603 130.5 141.5 130.5Z" fill="black"/>
<path opacity="0.05" d="M120.5 122.5H110.198C108.535 125.37 107.561 128.685 107.514 132.229C107.806 132.397 108.14 132.5 108.5 132.5H117.922L119.731 135.639C120.002 136.111 120.486 136.384 121.006 136.384C121.136 136.384 121.268 136.366 121.4 136.331C122.058 136.155 122.5 135.579 122.5 134.898V124.5C122.5 123.397 121.603 122.5 120.5 122.5Z" fill="black"/>
<path d="M108.5 123.5H120.5C121.052 123.5 121.5 123.948 121.5 124.5V134.898C121.5 135.393 120.844 135.568 120.597 135.14L118.5 131.5H108.5C107.948 131.5 107.5 131.052 107.5 130.5V124.5C107.5 123.948 107.948 123.5 108.5 123.5Z" fill="url(#paint6_linear_84_18180)"/>
<path d="M147.5 115.5H135.5C134.948 115.5 134.5 115.948 134.5 116.5V126.898C134.5 127.393 135.156 127.568 135.403 127.14L137.5 123.5H147.5C148.052 123.5 148.5 123.052 148.5 122.5V116.5C148.5 115.948 148.052 115.5 147.5 115.5Z" fill="url(#paint7_linear_84_18180)"/>
<path d="M141.5 131.5H129.5C128.948 131.5 128.5 131.948 128.5 132.5V142.898C128.5 143.393 129.156 143.568 129.403 143.14L131.5 139.5H141.5C142.052 139.5 142.5 139.052 142.5 138.5V132.5C142.5 131.948 142.052 131.5 141.5 131.5Z" fill="#FF8F6B"/>
<path opacity="0.07" d="M141.5 131H129.5C128.673 131 128 131.673 128 132.5V142.898C128 143.349 128.293 143.731 128.73 143.848C128.817 143.87 128.905 143.882 128.991 143.882C129.335 143.882 129.656 143.701 129.836 143.389L131.789 139.999H141.5C142.327 139.999 143 139.326 143 138.499V132.499C143 131.673 142.327 131 141.5 131Z" fill="black"/>
<rect x="96.5" y="101.5" width="62" height="62" rx="4" stroke="#E2E2E2" stroke-opacity="0.59" stroke-width="2"/>
<defs>
<linearGradient id="paint0_linear_84_18180" x1="59.5" y1="31.5" x2="86.3" y2="99.9" gradientUnits="userSpaceOnUse">
<stop stop-color="#B8DFFC"/>
<stop offset="0.453125" stop-color="#E5EFF7" stop-opacity="0.98"/>
<stop offset="1" stop-color="#8FC3EB"/>
</linearGradient>
<radialGradient id="paint1_radial_84_18180" cx="0" cy="0" r="1" gradientUnits="userSpaceOnUse" gradientTransform="translate(45.832 46.681) scale(40.041)">
<stop stop-color="#6FCEFC"/>
<stop offset="1" stop-color="#167CF7"/>
</radialGradient>
<radialGradient id="paint2_radial_84_18180" cx="0" cy="0" r="1" gradientUnits="userSpaceOnUse" gradientTransform="translate(45.2255 45.98) scale(45.0092 40.155)">
<stop offset="0.001" stop-color="#54C0F5"/>
<stop offset="0.998" stop-color="#0B69DB"/>
</radialGradient>
<linearGradient id="paint3_linear_84_18180" x1="127.5" y1="102.5" x2="154.3" y2="170.9" gradientUnits="userSpaceOnUse">
<stop stop-color="#B8DFFC"/>
<stop offset="0.453125" stop-color="#E5EFF7" stop-opacity="0.98"/>
<stop offset="1" stop-color="#8FC3EB"/>
</linearGradient>
<radialGradient id="paint4_radial_84_18180" cx="0" cy="0" r="1" gradientUnits="userSpaceOnUse" gradientTransform="translate(113.562 117.938) scale(40.916)">
<stop stop-color="#6FCEFC"/>
<stop offset="1" stop-color="#167CF7"/>
</radialGradient>
<radialGradient id="paint5_radial_84_18180" cx="0" cy="0" r="1" gradientUnits="userSpaceOnUse" gradientTransform="translate(114.196 116.55) scale(40.918 40.918)">
<stop offset="0.001" stop-color="#54C0F5"/>
<stop offset="0.998" stop-color="#0B69DB"/>
</radialGradient>
<linearGradient id="paint6_linear_84_18180" x1="112.416" y1="124.593" x2="120.171" y2="135.412" gradientUnits="userSpaceOnUse">
<stop stop-color="#F44F5A"/>
<stop offset="0.443" stop-color="#EE3D4A"/>
<stop offset="1" stop-color="#E52030"/>
</linearGradient>
<linearGradient id="paint7_linear_84_18180" x1="138.873" y1="116.776" x2="144.372" y2="126.949" gradientUnits="userSpaceOnUse">
<stop stop-color="#FFDA1C"/>
<stop offset="1" stop-color="#FEB705"/>
</linearGradient>
</defs>
</svg>
