<svg width="199" height="201" viewBox="0 0 199 201" fill="none" xmlns="http://www.w3.org/2000/svg">
<g filter="url(#filter0_d_86_4598)">
<path d="M172.887 10H26.1129C18.3186 10 12 16.3186 12 24.1129V170.887C12 178.681 18.3186 185 26.1129 185H172.887C180.681 185 187 178.681 187 170.887V24.1129C187 16.3186 180.681 10 172.887 10Z" fill="white"/>
<path d="M172.887 10H26.1129C18.3186 10 12 16.3186 12 24.1129V170.887C12 178.681 18.3186 185 26.1129 185H172.887C180.681 185 187 178.681 187 170.887V24.1129C187 16.3186 180.681 10 172.887 10Z" stroke="#F2F2F2" stroke-width="15" stroke-linecap="round"/>
<path d="M26.1129 10.5H172.887C180.405 10.5 186.5 16.5948 186.5 24.1129V170.887C186.5 178.405 180.405 184.5 172.887 184.5H26.1129C18.5948 184.5 12.5 178.405 12.5 170.887V24.1129C12.5 16.5947 18.5947 10.5 26.1129 10.5Z" fill="url(#paint0_linear_86_4598)" fill-opacity="0.2" stroke="white"/>
</g>
<path d="M49.5 133.952V65.7261H137.219V133.952C137.219 136.633 135.026 138.825 132.346 138.825H54.3733C51.693 138.825 49.5 136.633 49.5 133.952Z" fill="url(#paint1_linear_86_4598)"/>
<path d="M92.4995 81.8151L87.3313 93.4038L74.7144 94.7367C73.903 94.822 73.5765 95.8283 74.1807 96.3765L83.6057 104.871L80.9741 117.285C80.806 118.085 81.6613 118.706 82.3679 118.297L93.3596 111.954L104.351 118.294C105.058 118.701 105.913 118.08 105.745 117.283L103.113 104.868L112.538 96.3741C113.145 95.8283 112.819 94.822 112.005 94.7342L99.3879 93.4014L94.2197 81.8127C93.8883 81.0695 92.8308 81.0695 92.4995 81.8151Z" fill="white"/>
<path d="M137.219 55.9795V70.5994H49.5V55.9795C49.5 53.2992 51.693 51.1062 54.3733 51.1062H132.346C135.026 51.1062 137.219 53.2992 137.219 55.9795Z" fill="url(#paint2_linear_86_4598)"/>
<path opacity="0.05" d="M121.381 66.9444C117.344 66.9444 114.071 63.672 114.071 59.6345V51.1062H128.691V59.6345C128.691 63.672 125.419 66.9444 121.381 66.9444Z" fill="black"/>
<path opacity="0.07" d="M121.381 65.1169C118.352 65.1169 115.899 62.6632 115.899 59.6345V51.1062H126.864V59.6345C126.864 62.6632 124.41 65.1169 121.381 65.1169Z" fill="black"/>
<path opacity="0.05" d="M65.3381 66.9444C61.3006 66.9444 58.0282 63.672 58.0282 59.6345V51.1062H72.6481V59.6345C72.6481 63.672 69.3757 66.9444 65.3381 66.9444Z" fill="black"/>
<path opacity="0.07" d="M65.3382 65.1169C62.3094 65.1169 59.8557 62.6632 59.8557 59.6345V51.1062H70.8206V59.6345C70.8206 62.6632 68.3669 65.1169 65.3382 65.1169Z" fill="black"/>
<path d="M65.3382 63.2894C63.3207 63.2894 61.6832 61.652 61.6832 59.6345V49.8879C61.6832 47.8703 63.3207 46.2329 65.3382 46.2329C67.3557 46.2329 68.9932 47.8703 68.9932 49.8879V59.6345C68.9932 61.652 67.3557 63.2894 65.3382 63.2894Z" fill="#3CCBF4"/>
<path d="M121.381 63.2894C119.364 63.2894 117.726 61.652 117.726 59.6345V49.8879C117.726 47.8703 119.364 46.2329 121.381 46.2329C123.399 46.2329 125.036 47.8703 125.036 49.8879V59.6345C125.036 61.652 123.399 63.2894 121.381 63.2894Z" fill="#3CCBF4"/>
<path opacity="0.2" d="M132.692 138.63C135.082 138.623 137.017 136.688 137.024 134.298V101.559C133.854 100.351 130.438 99.644 126.844 99.644C110.935 99.644 98.038 112.541 98.038 128.45C98.038 132.044 98.7446 135.46 99.9532 138.63H132.692Z" fill="url(#paint3_radial_86_4598)"/>
<g filter="url(#filter1_bd_86_4598)">
<circle cx="126.108" cy="125.375" r="23.3918" fill="url(#paint4_linear_86_4598)" shape-rendering="crispEdges"/>
<circle cx="126.108" cy="125.375" r="23.3918" fill="white" fill-opacity="0.8" shape-rendering="crispEdges"/>
</g>
<path d="M137.823 119.901H124.005C123.675 119.901 123.405 119.611 123.405 119.256V117.968C123.405 117.614 123.675 117.324 124.005 117.324H137.823C138.154 117.324 138.424 117.614 138.424 117.968V119.256C138.424 119.611 138.154 119.901 137.823 119.901Z" fill="url(#paint5_linear_86_4598)"/>
<path d="M116.052 121.023L113.946 118.766C113.741 118.546 113.741 118.189 113.946 117.968L114.691 117.17C114.896 116.95 115.23 116.95 115.435 117.17L116.424 118.23L119.519 114.913C119.724 114.692 120.058 114.692 120.263 114.913L121.007 115.711C121.213 115.931 121.213 116.289 121.007 116.509L116.796 121.023C116.59 121.244 116.257 121.244 116.052 121.023Z" fill="#42A4EB"/>
<path d="M137.823 127.63H124.005C123.675 127.63 123.405 127.34 123.405 126.986V125.697C123.405 125.343 123.675 125.053 124.005 125.053H137.823C138.154 125.053 138.424 125.343 138.424 125.697V126.986C138.424 127.34 138.154 127.63 137.823 127.63Z" fill="url(#paint6_linear_86_4598)"/>
<path d="M116.052 128.752L113.946 126.495C113.741 126.275 113.741 125.918 113.946 125.697L114.691 124.899C114.896 124.679 115.23 124.679 115.435 124.899L116.424 125.959L119.519 122.642C119.724 122.421 120.058 122.421 120.263 122.642L121.007 123.44C121.213 123.66 121.213 124.018 121.007 124.238L116.796 128.752C116.59 128.973 116.257 128.973 116.052 128.752Z" fill="#42A4EB"/>
<path d="M137.823 135.359H124.005C123.675 135.359 123.405 135.069 123.405 134.715V133.426C123.405 133.072 123.675 132.782 124.005 132.782H137.823C138.154 132.782 138.424 133.072 138.424 133.426V134.715C138.424 135.069 138.154 135.359 137.823 135.359Z" fill="url(#paint7_linear_86_4598)"/>
<path d="M117.397 132.138C116.401 132.138 115.594 133.003 115.594 134.07C115.594 135.138 116.401 136.003 117.397 136.003C118.392 136.003 119.199 135.138 119.199 134.07C119.199 133.003 118.392 132.138 117.397 132.138Z" fill="url(#paint8_linear_86_4598)"/>
<defs>
<filter id="filter0_d_86_4598" x="0.5" y="2.5" width="198" height="198" filterUnits="userSpaceOnUse" color-interpolation-filters="sRGB">
<feFlood flood-opacity="0" result="BackgroundImageFix"/>
<feColorMatrix in="SourceAlpha" type="matrix" values="0 0 0 0 0 0 0 0 0 0 0 0 0 0 0 0 0 0 127 0" result="hardAlpha"/>
<feOffset dy="4"/>
<feGaussianBlur stdDeviation="2"/>
<feComposite in2="hardAlpha" operator="out"/>
<feColorMatrix type="matrix" values="0 0 0 0 0 0 0 0 0 0 0 0 0 0 0 0 0 0 0.25 0"/>
<feBlend mode="normal" in2="BackgroundImageFix" result="effect1_dropShadow_86_4598"/>
<feBlend mode="normal" in="SourceGraphic" in2="effect1_dropShadow_86_4598" result="shape"/>
</filter>
<filter id="filter1_bd_86_4598" x="98.7163" y="97.9834" width="54.7836" height="56.7837" filterUnits="userSpaceOnUse" color-interpolation-filters="sRGB">
<feFlood flood-opacity="0" result="BackgroundImageFix"/>
<feGaussianBlur in="BackgroundImageFix" stdDeviation="2"/>
<feComposite in2="SourceAlpha" operator="in" result="effect1_backgroundBlur_86_4598"/>
<feColorMatrix in="SourceAlpha" type="matrix" values="0 0 0 0 0 0 0 0 0 0 0 0 0 0 0 0 0 0 127 0" result="hardAlpha"/>
<feOffset dy="2"/>
<feGaussianBlur stdDeviation="2"/>
<feComposite in2="hardAlpha" operator="out"/>
<feColorMatrix type="matrix" values="0 0 0 0 1 0 0 0 0 1 0 0 0 0 1 0 0 0 1 0"/>
<feBlend mode="normal" in2="effect1_backgroundBlur_86_4598" result="effect2_dropShadow_86_4598"/>
<feBlend mode="normal" in="SourceGraphic" in2="effect2_dropShadow_86_4598" result="shape"/>
</filter>
<linearGradient id="paint0_linear_86_4598" x1="99.5" y1="18.4677" x2="99.5" y2="176.532" gradientUnits="userSpaceOnUse">
<stop stop-color="white"/>
<stop offset="0.472222" stop-color="#0D5176" stop-opacity="0.527778"/>
<stop offset="0.940972" stop-color="#12A6F7" stop-opacity="0.465278"/>
</linearGradient>
<linearGradient id="paint1_linear_86_4598" x1="50.5088" y1="69.7758" x2="120.93" y2="121.211" gradientUnits="userSpaceOnUse">
<stop stop-color="#28AFEA"/>
<stop offset="1" stop-color="#047ED6"/>
</linearGradient>
<linearGradient id="paint2_linear_86_4598" x1="50.5234" y1="52.5877" x2="135.265" y2="69.8196" gradientUnits="userSpaceOnUse">
<stop stop-color="#0077D2"/>
<stop offset="1" stop-color="#0B59A2"/>
</linearGradient>
<radialGradient id="paint3_radial_86_4598" cx="0" cy="0" r="1" gradientUnits="userSpaceOnUse" gradientTransform="translate(126.284 128.124) scale(27.3733)">
<stop offset="0.847"/>
<stop offset="1" stop-opacity="0"/>
</radialGradient>
<linearGradient id="paint4_linear_86_4598" x1="126.108" y1="101.983" x2="130.786" y2="163.972" gradientUnits="userSpaceOnUse">
<stop offset="0.0260417" stop-color="white"/>
<stop offset="0.494792" stop-color="white"/>
<stop offset="0.973958" stop-opacity="0.98"/>
</linearGradient>
<linearGradient id="paint5_linear_86_4598" x1="126.544" y1="113.927" x2="135.483" y2="122.265" gradientUnits="userSpaceOnUse">
<stop stop-color="#1D59B3"/>
<stop offset="1" stop-color="#195BBC"/>
</linearGradient>
<linearGradient id="paint6_linear_86_4598" x1="126.544" y1="121.656" x2="135.483" y2="129.994" gradientUnits="userSpaceOnUse">
<stop stop-color="#1D59B3"/>
<stop offset="1" stop-color="#195BBC"/>
</linearGradient>
<linearGradient id="paint7_linear_86_4598" x1="126.544" y1="129.385" x2="135.483" y2="137.723" gradientUnits="userSpaceOnUse">
<stop stop-color="#1D59B3"/>
<stop offset="1" stop-color="#195BBC"/>
</linearGradient>
<linearGradient id="paint8_linear_86_4598" x1="115.594" y1="134.07" x2="119.199" y2="134.07" gradientUnits="userSpaceOnUse">
<stop stop-color="#1D59B3"/>
<stop offset="1" stop-color="#195BBC"/>
</linearGradient>
</defs>
</svg>
