<svg width="195" height="195" viewBox="0 0 195 195" fill="none" xmlns="http://www.w3.org/2000/svg">
<g id="icon=icon-blank">
<g id="icon-blank">
<g id="icon-blank_2">
<g id="combo">
<g id="Vector">
<path d="M69.3327 80.9889L63.3408 74.997C59.0262 81.5102 56.5 89.3112 56.5 97.7097C56.5 105.268 58.5461 112.346 62.1025 118.434C62.7062 119.469 64.1506 119.615 64.9975 118.766L68.3767 115.387C68.9433 114.82 69.0484 113.959 68.6693 113.254C66.1781 108.62 64.742 103.339 64.742 97.7097C64.742 91.5983 66.4336 85.897 69.3327 80.9889Z" fill="#50E6FF" fill-opacity="0.5"/>
<path d="M130.678 97.7097C130.678 103.821 128.986 109.523 126.087 114.431L132.079 120.423C136.394 113.91 138.92 106.106 138.92 97.7097C138.92 90.1519 136.874 83.0741 133.317 76.9854C132.714 75.951 131.269 75.8068 130.422 76.6536L127.043 80.0328C126.476 80.5995 126.371 81.4607 126.75 82.1654C129.242 86.7995 130.678 92.0805 130.678 97.7097Z" fill="#199BE2" fill-opacity="0.5"/>
<path d="M80.0328 68.3767C80.5995 68.9433 81.4607 69.0484 82.1654 68.6693C86.7995 66.1781 92.0805 64.742 97.7097 64.742C103.821 64.742 109.523 66.4336 114.431 69.3327L120.425 63.3388C113.91 59.0262 106.109 56.5 97.7097 56.5C90.189 56.5 83.1462 58.5255 77.0781 62.0489C76.0046 62.6732 75.7779 64.1218 76.6557 64.9995L80.0328 68.3767Z" fill="#35C1F1" fill-opacity="0.5"/>
<path d="M115.387 127.043C114.82 126.476 113.959 126.371 113.254 126.75C108.62 129.242 103.339 130.678 97.7097 130.678C91.5983 130.678 85.897 128.986 80.9889 126.087L74.997 132.079C81.5102 136.394 89.3132 138.92 97.7097 138.92C105.268 138.92 112.346 136.874 118.434 133.317C119.469 132.714 119.615 131.269 118.766 130.422L115.387 127.043Z" fill="#0078D4" fill-opacity="0.5"/>
<path d="M122.3 73.1384L112.339 72.7964C111.635 72.7717 111.284 71.9289 111.769 71.4138L121.364 61.1629C121.863 60.6292 122.757 60.963 122.786 61.6925L123.2 72.236C123.219 72.7408 122.805 73.1549 122.3 73.1384Z" fill="#35C1F1" fill-opacity="0.5"/>
<path d="M73.1199 122.281L83.0803 122.623C83.785 122.648 84.1352 123.491 83.651 124.006L74.0554 134.257C73.5567 134.79 72.6625 134.457 72.6336 133.727L72.2195 123.184C72.2009 122.679 72.6151 122.265 73.1199 122.281Z" fill="#0078D4" fill-opacity="0.5"/>
<path d="M122.281 122.3L122.623 112.339C122.648 111.635 123.491 111.284 124.006 111.769L134.257 121.364C134.79 121.863 134.457 122.757 133.727 122.786L123.184 123.2C122.679 123.219 122.265 122.805 122.281 122.3Z" fill="#199BE2" fill-opacity="0.5"/>
<path d="M73.1384 73.1199L72.7964 83.0803C72.7717 83.785 71.9289 84.1352 71.4138 83.651L61.1609 74.0554C60.6272 73.5567 60.961 72.6625 61.6904 72.6336L72.2339 72.2195C72.7408 72.2009 73.1549 72.6151 73.1384 73.1199Z" fill="#50E6FF" fill-opacity="0.5"/>
</g>
<g id="Frame">
<rect x="29.5" y="31.5" width="60" height="60" rx="3" fill="url(#paint0_linear_86_5154)"/>
<rect x="29.5" y="31.5" width="60" height="60" rx="3" fill="white" fill-opacity="0.2"/>
<g id="Group">
<g id="Vector_2">
<path d="M39.5 61.5C39.5 50.455 48.455 41.5 59.5 41.5C70.545 41.5 79.5 50.455 79.5 61.5C79.5 72.545 70.545 81.5 59.5 81.5C48.455 81.5 39.5 72.545 39.5 61.5Z" fill="url(#paint1_radial_86_5154)"/>
<path d="M76.5 61.5C76.5 58.261 75.827 55.209 74.661 52.5H77.343C76.995 51.811 76.618 51.14 76.195 50.5H73.683C70.638 45.084 65.421 41.5 59.5 41.5C53.579 41.5 48.362 45.084 45.317 50.5H42.805C42.382 51.14 42.005 51.811 41.657 52.5H44.339C43.173 55.209 42.5 58.261 42.5 61.5C42.5 64.739 43.173 67.791 44.339 70.5H41.657C42.005 71.189 42.382 71.86 42.805 72.5H45.317C48.362 77.916 53.579 81.5 59.5 81.5C65.421 81.5 70.638 77.916 73.683 72.5H76.195C76.618 71.86 76.995 71.189 77.343 70.5H74.661C75.827 67.791 76.5 64.739 76.5 61.5ZM74.5 61.5C74.5 64.78 73.753 67.849 72.471 70.5H66.678C67.221 67.667 67.5 64.553 67.5 61.5C67.5 58.447 67.221 55.333 66.678 52.5H72.471C73.753 55.151 74.5 58.22 74.5 61.5ZM59.5 79.5C57.81 79.5 56.009 76.863 54.826 72.5H64.175C62.991 76.863 61.19 79.5 59.5 79.5ZM54.348 70.5C53.821 67.913 53.5 64.871 53.5 61.5C53.5 58.129 53.821 55.087 54.348 52.5H64.652C65.179 55.087 65.5 58.129 65.5 61.5C65.5 64.871 65.179 67.913 64.652 70.5H54.348ZM59.5 43.5C61.19 43.5 62.991 46.137 64.174 50.5H54.825C56.009 46.137 57.81 43.5 59.5 43.5ZM71.347 50.5H66.236C65.61 48.001 64.757 45.816 63.684 44.227C66.763 45.303 69.429 47.532 71.347 50.5ZM55.316 44.227C54.243 45.817 53.39 48.001 52.764 50.5H47.653C49.571 47.532 52.237 45.303 55.316 44.227ZM44.5 61.5C44.5 58.22 45.247 55.151 46.529 52.5H52.322C51.779 55.333 51.5 58.447 51.5 61.5C51.5 64.553 51.779 67.667 52.322 70.5H46.529C45.247 67.849 44.5 64.78 44.5 61.5ZM47.653 72.5H52.764C53.39 74.999 54.243 77.184 55.316 78.773C52.237 77.697 49.571 75.468 47.653 72.5ZM63.684 78.773C64.757 77.183 65.61 74.999 66.236 72.5H71.347C69.429 75.468 66.763 77.697 63.684 78.773Z" fill="url(#paint2_radial_86_5154)"/>
<path d="M63.405 57.5L62.093 63.743L60.5 57.5H58.5L56.907 63.743L55.595 57.5H53.5L55.5 65.5H57.951C57.951 65.5 59.464 59.864 59.5 59.5C59.536 59.864 61.049 65.5 61.049 65.5H63.5L65.5 57.5H63.405Z" fill="white"/>
<path d="M51.405 57.5L50.093 63.743L48.5 57.5H46.5L44.907 63.743L43.595 57.5H41.5L43.5 65.5H45.951C45.951 65.5 47.464 59.864 47.5 59.5C47.536 59.864 49.049 65.5 49.049 65.5H51.5L53.5 57.5H51.405Z" fill="white"/>
<path d="M75.405 57.5L74.093 63.743L72.5 57.5H70.5L68.907 63.743L67.595 57.5H65.5L67.5 65.5H69.951C69.951 65.5 71.464 59.864 71.5 59.5C71.536 59.864 73.049 65.5 73.049 65.5H75.5L77.5 57.5H75.405Z" fill="white"/>
</g>
</g>
<rect x="28.5" y="30.5" width="62" height="62" rx="4" stroke="#E2E2E2" stroke-opacity="0.59" stroke-width="2"/>
</g>
<g id="Frame_2">
<rect x="97.5" y="102.5" width="60" height="60" rx="3" fill="url(#paint3_linear_86_5154)"/>
<rect x="97.5" y="102.5" width="60" height="60" rx="3" fill="white" fill-opacity="0.2"/>
<g id="Group 9">
<path id="Vector_3" d="M105 145.575V117.5H141.096V145.575C141.096 146.678 140.194 147.58 139.091 147.58H107.005C105.902 147.58 105 146.678 105 145.575Z" fill="url(#paint4_linear_86_5154)"/>
<path id="Vector_4" d="M122.694 124.121L120.567 128.89L115.376 129.438C115.042 129.473 114.907 129.887 115.156 130.113L119.034 133.608L117.952 138.717C117.882 139.046 118.234 139.301 118.525 139.133L123.048 136.523L127.571 139.132C127.862 139.299 128.214 139.044 128.145 138.716L127.062 133.607L130.94 130.112C131.19 129.887 131.055 129.473 130.721 129.437L125.529 128.889L123.402 124.12C123.266 123.814 122.831 123.814 122.694 124.121Z" fill="white"/>
<path id="Vector_5" d="M141.096 113.49V119.506H105V113.49C105 112.387 105.902 111.484 107.005 111.484H139.091C140.194 111.484 141.096 112.387 141.096 113.49Z" fill="url(#paint5_linear_86_5154)"/>
<path id="Vector_6" opacity="0.05" d="M134.579 118.002C132.918 118.002 131.571 116.655 131.571 114.994V111.484H137.587V114.994C137.587 116.655 136.24 118.002 134.579 118.002Z" fill="black"/>
<path id="Vector_7" opacity="0.07" d="M134.579 117.25C133.333 117.25 132.323 116.24 132.323 114.994V111.484H136.835V114.994C136.835 116.24 135.825 117.25 134.579 117.25Z" fill="black"/>
<path id="Vector_8" opacity="0.05" d="M111.517 118.002C109.856 118.002 108.509 116.655 108.509 114.994V111.484H114.525V114.994C114.525 116.655 113.179 118.002 111.517 118.002Z" fill="black"/>
<path id="Vector_9" opacity="0.07" d="M111.517 117.25C110.271 117.25 109.261 116.24 109.261 114.994V111.484H113.773V114.994C113.773 116.24 112.764 117.25 111.517 117.25Z" fill="black"/>
<path id="Vector_10" d="M111.517 116.497C110.687 116.497 110.013 115.823 110.013 114.993V110.983C110.013 110.152 110.687 109.479 111.517 109.479C112.348 109.479 113.021 110.152 113.021 110.983V114.993C113.021 115.823 112.348 116.497 111.517 116.497Z" fill="#3CCBF4"/>
<path id="Vector_11" d="M134.579 116.497C133.749 116.497 133.075 115.823 133.075 114.993V110.983C133.075 110.152 133.749 109.479 134.579 109.479C135.409 109.479 136.083 110.152 136.083 110.983V114.993C136.083 115.823 135.409 116.497 134.579 116.497Z" fill="#3CCBF4"/>
<path id="Vector_12" d="M137.086 131.537C130.441 131.537 125.053 136.924 125.053 143.569C125.053 144.978 125.308 146.324 125.752 147.58H139.091C140.194 147.58 141.096 146.677 141.096 145.575V132.236C139.84 131.792 138.494 131.537 137.086 131.537Z" fill="url(#paint6_radial_86_5154)"/>
<g id="Group 2">
<g id="questions" filter="url(#filter0_bd_86_5154)">
<rect x="126.898" y="132.42" width="23.1016" height="23.1016" rx="11.5508" fill="url(#paint7_linear_86_5154)" shape-rendering="crispEdges"/>
<rect x="126.898" y="132.42" width="23.1016" height="23.1016" rx="11.5508" fill="white" fill-opacity="0.8" shape-rendering="crispEdges"/>
<g id="Group 1">
<path id="Vector_13" d="M136.81 136.979C134.382 136.979 132.413 138.948 132.413 141.376C132.413 142.047 132.568 142.68 132.836 143.248C132.832 143.258 132.827 143.266 132.823 143.277L131.792 145.624C131.664 145.914 131.971 146.204 132.254 146.06L134.328 145.004C135.035 145.489 135.888 145.773 136.81 145.773C139.238 145.773 141.207 143.804 141.207 141.376C141.207 138.948 139.238 136.979 136.81 136.979Z" fill="url(#paint8_linear_86_5154)"/>
<path id="Vector_14" d="M145.411 150.244L144.22 147.535C144.583 146.866 144.789 146.099 144.789 145.284C144.789 142.676 142.675 140.562 140.067 140.562C137.459 140.562 135.344 142.676 135.344 145.284C135.344 147.892 137.459 150.007 140.067 150.007C140.918 150.007 141.714 149.778 142.403 149.385L144.949 150.681C145.231 150.825 145.538 150.534 145.411 150.244Z" fill="url(#paint9_linear_86_5154)"/>
<path id="Vector_15" d="M139.632 146.342C139.611 146.286 139.564 146.12 139.564 145.956C139.564 145.02 140.528 144.984 140.528 144.29C140.528 143.852 140.096 143.825 140.019 143.825C139.529 143.825 139.146 144.106 138.985 144.248V143.277C139.15 143.179 139.529 142.981 140.132 142.981C141.529 142.981 141.547 143.941 141.547 144.148C141.547 145.256 140.403 145.339 140.403 146.049C140.403 146.197 140.456 146.306 140.48 146.342H139.632V146.342ZM140.102 147.866C139.836 147.866 139.555 147.7 139.555 147.378C139.555 147.056 139.847 146.896 140.102 146.896C140.357 146.896 140.641 147.039 140.641 147.378C140.641 147.717 140.369 147.866 140.102 147.866Z" fill="white"/>
</g>
</g>
</g>
</g>
<rect x="96.5" y="101.5" width="62" height="62" rx="4" stroke="#E2E2E2" stroke-opacity="0.59" stroke-width="2"/>
</g>
</g>
</g>
</g>
</g>
<defs>
<filter id="filter0_bd_86_5154" x="122.898" y="128.42" width="31.1016" height="33.1016" filterUnits="userSpaceOnUse" color-interpolation-filters="sRGB">
<feFlood flood-opacity="0" result="BackgroundImageFix"/>
<feGaussianBlur in="BackgroundImageFix" stdDeviation="2"/>
<feComposite in2="SourceAlpha" operator="in" result="effect1_backgroundBlur_86_5154"/>
<feColorMatrix in="SourceAlpha" type="matrix" values="0 0 0 0 0 0 0 0 0 0 0 0 0 0 0 0 0 0 127 0" result="hardAlpha"/>
<feOffset dy="2"/>
<feGaussianBlur stdDeviation="2"/>
<feComposite in2="hardAlpha" operator="out"/>
<feColorMatrix type="matrix" values="0 0 0 0 1 0 0 0 0 1 0 0 0 0 1 0 0 0 1 0"/>
<feBlend mode="normal" in2="effect1_backgroundBlur_86_5154" result="effect2_dropShadow_86_5154"/>
<feBlend mode="normal" in="SourceGraphic" in2="effect2_dropShadow_86_5154" result="shape"/>
</filter>
<linearGradient id="paint0_linear_86_5154" x1="59.5" y1="31.5" x2="86.3" y2="99.9" gradientUnits="userSpaceOnUse">
<stop stop-color="#B8DFFC"/>
<stop offset="0.453125" stop-color="#E5EFF7" stop-opacity="0.98"/>
<stop offset="1" stop-color="#8FC3EB"/>
</linearGradient>
<radialGradient id="paint1_radial_86_5154" cx="0" cy="0" r="1" gradientUnits="userSpaceOnUse" gradientTransform="translate(45.832 46.681) scale(40.041)">
<stop stop-color="#6FCEFC"/>
<stop offset="1" stop-color="#167CF7"/>
</radialGradient>
<radialGradient id="paint2_radial_86_5154" cx="0" cy="0" r="1" gradientUnits="userSpaceOnUse" gradientTransform="translate(45.2255 45.98) scale(45.0092 40.155)">
<stop offset="0.001" stop-color="#54C0F5"/>
<stop offset="0.998" stop-color="#0B69DB"/>
</radialGradient>
<linearGradient id="paint3_linear_86_5154" x1="127.5" y1="102.5" x2="154.3" y2="170.9" gradientUnits="userSpaceOnUse">
<stop stop-color="#B8DFFC"/>
<stop offset="0.453125" stop-color="#E5EFF7" stop-opacity="0.98"/>
<stop offset="1" stop-color="#8FC3EB"/>
</linearGradient>
<linearGradient id="paint4_linear_86_5154" x1="105.415" y1="119.166" x2="134.393" y2="140.332" gradientUnits="userSpaceOnUse">
<stop stop-color="#28AFEA"/>
<stop offset="1" stop-color="#047ED6"/>
</linearGradient>
<linearGradient id="paint5_linear_86_5154" x1="105.421" y1="112.094" x2="140.292" y2="119.185" gradientUnits="userSpaceOnUse">
<stop stop-color="#0077D2"/>
<stop offset="1" stop-color="#0B59A2"/>
</linearGradient>
<radialGradient id="paint6_radial_86_5154" cx="0" cy="0" r="1" gradientUnits="userSpaceOnUse" gradientTransform="translate(137.107 143.611) scale(11.7884)">
<stop/>
<stop offset="1" stop-opacity="0"/>
</radialGradient>
<linearGradient id="paint7_linear_86_5154" x1="138.449" y1="132.42" x2="140.759" y2="163.03" gradientUnits="userSpaceOnUse">
<stop offset="0.0260417" stop-color="white"/>
<stop offset="0.494792" stop-color="white"/>
<stop offset="0.973958" stop-opacity="0.98"/>
</linearGradient>
<linearGradient id="paint8_linear_86_5154" x1="134.041" y1="137.935" x2="137.878" y2="146.064" gradientUnits="userSpaceOnUse">
<stop stop-color="#33BEF0"/>
<stop offset="1" stop-color="#22A5E2"/>
</linearGradient>
<linearGradient id="paint9_linear_86_5154" x1="137.658" y1="141.222" x2="143.502" y2="151.078" gradientUnits="userSpaceOnUse">
<stop stop-color="#0176D0"/>
<stop offset="1" stop-color="#16538C"/>
</linearGradient>
</defs>
</svg>
