<svg width="199" height="201" viewBox="0 0 199 201" fill="none" xmlns="http://www.w3.org/2000/svg">
<g id="icon=icon-light">
<g id="icon-frame-light">
<g id="Frame" filter="url(#filter0_d_86_5158)">
<path id="Vector" d="M172.887 10H26.1129C18.3186 10 12 16.3186 12 24.1129V170.887C12 178.681 18.3186 185 26.1129 185H172.887C180.681 185 187 178.681 187 170.887V24.1129C187 16.3186 180.681 10 172.887 10Z" fill="white"/>
<path id="Vector_2" d="M172.887 10H26.1129C18.3186 10 12 16.3186 12 24.1129V170.887C12 178.681 18.3186 185 26.1129 185H172.887C180.681 185 187 178.681 187 170.887V24.1129C187 16.3186 180.681 10 172.887 10Z" stroke="#F2F2F2" stroke-width="15" stroke-linecap="round"/>
<path id="Vector_3" d="M26.1129 10.5H172.887C180.405 10.5 186.5 16.5948 186.5 24.1129V170.887C186.5 178.405 180.405 184.5 172.887 184.5H26.1129C18.5948 184.5 12.5 178.405 12.5 170.887V24.1129C12.5 16.5947 18.5947 10.5 26.1129 10.5Z" fill="url(#paint0_linear_86_5158)" fill-opacity="0.2" stroke="white"/>
</g>
<g id="combo">
<g id="Vector_4">
<path d="M71.3327 80.9889L65.3408 74.997C61.0262 81.5102 58.5 89.3112 58.5 97.7097C58.5 105.268 60.5461 112.346 64.1025 118.434C64.7062 119.469 66.1506 119.615 66.9975 118.766L70.3767 115.387C70.9433 114.82 71.0484 113.959 70.6693 113.254C68.1781 108.62 66.742 103.339 66.742 97.7097C66.742 91.5983 68.4336 85.897 71.3327 80.9889Z" fill="#50E6FF" fill-opacity="0.5"/>
<path d="M132.678 97.7097C132.678 103.821 130.986 109.523 128.087 114.431L134.079 120.423C138.394 113.91 140.92 106.106 140.92 97.7097C140.92 90.1519 138.874 83.0741 135.317 76.9854C134.714 75.951 133.269 75.8068 132.422 76.6536L129.043 80.0328C128.476 80.5995 128.371 81.4607 128.75 82.1654C131.242 86.7995 132.678 92.0805 132.678 97.7097Z" fill="#199BE2" fill-opacity="0.5"/>
<path d="M82.0328 68.3767C82.5995 68.9433 83.4607 69.0484 84.1654 68.6693C88.7995 66.1781 94.0805 64.742 99.7097 64.742C105.821 64.742 111.523 66.4336 116.431 69.3327L122.425 63.3388C115.91 59.0262 108.109 56.5 99.7097 56.5C92.189 56.5 85.1462 58.5255 79.0781 62.0489C78.0046 62.6732 77.7779 64.1218 78.6557 64.9995L82.0328 68.3767Z" fill="#35C1F1" fill-opacity="0.5"/>
<path d="M117.387 127.043C116.82 126.476 115.959 126.371 115.254 126.75C110.62 129.242 105.339 130.678 99.7097 130.678C93.5983 130.678 87.897 128.986 82.9889 126.087L76.997 132.079C83.5102 136.394 91.3132 138.92 99.7097 138.92C107.268 138.92 114.346 136.874 120.434 133.317C121.469 132.714 121.615 131.269 120.766 130.422L117.387 127.043Z" fill="#0078D4" fill-opacity="0.5"/>
<path d="M124.3 73.1384L114.339 72.7964C113.635 72.7717 113.284 71.9289 113.769 71.4138L123.364 61.1629C123.863 60.6292 124.757 60.963 124.786 61.6925L125.2 72.236C125.219 72.7408 124.805 73.1549 124.3 73.1384Z" fill="#35C1F1" fill-opacity="0.5"/>
<path d="M75.1199 122.281L85.0803 122.623C85.785 122.648 86.1352 123.491 85.651 124.006L76.0554 134.257C75.5567 134.79 74.6625 134.457 74.6336 133.727L74.2195 123.184C74.2009 122.679 74.6151 122.265 75.1199 122.281Z" fill="#0078D4" fill-opacity="0.5"/>
<path d="M124.281 122.3L124.623 112.339C124.648 111.635 125.491 111.284 126.006 111.769L136.257 121.364C136.79 121.863 136.457 122.757 135.727 122.786L125.184 123.2C124.679 123.219 124.265 122.805 124.281 122.3Z" fill="#199BE2" fill-opacity="0.5"/>
<path d="M75.1384 73.1199L74.7964 83.0803C74.7717 83.785 73.9289 84.1352 73.4138 83.651L63.1609 74.0554C62.6272 73.5567 62.961 72.6625 63.6904 72.6336L74.2339 72.2195C74.7408 72.2009 75.1549 72.6151 75.1384 73.1199Z" fill="#50E6FF" fill-opacity="0.5"/>
</g>
<g id="Frame_2">
<rect x="31.5" y="31.5" width="60" height="60" rx="3" fill="url(#paint1_linear_86_5158)"/>
<rect x="31.5" y="31.5" width="60" height="60" rx="3" fill="white" fill-opacity="0.2"/>
<g id="Group">
<g id="Vector_5">
<path d="M41.5 61.5C41.5 50.455 50.455 41.5 61.5 41.5C72.545 41.5 81.5 50.455 81.5 61.5C81.5 72.545 72.545 81.5 61.5 81.5C50.455 81.5 41.5 72.545 41.5 61.5Z" fill="url(#paint2_radial_86_5158)"/>
<path d="M78.5 61.5C78.5 58.261 77.827 55.209 76.661 52.5H79.343C78.995 51.811 78.618 51.14 78.195 50.5H75.683C72.638 45.084 67.421 41.5 61.5 41.5C55.579 41.5 50.362 45.084 47.317 50.5H44.805C44.382 51.14 44.005 51.811 43.657 52.5H46.339C45.173 55.209 44.5 58.261 44.5 61.5C44.5 64.739 45.173 67.791 46.339 70.5H43.657C44.005 71.189 44.382 71.86 44.805 72.5H47.317C50.362 77.916 55.579 81.5 61.5 81.5C67.421 81.5 72.638 77.916 75.683 72.5H78.195C78.618 71.86 78.995 71.189 79.343 70.5H76.661C77.827 67.791 78.5 64.739 78.5 61.5ZM76.5 61.5C76.5 64.78 75.753 67.849 74.471 70.5H68.678C69.221 67.667 69.5 64.553 69.5 61.5C69.5 58.447 69.221 55.333 68.678 52.5H74.471C75.753 55.151 76.5 58.22 76.5 61.5ZM61.5 79.5C59.81 79.5 58.009 76.863 56.826 72.5H66.175C64.991 76.863 63.19 79.5 61.5 79.5ZM56.348 70.5C55.821 67.913 55.5 64.871 55.5 61.5C55.5 58.129 55.821 55.087 56.348 52.5H66.652C67.179 55.087 67.5 58.129 67.5 61.5C67.5 64.871 67.179 67.913 66.652 70.5H56.348ZM61.5 43.5C63.19 43.5 64.991 46.137 66.174 50.5H56.825C58.009 46.137 59.81 43.5 61.5 43.5ZM73.347 50.5H68.236C67.61 48.001 66.757 45.816 65.684 44.227C68.763 45.303 71.429 47.532 73.347 50.5ZM57.316 44.227C56.243 45.817 55.39 48.001 54.764 50.5H49.653C51.571 47.532 54.237 45.303 57.316 44.227ZM46.5 61.5C46.5 58.22 47.247 55.151 48.529 52.5H54.322C53.779 55.333 53.5 58.447 53.5 61.5C53.5 64.553 53.779 67.667 54.322 70.5H48.529C47.247 67.849 46.5 64.78 46.5 61.5ZM49.653 72.5H54.764C55.39 74.999 56.243 77.184 57.316 78.773C54.237 77.697 51.571 75.468 49.653 72.5ZM65.684 78.773C66.757 77.183 67.61 74.999 68.236 72.5H73.347C71.429 75.468 68.763 77.697 65.684 78.773Z" fill="url(#paint3_radial_86_5158)"/>
<path d="M65.405 57.5L64.093 63.743L62.5 57.5H60.5L58.907 63.743L57.595 57.5H55.5L57.5 65.5H59.951C59.951 65.5 61.464 59.864 61.5 59.5C61.536 59.864 63.049 65.5 63.049 65.5H65.5L67.5 57.5H65.405Z" fill="white"/>
<path d="M53.405 57.5L52.093 63.743L50.5 57.5H48.5L46.907 63.743L45.595 57.5H43.5L45.5 65.5H47.951C47.951 65.5 49.464 59.864 49.5 59.5C49.536 59.864 51.049 65.5 51.049 65.5H53.5L55.5 57.5H53.405Z" fill="white"/>
<path d="M77.405 57.5L76.093 63.743L74.5 57.5H72.5L70.907 63.743L69.595 57.5H67.5L69.5 65.5H71.951C71.951 65.5 73.464 59.864 73.5 59.5C73.536 59.864 75.049 65.5 75.049 65.5H77.5L79.5 57.5H77.405Z" fill="white"/>
</g>
</g>
<rect x="30.5" y="30.5" width="62" height="62" rx="4" stroke="#E2E2E2" stroke-opacity="0.59" stroke-width="2"/>
</g>
<g id="Frame_3">
<rect x="99.5" y="102.5" width="60" height="60" rx="3" fill="url(#paint4_linear_86_5158)"/>
<rect x="99.5" y="102.5" width="60" height="60" rx="3" fill="white" fill-opacity="0.2"/>
<g id="Group 9">
<path id="Vector_6" d="M107 145.575V117.5H143.096V145.575C143.096 146.678 142.194 147.58 141.091 147.58H109.005C107.902 147.58 107 146.678 107 145.575Z" fill="url(#paint5_linear_86_5158)"/>
<path id="Vector_7" d="M124.694 124.121L122.567 128.89L117.376 129.438C117.042 129.473 116.907 129.887 117.156 130.113L121.034 133.608L119.952 138.717C119.882 139.046 120.234 139.301 120.525 139.133L125.048 136.523L129.571 139.132C129.862 139.299 130.214 139.044 130.145 138.716L129.062 133.607L132.94 130.112C133.19 129.887 133.055 129.473 132.721 129.437L127.529 128.889L125.402 124.12C125.266 123.814 124.831 123.814 124.694 124.121Z" fill="white"/>
<path id="Vector_8" d="M143.096 113.49V119.506H107V113.49C107 112.387 107.902 111.484 109.005 111.484H141.091C142.194 111.484 143.096 112.387 143.096 113.49Z" fill="url(#paint6_linear_86_5158)"/>
<path id="Vector_9" opacity="0.05" d="M136.579 118.002C134.918 118.002 133.571 116.655 133.571 114.994V111.484H139.587V114.994C139.587 116.655 138.24 118.002 136.579 118.002Z" fill="black"/>
<path id="Vector_10" opacity="0.07" d="M136.579 117.25C135.333 117.25 134.323 116.24 134.323 114.994V111.484H138.835V114.994C138.835 116.24 137.825 117.25 136.579 117.25Z" fill="black"/>
<path id="Vector_11" opacity="0.05" d="M113.517 118.002C111.856 118.002 110.509 116.655 110.509 114.994V111.484H116.525V114.994C116.525 116.655 115.179 118.002 113.517 118.002Z" fill="black"/>
<path id="Vector_12" opacity="0.07" d="M113.517 117.25C112.271 117.25 111.261 116.24 111.261 114.994V111.484H115.773V114.994C115.773 116.24 114.764 117.25 113.517 117.25Z" fill="black"/>
<path id="Vector_13" d="M113.517 116.497C112.687 116.497 112.013 115.823 112.013 114.993V110.983C112.013 110.152 112.687 109.479 113.517 109.479C114.348 109.479 115.021 110.152 115.021 110.983V114.993C115.021 115.823 114.348 116.497 113.517 116.497Z" fill="#3CCBF4"/>
<path id="Vector_14" d="M136.579 116.497C135.749 116.497 135.075 115.823 135.075 114.993V110.983C135.075 110.152 135.749 109.479 136.579 109.479C137.409 109.479 138.083 110.152 138.083 110.983V114.993C138.083 115.823 137.409 116.497 136.579 116.497Z" fill="#3CCBF4"/>
<path id="Vector_15" d="M139.086 131.537C132.441 131.537 127.053 136.924 127.053 143.569C127.053 144.978 127.308 146.324 127.752 147.58H141.091C142.194 147.58 143.096 146.677 143.096 145.575V132.236C141.84 131.792 140.494 131.537 139.086 131.537Z" fill="url(#paint7_radial_86_5158)"/>
<g id="Group 2">
<g id="questions" filter="url(#filter1_bd_86_5158)">
<rect x="128.898" y="132.42" width="23.1016" height="23.1016" rx="11.5508" fill="url(#paint8_linear_86_5158)" shape-rendering="crispEdges"/>
<rect x="128.898" y="132.42" width="23.1016" height="23.1016" rx="11.5508" fill="white" fill-opacity="0.8" shape-rendering="crispEdges"/>
<g id="Group 1">
<path id="Vector_16" d="M138.81 136.979C136.382 136.979 134.413 138.948 134.413 141.376C134.413 142.047 134.568 142.68 134.836 143.248C134.832 143.258 134.827 143.266 134.823 143.277L133.792 145.624C133.664 145.914 133.971 146.204 134.254 146.06L136.328 145.004C137.035 145.489 137.888 145.773 138.81 145.773C141.238 145.773 143.207 143.804 143.207 141.376C143.207 138.948 141.238 136.979 138.81 136.979Z" fill="url(#paint9_linear_86_5158)"/>
<path id="Vector_17" d="M147.411 150.244L146.22 147.535C146.583 146.866 146.789 146.099 146.789 145.284C146.789 142.676 144.675 140.562 142.067 140.562C139.459 140.562 137.344 142.676 137.344 145.284C137.344 147.892 139.459 150.007 142.067 150.007C142.918 150.007 143.714 149.778 144.403 149.385L146.949 150.681C147.231 150.825 147.538 150.534 147.411 150.244Z" fill="url(#paint10_linear_86_5158)"/>
<path id="Vector_18" d="M141.632 146.342C141.611 146.286 141.564 146.12 141.564 145.956C141.564 145.02 142.528 144.984 142.528 144.29C142.528 143.852 142.096 143.825 142.019 143.825C141.529 143.825 141.146 144.106 140.985 144.248V143.277C141.15 143.179 141.529 142.981 142.132 142.981C143.529 142.981 143.547 143.941 143.547 144.148C143.547 145.256 142.403 145.339 142.403 146.049C142.403 146.197 142.456 146.306 142.48 146.342H141.632V146.342ZM142.102 147.866C141.836 147.866 141.555 147.7 141.555 147.378C141.555 147.056 141.847 146.896 142.102 146.896C142.357 146.896 142.641 147.039 142.641 147.378C142.641 147.717 142.369 147.866 142.102 147.866Z" fill="white"/>
</g>
</g>
</g>
</g>
<rect x="98.5" y="101.5" width="62" height="62" rx="4" stroke="#E2E2E2" stroke-opacity="0.59" stroke-width="2"/>
</g>
</g>
</g>
</g>
<defs>
<filter id="filter0_d_86_5158" x="0.5" y="2.5" width="198" height="198" filterUnits="userSpaceOnUse" color-interpolation-filters="sRGB">
<feFlood flood-opacity="0" result="BackgroundImageFix"/>
<feColorMatrix in="SourceAlpha" type="matrix" values="0 0 0 0 0 0 0 0 0 0 0 0 0 0 0 0 0 0 127 0" result="hardAlpha"/>
<feOffset dy="4"/>
<feGaussianBlur stdDeviation="2"/>
<feComposite in2="hardAlpha" operator="out"/>
<feColorMatrix type="matrix" values="0 0 0 0 0 0 0 0 0 0 0 0 0 0 0 0 0 0 0.25 0"/>
<feBlend mode="normal" in2="BackgroundImageFix" result="effect1_dropShadow_86_5158"/>
<feBlend mode="normal" in="SourceGraphic" in2="effect1_dropShadow_86_5158" result="shape"/>
</filter>
<filter id="filter1_bd_86_5158" x="124.898" y="128.42" width="31.1016" height="33.1016" filterUnits="userSpaceOnUse" color-interpolation-filters="sRGB">
<feFlood flood-opacity="0" result="BackgroundImageFix"/>
<feGaussianBlur in="BackgroundImageFix" stdDeviation="2"/>
<feComposite in2="SourceAlpha" operator="in" result="effect1_backgroundBlur_86_5158"/>
<feColorMatrix in="SourceAlpha" type="matrix" values="0 0 0 0 0 0 0 0 0 0 0 0 0 0 0 0 0 0 127 0" result="hardAlpha"/>
<feOffset dy="2"/>
<feGaussianBlur stdDeviation="2"/>
<feComposite in2="hardAlpha" operator="out"/>
<feColorMatrix type="matrix" values="0 0 0 0 1 0 0 0 0 1 0 0 0 0 1 0 0 0 1 0"/>
<feBlend mode="normal" in2="effect1_backgroundBlur_86_5158" result="effect2_dropShadow_86_5158"/>
<feBlend mode="normal" in="SourceGraphic" in2="effect2_dropShadow_86_5158" result="shape"/>
</filter>
<linearGradient id="paint0_linear_86_5158" x1="99.5" y1="18.4677" x2="99.5" y2="176.532" gradientUnits="userSpaceOnUse">
<stop stop-color="white"/>
<stop offset="0.472222" stop-color="#0D5176" stop-opacity="0.527778"/>
<stop offset="0.940972" stop-color="#12A6F7" stop-opacity="0.465278"/>
</linearGradient>
<linearGradient id="paint1_linear_86_5158" x1="61.5" y1="31.5" x2="88.3" y2="99.9" gradientUnits="userSpaceOnUse">
<stop stop-color="#B8DFFC"/>
<stop offset="0.453125" stop-color="#E5EFF7" stop-opacity="0.98"/>
<stop offset="1" stop-color="#8FC3EB"/>
</linearGradient>
<radialGradient id="paint2_radial_86_5158" cx="0" cy="0" r="1" gradientUnits="userSpaceOnUse" gradientTransform="translate(47.832 46.681) scale(40.041)">
<stop stop-color="#6FCEFC"/>
<stop offset="1" stop-color="#167CF7"/>
</radialGradient>
<radialGradient id="paint3_radial_86_5158" cx="0" cy="0" r="1" gradientUnits="userSpaceOnUse" gradientTransform="translate(47.2255 45.98) scale(45.0092 40.155)">
<stop offset="0.001" stop-color="#54C0F5"/>
<stop offset="0.998" stop-color="#0B69DB"/>
</radialGradient>
<linearGradient id="paint4_linear_86_5158" x1="129.5" y1="102.5" x2="156.3" y2="170.9" gradientUnits="userSpaceOnUse">
<stop stop-color="#B8DFFC"/>
<stop offset="0.453125" stop-color="#E5EFF7" stop-opacity="0.98"/>
<stop offset="1" stop-color="#8FC3EB"/>
</linearGradient>
<linearGradient id="paint5_linear_86_5158" x1="107.415" y1="119.166" x2="136.393" y2="140.332" gradientUnits="userSpaceOnUse">
<stop stop-color="#28AFEA"/>
<stop offset="1" stop-color="#047ED6"/>
</linearGradient>
<linearGradient id="paint6_linear_86_5158" x1="107.421" y1="112.094" x2="142.292" y2="119.185" gradientUnits="userSpaceOnUse">
<stop stop-color="#0077D2"/>
<stop offset="1" stop-color="#0B59A2"/>
</linearGradient>
<radialGradient id="paint7_radial_86_5158" cx="0" cy="0" r="1" gradientUnits="userSpaceOnUse" gradientTransform="translate(139.107 143.611) scale(11.7884)">
<stop/>
<stop offset="1" stop-opacity="0"/>
</radialGradient>
<linearGradient id="paint8_linear_86_5158" x1="140.449" y1="132.42" x2="142.759" y2="163.03" gradientUnits="userSpaceOnUse">
<stop offset="0.0260417" stop-color="white"/>
<stop offset="0.494792" stop-color="white"/>
<stop offset="0.973958" stop-opacity="0.98"/>
</linearGradient>
<linearGradient id="paint9_linear_86_5158" x1="136.041" y1="137.935" x2="139.878" y2="146.064" gradientUnits="userSpaceOnUse">
<stop stop-color="#33BEF0"/>
<stop offset="1" stop-color="#22A5E2"/>
</linearGradient>
<linearGradient id="paint10_linear_86_5158" x1="139.658" y1="141.222" x2="145.502" y2="151.078" gradientUnits="userSpaceOnUse">
<stop stop-color="#0176D0"/>
<stop offset="1" stop-color="#16538C"/>
</linearGradient>
</defs>
</svg>
