<svg width="195" height="195" viewBox="0 0 195 195" fill="none" xmlns="http://www.w3.org/2000/svg">
<g id="icon=icon-blank">
<g id="icon-blank">
<g id="icon-blank_2">
<g id="combo">
<g id="Vector">
<path d="M69.3327 80.9889L63.3408 74.997C59.0262 81.5102 56.5 89.3112 56.5 97.7097C56.5 105.268 58.5461 112.346 62.1025 118.434C62.7062 119.469 64.1506 119.615 64.9975 118.766L68.3767 115.387C68.9433 114.82 69.0484 113.959 68.6693 113.254C66.1781 108.62 64.742 103.339 64.742 97.7097C64.742 91.5983 66.4336 85.897 69.3327 80.9889Z" fill="#50E6FF" fill-opacity="0.5"/>
<path d="M130.678 97.7097C130.678 103.821 128.986 109.523 126.087 114.431L132.079 120.423C136.394 113.91 138.92 106.106 138.92 97.7097C138.92 90.1519 136.874 83.0741 133.317 76.9854C132.714 75.951 131.269 75.8068 130.422 76.6536L127.043 80.0328C126.476 80.5995 126.371 81.4607 126.75 82.1654C129.242 86.7995 130.678 92.0805 130.678 97.7097Z" fill="#199BE2" fill-opacity="0.5"/>
<path d="M80.0328 68.3767C80.5995 68.9433 81.4607 69.0484 82.1654 68.6693C86.7995 66.1781 92.0805 64.742 97.7097 64.742C103.821 64.742 109.523 66.4336 114.431 69.3327L120.425 63.3388C113.91 59.0262 106.109 56.5 97.7097 56.5C90.189 56.5 83.1462 58.5255 77.0781 62.0489C76.0046 62.6732 75.7779 64.1218 76.6557 64.9995L80.0328 68.3767Z" fill="#35C1F1" fill-opacity="0.5"/>
<path d="M115.387 127.043C114.82 126.476 113.959 126.371 113.254 126.75C108.62 129.242 103.339 130.678 97.7097 130.678C91.5983 130.678 85.897 128.986 80.9889 126.087L74.997 132.079C81.5102 136.394 89.3132 138.92 97.7097 138.92C105.268 138.92 112.346 136.874 118.434 133.317C119.469 132.714 119.615 131.269 118.766 130.422L115.387 127.043Z" fill="#0078D4" fill-opacity="0.5"/>
<path d="M122.3 73.1384L112.339 72.7964C111.635 72.7717 111.284 71.9289 111.769 71.4138L121.364 61.1629C121.863 60.6292 122.757 60.963 122.786 61.6925L123.2 72.236C123.219 72.7408 122.805 73.1549 122.3 73.1384Z" fill="#35C1F1" fill-opacity="0.5"/>
<path d="M73.1199 122.281L83.0803 122.623C83.785 122.648 84.1352 123.491 83.651 124.006L74.0554 134.257C73.5567 134.79 72.6625 134.457 72.6336 133.727L72.2195 123.184C72.2009 122.679 72.6151 122.265 73.1199 122.281Z" fill="#0078D4" fill-opacity="0.5"/>
<path d="M122.281 122.3L122.623 112.339C122.648 111.635 123.491 111.284 124.006 111.769L134.257 121.364C134.79 121.863 134.457 122.757 133.727 122.786L123.184 123.2C122.679 123.219 122.265 122.805 122.281 122.3Z" fill="#199BE2" fill-opacity="0.5"/>
<path d="M73.1384 73.1199L72.7964 83.0803C72.7717 83.785 71.9289 84.1352 71.4138 83.651L61.1609 74.0554C60.6272 73.5567 60.961 72.6625 61.6904 72.6336L72.2339 72.2195C72.7408 72.2009 73.1549 72.6151 73.1384 73.1199Z" fill="#50E6FF" fill-opacity="0.5"/>
</g>
<g id="Frame">
<rect x="29.5" y="31.5" width="60" height="60" rx="3" fill="url(#paint0_linear_86_7188)"/>
<rect x="29.5" y="31.5" width="60" height="60" rx="3" fill="white" fill-opacity="0.2"/>
<g id="Group">
<g id="Vector_2">
<path d="M39.5 61.5C39.5 50.455 48.455 41.5 59.5 41.5C70.545 41.5 79.5 50.455 79.5 61.5C79.5 72.545 70.545 81.5 59.5 81.5C48.455 81.5 39.5 72.545 39.5 61.5Z" fill="url(#paint1_radial_86_7188)"/>
<path d="M76.5 61.5C76.5 58.261 75.827 55.209 74.661 52.5H77.343C76.995 51.811 76.618 51.14 76.195 50.5H73.683C70.638 45.084 65.421 41.5 59.5 41.5C53.579 41.5 48.362 45.084 45.317 50.5H42.805C42.382 51.14 42.005 51.811 41.657 52.5H44.339C43.173 55.209 42.5 58.261 42.5 61.5C42.5 64.739 43.173 67.791 44.339 70.5H41.657C42.005 71.189 42.382 71.86 42.805 72.5H45.317C48.362 77.916 53.579 81.5 59.5 81.5C65.421 81.5 70.638 77.916 73.683 72.5H76.195C76.618 71.86 76.995 71.189 77.343 70.5H74.661C75.827 67.791 76.5 64.739 76.5 61.5ZM74.5 61.5C74.5 64.78 73.753 67.849 72.471 70.5H66.678C67.221 67.667 67.5 64.553 67.5 61.5C67.5 58.447 67.221 55.333 66.678 52.5H72.471C73.753 55.151 74.5 58.22 74.5 61.5ZM59.5 79.5C57.81 79.5 56.009 76.863 54.826 72.5H64.175C62.991 76.863 61.19 79.5 59.5 79.5ZM54.348 70.5C53.821 67.913 53.5 64.871 53.5 61.5C53.5 58.129 53.821 55.087 54.348 52.5H64.652C65.179 55.087 65.5 58.129 65.5 61.5C65.5 64.871 65.179 67.913 64.652 70.5H54.348ZM59.5 43.5C61.19 43.5 62.991 46.137 64.174 50.5H54.825C56.009 46.137 57.81 43.5 59.5 43.5ZM71.347 50.5H66.236C65.61 48.001 64.757 45.816 63.684 44.227C66.763 45.303 69.429 47.532 71.347 50.5ZM55.316 44.227C54.243 45.817 53.39 48.001 52.764 50.5H47.653C49.571 47.532 52.237 45.303 55.316 44.227ZM44.5 61.5C44.5 58.22 45.247 55.151 46.529 52.5H52.322C51.779 55.333 51.5 58.447 51.5 61.5C51.5 64.553 51.779 67.667 52.322 70.5H46.529C45.247 67.849 44.5 64.78 44.5 61.5ZM47.653 72.5H52.764C53.39 74.999 54.243 77.184 55.316 78.773C52.237 77.697 49.571 75.468 47.653 72.5ZM63.684 78.773C64.757 77.183 65.61 74.999 66.236 72.5H71.347C69.429 75.468 66.763 77.697 63.684 78.773Z" fill="url(#paint2_radial_86_7188)"/>
<path d="M63.405 57.5L62.093 63.743L60.5 57.5H58.5L56.907 63.743L55.595 57.5H53.5L55.5 65.5H57.951C57.951 65.5 59.464 59.864 59.5 59.5C59.536 59.864 61.049 65.5 61.049 65.5H63.5L65.5 57.5H63.405Z" fill="white"/>
<path d="M51.405 57.5L50.093 63.743L48.5 57.5H46.5L44.907 63.743L43.595 57.5H41.5L43.5 65.5H45.951C45.951 65.5 47.464 59.864 47.5 59.5C47.536 59.864 49.049 65.5 49.049 65.5H51.5L53.5 57.5H51.405Z" fill="white"/>
<path d="M75.405 57.5L74.093 63.743L72.5 57.5H70.5L68.907 63.743L67.595 57.5H65.5L67.5 65.5H69.951C69.951 65.5 71.464 59.864 71.5 59.5C71.536 59.864 73.049 65.5 73.049 65.5H75.5L77.5 57.5H75.405Z" fill="white"/>
</g>
</g>
<rect x="28.5" y="30.5" width="62" height="62" rx="4" stroke="#E2E2E2" stroke-opacity="0.59" stroke-width="2"/>
</g>
<g id="Frame_2">
<rect x="97.5" y="102.5" width="60" height="60" rx="3" fill="url(#paint3_linear_86_7188)"/>
<rect x="97.5" y="102.5" width="60" height="60" rx="3" fill="white" fill-opacity="0.2"/>
<g id="event-sales">
<path id="Vector_3" d="M104.949 145.785V117.71H141.045V145.785C141.045 146.888 140.143 147.79 139.04 147.79H106.955C105.852 147.79 104.949 146.888 104.949 145.785Z" fill="url(#paint4_linear_86_7188)"/>
<path id="Vector_4" d="M122.643 124.33L120.517 129.099L115.325 129.648C114.991 129.683 114.857 130.097 115.105 130.322L118.984 133.818L117.901 138.926C117.832 139.255 118.183 139.511 118.474 139.342L122.997 136.732L127.52 139.341C127.811 139.509 128.163 139.253 128.094 138.925L127.011 133.817L130.889 130.321C131.139 130.097 131.005 129.683 130.67 129.647L125.478 129.098L123.351 124.329C123.215 124.024 122.78 124.024 122.643 124.33Z" fill="white"/>
<path id="Vector_5" d="M141.045 113.699V119.715H104.949V113.699C104.949 112.596 105.852 111.694 106.955 111.694H139.04C140.143 111.694 141.045 112.596 141.045 113.699Z" fill="url(#paint5_linear_86_7188)"/>
<path id="Vector_6" opacity="0.05" d="M134.528 118.211C132.867 118.211 131.52 116.865 131.52 115.203V111.694H137.536V115.203C137.536 116.865 136.19 118.211 134.528 118.211Z" fill="black"/>
<path id="Vector_7" opacity="0.07" d="M134.528 117.459C133.282 117.459 132.272 116.45 132.272 115.203V111.694H136.784V115.203C136.784 116.45 135.774 117.459 134.528 117.459Z" fill="black"/>
<path id="Vector_8" opacity="0.05" d="M111.467 118.211C109.805 118.211 108.459 116.865 108.459 115.203V111.694H114.475V115.203C114.475 116.865 113.128 118.211 111.467 118.211Z" fill="black"/>
<path id="Vector_9" opacity="0.07" d="M111.467 117.459C110.22 117.459 109.211 116.45 109.211 115.203V111.694H113.723V115.203C113.723 116.45 112.713 117.459 111.467 117.459Z" fill="black"/>
<path id="Vector_10" d="M111.467 116.707C110.636 116.707 109.963 116.033 109.963 115.203V111.192C109.963 110.362 110.636 109.688 111.467 109.688C112.297 109.688 112.971 110.362 112.971 111.192V115.203C112.971 116.033 112.297 116.707 111.467 116.707Z" fill="#3CCBF4"/>
<path id="Vector_11" d="M134.528 116.707C133.698 116.707 133.024 116.033 133.024 115.203V111.192C133.024 110.362 133.698 109.688 134.528 109.688C135.358 109.688 136.032 110.362 136.032 111.192V115.203C136.032 116.033 135.358 116.707 134.528 116.707Z" fill="#3CCBF4"/>
<path id="Vector_12" d="M137.035 131.747C130.39 131.747 125.003 137.134 125.003 143.779C125.003 145.188 125.257 146.534 125.702 147.79H139.04C140.143 147.79 141.045 146.887 141.045 145.785V132.446C139.789 132.002 138.444 131.747 137.035 131.747Z" fill="url(#paint6_radial_86_7188)"/>
<g id="Group ">
<g id="sales" filter="url(#filter0_bd_86_7188)">
<rect x="126.949" y="132.21" width="23.1016" height="23.1016" rx="11.5508" fill="url(#paint7_linear_86_7188)" shape-rendering="crispEdges"/>
<rect x="126.949" y="132.21" width="23.1016" height="23.1016" rx="11.5508" fill="white" fill-opacity="0.8" shape-rendering="crispEdges"/>
<g id="$">
<path d="M137.69 149.881V138.972H138.389V149.881H137.69ZM139.544 142.573C139.51 142.229 139.363 141.962 139.105 141.772C138.846 141.581 138.495 141.486 138.052 141.486C137.751 141.486 137.497 141.529 137.289 141.614C137.082 141.696 136.923 141.811 136.812 141.959C136.704 142.107 136.65 142.274 136.65 142.462C136.645 142.618 136.677 142.755 136.748 142.871C136.822 142.987 136.923 143.088 137.051 143.174C137.179 143.256 137.326 143.328 137.494 143.391C137.662 143.451 137.841 143.502 138.031 143.544L138.815 143.732C139.196 143.817 139.545 143.931 139.863 144.073C140.181 144.215 140.457 144.389 140.69 144.597C140.923 144.804 141.103 145.049 141.231 145.33C141.362 145.611 141.429 145.934 141.431 146.297C141.429 146.831 141.292 147.294 141.022 147.686C140.755 148.076 140.369 148.378 139.863 148.594C139.36 148.807 138.754 148.914 138.044 148.914C137.339 148.914 136.725 148.806 136.203 148.59C135.683 148.374 135.277 148.054 134.984 147.631C134.694 147.205 134.542 146.678 134.528 146.05H136.314C136.333 146.343 136.417 146.587 136.565 146.783C136.716 146.976 136.916 147.122 137.166 147.222C137.419 147.318 137.704 147.367 138.022 147.367C138.335 147.367 138.606 147.321 138.836 147.23C139.069 147.139 139.25 147.013 139.377 146.851C139.505 146.689 139.569 146.503 139.569 146.293C139.569 146.097 139.511 145.932 139.395 145.799C139.281 145.665 139.113 145.551 138.892 145.458C138.673 145.364 138.404 145.279 138.086 145.202L137.136 144.963C136.4 144.784 135.819 144.505 135.393 144.124C134.967 143.743 134.755 143.23 134.758 142.585C134.755 142.057 134.896 141.595 135.18 141.201C135.467 140.806 135.86 140.497 136.36 140.276C136.86 140.054 137.429 139.943 138.065 139.943C138.713 139.943 139.278 140.054 139.761 140.276C140.247 140.497 140.625 140.806 140.895 141.201C141.164 141.595 141.304 142.053 141.312 142.573H139.544Z" fill="#0077D2"/>
<path d="M137.69 149.881H136.69C136.69 150.433 137.138 150.881 137.69 150.881V149.881ZM137.69 138.972V137.972C137.138 137.972 136.69 138.42 136.69 138.972H137.69ZM138.389 138.972H139.389C139.389 138.42 138.941 137.972 138.389 137.972V138.972ZM138.389 149.881V150.881C138.941 150.881 139.389 150.433 139.389 149.881H138.389ZM139.544 142.573L138.549 142.671C138.599 143.183 139.03 143.573 139.544 143.573V142.573ZM137.289 141.614L137.659 142.543L137.67 142.539L137.289 141.614ZM136.812 141.959L136.012 141.359L136.005 141.369L136.812 141.959ZM136.65 142.462L137.65 142.498C137.65 142.486 137.65 142.474 137.65 142.462H136.65ZM136.748 142.871L135.894 143.392C135.897 143.397 135.901 143.402 135.904 143.407L136.748 142.871ZM137.051 143.174L136.496 144.006C136.5 144.008 136.505 144.011 136.509 144.014L137.051 143.174ZM137.494 143.391L137.145 144.328C137.149 144.33 137.154 144.331 137.159 144.333L137.494 143.391ZM138.031 143.544L138.263 142.572C138.259 142.571 138.254 142.57 138.249 142.568L138.031 143.544ZM138.815 143.732L138.582 144.704C138.587 144.706 138.592 144.707 138.597 144.708L138.815 143.732ZM139.863 144.073L139.456 144.986L139.456 144.986L139.863 144.073ZM140.69 144.597L141.355 143.85L141.355 143.85L140.69 144.597ZM141.231 145.33L140.321 145.744L140.324 145.751L141.231 145.33ZM141.431 146.297L142.432 146.302L142.431 146.289L141.431 146.297ZM141.022 147.686L140.199 147.119L140.198 147.121L141.022 147.686ZM139.863 148.594L140.253 149.515L140.256 149.514L139.863 148.594ZM136.203 148.59L135.819 149.513L135.821 149.514L136.203 148.59ZM134.984 147.631L134.157 148.193L134.161 148.2L134.984 147.631ZM134.528 146.05V145.05C134.259 145.05 134.001 145.158 133.813 145.351C133.625 145.543 133.522 145.804 133.528 146.073L134.528 146.05ZM136.314 146.05L137.311 145.982C137.276 145.457 136.84 145.05 136.314 145.05V146.05ZM136.565 146.783L135.766 147.385C135.77 147.389 135.773 147.393 135.776 147.398L136.565 146.783ZM137.166 147.222L136.796 148.151L136.809 148.156L137.166 147.222ZM138.836 147.23L138.473 146.299L138.469 146.3L138.836 147.23ZM139.377 146.851L140.162 147.471L140.162 147.471L139.377 146.851ZM139.395 145.799L138.633 146.447L138.641 146.456L139.395 145.799ZM138.892 145.458L138.498 146.377L138.502 146.379L138.892 145.458ZM138.086 145.202L137.843 146.172L137.852 146.174L138.086 145.202ZM137.136 144.963L137.38 143.993L137.372 143.992L137.136 144.963ZM135.393 144.124L134.727 144.87L134.727 144.87L135.393 144.124ZM134.758 142.585L135.758 142.59L135.758 142.58L134.758 142.585ZM135.18 141.201L134.371 140.613L134.368 140.617L135.18 141.201ZM139.761 140.276L139.344 141.185L139.346 141.186L139.761 140.276ZM140.895 141.201L140.069 141.765L140.069 141.765L140.895 141.201ZM141.312 142.573V143.573C141.58 143.573 141.837 143.465 142.025 143.274C142.213 143.083 142.316 142.824 142.312 142.556L141.312 142.573ZM138.69 149.881V138.972H136.69V149.881H138.69ZM137.69 139.972H138.389V137.972H137.69V139.972ZM137.389 138.972V149.881H139.389V138.972H137.389ZM138.389 148.881H137.69V150.881H138.389V148.881ZM140.539 142.474C140.479 141.872 140.203 141.338 139.698 140.966L138.512 142.577C138.523 142.585 138.527 142.59 138.529 142.591C138.53 142.593 138.531 142.594 138.531 142.595C138.532 142.596 138.543 142.615 138.549 142.671L140.539 142.474ZM139.698 140.966C139.213 140.609 138.629 140.486 138.052 140.486V142.486C138.361 142.486 138.48 142.553 138.512 142.577L139.698 140.966ZM138.052 140.486C137.663 140.486 137.271 140.54 136.909 140.689L137.67 142.539C137.723 142.517 137.839 142.486 138.052 142.486V140.486ZM136.92 140.685C136.577 140.821 136.255 141.036 136.012 141.359L137.612 142.559C137.603 142.571 137.597 142.575 137.601 142.572C137.605 142.569 137.622 142.558 137.659 142.543L136.92 140.685ZM136.005 141.369C135.768 141.693 135.65 142.068 135.65 142.462H137.65C137.65 142.465 137.649 142.481 137.643 142.502C137.636 142.524 137.626 142.54 137.62 142.549L136.005 141.369ZM135.651 142.426C135.639 142.748 135.707 143.084 135.894 143.392L137.602 142.35C137.622 142.384 137.636 142.418 137.643 142.448C137.65 142.478 137.65 142.496 137.65 142.498L135.651 142.426ZM135.904 143.407C136.061 143.654 136.265 143.852 136.496 144.006L137.605 142.342C137.592 142.333 137.587 142.327 137.586 142.327C137.586 142.327 137.589 142.33 137.593 142.335L135.904 143.407ZM136.509 144.014C136.707 144.142 136.921 144.245 137.145 144.328L137.843 142.454C137.732 142.412 137.65 142.37 137.592 142.333L136.509 144.014ZM137.159 144.333C137.368 144.407 137.586 144.47 137.812 144.52L138.249 142.568C138.095 142.534 137.955 142.494 137.829 142.449L137.159 144.333ZM137.798 144.517L138.582 144.704L139.048 142.759L138.263 142.572L137.798 144.517ZM138.597 144.708C138.92 144.78 139.205 144.874 139.456 144.986L140.271 143.16C139.885 142.987 139.472 142.854 139.033 142.756L138.597 144.708ZM139.456 144.986C139.691 145.091 139.877 145.212 140.025 145.344L141.355 143.85C141.037 143.567 140.672 143.339 140.271 143.16L139.456 144.986ZM140.025 145.344C140.155 145.459 140.251 145.591 140.321 145.744L142.142 144.916C141.955 144.507 141.691 144.149 141.355 143.85L140.025 145.344ZM140.324 145.751C140.385 145.882 140.43 146.06 140.431 146.305L142.431 146.289C142.428 145.807 142.338 145.34 142.138 144.908L140.324 145.751ZM140.431 146.292C140.43 146.651 140.341 146.912 140.199 147.119L141.846 148.253C142.243 147.676 142.428 147.012 142.431 146.302L140.431 146.292ZM140.198 147.121C140.055 147.329 139.831 147.52 139.471 147.674L140.256 149.514C140.907 149.236 141.456 148.822 141.847 148.252L140.198 147.121ZM139.473 147.673C139.125 147.821 138.658 147.914 138.044 147.914V149.914C138.85 149.914 139.596 149.793 140.253 149.515L139.473 147.673ZM138.044 147.914C137.439 147.914 136.96 147.821 136.585 147.665L135.821 149.514C136.491 149.791 137.239 149.914 138.044 149.914V147.914ZM136.586 147.666C136.226 147.517 135.98 147.313 135.807 147.062L134.161 148.2C134.573 148.796 135.139 149.231 135.819 149.513L136.586 147.666ZM135.811 147.069C135.651 146.834 135.539 146.505 135.528 146.027L133.528 146.073C133.546 146.851 133.737 147.576 134.157 148.193L135.811 147.069ZM134.528 147.05H136.314V145.05H134.528V147.05ZM135.316 146.118C135.346 146.566 135.481 147.006 135.766 147.385L137.364 146.181C137.354 146.168 137.321 146.119 137.311 145.982L135.316 146.118ZM135.776 147.398C136.047 147.745 136.398 147.993 136.796 148.151L137.535 146.293C137.434 146.252 137.384 146.208 137.354 146.168L135.776 147.398ZM136.809 148.156C137.194 148.303 137.603 148.367 138.022 148.367V146.367C137.805 146.367 137.644 146.334 137.523 146.288L136.809 148.156ZM138.022 148.367C138.429 148.367 138.83 148.308 139.204 148.16L138.469 146.3C138.382 146.335 138.241 146.367 138.022 146.367V148.367ZM139.2 148.162C139.563 148.02 139.903 147.799 140.162 147.471L138.593 146.231C138.592 146.232 138.591 146.233 138.589 146.236C138.586 146.238 138.581 146.243 138.572 146.248C138.556 146.26 138.525 146.279 138.473 146.299L139.2 148.162ZM140.162 147.471C140.432 147.129 140.569 146.723 140.569 146.293H138.569C138.569 146.295 138.569 146.284 138.576 146.265C138.582 146.247 138.59 146.235 138.593 146.231L140.162 147.471ZM140.569 146.293C140.569 145.883 140.441 145.477 140.148 145.141L138.641 146.456C138.617 146.429 138.596 146.394 138.583 146.356C138.57 146.319 138.569 146.295 138.569 146.293H140.569ZM140.156 145.15C139.911 144.862 139.596 144.67 139.281 144.537L138.502 146.379C138.564 146.405 138.602 146.427 138.622 146.441C138.643 146.455 138.643 146.458 138.633 146.447L140.156 145.15ZM139.286 144.539C139 144.416 138.675 144.315 138.321 144.23L137.852 146.174C138.134 146.242 138.346 146.312 138.498 146.377L139.286 144.539ZM138.33 144.232L137.38 143.993L136.892 145.933L137.843 146.172L138.33 144.232ZM137.372 143.992C136.746 143.839 136.33 143.619 136.059 143.378L134.727 144.87C135.309 145.39 136.054 145.729 136.9 145.935L137.372 143.992ZM136.059 143.378C135.875 143.214 135.756 142.989 135.758 142.59L133.758 142.581C133.754 143.471 134.058 144.272 134.727 144.87L136.059 143.378ZM135.758 142.58C135.756 142.244 135.842 141.993 135.992 141.785L134.368 140.617C133.95 141.198 133.754 141.87 133.758 142.591L135.758 142.58ZM135.989 141.788C136.16 141.553 136.407 141.349 136.766 141.19L135.955 139.362C135.314 139.646 134.774 140.059 134.371 140.613L135.989 141.788ZM136.766 141.19C137.119 141.034 137.546 140.943 138.065 140.943V138.943C137.312 138.943 136.602 139.075 135.955 139.362L136.766 141.19ZM138.065 140.943C138.6 140.943 139.017 141.035 139.344 141.185L140.178 139.367C139.539 139.074 138.826 138.943 138.065 138.943V140.943ZM139.346 141.186C139.686 141.341 139.913 141.537 140.069 141.765L141.72 140.636C141.336 140.074 140.808 139.654 140.176 139.366L139.346 141.186ZM140.069 141.765C140.219 141.984 140.307 142.247 140.312 142.589L142.312 142.556C142.301 141.858 142.11 141.207 141.72 140.636L140.069 141.765ZM141.312 141.573H139.544V143.573H141.312V141.573Z" fill="#D2D9DE" fill-opacity="0.5"/>
</g>
</g>
</g>
</g>
<rect x="96.5" y="101.5" width="62" height="62" rx="4" stroke="#E2E2E2" stroke-opacity="0.59" stroke-width="2"/>
</g>
</g>
</g>
</g>
</g>
<defs>
<filter id="filter0_bd_86_7188" x="122.949" y="128.21" width="31.1016" height="33.1016" filterUnits="userSpaceOnUse" color-interpolation-filters="sRGB">
<feFlood flood-opacity="0" result="BackgroundImageFix"/>
<feGaussianBlur in="BackgroundImageFix" stdDeviation="2"/>
<feComposite in2="SourceAlpha" operator="in" result="effect1_backgroundBlur_86_7188"/>
<feColorMatrix in="SourceAlpha" type="matrix" values="0 0 0 0 0 0 0 0 0 0 0 0 0 0 0 0 0 0 127 0" result="hardAlpha"/>
<feOffset dy="2"/>
<feGaussianBlur stdDeviation="2"/>
<feComposite in2="hardAlpha" operator="out"/>
<feColorMatrix type="matrix" values="0 0 0 0 1 0 0 0 0 1 0 0 0 0 1 0 0 0 1 0"/>
<feBlend mode="normal" in2="effect1_backgroundBlur_86_7188" result="effect2_dropShadow_86_7188"/>
<feBlend mode="normal" in="SourceGraphic" in2="effect2_dropShadow_86_7188" result="shape"/>
</filter>
<linearGradient id="paint0_linear_86_7188" x1="59.5" y1="31.5" x2="86.3" y2="99.9" gradientUnits="userSpaceOnUse">
<stop stop-color="#B8DFFC"/>
<stop offset="0.453125" stop-color="#E5EFF7" stop-opacity="0.98"/>
<stop offset="1" stop-color="#8FC3EB"/>
</linearGradient>
<radialGradient id="paint1_radial_86_7188" cx="0" cy="0" r="1" gradientUnits="userSpaceOnUse" gradientTransform="translate(45.832 46.681) scale(40.041)">
<stop stop-color="#6FCEFC"/>
<stop offset="1" stop-color="#167CF7"/>
</radialGradient>
<radialGradient id="paint2_radial_86_7188" cx="0" cy="0" r="1" gradientUnits="userSpaceOnUse" gradientTransform="translate(45.2255 45.98) scale(45.0092 40.155)">
<stop offset="0.001" stop-color="#54C0F5"/>
<stop offset="0.998" stop-color="#0B69DB"/>
</radialGradient>
<linearGradient id="paint3_linear_86_7188" x1="127.5" y1="102.5" x2="154.3" y2="170.9" gradientUnits="userSpaceOnUse">
<stop stop-color="#B8DFFC"/>
<stop offset="0.453125" stop-color="#E5EFF7" stop-opacity="0.98"/>
<stop offset="1" stop-color="#8FC3EB"/>
</linearGradient>
<linearGradient id="paint4_linear_86_7188" x1="105.364" y1="119.376" x2="134.343" y2="140.542" gradientUnits="userSpaceOnUse">
<stop stop-color="#28AFEA"/>
<stop offset="1" stop-color="#047ED6"/>
</linearGradient>
<linearGradient id="paint5_linear_86_7188" x1="105.37" y1="112.303" x2="140.241" y2="119.394" gradientUnits="userSpaceOnUse">
<stop stop-color="#0077D2"/>
<stop offset="1" stop-color="#0B59A2"/>
</linearGradient>
<radialGradient id="paint6_radial_86_7188" cx="0" cy="0" r="1" gradientUnits="userSpaceOnUse" gradientTransform="translate(137.056 143.821) scale(11.7884)">
<stop/>
<stop offset="1" stop-opacity="0"/>
</radialGradient>
<linearGradient id="paint7_linear_86_7188" x1="138.5" y1="132.21" x2="140.81" y2="162.82" gradientUnits="userSpaceOnUse">
<stop offset="0.0260417" stop-color="white"/>
<stop offset="0.494792" stop-color="white"/>
<stop offset="0.973958" stop-opacity="0.98"/>
</linearGradient>
</defs>
</svg>
