<svg width="199" height="201" viewBox="0 0 199 201" fill="none" xmlns="http://www.w3.org/2000/svg">
<g id="icon=icon-dark">
<g id="icon-frame-dark">
<g id="Frame" filter="url(#filter0_d_86_7190)">
<path id="Vector" d="M172.887 10H26.1129C18.3186 10 12 16.3186 12 24.1129V170.887C12 178.681 18.3186 185 26.1129 185H172.887C180.681 185 187 178.681 187 170.887V24.1129C187 16.3186 180.681 10 172.887 10Z" fill="#727D86"/>
<path id="Vector_2" d="M172.887 10H26.1129C18.3186 10 12 16.3186 12 24.1129V170.887C12 178.681 18.3186 185 26.1129 185H172.887C180.681 185 187 178.681 187 170.887V24.1129C187 16.3186 180.681 10 172.887 10Z" stroke="#484B4F" stroke-width="15" stroke-linecap="round"/>
<g id="Vector_3">
<path d="M172.887 10H26.1129C18.3186 10 12 16.3186 12 24.1129V170.887C12 178.681 18.3186 185 26.1129 185H172.887C180.681 185 187 178.681 187 170.887V24.1129C187 16.3186 180.681 10 172.887 10Z" fill="url(#paint0_linear_86_7190)" fill-opacity="0.2"/>
<path d="M26.1129 10.5H172.887C180.405 10.5 186.5 16.5948 186.5 24.1129V170.887C186.5 178.405 180.405 184.5 172.887 184.5H26.1129C18.5948 184.5 12.5 178.405 12.5 170.887V24.1129C12.5 16.5947 18.5947 10.5 26.1129 10.5Z" stroke="#F7F7F7" stroke-opacity="0.27"/>
</g>
</g>
<g id="combo">
<g id="Vector_4">
<path d="M71.3327 80.9889L65.3408 74.997C61.0262 81.5102 58.5 89.3112 58.5 97.7097C58.5 105.268 60.5461 112.346 64.1025 118.434C64.7062 119.469 66.1506 119.615 66.9975 118.766L70.3767 115.387C70.9433 114.82 71.0484 113.959 70.6693 113.254C68.1781 108.62 66.742 103.339 66.742 97.7097C66.742 91.5983 68.4336 85.897 71.3327 80.9889Z" fill="#50E6FF" fill-opacity="0.5"/>
<path d="M132.678 97.7097C132.678 103.821 130.986 109.523 128.087 114.431L134.079 120.423C138.394 113.91 140.92 106.106 140.92 97.7097C140.92 90.1519 138.874 83.0741 135.317 76.9854C134.714 75.951 133.269 75.8068 132.422 76.6536L129.043 80.0328C128.476 80.5995 128.371 81.4607 128.75 82.1654C131.242 86.7995 132.678 92.0805 132.678 97.7097Z" fill="#199BE2" fill-opacity="0.5"/>
<path d="M82.0328 68.3767C82.5995 68.9433 83.4607 69.0484 84.1654 68.6693C88.7995 66.1781 94.0805 64.742 99.7097 64.742C105.821 64.742 111.523 66.4336 116.431 69.3327L122.425 63.3388C115.91 59.0262 108.109 56.5 99.7097 56.5C92.189 56.5 85.1462 58.5255 79.0781 62.0489C78.0046 62.6732 77.7779 64.1218 78.6557 64.9995L82.0328 68.3767Z" fill="#35C1F1" fill-opacity="0.5"/>
<path d="M117.387 127.043C116.82 126.476 115.959 126.371 115.254 126.75C110.62 129.242 105.339 130.678 99.7097 130.678C93.5983 130.678 87.897 128.986 82.9889 126.087L76.997 132.079C83.5102 136.394 91.3132 138.92 99.7097 138.92C107.268 138.92 114.346 136.874 120.434 133.317C121.469 132.714 121.615 131.269 120.766 130.422L117.387 127.043Z" fill="#0078D4" fill-opacity="0.5"/>
<path d="M124.3 73.1384L114.339 72.7964C113.635 72.7717 113.284 71.9289 113.769 71.4138L123.364 61.1629C123.863 60.6292 124.757 60.963 124.786 61.6925L125.2 72.236C125.219 72.7408 124.805 73.1549 124.3 73.1384Z" fill="#35C1F1" fill-opacity="0.5"/>
<path d="M75.1199 122.281L85.0803 122.623C85.785 122.648 86.1352 123.491 85.651 124.006L76.0554 134.257C75.5567 134.79 74.6625 134.457 74.6336 133.727L74.2195 123.184C74.2009 122.679 74.6151 122.265 75.1199 122.281Z" fill="#0078D4" fill-opacity="0.5"/>
<path d="M124.281 122.3L124.623 112.339C124.648 111.635 125.491 111.284 126.006 111.769L136.257 121.364C136.79 121.863 136.457 122.757 135.727 122.786L125.184 123.2C124.679 123.219 124.265 122.805 124.281 122.3Z" fill="#199BE2" fill-opacity="0.5"/>
<path d="M75.1384 73.1199L74.7964 83.0803C74.7717 83.785 73.9289 84.1352 73.4138 83.651L63.1609 74.0554C62.6272 73.5567 62.961 72.6625 63.6904 72.6336L74.2339 72.2195C74.7408 72.2009 75.1549 72.6151 75.1384 73.1199Z" fill="#50E6FF" fill-opacity="0.5"/>
</g>
<g id="Frame_2">
<rect x="31.5" y="31.5" width="60" height="60" rx="3" fill="url(#paint1_linear_86_7190)"/>
<rect x="31.5" y="31.5" width="60" height="60" rx="3" fill="white" fill-opacity="0.2"/>
<g id="Group">
<g id="Vector_5">
<path d="M41.5 61.5C41.5 50.455 50.455 41.5 61.5 41.5C72.545 41.5 81.5 50.455 81.5 61.5C81.5 72.545 72.545 81.5 61.5 81.5C50.455 81.5 41.5 72.545 41.5 61.5Z" fill="url(#paint2_radial_86_7190)"/>
<path d="M78.5 61.5C78.5 58.261 77.827 55.209 76.661 52.5H79.343C78.995 51.811 78.618 51.14 78.195 50.5H75.683C72.638 45.084 67.421 41.5 61.5 41.5C55.579 41.5 50.362 45.084 47.317 50.5H44.805C44.382 51.14 44.005 51.811 43.657 52.5H46.339C45.173 55.209 44.5 58.261 44.5 61.5C44.5 64.739 45.173 67.791 46.339 70.5H43.657C44.005 71.189 44.382 71.86 44.805 72.5H47.317C50.362 77.916 55.579 81.5 61.5 81.5C67.421 81.5 72.638 77.916 75.683 72.5H78.195C78.618 71.86 78.995 71.189 79.343 70.5H76.661C77.827 67.791 78.5 64.739 78.5 61.5ZM76.5 61.5C76.5 64.78 75.753 67.849 74.471 70.5H68.678C69.221 67.667 69.5 64.553 69.5 61.5C69.5 58.447 69.221 55.333 68.678 52.5H74.471C75.753 55.151 76.5 58.22 76.5 61.5ZM61.5 79.5C59.81 79.5 58.009 76.863 56.826 72.5H66.175C64.991 76.863 63.19 79.5 61.5 79.5ZM56.348 70.5C55.821 67.913 55.5 64.871 55.5 61.5C55.5 58.129 55.821 55.087 56.348 52.5H66.652C67.179 55.087 67.5 58.129 67.5 61.5C67.5 64.871 67.179 67.913 66.652 70.5H56.348ZM61.5 43.5C63.19 43.5 64.991 46.137 66.174 50.5H56.825C58.009 46.137 59.81 43.5 61.5 43.5ZM73.347 50.5H68.236C67.61 48.001 66.757 45.816 65.684 44.227C68.763 45.303 71.429 47.532 73.347 50.5ZM57.316 44.227C56.243 45.817 55.39 48.001 54.764 50.5H49.653C51.571 47.532 54.237 45.303 57.316 44.227ZM46.5 61.5C46.5 58.22 47.247 55.151 48.529 52.5H54.322C53.779 55.333 53.5 58.447 53.5 61.5C53.5 64.553 53.779 67.667 54.322 70.5H48.529C47.247 67.849 46.5 64.78 46.5 61.5ZM49.653 72.5H54.764C55.39 74.999 56.243 77.184 57.316 78.773C54.237 77.697 51.571 75.468 49.653 72.5ZM65.684 78.773C66.757 77.183 67.61 74.999 68.236 72.5H73.347C71.429 75.468 68.763 77.697 65.684 78.773Z" fill="url(#paint3_radial_86_7190)"/>
<path d="M65.405 57.5L64.093 63.743L62.5 57.5H60.5L58.907 63.743L57.595 57.5H55.5L57.5 65.5H59.951C59.951 65.5 61.464 59.864 61.5 59.5C61.536 59.864 63.049 65.5 63.049 65.5H65.5L67.5 57.5H65.405Z" fill="white"/>
<path d="M53.405 57.5L52.093 63.743L50.5 57.5H48.5L46.907 63.743L45.595 57.5H43.5L45.5 65.5H47.951C47.951 65.5 49.464 59.864 49.5 59.5C49.536 59.864 51.049 65.5 51.049 65.5H53.5L55.5 57.5H53.405Z" fill="white"/>
<path d="M77.405 57.5L76.093 63.743L74.5 57.5H72.5L70.907 63.743L69.595 57.5H67.5L69.5 65.5H71.951C71.951 65.5 73.464 59.864 73.5 59.5C73.536 59.864 75.049 65.5 75.049 65.5H77.5L79.5 57.5H77.405Z" fill="white"/>
</g>
</g>
<rect x="30.5" y="30.5" width="62" height="62" rx="4" stroke="#E2E2E2" stroke-opacity="0.59" stroke-width="2"/>
</g>
<g id="Frame_3">
<rect x="99.5" y="102.5" width="60" height="60" rx="3" fill="url(#paint4_linear_86_7190)"/>
<rect x="99.5" y="102.5" width="60" height="60" rx="3" fill="white" fill-opacity="0.2"/>
<g id="event-sales">
<path id="Vector_6" d="M106.949 145.785V117.71H143.045V145.785C143.045 146.888 142.143 147.79 141.04 147.79H108.955C107.852 147.79 106.949 146.888 106.949 145.785Z" fill="url(#paint5_linear_86_7190)"/>
<path id="Vector_7" d="M124.643 124.33L122.517 129.099L117.325 129.648C116.991 129.683 116.857 130.097 117.105 130.322L120.984 133.818L119.901 138.926C119.832 139.255 120.183 139.511 120.474 139.342L124.997 136.732L129.52 139.341C129.811 139.509 130.163 139.253 130.094 138.925L129.011 133.817L132.889 130.321C133.139 130.097 133.005 129.683 132.67 129.647L127.478 129.098L125.351 124.329C125.215 124.024 124.78 124.024 124.643 124.33Z" fill="white"/>
<path id="Vector_8" d="M143.045 113.699V119.715H106.949V113.699C106.949 112.596 107.852 111.694 108.955 111.694H141.04C142.143 111.694 143.045 112.596 143.045 113.699Z" fill="url(#paint6_linear_86_7190)"/>
<path id="Vector_9" opacity="0.05" d="M136.528 118.211C134.867 118.211 133.52 116.865 133.52 115.203V111.694H139.536V115.203C139.536 116.865 138.19 118.211 136.528 118.211Z" fill="black"/>
<path id="Vector_10" opacity="0.07" d="M136.528 117.459C135.282 117.459 134.272 116.45 134.272 115.203V111.694H138.784V115.203C138.784 116.45 137.774 117.459 136.528 117.459Z" fill="black"/>
<path id="Vector_11" opacity="0.05" d="M113.467 118.211C111.805 118.211 110.459 116.865 110.459 115.203V111.694H116.475V115.203C116.475 116.865 115.128 118.211 113.467 118.211Z" fill="black"/>
<path id="Vector_12" opacity="0.07" d="M113.467 117.459C112.22 117.459 111.211 116.45 111.211 115.203V111.694H115.723V115.203C115.723 116.45 114.713 117.459 113.467 117.459Z" fill="black"/>
<path id="Vector_13" d="M113.467 116.707C112.636 116.707 111.963 116.033 111.963 115.203V111.192C111.963 110.362 112.636 109.688 113.467 109.688C114.297 109.688 114.971 110.362 114.971 111.192V115.203C114.971 116.033 114.297 116.707 113.467 116.707Z" fill="#3CCBF4"/>
<path id="Vector_14" d="M136.528 116.707C135.698 116.707 135.024 116.033 135.024 115.203V111.192C135.024 110.362 135.698 109.688 136.528 109.688C137.358 109.688 138.032 110.362 138.032 111.192V115.203C138.032 116.033 137.358 116.707 136.528 116.707Z" fill="#3CCBF4"/>
<path id="Vector_15" d="M139.035 131.747C132.39 131.747 127.003 137.134 127.003 143.779C127.003 145.188 127.257 146.534 127.702 147.79H141.04C142.143 147.79 143.045 146.887 143.045 145.785V132.446C141.789 132.002 140.444 131.747 139.035 131.747Z" fill="url(#paint7_radial_86_7190)"/>
<g id="Group ">
<g id="sales" filter="url(#filter1_bd_86_7190)">
<rect x="128.949" y="132.21" width="23.1016" height="23.1016" rx="11.5508" fill="url(#paint8_linear_86_7190)" shape-rendering="crispEdges"/>
<rect x="128.949" y="132.21" width="23.1016" height="23.1016" rx="11.5508" fill="white" fill-opacity="0.8" shape-rendering="crispEdges"/>
<g id="$">
<path d="M139.69 149.881V138.972H140.389V149.881H139.69ZM141.544 142.573C141.51 142.229 141.363 141.962 141.105 141.772C140.846 141.581 140.495 141.486 140.052 141.486C139.751 141.486 139.497 141.529 139.289 141.614C139.082 141.696 138.923 141.811 138.812 141.959C138.704 142.107 138.65 142.274 138.65 142.462C138.645 142.618 138.677 142.755 138.748 142.871C138.822 142.987 138.923 143.088 139.051 143.174C139.179 143.256 139.326 143.328 139.494 143.391C139.662 143.451 139.841 143.502 140.031 143.544L140.815 143.732C141.196 143.817 141.545 143.931 141.863 144.073C142.181 144.215 142.457 144.389 142.69 144.597C142.923 144.804 143.103 145.049 143.231 145.33C143.362 145.611 143.429 145.934 143.431 146.297C143.429 146.831 143.292 147.294 143.022 147.686C142.755 148.076 142.369 148.378 141.863 148.594C141.36 148.807 140.754 148.914 140.044 148.914C139.339 148.914 138.725 148.806 138.203 148.59C137.683 148.374 137.277 148.054 136.984 147.631C136.694 147.205 136.542 146.678 136.528 146.05H138.314C138.333 146.343 138.417 146.587 138.565 146.783C138.716 146.976 138.916 147.122 139.166 147.222C139.419 147.318 139.704 147.367 140.022 147.367C140.335 147.367 140.606 147.321 140.836 147.23C141.069 147.139 141.25 147.013 141.377 146.851C141.505 146.689 141.569 146.503 141.569 146.293C141.569 146.097 141.511 145.932 141.395 145.799C141.281 145.665 141.113 145.551 140.892 145.458C140.673 145.364 140.404 145.279 140.086 145.202L139.136 144.963C138.4 144.784 137.819 144.505 137.393 144.124C136.967 143.743 136.755 143.23 136.758 142.585C136.755 142.057 136.896 141.595 137.18 141.201C137.467 140.806 137.86 140.497 138.36 140.276C138.86 140.054 139.429 139.943 140.065 139.943C140.713 139.943 141.278 140.054 141.761 140.276C142.247 140.497 142.625 140.806 142.895 141.201C143.164 141.595 143.304 142.053 143.312 142.573H141.544Z" fill="#0077D2"/>
<path d="M139.69 149.881H138.69C138.69 150.433 139.138 150.881 139.69 150.881V149.881ZM139.69 138.972V137.972C139.138 137.972 138.69 138.42 138.69 138.972H139.69ZM140.389 138.972H141.389C141.389 138.42 140.941 137.972 140.389 137.972V138.972ZM140.389 149.881V150.881C140.941 150.881 141.389 150.433 141.389 149.881H140.389ZM141.544 142.573L140.549 142.671C140.599 143.183 141.03 143.573 141.544 143.573V142.573ZM139.289 141.614L139.659 142.543L139.67 142.539L139.289 141.614ZM138.812 141.959L138.012 141.359L138.005 141.369L138.812 141.959ZM138.65 142.462L139.65 142.498C139.65 142.486 139.65 142.474 139.65 142.462H138.65ZM138.748 142.871L137.894 143.392C137.897 143.397 137.901 143.402 137.904 143.407L138.748 142.871ZM139.051 143.174L138.496 144.006C138.5 144.008 138.505 144.011 138.509 144.014L139.051 143.174ZM139.494 143.391L139.145 144.328C139.149 144.33 139.154 144.331 139.159 144.333L139.494 143.391ZM140.031 143.544L140.263 142.572C140.259 142.571 140.254 142.57 140.249 142.568L140.031 143.544ZM140.815 143.732L140.582 144.704C140.587 144.706 140.592 144.707 140.597 144.708L140.815 143.732ZM141.863 144.073L141.456 144.986L141.456 144.986L141.863 144.073ZM142.69 144.597L143.355 143.85L143.355 143.85L142.69 144.597ZM143.231 145.33L142.321 145.744L142.324 145.751L143.231 145.33ZM143.431 146.297L144.432 146.302L144.431 146.289L143.431 146.297ZM143.022 147.686L142.199 147.119L142.198 147.121L143.022 147.686ZM141.863 148.594L142.253 149.515L142.256 149.514L141.863 148.594ZM138.203 148.59L137.819 149.513L137.821 149.514L138.203 148.59ZM136.984 147.631L136.157 148.193L136.161 148.2L136.984 147.631ZM136.528 146.05V145.05C136.259 145.05 136.001 145.158 135.813 145.351C135.625 145.543 135.522 145.804 135.528 146.073L136.528 146.05ZM138.314 146.05L139.311 145.982C139.276 145.457 138.84 145.05 138.314 145.05V146.05ZM138.565 146.783L137.766 147.385C137.77 147.389 137.773 147.393 137.776 147.398L138.565 146.783ZM139.166 147.222L138.796 148.151L138.809 148.156L139.166 147.222ZM140.836 147.23L140.473 146.299L140.469 146.3L140.836 147.23ZM141.377 146.851L142.162 147.471L142.162 147.471L141.377 146.851ZM141.395 145.799L140.633 146.447L140.641 146.456L141.395 145.799ZM140.892 145.458L140.498 146.377L140.502 146.379L140.892 145.458ZM140.086 145.202L139.843 146.172L139.852 146.174L140.086 145.202ZM139.136 144.963L139.38 143.993L139.372 143.992L139.136 144.963ZM137.393 144.124L136.727 144.87L136.727 144.87L137.393 144.124ZM136.758 142.585L137.758 142.59L137.758 142.58L136.758 142.585ZM137.18 141.201L136.371 140.613L136.368 140.617L137.18 141.201ZM141.761 140.276L141.344 141.185L141.346 141.186L141.761 140.276ZM142.895 141.201L142.069 141.765L142.069 141.765L142.895 141.201ZM143.312 142.573V143.573C143.58 143.573 143.837 143.465 144.025 143.274C144.213 143.083 144.316 142.824 144.312 142.556L143.312 142.573ZM140.69 149.881V138.972H138.69V149.881H140.69ZM139.69 139.972H140.389V137.972H139.69V139.972ZM139.389 138.972V149.881H141.389V138.972H139.389ZM140.389 148.881H139.69V150.881H140.389V148.881ZM142.539 142.474C142.479 141.872 142.203 141.338 141.698 140.966L140.512 142.577C140.523 142.585 140.527 142.59 140.529 142.591C140.53 142.593 140.531 142.594 140.531 142.595C140.532 142.596 140.543 142.615 140.549 142.671L142.539 142.474ZM141.698 140.966C141.213 140.609 140.629 140.486 140.052 140.486V142.486C140.361 142.486 140.48 142.553 140.512 142.577L141.698 140.966ZM140.052 140.486C139.663 140.486 139.271 140.54 138.909 140.689L139.67 142.539C139.723 142.517 139.839 142.486 140.052 142.486V140.486ZM138.92 140.685C138.577 140.821 138.255 141.036 138.012 141.359L139.612 142.559C139.603 142.571 139.597 142.575 139.601 142.572C139.605 142.569 139.622 142.558 139.659 142.543L138.92 140.685ZM138.005 141.369C137.768 141.693 137.65 142.068 137.65 142.462H139.65C139.65 142.465 139.649 142.481 139.643 142.502C139.636 142.524 139.626 142.54 139.62 142.549L138.005 141.369ZM137.651 142.426C137.639 142.748 137.707 143.084 137.894 143.392L139.602 142.35C139.622 142.384 139.636 142.418 139.643 142.448C139.65 142.478 139.65 142.496 139.65 142.498L137.651 142.426ZM137.904 143.407C138.061 143.654 138.265 143.852 138.496 144.006L139.605 142.342C139.592 142.333 139.587 142.327 139.586 142.327C139.586 142.327 139.589 142.33 139.593 142.335L137.904 143.407ZM138.509 144.014C138.707 144.142 138.921 144.245 139.145 144.328L139.843 142.454C139.732 142.412 139.65 142.37 139.592 142.333L138.509 144.014ZM139.159 144.333C139.368 144.407 139.586 144.47 139.812 144.52L140.249 142.568C140.095 142.534 139.955 142.494 139.829 142.449L139.159 144.333ZM139.798 144.517L140.582 144.704L141.048 142.759L140.263 142.572L139.798 144.517ZM140.597 144.708C140.92 144.78 141.205 144.874 141.456 144.986L142.271 143.16C141.885 142.987 141.472 142.854 141.033 142.756L140.597 144.708ZM141.456 144.986C141.691 145.091 141.877 145.212 142.025 145.344L143.355 143.85C143.037 143.567 142.672 143.339 142.271 143.16L141.456 144.986ZM142.025 145.344C142.155 145.459 142.251 145.591 142.321 145.744L144.142 144.916C143.955 144.507 143.691 144.149 143.355 143.85L142.025 145.344ZM142.324 145.751C142.385 145.882 142.43 146.06 142.431 146.305L144.431 146.289C144.428 145.807 144.338 145.34 144.138 144.908L142.324 145.751ZM142.431 146.292C142.43 146.651 142.341 146.912 142.199 147.119L143.846 148.253C144.243 147.676 144.428 147.012 144.431 146.302L142.431 146.292ZM142.198 147.121C142.055 147.329 141.831 147.52 141.471 147.674L142.256 149.514C142.907 149.236 143.456 148.822 143.847 148.252L142.198 147.121ZM141.473 147.673C141.125 147.821 140.658 147.914 140.044 147.914V149.914C140.85 149.914 141.596 149.793 142.253 149.515L141.473 147.673ZM140.044 147.914C139.439 147.914 138.96 147.821 138.585 147.665L137.821 149.514C138.491 149.791 139.239 149.914 140.044 149.914V147.914ZM138.586 147.666C138.226 147.517 137.98 147.313 137.807 147.062L136.161 148.2C136.573 148.796 137.139 149.231 137.819 149.513L138.586 147.666ZM137.811 147.069C137.651 146.834 137.539 146.505 137.528 146.027L135.528 146.073C135.546 146.851 135.737 147.576 136.157 148.193L137.811 147.069ZM136.528 147.05H138.314V145.05H136.528V147.05ZM137.316 146.118C137.346 146.566 137.481 147.006 137.766 147.385L139.364 146.181C139.354 146.168 139.321 146.119 139.311 145.982L137.316 146.118ZM137.776 147.398C138.047 147.745 138.398 147.993 138.796 148.151L139.535 146.293C139.434 146.252 139.384 146.208 139.354 146.168L137.776 147.398ZM138.809 148.156C139.194 148.303 139.603 148.367 140.022 148.367V146.367C139.805 146.367 139.644 146.334 139.523 146.288L138.809 148.156ZM140.022 148.367C140.429 148.367 140.83 148.308 141.204 148.16L140.469 146.3C140.382 146.335 140.241 146.367 140.022 146.367V148.367ZM141.2 148.162C141.563 148.02 141.903 147.799 142.162 147.471L140.593 146.231C140.592 146.232 140.591 146.233 140.589 146.236C140.586 146.238 140.581 146.243 140.572 146.248C140.556 146.26 140.525 146.279 140.473 146.299L141.2 148.162ZM142.162 147.471C142.432 147.129 142.569 146.723 142.569 146.293H140.569C140.569 146.295 140.569 146.284 140.576 146.265C140.582 146.247 140.59 146.235 140.593 146.231L142.162 147.471ZM142.569 146.293C142.569 145.883 142.441 145.477 142.148 145.141L140.641 146.456C140.617 146.429 140.596 146.394 140.583 146.356C140.57 146.319 140.569 146.295 140.569 146.293H142.569ZM142.156 145.15C141.911 144.862 141.596 144.67 141.281 144.537L140.502 146.379C140.564 146.405 140.602 146.427 140.622 146.441C140.643 146.455 140.643 146.458 140.633 146.447L142.156 145.15ZM141.286 144.539C141 144.416 140.675 144.315 140.321 144.23L139.852 146.174C140.134 146.242 140.346 146.312 140.498 146.377L141.286 144.539ZM140.33 144.232L139.38 143.993L138.892 145.933L139.843 146.172L140.33 144.232ZM139.372 143.992C138.746 143.839 138.33 143.619 138.059 143.378L136.727 144.87C137.309 145.39 138.054 145.729 138.9 145.935L139.372 143.992ZM138.059 143.378C137.875 143.214 137.756 142.989 137.758 142.59L135.758 142.581C135.754 143.471 136.058 144.272 136.727 144.87L138.059 143.378ZM137.758 142.58C137.756 142.244 137.842 141.993 137.992 141.785L136.368 140.617C135.95 141.198 135.754 141.87 135.758 142.591L137.758 142.58ZM137.989 141.788C138.16 141.553 138.407 141.349 138.766 141.19L137.955 139.362C137.314 139.646 136.774 140.059 136.371 140.613L137.989 141.788ZM138.766 141.19C139.119 141.034 139.546 140.943 140.065 140.943V138.943C139.312 138.943 138.602 139.075 137.955 139.362L138.766 141.19ZM140.065 140.943C140.6 140.943 141.017 141.035 141.344 141.185L142.178 139.367C141.539 139.074 140.826 138.943 140.065 138.943V140.943ZM141.346 141.186C141.686 141.341 141.913 141.537 142.069 141.765L143.72 140.636C143.336 140.074 142.808 139.654 142.176 139.366L141.346 141.186ZM142.069 141.765C142.219 141.984 142.307 142.247 142.312 142.589L144.312 142.556C144.301 141.858 144.11 141.207 143.72 140.636L142.069 141.765ZM143.312 141.573H141.544V143.573H143.312V141.573Z" fill="#D2D9DE" fill-opacity="0.5"/>
</g>
</g>
</g>
</g>
<rect x="98.5" y="101.5" width="62" height="62" rx="4" stroke="#E2E2E2" stroke-opacity="0.59" stroke-width="2"/>
</g>
</g>
</g>
</g>
<defs>
<filter id="filter0_d_86_7190" x="0.5" y="2.5" width="198" height="198" filterUnits="userSpaceOnUse" color-interpolation-filters="sRGB">
<feFlood flood-opacity="0" result="BackgroundImageFix"/>
<feColorMatrix in="SourceAlpha" type="matrix" values="0 0 0 0 0 0 0 0 0 0 0 0 0 0 0 0 0 0 127 0" result="hardAlpha"/>
<feOffset dy="4"/>
<feGaussianBlur stdDeviation="2"/>
<feComposite in2="hardAlpha" operator="out"/>
<feColorMatrix type="matrix" values="0 0 0 0 0 0 0 0 0 0 0 0 0 0 0 0 0 0 0.25 0"/>
<feBlend mode="normal" in2="BackgroundImageFix" result="effect1_dropShadow_86_7190"/>
<feBlend mode="normal" in="SourceGraphic" in2="effect1_dropShadow_86_7190" result="shape"/>
</filter>
<filter id="filter1_bd_86_7190" x="124.949" y="128.21" width="31.1016" height="33.1016" filterUnits="userSpaceOnUse" color-interpolation-filters="sRGB">
<feFlood flood-opacity="0" result="BackgroundImageFix"/>
<feGaussianBlur in="BackgroundImageFix" stdDeviation="2"/>
<feComposite in2="SourceAlpha" operator="in" result="effect1_backgroundBlur_86_7190"/>
<feColorMatrix in="SourceAlpha" type="matrix" values="0 0 0 0 0 0 0 0 0 0 0 0 0 0 0 0 0 0 127 0" result="hardAlpha"/>
<feOffset dy="2"/>
<feGaussianBlur stdDeviation="2"/>
<feComposite in2="hardAlpha" operator="out"/>
<feColorMatrix type="matrix" values="0 0 0 0 1 0 0 0 0 1 0 0 0 0 1 0 0 0 1 0"/>
<feBlend mode="normal" in2="effect1_backgroundBlur_86_7190" result="effect2_dropShadow_86_7190"/>
<feBlend mode="normal" in="SourceGraphic" in2="effect2_dropShadow_86_7190" result="shape"/>
</filter>
<linearGradient id="paint0_linear_86_7190" x1="99.5" y1="18.4677" x2="99.5" y2="176.532" gradientUnits="userSpaceOnUse">
<stop stop-color="white"/>
<stop offset="0.472222" stop-color="#0D5176" stop-opacity="0.527778"/>
<stop offset="0.940972" stop-color="#12A6F7" stop-opacity="0.465278"/>
</linearGradient>
<linearGradient id="paint1_linear_86_7190" x1="61.5" y1="31.5" x2="88.3" y2="99.9" gradientUnits="userSpaceOnUse">
<stop stop-color="#B8DFFC"/>
<stop offset="0.453125" stop-color="#E5EFF7" stop-opacity="0.98"/>
<stop offset="1" stop-color="#8FC3EB"/>
</linearGradient>
<radialGradient id="paint2_radial_86_7190" cx="0" cy="0" r="1" gradientUnits="userSpaceOnUse" gradientTransform="translate(47.832 46.681) scale(40.041)">
<stop stop-color="#6FCEFC"/>
<stop offset="1" stop-color="#167CF7"/>
</radialGradient>
<radialGradient id="paint3_radial_86_7190" cx="0" cy="0" r="1" gradientUnits="userSpaceOnUse" gradientTransform="translate(47.2255 45.98) scale(45.0092 40.155)">
<stop offset="0.001" stop-color="#54C0F5"/>
<stop offset="0.998" stop-color="#0B69DB"/>
</radialGradient>
<linearGradient id="paint4_linear_86_7190" x1="129.5" y1="102.5" x2="156.3" y2="170.9" gradientUnits="userSpaceOnUse">
<stop stop-color="#B8DFFC"/>
<stop offset="0.453125" stop-color="#E5EFF7" stop-opacity="0.98"/>
<stop offset="1" stop-color="#8FC3EB"/>
</linearGradient>
<linearGradient id="paint5_linear_86_7190" x1="107.364" y1="119.376" x2="136.343" y2="140.542" gradientUnits="userSpaceOnUse">
<stop stop-color="#28AFEA"/>
<stop offset="1" stop-color="#047ED6"/>
</linearGradient>
<linearGradient id="paint6_linear_86_7190" x1="107.37" y1="112.303" x2="142.241" y2="119.394" gradientUnits="userSpaceOnUse">
<stop stop-color="#0077D2"/>
<stop offset="1" stop-color="#0B59A2"/>
</linearGradient>
<radialGradient id="paint7_radial_86_7190" cx="0" cy="0" r="1" gradientUnits="userSpaceOnUse" gradientTransform="translate(139.056 143.821) scale(11.7884)">
<stop/>
<stop offset="1" stop-opacity="0"/>
</radialGradient>
<linearGradient id="paint8_linear_86_7190" x1="140.5" y1="132.21" x2="142.81" y2="162.82" gradientUnits="userSpaceOnUse">
<stop offset="0.0260417" stop-color="white"/>
<stop offset="0.494792" stop-color="white"/>
<stop offset="0.973958" stop-opacity="0.98"/>
</linearGradient>
</defs>
</svg>
