<svg width="195" height="195" viewBox="0 0 195 195" fill="none" xmlns="http://www.w3.org/2000/svg">
<g filter="url(#filter0_bd_84_12532)">
<path d="M52.5 137.5V67.5H142.5V137.5C142.5 140.25 140.25 142.5 137.5 142.5H57.5C54.75 142.5 52.5 140.25 52.5 137.5Z" fill="url(#paint0_linear_84_12532)"/>
<path d="M142.5 57.5V72.5H52.5V57.5C52.5 54.75 54.75 52.5 57.5 52.5H137.5C140.25 52.5 142.5 54.75 142.5 57.5Z" fill="url(#paint1_linear_84_12532)"/>
<path opacity="0.05" d="M126.25 68.75C122.108 68.75 118.75 65.3925 118.75 61.25V52.5H133.75V61.25C133.75 65.3925 130.392 68.75 126.25 68.75Z" fill="black"/>
<path opacity="0.07" d="M126.25 66.875C123.142 66.875 120.625 64.3575 120.625 61.25V52.5H131.875V61.25C131.875 64.3575 129.358 66.875 126.25 66.875Z" fill="black"/>
<path opacity="0.05" d="M68.75 68.75C64.6075 68.75 61.25 65.3925 61.25 61.25V52.5H76.25V61.25C76.25 65.3925 72.8925 68.75 68.75 68.75Z" fill="black"/>
<path opacity="0.07" d="M68.75 66.875C65.6425 66.875 63.125 64.3575 63.125 61.25V52.5H74.375V61.25C74.375 64.3575 71.8575 66.875 68.75 66.875Z" fill="black"/>
<path d="M68.75 65C66.68 65 65 63.32 65 61.25V51.25C65 49.18 66.68 47.5 68.75 47.5C70.82 47.5 72.5 49.18 72.5 51.25V61.25C72.5 63.32 70.82 65 68.75 65Z" fill="#3CCBF4"/>
<path d="M132.5 86.25V93.75C132.5 94.44 131.94 95 131.25 95H123.75C123.06 95 122.5 94.44 122.5 93.75V86.25C122.5 85.56 123.06 85 123.75 85H131.25C131.94 85 132.5 85.56 132.5 86.25ZM112.5 86.25V93.75C112.5 94.44 111.94 95 111.25 95H103.75C103.06 95 102.5 94.44 102.5 93.75V86.25C102.5 85.56 103.06 85 103.75 85H111.25C111.94 85 112.5 85.56 112.5 86.25ZM92.5 86.25V93.75C92.5 94.44 91.94 95 91.25 95H83.75C83.06 95 82.5 94.44 82.5 93.75V86.25C82.5 85.56 83.06 85 83.75 85H91.25C91.94 85 92.5 85.56 92.5 86.25Z" fill="white"/>
<path d="M132.5 103.75V111.25C132.5 111.94 131.94 112.5 131.25 112.5H123.75C123.06 112.5 122.5 111.94 122.5 111.25V103.75C122.5 103.06 123.06 102.5 123.75 102.5H131.25C131.94 102.5 132.5 103.06 132.5 103.75ZM112.5 103.75V111.25C112.5 111.94 111.94 112.5 111.25 112.5H103.75C103.06 112.5 102.5 111.94 102.5 111.25V103.75C102.5 103.06 103.06 102.5 103.75 102.5H111.25C111.94 102.5 112.5 103.06 112.5 103.75ZM92.5 103.75V111.25C92.5 111.94 91.94 112.5 91.25 112.5H83.75C83.06 112.5 82.5 111.94 82.5 111.25V103.75C82.5 103.06 83.06 102.5 83.75 102.5H91.25C91.94 102.5 92.5 103.06 92.5 103.75ZM72.5 103.75V111.25C72.5 111.94 71.94 112.5 71.25 112.5H63.75C63.06 112.5 62.5 111.94 62.5 111.25V103.75C62.5 103.06 63.06 102.5 63.75 102.5H71.25C71.94 102.5 72.5 103.06 72.5 103.75Z" fill="white"/>
<path d="M112.5 121.25V128.75C112.5 129.44 111.94 130 111.25 130H103.75C103.06 130 102.5 129.44 102.5 128.75V121.25C102.5 120.56 103.06 120 103.75 120H111.25C111.94 120 112.5 120.56 112.5 121.25ZM92.5 121.25V128.75C92.5 129.44 91.94 130 91.25 130H83.75C83.06 130 82.5 129.44 82.5 128.75V121.25C82.5 120.56 83.06 120 83.75 120H91.25C91.94 120 92.5 120.56 92.5 121.25ZM72.5 121.25V128.75C72.5 129.44 71.94 130 71.25 130H63.75C63.06 130 62.5 129.44 62.5 128.75V121.25C62.5 120.56 63.06 120 63.75 120H71.25C71.94 120 72.5 120.56 72.5 121.25Z" fill="white"/>
<path d="M126.25 65C124.18 65 122.5 63.32 122.5 61.25V51.25C122.5 49.18 124.18 47.5 126.25 47.5C128.32 47.5 130 49.18 130 51.25V61.25C130 63.32 128.32 65 126.25 65Z" fill="#3CCBF4"/>
</g>
<defs>
<filter id="filter0_bd_84_12532" x="33.5" y="33.5" width="128" height="132" filterUnits="userSpaceOnUse" color-interpolation-filters="sRGB">
<feFlood flood-opacity="0" result="BackgroundImageFix"/>
<feGaussianBlur in="BackgroundImageFix" stdDeviation="2"/>
<feComposite in2="SourceAlpha" operator="in" result="effect1_backgroundBlur_84_12532"/>
<feColorMatrix in="SourceAlpha" type="matrix" values="0 0 0 0 0 0 0 0 0 0 0 0 0 0 0 0 0 0 127 0" result="hardAlpha"/>
<feOffset dy="4"/>
<feGaussianBlur stdDeviation="2"/>
<feComposite in2="hardAlpha" operator="out"/>
<feColorMatrix type="matrix" values="0 0 0 0 1 0 0 0 0 1 0 0 0 0 1 0 0 0 0.25 0"/>
<feBlend mode="normal" in2="effect1_backgroundBlur_84_12532" result="effect2_dropShadow_84_12532"/>
<feBlend mode="normal" in="SourceGraphic" in2="effect2_dropShadow_84_12532" result="shape"/>
</filter>
<linearGradient id="paint0_linear_84_12532" x1="53.535" y1="71.655" x2="141.935" y2="136.22" gradientUnits="userSpaceOnUse">
<stop stop-color="#28AFEA"/>
<stop offset="1" stop-color="#047ED6"/>
</linearGradient>
<linearGradient id="paint1_linear_84_12532" x1="53.55" y1="54.02" x2="140.495" y2="71.7" gradientUnits="userSpaceOnUse">
<stop stop-color="#0077D2"/>
<stop offset="1" stop-color="#0B59A2"/>
</linearGradient>
</defs>
</svg>
