<svg width="199" height="201" viewBox="0 0 199 201" fill="none" xmlns="http://www.w3.org/2000/svg">
<g filter="url(#filter0_d_84_12536)">
<path d="M172.887 10H26.1129C18.3186 10 12 16.3186 12 24.1129V170.887C12 178.681 18.3186 185 26.1129 185H172.887C180.681 185 187 178.681 187 170.887V24.1129C187 16.3186 180.681 10 172.887 10Z" fill="white"/>
<path d="M172.887 10H26.1129C18.3186 10 12 16.3186 12 24.1129V170.887C12 178.681 18.3186 185 26.1129 185H172.887C180.681 185 187 178.681 187 170.887V24.1129C187 16.3186 180.681 10 172.887 10Z" stroke="#F2F2F2" stroke-width="15" stroke-linecap="round"/>
<path d="M26.1129 10.5H172.887C180.405 10.5 186.5 16.5948 186.5 24.1129V170.887C186.5 178.405 180.405 184.5 172.887 184.5H26.1129C18.5948 184.5 12.5 178.405 12.5 170.887V24.1129C12.5 16.5947 18.5947 10.5 26.1129 10.5Z" fill="url(#paint0_linear_84_12536)" fill-opacity="0.2" stroke="white"/>
</g>
<g filter="url(#filter1_bd_84_12536)">
<path d="M54.5 137.5V67.5H144.5V137.5C144.5 140.25 142.25 142.5 139.5 142.5H59.5C56.75 142.5 54.5 140.25 54.5 137.5Z" fill="url(#paint1_linear_84_12536)"/>
<path d="M144.5 57.5V72.5H54.5V57.5C54.5 54.75 56.75 52.5 59.5 52.5H139.5C142.25 52.5 144.5 54.75 144.5 57.5Z" fill="url(#paint2_linear_84_12536)"/>
<path opacity="0.05" d="M128.25 68.75C124.108 68.75 120.75 65.3925 120.75 61.25V52.5H135.75V61.25C135.75 65.3925 132.392 68.75 128.25 68.75Z" fill="black"/>
<path opacity="0.07" d="M128.25 66.875C125.142 66.875 122.625 64.3575 122.625 61.25V52.5H133.875V61.25C133.875 64.3575 131.358 66.875 128.25 66.875Z" fill="black"/>
<path opacity="0.05" d="M70.75 68.75C66.6075 68.75 63.25 65.3925 63.25 61.25V52.5H78.25V61.25C78.25 65.3925 74.8925 68.75 70.75 68.75Z" fill="black"/>
<path opacity="0.07" d="M70.75 66.875C67.6425 66.875 65.125 64.3575 65.125 61.25V52.5H76.375V61.25C76.375 64.3575 73.8575 66.875 70.75 66.875Z" fill="black"/>
<path d="M70.75 65C68.68 65 67 63.32 67 61.25V51.25C67 49.18 68.68 47.5 70.75 47.5C72.82 47.5 74.5 49.18 74.5 51.25V61.25C74.5 63.32 72.82 65 70.75 65Z" fill="#3CCBF4"/>
<path d="M134.5 86.25V93.75C134.5 94.44 133.94 95 133.25 95H125.75C125.06 95 124.5 94.44 124.5 93.75V86.25C124.5 85.56 125.06 85 125.75 85H133.25C133.94 85 134.5 85.56 134.5 86.25ZM114.5 86.25V93.75C114.5 94.44 113.94 95 113.25 95H105.75C105.06 95 104.5 94.44 104.5 93.75V86.25C104.5 85.56 105.06 85 105.75 85H113.25C113.94 85 114.5 85.56 114.5 86.25ZM94.5 86.25V93.75C94.5 94.44 93.94 95 93.25 95H85.75C85.06 95 84.5 94.44 84.5 93.75V86.25C84.5 85.56 85.06 85 85.75 85H93.25C93.94 85 94.5 85.56 94.5 86.25Z" fill="white"/>
<path d="M134.5 103.75V111.25C134.5 111.94 133.94 112.5 133.25 112.5H125.75C125.06 112.5 124.5 111.94 124.5 111.25V103.75C124.5 103.06 125.06 102.5 125.75 102.5H133.25C133.94 102.5 134.5 103.06 134.5 103.75ZM114.5 103.75V111.25C114.5 111.94 113.94 112.5 113.25 112.5H105.75C105.06 112.5 104.5 111.94 104.5 111.25V103.75C104.5 103.06 105.06 102.5 105.75 102.5H113.25C113.94 102.5 114.5 103.06 114.5 103.75ZM94.5 103.75V111.25C94.5 111.94 93.94 112.5 93.25 112.5H85.75C85.06 112.5 84.5 111.94 84.5 111.25V103.75C84.5 103.06 85.06 102.5 85.75 102.5H93.25C93.94 102.5 94.5 103.06 94.5 103.75ZM74.5 103.75V111.25C74.5 111.94 73.94 112.5 73.25 112.5H65.75C65.06 112.5 64.5 111.94 64.5 111.25V103.75C64.5 103.06 65.06 102.5 65.75 102.5H73.25C73.94 102.5 74.5 103.06 74.5 103.75Z" fill="white"/>
<path d="M114.5 121.25V128.75C114.5 129.44 113.94 130 113.25 130H105.75C105.06 130 104.5 129.44 104.5 128.75V121.25C104.5 120.56 105.06 120 105.75 120H113.25C113.94 120 114.5 120.56 114.5 121.25ZM94.5 121.25V128.75C94.5 129.44 93.94 130 93.25 130H85.75C85.06 130 84.5 129.44 84.5 128.75V121.25C84.5 120.56 85.06 120 85.75 120H93.25C93.94 120 94.5 120.56 94.5 121.25ZM74.5 121.25V128.75C74.5 129.44 73.94 130 73.25 130H65.75C65.06 130 64.5 129.44 64.5 128.75V121.25C64.5 120.56 65.06 120 65.75 120H73.25C73.94 120 74.5 120.56 74.5 121.25Z" fill="white"/>
<path d="M128.25 65C126.18 65 124.5 63.32 124.5 61.25V51.25C124.5 49.18 126.18 47.5 128.25 47.5C130.32 47.5 132 49.18 132 51.25V61.25C132 63.32 130.32 65 128.25 65Z" fill="#3CCBF4"/>
</g>
<defs>
<filter id="filter0_d_84_12536" x="0.5" y="2.5" width="198" height="198" filterUnits="userSpaceOnUse" color-interpolation-filters="sRGB">
<feFlood flood-opacity="0" result="BackgroundImageFix"/>
<feColorMatrix in="SourceAlpha" type="matrix" values="0 0 0 0 0 0 0 0 0 0 0 0 0 0 0 0 0 0 127 0" result="hardAlpha"/>
<feOffset dy="4"/>
<feGaussianBlur stdDeviation="2"/>
<feComposite in2="hardAlpha" operator="out"/>
<feColorMatrix type="matrix" values="0 0 0 0 0 0 0 0 0 0 0 0 0 0 0 0 0 0 0.25 0"/>
<feBlend mode="normal" in2="BackgroundImageFix" result="effect1_dropShadow_84_12536"/>
<feBlend mode="normal" in="SourceGraphic" in2="effect1_dropShadow_84_12536" result="shape"/>
</filter>
<filter id="filter1_bd_84_12536" x="35.5" y="33.5" width="128" height="132" filterUnits="userSpaceOnUse" color-interpolation-filters="sRGB">
<feFlood flood-opacity="0" result="BackgroundImageFix"/>
<feGaussianBlur in="BackgroundImageFix" stdDeviation="2"/>
<feComposite in2="SourceAlpha" operator="in" result="effect1_backgroundBlur_84_12536"/>
<feColorMatrix in="SourceAlpha" type="matrix" values="0 0 0 0 0 0 0 0 0 0 0 0 0 0 0 0 0 0 127 0" result="hardAlpha"/>
<feOffset dy="4"/>
<feGaussianBlur stdDeviation="2"/>
<feComposite in2="hardAlpha" operator="out"/>
<feColorMatrix type="matrix" values="0 0 0 0 1 0 0 0 0 1 0 0 0 0 1 0 0 0 0.25 0"/>
<feBlend mode="normal" in2="effect1_backgroundBlur_84_12536" result="effect2_dropShadow_84_12536"/>
<feBlend mode="normal" in="SourceGraphic" in2="effect2_dropShadow_84_12536" result="shape"/>
</filter>
<linearGradient id="paint0_linear_84_12536" x1="99.5" y1="18.4677" x2="99.5" y2="176.532" gradientUnits="userSpaceOnUse">
<stop stop-color="white"/>
<stop offset="0.472222" stop-color="#0D5176" stop-opacity="0.527778"/>
<stop offset="0.940972" stop-color="#12A6F7" stop-opacity="0.465278"/>
</linearGradient>
<linearGradient id="paint1_linear_84_12536" x1="55.535" y1="71.655" x2="143.935" y2="136.22" gradientUnits="userSpaceOnUse">
<stop stop-color="#28AFEA"/>
<stop offset="1" stop-color="#047ED6"/>
</linearGradient>
<linearGradient id="paint2_linear_84_12536" x1="55.55" y1="54.02" x2="142.495" y2="71.7" gradientUnits="userSpaceOnUse">
<stop stop-color="#0077D2"/>
<stop offset="1" stop-color="#0B59A2"/>
</linearGradient>
</defs>
</svg>
