<svg width="195" height="195" viewBox="0 0 195 195" fill="none" xmlns="http://www.w3.org/2000/svg">
<g filter="url(#filter0_bd_86_3238)">
<path d="M137.163 80.4861H77.6687V53.75H134.959C136.175 53.75 137.163 54.8389 137.163 56.1806V80.4861Z" fill="url(#paint0_linear_86_3238)"/>
<path d="M115.128 80.4861H60.0409C58.8246 80.4861 57.8374 79.3972 57.8374 78.0556V56.1806C57.8374 54.8389 58.8246 53.75 60.0409 53.75H115.128C116.344 53.75 117.331 54.8389 117.331 56.1806V78.0556C117.331 79.3972 116.344 80.4861 115.128 80.4861Z" fill="url(#paint1_linear_86_3238)"/>
<path d="M137.163 73.1944H57.8374V78.0556C57.8374 79.3972 58.8246 80.4861 60.0409 80.4861H77.6687H115.128H137.163V73.1944Z" fill="#ECD2D2"/>
<path d="M137.163 74.4097H57.8374V78.0556C57.8374 79.3972 58.8246 80.4861 60.0409 80.4861H77.6687H115.128H137.163V74.4097Z" fill="#ECD2D2"/>
<path d="M137.163 141.25H112.924V75.625H139.366C140.582 75.625 141.57 76.7139 141.57 78.0556V136.389C141.57 139.075 139.597 141.25 137.163 141.25Z" fill="url(#paint2_linear_86_3238)"/>
<path d="M112.924 141.25H57.8374C55.4026 141.25 53.4305 139.075 53.4305 136.389V78.0556C53.4305 76.7139 54.4176 75.625 55.6339 75.625H117.331V136.389C117.331 139.075 115.359 141.25 112.924 141.25Z" fill="url(#paint3_linear_86_3238)"/>
<path d="M117.331 75.625H54.7922C53.9571 75.625 53.1947 76.1451 52.8223 76.9691L47.6177 88.451C47.2519 89.258 47.7829 90.2083 48.6026 90.2083H109.359C110.194 90.2083 110.957 89.6882 111.329 88.8642L117.331 75.625Z" fill="url(#paint4_linear_86_3238)"/>
<path d="M117.331 75.625H140.208C141.043 75.625 141.805 76.1451 142.178 76.9691L147.382 88.451C147.748 89.258 147.217 90.2083 146.397 90.2083H125.303C124.468 90.2083 123.706 89.6882 123.334 88.8642L117.331 75.625Z" fill="url(#paint5_linear_86_3238)"/>
</g>
<defs>
<filter id="filter0_bd_86_3238" x="43.5" y="49.75" width="108" height="97.5" filterUnits="userSpaceOnUse" color-interpolation-filters="sRGB">
<feFlood flood-opacity="0" result="BackgroundImageFix"/>
<feGaussianBlur in="BackgroundImageFix" stdDeviation="2"/>
<feComposite in2="SourceAlpha" operator="in" result="effect1_backgroundBlur_86_3238"/>
<feColorMatrix in="SourceAlpha" type="matrix" values="0 0 0 0 0 0 0 0 0 0 0 0 0 0 0 0 0 0 127 0" result="hardAlpha"/>
<feOffset dy="2"/>
<feGaussianBlur stdDeviation="2"/>
<feComposite in2="hardAlpha" operator="out"/>
<feColorMatrix type="matrix" values="0 0 0 0 1 0 0 0 0 1 0 0 0 0 1 0 0 0 0.25 0"/>
<feBlend mode="normal" in2="effect1_backgroundBlur_86_3238" result="effect2_dropShadow_86_3238"/>
<feBlend mode="normal" in="SourceGraphic" in2="effect2_dropShadow_86_3238" result="shape"/>
</filter>
<linearGradient id="paint0_linear_86_3238" x1="82.7704" y1="68.283" x2="174.824" y2="111.022" gradientUnits="userSpaceOnUse">
<stop stop-color="#C26715"/>
<stop offset="0.508" stop-color="#B85515"/>
<stop offset="1" stop-color="#AD3F16"/>
</linearGradient>
<linearGradient id="paint1_linear_86_3238" x1="52.2852" y1="21.7727" x2="161.112" y2="61.2857" gradientUnits="userSpaceOnUse">
<stop stop-color="#EBA84B"/>
<stop offset="1" stop-color="#D97218"/>
</linearGradient>
<linearGradient id="paint2_linear_86_3238" x1="20.8385" y1="65.2093" x2="63.8277" y2="170.276" gradientUnits="userSpaceOnUse">
<stop stop-color="#EBA600"/>
<stop offset="1" stop-color="#C28200"/>
</linearGradient>
<linearGradient id="paint3_linear_86_3238" x1="52.3897" y1="51.919" x2="137.213" y2="144.854" gradientUnits="userSpaceOnUse">
<stop stop-color="#FFD869"/>
<stop offset="1" stop-color="#FEC52B"/>
</linearGradient>
<linearGradient id="paint4_linear_86_3238" x1="97.4991" y1="137.458" x2="97.4991" y2="-324.994" gradientUnits="userSpaceOnUse">
<stop stop-color="#EBA600"/>
<stop offset="1" stop-color="#C28200"/>
</linearGradient>
<linearGradient id="paint5_linear_86_3238" x1="132.416" y1="89.5497" x2="132.416" y2="79.4458" gradientUnits="userSpaceOnUse">
<stop stop-color="#FFD869"/>
<stop offset="1" stop-color="#FEC52B"/>
</linearGradient>
</defs>
</svg>
