<svg width="195" height="195" viewBox="0 0 195 195" fill="none" xmlns="http://www.w3.org/2000/svg">
<g filter="url(#filter0_d_87_7872)">
<path d="M170.887 10H24.1129C16.3186 10 10 16.3186 10 24.1129V170.887C10 178.681 16.3186 185 24.1129 185H170.887C178.681 185 185 178.681 185 170.887V24.1129C185 16.3186 178.681 10 170.887 10Z" fill="url(#paint0_linear_87_7872)" fill-opacity="0.2"/>
<path d="M24.1129 10.5H170.887C178.405 10.5 184.5 16.5948 184.5 24.1129V170.887C184.5 178.405 178.405 184.5 170.887 184.5H24.1129C16.5948 184.5 10.5 178.405 10.5 170.887V24.1129C10.5 16.5947 16.5947 10.5 24.1129 10.5Z" stroke="#F7F7F7" stroke-opacity="0.27"/>
</g>
<g filter="url(#filter1_bd_87_7872)">
<path d="M100.278 122.222H94.7222V130.833H100.278V122.222Z" fill="url(#paint1_linear_87_7872)"/>
<path d="M111.389 139.167H103.056V133.611C103.056 131.944 101.945 130.833 100.278 130.833H94.7224C93.0557 130.833 91.9446 131.944 91.9446 133.611V139.167H83.6113C81.9446 139.167 80.8335 140.278 80.8335 141.944V147.5C80.8335 149.167 81.9446 150.278 83.6113 150.278H111.389C113.056 150.278 114.167 149.167 114.167 147.5V141.944C114.167 140.278 113.056 139.167 111.389 139.167Z" fill="#21A366"/>
<path d="M61.6665 88.3331L147.5 53.6108V117.5C147.5 120.278 145.278 122.222 142.778 122.222H61.6665V88.3331Z" fill="url(#paint2_linear_87_7872)"/>
<path opacity="0.05" d="M100.278 119.722H94.7222V125H100.278V119.722Z" fill="black"/>
<path opacity="0.07" d="M100.278 119.722H94.7222V123.611H100.278V119.722Z" fill="black"/>
<path d="M47.5 50.8333V117.5C47.5 120.278 49.7222 122.222 52.2222 122.222H142.778C143.889 122.222 145 121.667 145.833 121.111L47.5 50.8333Z" fill="url(#paint3_linear_87_7872)"/>
<path opacity="0.05" d="M47.5 51.9446H147.5V56.1112L106.389 88.0557C101.111 91.9446 93.8889 91.9446 88.8889 88.0557L47.5 56.1112V51.9446Z" fill="black"/>
<path opacity="0.07" d="M47.5 50.8333H147.5V54.9999L104.444 86.111C100.278 89.1666 94.7222 89.1666 90.5556 86.111L47.5 54.7221V50.8333Z" fill="black"/>
<path d="M52.2222 44.7222H142.778C145.278 44.7222 147.5 46.9444 147.5 49.7222V53.8888L102.778 83.8888C99.4444 86.1111 95.2778 86.1111 91.9444 83.8888L47.5 53.6111V49.7222C47.5 46.9444 49.7222 44.7222 52.2222 44.7222Z" fill="#50E6FF"/>
<path d="M144.722 141.944H114.167V147.5H144.722C146.389 147.5 147.5 146.389 147.5 144.722C147.5 143.055 146.389 141.944 144.722 141.944Z" fill="url(#paint4_linear_87_7872)"/>
<path d="M50.2778 141.944H80.8333V147.5H50.2778C48.6111 147.5 47.5 146.389 47.5 144.722C47.5 143.055 48.6111 141.944 50.2778 141.944Z" fill="url(#paint5_linear_87_7872)"/>
</g>
<defs>
<filter id="filter0_d_87_7872" x="6" y="10" width="183" height="183" filterUnits="userSpaceOnUse" color-interpolation-filters="sRGB">
<feFlood flood-opacity="0" result="BackgroundImageFix"/>
<feColorMatrix in="SourceAlpha" type="matrix" values="0 0 0 0 0 0 0 0 0 0 0 0 0 0 0 0 0 0 127 0" result="hardAlpha"/>
<feOffset dy="4"/>
<feGaussianBlur stdDeviation="2"/>
<feComposite in2="hardAlpha" operator="out"/>
<feColorMatrix type="matrix" values="0 0 0 0 0 0 0 0 0 0 0 0 0 0 0 0 0 0 0.25 0"/>
<feBlend mode="normal" in2="BackgroundImageFix" result="effect1_dropShadow_87_7872"/>
<feBlend mode="normal" in="SourceGraphic" in2="effect1_dropShadow_87_7872" result="shape"/>
</filter>
<filter id="filter1_bd_87_7872" x="43.5" y="40.7222" width="108" height="115.555" filterUnits="userSpaceOnUse" color-interpolation-filters="sRGB">
<feFlood flood-opacity="0" result="BackgroundImageFix"/>
<feGaussianBlur in="BackgroundImageFix" stdDeviation="2"/>
<feComposite in2="SourceAlpha" operator="in" result="effect1_backgroundBlur_87_7872"/>
<feColorMatrix in="SourceAlpha" type="matrix" values="0 0 0 0 0 0 0 0 0 0 0 0 0 0 0 0 0 0 127 0" result="hardAlpha"/>
<feOffset dy="2"/>
<feGaussianBlur stdDeviation="2"/>
<feComposite in2="hardAlpha" operator="out"/>
<feColorMatrix type="matrix" values="0 0 0 0 1 0 0 0 0 1 0 0 0 0 1 0 0 0 1 0"/>
<feBlend mode="normal" in2="effect1_backgroundBlur_87_7872" result="effect2_dropShadow_87_7872"/>
<feBlend mode="normal" in="SourceGraphic" in2="effect2_dropShadow_87_7872" result="shape"/>
</filter>
<linearGradient id="paint0_linear_87_7872" x1="97.5" y1="18.4677" x2="97.5" y2="176.532" gradientUnits="userSpaceOnUse">
<stop stop-color="white"/>
<stop offset="0.472222" stop-color="#0D5176" stop-opacity="0.527778"/>
<stop offset="0.940972" stop-color="#12A6F7" stop-opacity="0.465278"/>
</linearGradient>
<linearGradient id="paint1_linear_87_7872" x1="97.5305" y1="131.602" x2="97.5305" y2="121.483" gradientUnits="userSpaceOnUse">
<stop stop-color="#484B4F"/>
<stop offset="0.23" stop-color="#656D75"/>
<stop offset="0.367" stop-color="#727D86"/>
</linearGradient>
<linearGradient id="paint2_linear_87_7872" x1="91.5887" y1="68.4303" x2="149.324" y2="154.844" gradientUnits="userSpaceOnUse">
<stop stop-color="#28AFEA"/>
<stop offset="1" stop-color="#0B88DA"/>
</linearGradient>
<linearGradient id="paint3_linear_87_7872" x1="42.9917" y1="82.7055" x2="127.653" y2="135.442" gradientUnits="userSpaceOnUse">
<stop stop-color="#28AFEA"/>
<stop offset="1" stop-color="#0B88DA"/>
</linearGradient>
<linearGradient id="paint4_linear_87_7872" x1="114.167" y1="144.722" x2="147.5" y2="144.722" gradientUnits="userSpaceOnUse">
<stop stop-color="#484B4F"/>
<stop offset="0.23" stop-color="#656D75"/>
<stop offset="0.367" stop-color="#727D86"/>
</linearGradient>
<linearGradient id="paint5_linear_87_7872" x1="80.8333" y1="144.722" x2="47.5" y2="144.722" gradientUnits="userSpaceOnUse">
<stop stop-color="#484B4F"/>
<stop offset="0.23" stop-color="#656D75"/>
<stop offset="0.367" stop-color="#727D86"/>
</linearGradient>
</defs>
</svg>
