<svg width="199" height="201" viewBox="0 0 199 201" fill="none" xmlns="http://www.w3.org/2000/svg">
<g filter="url(#filter0_d_87_7878)">
<path d="M172.887 10H26.1129C18.3186 10 12 16.3186 12 24.1129V170.887C12 178.681 18.3186 185 26.1129 185H172.887C180.681 185 187 178.681 187 170.887V24.1129C187 16.3186 180.681 10 172.887 10Z" fill="white"/>
<path d="M172.887 10H26.1129C18.3186 10 12 16.3186 12 24.1129V170.887C12 178.681 18.3186 185 26.1129 185H172.887C180.681 185 187 178.681 187 170.887V24.1129C187 16.3186 180.681 10 172.887 10Z" stroke="#F2F2F2" stroke-width="15" stroke-linecap="round"/>
<path d="M26.1129 10.5H172.887C180.405 10.5 186.5 16.5948 186.5 24.1129V170.887C186.5 178.405 180.405 184.5 172.887 184.5H26.1129C18.5948 184.5 12.5 178.405 12.5 170.887V24.1129C12.5 16.5947 18.5947 10.5 26.1129 10.5Z" fill="url(#paint0_linear_87_7878)" fill-opacity="0.2" stroke="white"/>
</g>
<g filter="url(#filter1_bd_87_7878)">
<path d="M102.278 122.222H96.7222V130.833H102.278V122.222Z" fill="url(#paint1_linear_87_7878)"/>
<path d="M113.389 139.167H105.056V133.611C105.056 131.944 103.945 130.833 102.278 130.833H96.7224C95.0557 130.833 93.9446 131.944 93.9446 133.611V139.167H85.6113C83.9446 139.167 82.8335 140.278 82.8335 141.944V147.5C82.8335 149.167 83.9446 150.278 85.6113 150.278H113.389C115.056 150.278 116.167 149.167 116.167 147.5V141.944C116.167 140.278 115.056 139.167 113.389 139.167Z" fill="#21A366"/>
<path d="M63.6665 88.3331L149.5 53.6108V117.5C149.5 120.278 147.278 122.222 144.778 122.222H63.6665V88.3331Z" fill="url(#paint2_linear_87_7878)"/>
<path opacity="0.05" d="M102.278 119.722H96.7222V125H102.278V119.722Z" fill="black"/>
<path opacity="0.07" d="M102.278 119.722H96.7222V123.611H102.278V119.722Z" fill="black"/>
<path d="M49.5 50.8333V117.5C49.5 120.278 51.7222 122.222 54.2222 122.222H144.778C145.889 122.222 147 121.667 147.833 121.111L49.5 50.8333Z" fill="url(#paint3_linear_87_7878)"/>
<path opacity="0.05" d="M49.5 51.9446H149.5V56.1112L108.389 88.0557C103.111 91.9446 95.8889 91.9446 90.8889 88.0557L49.5 56.1112V51.9446Z" fill="black"/>
<path opacity="0.07" d="M49.5 50.8333H149.5V54.9999L106.444 86.111C102.278 89.1666 96.7222 89.1666 92.5556 86.111L49.5 54.7221V50.8333Z" fill="black"/>
<path d="M54.2222 44.7222H144.778C147.278 44.7222 149.5 46.9444 149.5 49.7222V53.8888L104.778 83.8888C101.444 86.1111 97.2778 86.1111 93.9444 83.8888L49.5 53.6111V49.7222C49.5 46.9444 51.7222 44.7222 54.2222 44.7222Z" fill="#50E6FF"/>
<path d="M146.722 141.944H116.167V147.5H146.722C148.389 147.5 149.5 146.389 149.5 144.722C149.5 143.055 148.389 141.944 146.722 141.944Z" fill="url(#paint4_linear_87_7878)"/>
<path d="M52.2778 141.944H82.8333V147.5H52.2778C50.6111 147.5 49.5 146.389 49.5 144.722C49.5 143.055 50.6111 141.944 52.2778 141.944Z" fill="url(#paint5_linear_87_7878)"/>
</g>
<defs>
<filter id="filter0_d_87_7878" x="0.5" y="2.5" width="198" height="198" filterUnits="userSpaceOnUse" color-interpolation-filters="sRGB">
<feFlood flood-opacity="0" result="BackgroundImageFix"/>
<feColorMatrix in="SourceAlpha" type="matrix" values="0 0 0 0 0 0 0 0 0 0 0 0 0 0 0 0 0 0 127 0" result="hardAlpha"/>
<feOffset dy="4"/>
<feGaussianBlur stdDeviation="2"/>
<feComposite in2="hardAlpha" operator="out"/>
<feColorMatrix type="matrix" values="0 0 0 0 0 0 0 0 0 0 0 0 0 0 0 0 0 0 0.25 0"/>
<feBlend mode="normal" in2="BackgroundImageFix" result="effect1_dropShadow_87_7878"/>
<feBlend mode="normal" in="SourceGraphic" in2="effect1_dropShadow_87_7878" result="shape"/>
</filter>
<filter id="filter1_bd_87_7878" x="45.5" y="40.7222" width="108" height="115.555" filterUnits="userSpaceOnUse" color-interpolation-filters="sRGB">
<feFlood flood-opacity="0" result="BackgroundImageFix"/>
<feGaussianBlur in="BackgroundImageFix" stdDeviation="2"/>
<feComposite in2="SourceAlpha" operator="in" result="effect1_backgroundBlur_87_7878"/>
<feColorMatrix in="SourceAlpha" type="matrix" values="0 0 0 0 0 0 0 0 0 0 0 0 0 0 0 0 0 0 127 0" result="hardAlpha"/>
<feOffset dy="2"/>
<feGaussianBlur stdDeviation="2"/>
<feComposite in2="hardAlpha" operator="out"/>
<feColorMatrix type="matrix" values="0 0 0 0 1 0 0 0 0 1 0 0 0 0 1 0 0 0 1 0"/>
<feBlend mode="normal" in2="effect1_backgroundBlur_87_7878" result="effect2_dropShadow_87_7878"/>
<feBlend mode="normal" in="SourceGraphic" in2="effect2_dropShadow_87_7878" result="shape"/>
</filter>
<linearGradient id="paint0_linear_87_7878" x1="99.5" y1="18.4677" x2="99.5" y2="176.532" gradientUnits="userSpaceOnUse">
<stop stop-color="white"/>
<stop offset="0.472222" stop-color="#0D5176" stop-opacity="0.527778"/>
<stop offset="0.940972" stop-color="#12A6F7" stop-opacity="0.465278"/>
</linearGradient>
<linearGradient id="paint1_linear_87_7878" x1="99.5305" y1="131.602" x2="99.5305" y2="121.483" gradientUnits="userSpaceOnUse">
<stop stop-color="#484B4F"/>
<stop offset="0.23" stop-color="#656D75"/>
<stop offset="0.367" stop-color="#727D86"/>
</linearGradient>
<linearGradient id="paint2_linear_87_7878" x1="93.5887" y1="68.4303" x2="151.324" y2="154.844" gradientUnits="userSpaceOnUse">
<stop stop-color="#28AFEA"/>
<stop offset="1" stop-color="#0B88DA"/>
</linearGradient>
<linearGradient id="paint3_linear_87_7878" x1="44.9917" y1="82.7055" x2="129.653" y2="135.442" gradientUnits="userSpaceOnUse">
<stop stop-color="#28AFEA"/>
<stop offset="1" stop-color="#0B88DA"/>
</linearGradient>
<linearGradient id="paint4_linear_87_7878" x1="116.167" y1="144.722" x2="149.5" y2="144.722" gradientUnits="userSpaceOnUse">
<stop stop-color="#484B4F"/>
<stop offset="0.23" stop-color="#656D75"/>
<stop offset="0.367" stop-color="#727D86"/>
</linearGradient>
<linearGradient id="paint5_linear_87_7878" x1="82.8333" y1="144.722" x2="49.5" y2="144.722" gradientUnits="userSpaceOnUse">
<stop stop-color="#484B4F"/>
<stop offset="0.23" stop-color="#656D75"/>
<stop offset="0.367" stop-color="#727D86"/>
</linearGradient>
</defs>
</svg>
