<svg width="83" height="83" viewBox="0 0 83 83" fill="none" xmlns="http://www.w3.org/2000/svg">
<g id="addresses" filter="url(#filter0_bd_71_1017)">
<rect x="4" width="75" height="75" rx="10" fill="white" shape-rendering="crispEdges"/>
<rect x="4" width="75" height="75" rx="10" fill="url(#paint0_linear_71_1017)" fill-opacity="0.2" shape-rendering="crispEdges"/>
<g id="Group">
<path id="Vector" d="M61.9911 15.8036V59.1964C61.9911 60.5283 60.9123 61.6071 59.5804 61.6071H53.5536V13.3929H59.5804C60.9123 13.3929 61.9911 14.4716 61.9911 15.8036Z" fill="#1783BD"/>
<path id="Vector_2" d="M59.5804 15.8036V59.1964C59.5804 60.5283 58.5016 61.6071 57.1696 61.6071H49.9375V13.3929H57.1696C58.5016 13.3929 59.5804 14.4716 59.5804 15.8036Z" fill="url(#paint1_linear_71_1017)"/>
<path id="Vector_3" d="M21.0089 15.8036V59.1964C21.0089 60.5283 22.0877 61.6071 23.4196 61.6071H25.8304V13.3929H23.4196C22.0877 13.3929 21.0089 14.4716 21.0089 15.8036Z" fill="url(#paint2_linear_71_1017)"/>
<path id="Vector_4" d="M54.7589 13.3929H25.8304V61.6071H54.7589C56.0908 61.6071 57.1696 60.5283 57.1696 59.1964V15.8036C57.1696 14.4716 56.0908 13.3929 54.7589 13.3929Z" fill="url(#paint3_linear_71_1017)"/>
<path id="Vector_5" opacity="0.15" d="M41.5 36.2946C44.8285 36.2946 47.5268 33.5963 47.5268 30.2678C47.5268 26.9393 44.8285 24.2411 41.5 24.2411C38.1715 24.2411 35.4732 26.9393 35.4732 30.2678C35.4732 33.5963 38.1715 36.2946 41.5 36.2946Z" fill="url(#paint4_radial_71_1017)"/>
<path id="Vector_6" opacity="0.05" d="M33.0625 45.9375V48.4856C33.0625 49.7404 34.081 50.7589 35.3358 50.7589H47.663C48.919 50.7589 49.9375 49.7404 49.9375 48.4856V45.9375C49.9375 39.9107 46.1599 36.2946 41.5 36.2946C36.8401 36.2946 33.0625 39.9107 33.0625 45.9375Z" fill="black"/>
<path id="Vector_7" opacity="0.07" d="M33.6652 45.4867V48.4169C33.6652 49.3776 34.4438 50.1562 35.4045 50.1562H47.5955C48.5562 50.1562 49.3348 49.3776 49.3348 48.4169V45.3348C49.3348 40.2868 45.767 36.837 41.3891 36.8985C37.08 36.9588 33.6652 40.4929 33.6652 45.4867Z" fill="black"/>
<path id="Vector_8" d="M41.5 35.0893C44.1628 35.0893 46.3214 32.9306 46.3214 30.2678C46.3214 27.605 44.1628 25.4464 41.5 25.4464C38.8372 25.4464 36.6786 27.605 36.6786 30.2678C36.6786 32.9306 38.8372 35.0893 41.5 35.0893Z" fill="white"/>
<path id="Vector_9" d="M48.7321 44.7321C48.7321 40.6641 45.3728 37.3807 41.277 37.5036C37.3198 37.6217 34.2679 41.0751 34.2679 45.0359V48.3482C34.2679 49.0136 34.8079 49.5536 35.4732 49.5536H47.5268C48.1921 49.5536 48.7321 49.0136 48.7321 48.3482V44.7321Z" fill="white"/>
</g>
<rect x="5" y="1" width="73" height="73" rx="9" stroke="#0078D4" stroke-width="2" stroke-linejoin="round" stroke-dasharray="2 2" shape-rendering="crispEdges"/>
</g>
<defs>
<filter id="filter0_bd_71_1017" x="0" y="-4" width="83" height="87" filterUnits="userSpaceOnUse" color-interpolation-filters="sRGB">
<feFlood flood-opacity="0" result="BackgroundImageFix"/>
<feGaussianBlur in="BackgroundImageFix" stdDeviation="2"/>
<feComposite in2="SourceAlpha" operator="in" result="effect1_backgroundBlur_71_1017"/>
<feColorMatrix in="SourceAlpha" type="matrix" values="0 0 0 0 0 0 0 0 0 0 0 0 0 0 0 0 0 0 127 0" result="hardAlpha"/>
<feOffset dy="4"/>
<feGaussianBlur stdDeviation="2"/>
<feComposite in2="hardAlpha" operator="out"/>
<feColorMatrix type="matrix" values="0 0 0 0 1 0 0 0 0 1 0 0 0 0 1 0 0 0 0.5 0"/>
<feBlend mode="normal" in2="effect1_backgroundBlur_71_1017" result="effect2_dropShadow_71_1017"/>
<feBlend mode="normal" in="SourceGraphic" in2="effect2_dropShadow_71_1017" result="shape"/>
</filter>
<linearGradient id="paint0_linear_71_1017" x1="41.5" y1="0" x2="41.5" y2="75" gradientUnits="userSpaceOnUse">
<stop offset="0.126736" stop-color="#F2F2F2"/>
<stop offset="0.918403" stop-color="#88B0CE"/>
<stop offset="1" stop-color="white" stop-opacity="0.9"/>
</linearGradient>
<linearGradient id="paint1_linear_71_1017" x1="54.7252" y1="37.5" x2="58.5124" y2="37.5" gradientUnits="userSpaceOnUse">
<stop offset="0.441" stop-color="#999998"/>
<stop offset="0.653" stop-color="#C1C1C0"/>
<stop offset="0.88" stop-color="#E5E5E5"/>
<stop offset="1" stop-color="#F3F3F3"/>
</linearGradient>
<linearGradient id="paint2_linear_71_1017" x1="16.9565" y1="18.9037" x2="31.4847" y2="58.4792" gradientUnits="userSpaceOnUse">
<stop stop-color="#0176D0"/>
<stop offset="1" stop-color="#16538C"/>
</linearGradient>
<linearGradient id="paint3_linear_71_1017" x1="32.7973" y1="14.7838" x2="50.1967" y2="62.1797" gradientUnits="userSpaceOnUse">
<stop stop-color="#33BEF0"/>
<stop offset="1" stop-color="#22A5E2"/>
</linearGradient>
<radialGradient id="paint4_radial_71_1017" cx="0" cy="0" r="1" gradientUnits="userSpaceOnUse" gradientTransform="translate(41.5 30.2678) scale(6.02679)">
<stop offset="0.486"/>
<stop offset="1" stop-opacity="0"/>
</radialGradient>
</defs>
</svg>
