<svg width="83" height="83" viewBox="0 0 83 83" fill="none" xmlns="http://www.w3.org/2000/svg">
<g id="calendar" filter="url(#filter0_bd_71_1390)">
<rect x="4" width="75" height="75" rx="10" fill="white" shape-rendering="crispEdges"/>
<rect x="4" width="75" height="75" rx="10" fill="url(#paint0_linear_71_1390)" fill-opacity="0.2" shape-rendering="crispEdges"/>
<g id="Group">
<path id="Vector" d="M18.6617 59.0695V23.5432H64.3383V59.0695C64.3383 60.4652 63.1964 61.6071 61.8008 61.6071H21.1992C19.8036 61.6071 18.6617 60.4652 18.6617 59.0695Z" fill="url(#paint1_linear_71_1390)"/>
<path id="Vector_2" d="M64.3383 18.468V26.0808H18.6617V18.468C18.6617 17.0724 19.8036 15.9305 21.1992 15.9305H61.8008C63.1964 15.9305 64.3383 17.0724 64.3383 18.468Z" fill="url(#paint2_linear_71_1390)"/>
<path id="Vector_3" opacity="0.05" d="M56.0912 24.1776C53.9888 24.1776 52.2848 22.4736 52.2848 20.3712V15.9305H59.8976V20.3712C59.8976 22.4736 58.1936 24.1776 56.0912 24.1776Z" fill="black"/>
<path id="Vector_4" opacity="0.07" d="M56.0912 23.226C54.514 23.226 53.2364 21.9484 53.2364 20.3712V15.9305H58.946V20.3712C58.946 21.9484 57.6683 23.226 56.0912 23.226Z" fill="black"/>
<path id="Vector_5" opacity="0.05" d="M26.9088 24.1776C24.8064 24.1776 23.1024 22.4736 23.1024 20.3712V15.9305H30.7152V20.3712C30.7152 22.4736 29.0112 24.1776 26.9088 24.1776Z" fill="black"/>
<path id="Vector_6" opacity="0.07" d="M26.9088 23.226C25.3317 23.226 24.054 21.9484 24.054 20.3712V15.9305H29.7636V20.3712C29.7636 21.9484 28.486 23.226 26.9088 23.226Z" fill="black"/>
<path id="Vector_7" d="M26.9088 22.2744C25.8583 22.2744 25.0056 21.4218 25.0056 20.3712V15.296C25.0056 14.2455 25.8583 13.3929 26.9088 13.3929C27.9594 13.3929 28.812 14.2455 28.812 15.296V20.3712C28.812 21.4218 27.9594 22.2744 26.9088 22.2744Z" fill="#3CCBF4"/>
<path id="Vector_8" d="M59.2632 33.0592V36.8656C59.2632 37.2158 58.9789 37.5 58.6288 37.5H54.8224C54.4722 37.5 54.188 37.2158 54.188 36.8656V33.0592C54.188 32.709 54.4722 32.4248 54.8224 32.4248H58.6288C58.9789 32.4248 59.2632 32.709 59.2632 33.0592ZM49.1128 33.0592V36.8656C49.1128 37.2158 48.8286 37.5 48.4784 37.5H44.672C44.3218 37.5 44.0376 37.2158 44.0376 36.8656V33.0592C44.0376 32.709 44.3218 32.4248 44.672 32.4248H48.4784C48.8286 32.4248 49.1128 32.709 49.1128 33.0592ZM38.9624 33.0592V36.8656C38.9624 37.2158 38.6782 37.5 38.328 37.5H34.5216C34.1714 37.5 33.8872 37.2158 33.8872 36.8656V33.0592C33.8872 32.709 34.1714 32.4248 34.5216 32.4248H38.328C38.6782 32.4248 38.9624 32.709 38.9624 33.0592Z" fill="white"/>
<path id="Vector_9" d="M59.2632 41.9408V45.7472C59.2632 46.0974 58.9789 46.3816 58.6288 46.3816H54.8224C54.4722 46.3816 54.188 46.0974 54.188 45.7472V41.9408C54.188 41.5906 54.4722 41.3064 54.8224 41.3064H58.6288C58.9789 41.3064 59.2632 41.5906 59.2632 41.9408ZM49.1128 41.9408V45.7472C49.1128 46.0974 48.8286 46.3816 48.4784 46.3816H44.672C44.3218 46.3816 44.0376 46.0974 44.0376 45.7472V41.9408C44.0376 41.5906 44.3218 41.3064 44.672 41.3064H48.4784C48.8286 41.3064 49.1128 41.5906 49.1128 41.9408ZM38.9624 41.9408V45.7472C38.9624 46.0974 38.6782 46.3816 38.328 46.3816H34.5216C34.1714 46.3816 33.8872 46.0974 33.8872 45.7472V41.9408C33.8872 41.5906 34.1714 41.3064 34.5216 41.3064H38.328C38.6782 41.3064 38.9624 41.5906 38.9624 41.9408ZM28.812 41.9408V45.7472C28.812 46.0974 28.5278 46.3816 28.1776 46.3816H24.3712C24.021 46.3816 23.7368 46.0974 23.7368 45.7472V41.9408C23.7368 41.5906 24.021 41.3064 24.3712 41.3064H28.1776C28.5278 41.3064 28.812 41.5906 28.812 41.9408Z" fill="white"/>
<path id="Vector_10" d="M49.1128 50.8224V54.6288C49.1128 54.979 48.8286 55.2632 48.4784 55.2632H44.672C44.3218 55.2632 44.0376 54.979 44.0376 54.6288V50.8224C44.0376 50.4722 44.3218 50.188 44.672 50.188H48.4784C48.8286 50.188 49.1128 50.4722 49.1128 50.8224ZM38.9624 50.8224V54.6288C38.9624 54.979 38.6782 55.2632 38.328 55.2632H34.5216C34.1714 55.2632 33.8872 54.979 33.8872 54.6288V50.8224C33.8872 50.4722 34.1714 50.188 34.5216 50.188H38.328C38.6782 50.188 38.9624 50.4722 38.9624 50.8224ZM28.812 50.8224V54.6288C28.812 54.979 28.5278 55.2632 28.1776 55.2632H24.3712C24.021 55.2632 23.7368 54.979 23.7368 54.6288V50.8224C23.7368 50.4722 24.021 50.188 24.3712 50.188H28.1776C28.5278 50.188 28.812 50.4722 28.812 50.8224Z" fill="white"/>
<path id="Vector_11" d="M56.0912 22.2744C55.0406 22.2744 54.188 21.4218 54.188 20.3712V15.296C54.188 14.2455 55.0406 13.3929 56.0912 13.3929C57.1417 13.3929 57.9944 14.2455 57.9944 15.296V20.3712C57.9944 21.4218 57.1417 22.2744 56.0912 22.2744Z" fill="#3CCBF4"/>
</g>
<rect x="5" y="1" width="73" height="73" rx="9" stroke="#0078D4" stroke-width="2" stroke-linejoin="round" stroke-dasharray="2 2" shape-rendering="crispEdges"/>
</g>
<defs>
<filter id="filter0_bd_71_1390" x="0" y="-4" width="83" height="87" filterUnits="userSpaceOnUse" color-interpolation-filters="sRGB">
<feFlood flood-opacity="0" result="BackgroundImageFix"/>
<feGaussianBlur in="BackgroundImageFix" stdDeviation="2"/>
<feComposite in2="SourceAlpha" operator="in" result="effect1_backgroundBlur_71_1390"/>
<feColorMatrix in="SourceAlpha" type="matrix" values="0 0 0 0 0 0 0 0 0 0 0 0 0 0 0 0 0 0 127 0" result="hardAlpha"/>
<feOffset dy="4"/>
<feGaussianBlur stdDeviation="2"/>
<feComposite in2="hardAlpha" operator="out"/>
<feColorMatrix type="matrix" values="0 0 0 0 1 0 0 0 0 1 0 0 0 0 1 0 0 0 0.5 0"/>
<feBlend mode="normal" in2="effect1_backgroundBlur_71_1390" result="effect2_dropShadow_71_1390"/>
<feBlend mode="normal" in="SourceGraphic" in2="effect2_dropShadow_71_1390" result="shape"/>
</filter>
<linearGradient id="paint0_linear_71_1390" x1="41.5" y1="0" x2="41.5" y2="75" gradientUnits="userSpaceOnUse">
<stop offset="0.126736" stop-color="#F2F2F2"/>
<stop offset="0.918403" stop-color="#88B0CE"/>
<stop offset="1" stop-color="white" stop-opacity="0.9"/>
</linearGradient>
<linearGradient id="paint1_linear_71_1390" x1="19.1869" y1="25.652" x2="64.0516" y2="58.4199" gradientUnits="userSpaceOnUse">
<stop stop-color="#28AFEA"/>
<stop offset="1" stop-color="#047ED6"/>
</linearGradient>
<linearGradient id="paint2_linear_71_1390" x1="19.1945" y1="16.7019" x2="63.3208" y2="25.6748" gradientUnits="userSpaceOnUse">
<stop stop-color="#0077D2"/>
<stop offset="1" stop-color="#0B59A2"/>
</linearGradient>
</defs>
</svg>
