<svg width="83" height="83" viewBox="0 0 83 83" fill="none" xmlns="http://www.w3.org/2000/svg">
<g id="diploma" filter="url(#filter0_bd_71_1926)">
<rect x="4" width="75" height="75" rx="10" fill="white" shape-rendering="crispEdges"/>
<rect x="4" width="75" height="75" rx="10" fill="url(#paint0_linear_71_1926)" fill-opacity="0.2" shape-rendering="crispEdges"/>
<g id="Group">
<path id="Vector" d="M63.1965 15.2003H19.8036C18.4717 15.2003 17.3929 16.2791 17.3929 17.611V53.7717C17.3929 55.1037 18.4717 56.1825 19.8036 56.1825H63.1965C64.5284 56.1825 65.6072 55.1037 65.6072 53.7717V17.611C65.6072 16.2791 64.5284 15.2003 63.1965 15.2003Z" fill="url(#paint1_linear_71_1926)"/>
<path id="Vector_2" d="M57.1697 17.611H25.8304C25.8304 20.939 23.1316 23.6378 19.8036 23.6378V47.7449C23.1316 47.7449 25.8304 50.4437 25.8304 53.7717H57.1697C57.1697 50.4437 59.8685 47.7449 63.1964 47.7449V23.6378C59.8685 23.6378 57.1697 20.939 57.1697 17.611ZM51.1429 34.486H31.8572C31.1918 34.486 30.6518 33.946 30.6518 33.2807C30.6518 32.6153 31.1918 32.0753 31.8572 32.0753H51.1429C51.8082 32.0753 52.3482 32.6153 52.3482 33.2807C52.3482 33.946 51.8082 34.486 51.1429 34.486ZM52.3482 29.6646H30.6518C29.3199 29.6646 28.2411 28.5858 28.2411 27.2539C28.2411 25.922 29.3199 24.8432 30.6518 24.8432H52.3482C53.6802 24.8432 54.7589 25.922 54.7589 27.2539C54.7589 28.5858 53.6802 29.6646 52.3482 29.6646Z" fill="#F0F0F0"/>
<path id="Vector_3" d="M44.1796 59.6973L41.5 57.9097L38.8205 59.6961C38.4204 59.9649 37.884 59.6768 37.884 59.1958V48.2681H45.1161V59.1958C45.1161 59.6768 44.5797 59.9649 44.1796 59.6973Z" fill="url(#paint2_linear_71_1926)"/>
<path id="Vector_4" d="M47.205 45.9695L46.7831 45.7164C46.6035 45.6079 46.4818 45.4307 46.4275 45.2294C46.4263 45.2258 46.4251 45.2222 46.4239 45.2185C46.3672 45.0148 46.3841 44.7979 46.4878 44.6135L46.7264 44.1831C46.9711 43.7432 46.6577 43.202 46.1551 43.1935L45.6585 43.1851C45.4476 43.1815 45.2535 43.0875 45.1052 42.9392C45.104 42.9368 45.1028 42.9356 45.1004 42.9344C44.951 42.7861 44.8581 42.5909 44.8545 42.3811L44.8461 41.8845C44.8376 41.3819 44.2964 41.0697 43.8565 41.3132L43.4298 41.5543C43.2442 41.6567 43.0284 41.6736 42.8247 41.6181C42.8211 41.6169 42.8175 41.6157 42.8126 41.6145C42.6101 41.5591 42.433 41.4385 42.3257 41.2589L42.0726 40.8371C41.8134 40.4055 41.189 40.4055 40.9299 40.8371L40.678 41.2565C40.5695 41.4373 40.3899 41.5603 40.1874 41.6157C40.185 41.6169 40.1838 41.6169 40.1814 41.6181C39.9752 41.6748 39.7571 41.6579 39.5714 41.5543L39.1435 41.3168C38.7036 41.0721 38.1624 41.3855 38.1539 41.8881L38.1443 42.3835C38.1407 42.5933 38.0467 42.7885 37.8984 42.9368C37.896 42.938 37.8948 42.9404 37.8936 42.9416C37.7453 43.0911 37.5501 43.1839 37.3403 43.1875L36.8437 43.196C36.3411 43.2044 36.0289 43.7456 36.2724 44.1856L36.511 44.6159C36.6135 44.8015 36.6304 45.0172 36.5749 45.221C36.5737 45.2246 36.5725 45.2294 36.5713 45.2318C36.5159 45.4343 36.3941 45.6115 36.2157 45.7188L35.7939 45.9719C35.3623 46.231 35.3623 46.8554 35.7939 47.1146L36.2157 47.3677C36.3953 47.4762 36.5171 47.6534 36.5713 47.8547C36.5725 47.8583 36.5737 47.8619 36.5749 47.8655C36.6316 48.0692 36.6147 48.2862 36.511 48.4706L36.2724 48.9009C36.0277 49.3409 36.3411 49.8821 36.8437 49.8905L37.3403 49.8989C37.5513 49.9026 37.7453 49.9966 37.8936 50.1448C37.8948 50.146 37.896 50.1472 37.8984 50.1497C38.0479 50.2979 38.1407 50.4932 38.1443 50.7029L38.1527 51.1995C38.1612 51.7022 38.7024 52.0143 39.1423 51.7709L39.5726 51.5322C39.7583 51.4297 39.974 51.4129 40.1777 51.4683C40.1814 51.4695 40.1862 51.4695 40.1898 51.4707C40.3923 51.5262 40.5695 51.6467 40.6768 51.8263L40.9299 52.2482C41.189 52.6797 41.8134 52.6797 42.0726 52.2482L42.3257 51.8263C42.4342 51.6467 42.6114 51.525 42.8126 51.4707C42.8163 51.4695 42.8211 51.4695 42.8247 51.4683C43.0284 51.4117 43.2454 51.4285 43.4298 51.5322L43.8601 51.7709C44.3001 52.0155 44.8413 51.7022 44.8497 51.1995L44.8581 50.7029C44.8618 50.492 44.9558 50.2979 45.104 50.1497C45.1064 50.1484 45.1076 50.1472 45.1089 50.1448C45.2571 49.9954 45.4524 49.9026 45.6621 49.8989L46.1587 49.8905C46.6614 49.8821 46.9735 49.3409 46.7301 48.9009L46.4914 48.4706C46.3889 48.285 46.3721 48.0692 46.4275 47.8655C46.4287 47.8619 46.4287 47.8583 46.4299 47.8547C46.4854 47.6522 46.6059 47.475 46.7855 47.3677L47.2074 47.1146C47.6365 46.8518 47.6365 46.2286 47.205 45.9695Z" fill="url(#paint3_linear_71_1926)"/>
</g>
<rect x="5" y="1" width="73" height="73" rx="9" stroke="#0078D4" stroke-width="2" stroke-linejoin="round" stroke-dasharray="2 2" shape-rendering="crispEdges"/>
</g>
<defs>
<filter id="filter0_bd_71_1926" x="0" y="-4" width="83" height="87" filterUnits="userSpaceOnUse" color-interpolation-filters="sRGB">
<feFlood flood-opacity="0" result="BackgroundImageFix"/>
<feGaussianBlur in="BackgroundImageFix" stdDeviation="2"/>
<feComposite in2="SourceAlpha" operator="in" result="effect1_backgroundBlur_71_1926"/>
<feColorMatrix in="SourceAlpha" type="matrix" values="0 0 0 0 0 0 0 0 0 0 0 0 0 0 0 0 0 0 127 0" result="hardAlpha"/>
<feOffset dy="4"/>
<feGaussianBlur stdDeviation="2"/>
<feComposite in2="hardAlpha" operator="out"/>
<feColorMatrix type="matrix" values="0 0 0 0 1 0 0 0 0 1 0 0 0 0 1 0 0 0 0.5 0"/>
<feBlend mode="normal" in2="effect1_backgroundBlur_71_1926" result="effect2_dropShadow_71_1926"/>
<feBlend mode="normal" in="SourceGraphic" in2="effect2_dropShadow_71_1926" result="shape"/>
</filter>
<linearGradient id="paint0_linear_71_1926" x1="41.5" y1="0" x2="41.5" y2="75" gradientUnits="userSpaceOnUse">
<stop offset="0.126736" stop-color="#F2F2F2"/>
<stop offset="0.918403" stop-color="#88B0CE"/>
<stop offset="1" stop-color="white" stop-opacity="0.9"/>
</linearGradient>
<linearGradient id="paint1_linear_71_1926" x1="17.3929" y1="35.6914" x2="65.6072" y2="35.6914" gradientUnits="userSpaceOnUse">
<stop stop-color="#32BDEF"/>
<stop offset="1" stop-color="#1EA2E4"/>
</linearGradient>
<linearGradient id="paint2_linear_71_1926" x1="41.5" y1="48.2669" x2="41.5" y2="59.8564" gradientUnits="userSpaceOnUse">
<stop stop-color="#8C20E5"/>
<stop offset="0.427" stop-color="#9E32EB"/>
<stop offset="1" stop-color="#BD4FF4"/>
</linearGradient>
<linearGradient id="paint3_linear_71_1926" x1="38.436" y1="41.2155" x2="44.5399" y2="51.8239" gradientUnits="userSpaceOnUse">
<stop stop-color="#FFDA1C"/>
<stop offset="1" stop-color="#FEB705"/>
</linearGradient>
</defs>
</svg>
