<svg width="83" height="83" viewBox="0 0 83 83" fill="none" xmlns="http://www.w3.org/2000/svg">
<g id="code" filter="url(#filter0_bd_71_1609)">
<rect x="4" width="75" height="75" rx="10" fill="white" shape-rendering="crispEdges"/>
<rect x="4" width="75" height="75" rx="10" fill="url(#paint0_linear_71_1609)" fill-opacity="0.2" shape-rendering="crispEdges"/>
<g id="Group">
<path id="Vector" d="M63.3112 19.1327C64.5797 19.1327 65.6071 20.1601 65.6071 21.4286V27.1684H17.3929V21.4286C17.3929 20.1601 18.4203 19.1327 19.6888 19.1327H63.3112Z" fill="#CCCCCC"/>
<path id="Vector_2" d="M65.6071 24.8725H17.3929V53.5714C17.3929 54.8399 18.4203 55.8674 19.6888 55.8674H63.3112C64.5797 55.8674 65.6071 54.8399 65.6071 53.5714V24.8725Z" fill="url(#paint1_linear_71_1609)"/>
<path id="Vector_3" d="M62.1633 23.7245C62.7973 23.7245 63.3112 23.2105 63.3112 22.5765C63.3112 21.9425 62.7973 21.4286 62.1633 21.4286C61.5293 21.4286 61.0153 21.9425 61.0153 22.5765C61.0153 23.2105 61.5293 23.7245 62.1633 23.7245Z" fill="#999999"/>
<path id="Vector_4" d="M58.7194 23.7245C59.3534 23.7245 59.8673 23.2105 59.8673 22.5765C59.8673 21.9425 59.3534 21.4286 58.7194 21.4286C58.0854 21.4286 57.5714 21.9425 57.5714 22.5765C57.5714 23.2105 58.0854 23.7245 58.7194 23.7245Z" fill="#999999"/>
<path id="Vector_5" opacity="0.05" d="M56.1422 39.8441L53.4767 34.9561C53.1747 34.4017 52.5939 34.0561 51.9613 34.0561H50.3427C49.7952 34.0561 49.3015 34.3374 49.0226 34.8069C48.7425 35.2775 48.7321 35.8446 48.995 36.3268L51.5125 40.9439L48.9939 45.5598C48.731 46.042 48.7425 46.6091 49.0214 47.0786C49.3015 47.5492 49.794 47.8305 50.3416 47.8305H51.9602C52.5927 47.8305 53.1736 47.4849 53.4755 46.9305L56.1422 42.0425C56.5187 41.3548 56.5187 40.5329 56.1422 39.8441Z" fill="black"/>
<path id="Vector_6" opacity="0.07" d="M55.6394 40.1196L52.9727 35.2305C52.7707 34.8597 52.3827 34.6301 51.9614 34.6301H50.3427C49.9995 34.6301 49.6907 34.8057 49.5162 35.1008C49.3406 35.3958 49.3348 35.7505 49.499 36.0524L52.1668 40.9439L49.499 45.8353C49.3348 46.1372 49.3406 46.492 49.5162 46.787C49.6907 47.082 49.9995 47.2576 50.3427 47.2576H51.9614C52.3827 47.2576 52.7707 47.0281 52.9727 46.6573L55.6394 41.7681C55.9207 41.2527 55.9207 40.6351 55.6394 40.1196Z" fill="black"/>
<path id="Vector_7" opacity="0.05" d="M26.8578 39.8441L29.5233 34.9561C29.8253 34.4017 30.4061 34.0561 31.0386 34.0561H32.6573C33.2048 34.0561 33.6985 34.3374 33.9774 34.8069C34.2575 35.2775 34.2679 35.8446 34.005 36.3268L31.4875 40.9439L34.0061 45.5598C34.269 46.042 34.2575 46.6091 33.9786 47.0786C33.6985 47.5504 33.2048 47.8316 32.6573 47.8316H31.0386C30.4061 47.8316 29.8253 47.4861 29.5233 46.9316L26.8566 42.0436C26.4812 41.3548 26.4812 40.5329 26.8578 39.8441Z" fill="black"/>
<path id="Vector_8" opacity="0.07" d="M27.3606 40.1196L30.0273 35.2305C30.2293 34.8597 30.6173 34.6301 31.0386 34.6301H32.6573C33.0005 34.6301 33.3093 34.8057 33.4838 35.1008C33.6594 35.3958 33.6652 35.7505 33.501 36.0524L30.8332 40.9439L33.501 45.8353C33.6652 46.1372 33.6594 46.492 33.4838 46.787C33.3093 47.082 33.0005 47.2576 32.6573 47.2576H31.0386C30.6173 47.2576 30.2293 47.0281 30.0273 46.6573L27.3606 41.7681C27.0793 41.2527 27.0793 40.6351 27.3606 40.1196Z" fill="black"/>
<path id="Vector_9" d="M52.82 40.9439L50.0018 46.1097C49.8606 46.368 50.0477 46.6837 50.3427 46.6837H51.9613C52.1726 46.6837 52.3677 46.5677 52.4687 46.3829L55.1355 41.4938C55.3226 41.1517 55.3226 40.7373 55.1355 40.394L52.4687 35.5049C52.3677 35.32 52.1726 35.2041 51.9613 35.2041H50.3427C50.0488 35.2041 49.8617 35.5186 50.0018 35.7781L52.82 40.9439Z" fill="white"/>
<path id="Vector_10" d="M30.18 40.9439L32.9982 46.1097C33.1394 46.368 32.9523 46.6837 32.6573 46.6837H31.0387C30.8274 46.6837 30.6323 46.5677 30.5313 46.3829L27.8645 41.4938C27.6774 41.1517 27.6774 40.7373 27.8645 40.394L30.5313 35.5049C30.6323 35.32 30.8274 35.2041 31.0387 35.2041H32.6573C32.9512 35.2041 33.1383 35.5186 32.9982 35.7781L30.18 40.9439Z" fill="white"/>
<path id="Vector_11" opacity="0.05" d="M46.9459 30.1416C46.6452 29.7168 46.1561 29.4643 45.6372 29.4643H44.4009C43.6823 29.4643 43.0394 29.9189 42.8018 30.595L35.852 50.2894C35.6798 50.7784 35.7568 51.3226 36.0564 51.7485C36.356 52.1709 36.8439 52.4235 37.3628 52.4235H38.5991C39.3177 52.4235 39.9617 51.9689 40.1982 51.2916L47.1491 31.5995C47.3202 31.1105 47.2444 30.5652 46.9459 30.1416Z" fill="black"/>
<path id="Vector_12" opacity="0.07" d="M46.4764 30.4722C46.2847 30.2013 45.9702 30.0383 45.6372 30.0383H44.4009C43.9256 30.0383 43.5009 30.339 43.3436 30.7856L36.3927 50.4788C36.2825 50.7922 36.3307 51.1423 36.5236 51.4144C36.7153 51.6853 37.0298 51.8483 37.3628 51.8483H38.5991C39.0755 51.8483 39.5003 51.5464 39.6564 51.0999L46.6073 31.4078C46.7175 31.0944 46.6681 30.7443 46.4764 30.4722Z" fill="black"/>
<path id="Vector_13" d="M45.6372 30.6122H44.4009C44.169 30.6122 43.9624 30.758 43.8855 30.9773L36.9346 50.6705C36.8301 50.9656 37.0494 51.2755 37.3628 51.2755H38.5991C38.831 51.2755 39.0376 51.1297 39.1145 50.9105L46.0654 31.2172C46.1699 30.9222 45.9506 30.6122 45.6372 30.6122Z" fill="white"/>
</g>
<rect x="5" y="1" width="73" height="73" rx="9" stroke="#0078D4" stroke-width="2" stroke-linejoin="round" stroke-dasharray="2 2" shape-rendering="crispEdges"/>
</g>
<defs>
<filter id="filter0_bd_71_1609" x="0" y="-4" width="83" height="87" filterUnits="userSpaceOnUse" color-interpolation-filters="sRGB">
<feFlood flood-opacity="0" result="BackgroundImageFix"/>
<feGaussianBlur in="BackgroundImageFix" stdDeviation="2"/>
<feComposite in2="SourceAlpha" operator="in" result="effect1_backgroundBlur_71_1609"/>
<feColorMatrix in="SourceAlpha" type="matrix" values="0 0 0 0 0 0 0 0 0 0 0 0 0 0 0 0 0 0 127 0" result="hardAlpha"/>
<feOffset dy="4"/>
<feGaussianBlur stdDeviation="2"/>
<feComposite in2="hardAlpha" operator="out"/>
<feColorMatrix type="matrix" values="0 0 0 0 1 0 0 0 0 1 0 0 0 0 1 0 0 0 0.5 0"/>
<feBlend mode="normal" in2="effect1_backgroundBlur_71_1609" result="effect2_dropShadow_71_1609"/>
<feBlend mode="normal" in="SourceGraphic" in2="effect2_dropShadow_71_1609" result="shape"/>
</filter>
<linearGradient id="paint0_linear_71_1609" x1="41.5" y1="0" x2="41.5" y2="75" gradientUnits="userSpaceOnUse">
<stop offset="0.126736" stop-color="#F2F2F2"/>
<stop offset="0.918403" stop-color="#88B0CE"/>
<stop offset="1" stop-color="white" stop-opacity="0.9"/>
</linearGradient>
<linearGradient id="paint1_linear_71_1609" x1="36.7819" y1="23.5822" x2="46.3605" y2="55.678" gradientUnits="userSpaceOnUse">
<stop stop-color="#6E6E6E"/>
<stop offset="0.999" stop-color="#4D4D4D"/>
</linearGradient>
</defs>
</svg>
