<svg width="83" height="83" viewBox="0 0 83 83" fill="none" xmlns="http://www.w3.org/2000/svg">
<g id="font" filter="url(#filter0_bd_71_2356)">
<rect x="4" width="75" height="75" rx="10" fill="white" shape-rendering="crispEdges"/>
<rect x="4" width="75" height="75" rx="10" fill="url(#paint0_linear_71_2356)" fill-opacity="0.2" shape-rendering="crispEdges"/>
<g id="Group">
<path id="Vector" d="M44.3483 42.3439L35.3777 17.5644C35.234 17.1675 34.8562 16.9022 34.4332 16.9022H28.1886C27.7686 16.9022 27.3928 17.1635 27.2461 17.5573L17.4406 44.0209C17.2577 44.5132 17.6225 45.0357 18.147 45.0357H23.3225C23.7586 45.0357 24.1454 44.7544 24.2791 44.3394L25.9992 39.0041H36.3312L38.0695 44.3424C38.2041 44.7564 38.5899 45.0357 39.025 45.0357H42.4603C43.8519 45.0357 44.8225 43.6531 44.3483 42.3439ZM27.426 33.9833L31.1225 22.6706L34.802 33.9833H27.426Z" fill="#199AE0"/>
<path id="Vector_2" d="M65.4765 50.0575L55.0028 20.5847C54.8602 20.1838 54.4814 19.9165 54.0564 19.9165H47.1566C46.7346 19.9165 46.3568 20.1808 46.2121 20.5776L35.4913 50.0515C35.3124 50.5438 35.6762 51.0643 36.1996 51.0643H41.9841C42.4222 51.0643 42.81 50.7799 42.9416 50.3619L44.9381 44.0309H55.9534L57.9709 50.365C58.1036 50.7819 58.4914 51.0643 58.9275 51.0643H64.7662C65.2866 51.0643 65.6504 50.5488 65.4765 50.0575ZM46.4824 38.5198L50.401 26.3028L54.3015 38.5198H46.4824Z" fill="#0077D2"/>
<path id="Vector_3" d="M64.6023 54.0786H36.4689C35.9142 54.0786 35.4641 54.5287 35.4641 55.0834V57.0929C35.4641 57.6485 35.9142 58.0977 36.4689 58.0977H64.6023C65.157 58.0977 65.6071 57.6485 65.6071 57.0929V55.0834C65.6071 54.5287 65.157 54.0786 64.6023 54.0786Z" fill="url(#paint1_linear_71_2356)"/>
</g>
<rect x="5" y="1" width="73" height="73" rx="9" stroke="#0078D4" stroke-width="2" stroke-linejoin="round" stroke-dasharray="2 2" shape-rendering="crispEdges"/>
</g>
<defs>
<filter id="filter0_bd_71_2356" x="0" y="-4" width="83" height="87" filterUnits="userSpaceOnUse" color-interpolation-filters="sRGB">
<feFlood flood-opacity="0" result="BackgroundImageFix"/>
<feGaussianBlur in="BackgroundImageFix" stdDeviation="2"/>
<feComposite in2="SourceAlpha" operator="in" result="effect1_backgroundBlur_71_2356"/>
<feColorMatrix in="SourceAlpha" type="matrix" values="0 0 0 0 0 0 0 0 0 0 0 0 0 0 0 0 0 0 127 0" result="hardAlpha"/>
<feOffset dy="4"/>
<feGaussianBlur stdDeviation="2"/>
<feComposite in2="hardAlpha" operator="out"/>
<feColorMatrix type="matrix" values="0 0 0 0 1 0 0 0 0 1 0 0 0 0 1 0 0 0 0.5 0"/>
<feBlend mode="normal" in2="effect1_backgroundBlur_71_2356" result="effect2_dropShadow_71_2356"/>
<feBlend mode="normal" in="SourceGraphic" in2="effect2_dropShadow_71_2356" result="shape"/>
</filter>
<linearGradient id="paint0_linear_71_2356" x1="41.5" y1="0" x2="41.5" y2="75" gradientUnits="userSpaceOnUse">
<stop offset="0.126736" stop-color="#F2F2F2"/>
<stop offset="0.918403" stop-color="#88B0CE"/>
<stop offset="1" stop-color="white" stop-opacity="0.9"/>
</linearGradient>
<linearGradient id="paint1_linear_71_2356" x1="47.2571" y1="48.9473" x2="59.6026" y2="75.8348" gradientUnits="userSpaceOnUse">
<stop stop-color="#FED100"/>
<stop offset="1" stop-color="#E36001"/>
</linearGradient>
</defs>
</svg>
