<svg width="83" height="83" viewBox="0 0 83 83" fill="none" xmlns="http://www.w3.org/2000/svg">
<g id="javascript" filter="url(#filter0_bd_116_4909)">
<rect x="4" width="75" height="75" rx="10" fill="white" shape-rendering="crispEdges"/>
<rect x="4" width="75" height="75" rx="10" fill="url(#paint0_linear_116_4909)" fill-opacity="0.2" shape-rendering="crispEdges"/>
<g id="Vector">
<mask id="path-3-outside-1_116_4909" maskUnits="userSpaceOnUse" x="21" y="16" width="42" height="44" fill="black">
<rect fill="white" x="21" y="16" width="42" height="44"/>
<path d="M57 59.5H29.5C28.12 59.5 27 58.38 27 57V19.5C27 18.12 28.12 17 29.5 17H59.5C60.88 17 62 18.12 62 19.5V54.5C62 57.2625 59.7625 59.5 57 59.5Z"/>
<path d="M52 54.5C52 53.12 50.88 52 49.5 52H24.5C23.12 52 22 53.12 22 54.5C22 57.2625 24.2375 59.5 27 59.5L57 59.5C54.2375 59.5 52 57.2625 52 54.5Z"/>
<path d="M39.3161 30.0909H41.5959V37.6975C41.5959 38.4006 41.4379 39.0114 41.1219 39.5298C40.8094 40.0483 40.3744 40.4478 39.8168 40.7283C39.2593 41.0089 38.6112 41.1492 37.8726 41.1492C37.2156 41.1492 36.619 41.0337 36.0828 40.8029C35.5501 40.5685 35.1275 40.2134 34.815 39.7376C34.5025 39.2582 34.3481 38.6563 34.3516 37.9318H36.6474C36.6545 38.2195 36.7131 38.4663 36.8232 38.6722C36.9368 38.8747 37.0913 39.0309 37.2866 39.141C37.4855 39.2475 37.7199 39.3008 37.9898 39.3008C38.2739 39.3008 38.5136 39.2404 38.7089 39.1197C38.9077 38.9954 39.0587 38.8143 39.1616 38.5764C39.2646 38.3384 39.3161 38.0455 39.3161 37.6975V30.0909Z"/>
<path d="M49.4209 33.2283C49.3783 32.7987 49.1954 32.4649 48.8722 32.2269C48.5491 31.989 48.1105 31.87 47.5565 31.87C47.1801 31.87 46.8623 31.9233 46.603 32.0298C46.3438 32.1328 46.1449 32.2766 46.0065 32.4613C45.8715 32.646 45.804 32.8555 45.804 33.0899C45.7969 33.2852 45.8378 33.4556 45.9266 33.6012C46.0189 33.7468 46.1449 33.8729 46.3047 33.9794C46.4645 34.0824 46.6492 34.173 46.8587 34.2511C47.0682 34.3256 47.292 34.3896 47.5299 34.4428L48.51 34.6772C48.9859 34.7837 49.4226 34.9258 49.8204 35.1033C50.2181 35.2809 50.5626 35.4993 50.8538 35.7585C51.1449 36.0178 51.3704 36.3232 51.5302 36.6747C51.6936 37.0263 51.777 37.4293 51.7806 37.8839C51.777 38.5515 51.6066 39.1303 51.2692 39.6204C50.9354 40.1069 50.4525 40.4851 49.8204 40.755C49.1918 41.0213 48.4337 41.1545 47.5459 41.1545C46.6652 41.1545 45.8981 41.0195 45.2447 40.7497C44.5949 40.4798 44.0871 40.0803 43.7213 39.5511C43.3591 39.0185 43.1691 38.3597 43.1513 37.5749H45.3832C45.4081 37.9407 45.5128 38.2461 45.6975 38.4911C45.8857 38.7326 46.1361 38.9155 46.4486 39.0398C46.7646 39.1605 47.1215 39.2209 47.5192 39.2209C47.9099 39.2209 48.249 39.1641 48.5366 39.0504C48.8278 38.9368 49.0533 38.7788 49.2131 38.5764C49.3729 38.3739 49.4528 38.1413 49.4528 37.8786C49.4528 37.6335 49.38 37.4276 49.2344 37.2607C49.0924 37.0938 48.8829 36.9517 48.6059 36.8345C48.3324 36.7173 47.9969 36.6108 47.5991 36.5149L46.4113 36.2166C45.4915 35.9929 44.7653 35.6431 44.2327 35.1673C43.7 34.6914 43.4354 34.0504 43.439 33.2443C43.4354 32.5838 43.6112 32.0068 43.9663 31.5132C44.325 31.0195 44.8168 30.6342 45.4418 30.3573C46.0668 30.0803 46.777 29.9418 47.5725 29.9418C48.3822 29.9418 49.0888 30.0803 49.6925 30.3573C50.2998 30.6342 50.7721 31.0195 51.1094 31.5132C51.4468 32.0068 51.6208 32.5785 51.6315 33.2283H49.4209Z"/>
</mask>
<path d="M57 59.5H29.5C28.12 59.5 27 58.38 27 57V19.5C27 18.12 28.12 17 29.5 17H59.5C60.88 17 62 18.12 62 19.5V54.5C62 57.2625 59.7625 59.5 57 59.5Z" fill="url(#paint1_linear_116_4909)"/>
<path d="M52 54.5C52 53.12 50.88 52 49.5 52H24.5C23.12 52 22 53.12 22 54.5C22 57.2625 24.2375 59.5 27 59.5L57 59.5C54.2375 59.5 52 57.2625 52 54.5Z" fill="url(#paint2_linear_116_4909)"/>
<path d="M39.3161 30.0909H41.5959V37.6975C41.5959 38.4006 41.4379 39.0114 41.1219 39.5298C40.8094 40.0483 40.3744 40.4478 39.8168 40.7283C39.2593 41.0089 38.6112 41.1492 37.8726 41.1492C37.2156 41.1492 36.619 41.0337 36.0828 40.8029C35.5501 40.5685 35.1275 40.2134 34.815 39.7376C34.5025 39.2582 34.3481 38.6563 34.3516 37.9318H36.6474C36.6545 38.2195 36.7131 38.4663 36.8232 38.6722C36.9368 38.8747 37.0913 39.0309 37.2866 39.141C37.4855 39.2475 37.7199 39.3008 37.9898 39.3008C38.2739 39.3008 38.5136 39.2404 38.7089 39.1197C38.9077 38.9954 39.0587 38.8143 39.1616 38.5764C39.2646 38.3384 39.3161 38.0455 39.3161 37.6975V30.0909Z" fill="#007AD9"/>
<path d="M49.4209 33.2283C49.3783 32.7987 49.1954 32.4649 48.8722 32.2269C48.5491 31.989 48.1105 31.87 47.5565 31.87C47.1801 31.87 46.8623 31.9233 46.603 32.0298C46.3438 32.1328 46.1449 32.2766 46.0065 32.4613C45.8715 32.646 45.804 32.8555 45.804 33.0899C45.7969 33.2852 45.8378 33.4556 45.9266 33.6012C46.0189 33.7468 46.1449 33.8729 46.3047 33.9794C46.4645 34.0824 46.6492 34.173 46.8587 34.2511C47.0682 34.3256 47.292 34.3896 47.5299 34.4428L48.51 34.6772C48.9859 34.7837 49.4226 34.9258 49.8204 35.1033C50.2181 35.2809 50.5626 35.4993 50.8538 35.7585C51.1449 36.0178 51.3704 36.3232 51.5302 36.6747C51.6936 37.0263 51.777 37.4293 51.7806 37.8839C51.777 38.5515 51.6066 39.1303 51.2692 39.6204C50.9354 40.1069 50.4525 40.4851 49.8204 40.755C49.1918 41.0213 48.4337 41.1545 47.5459 41.1545C46.6652 41.1545 45.8981 41.0195 45.2447 40.7497C44.5949 40.4798 44.0871 40.0803 43.7213 39.5511C43.3591 39.0185 43.1691 38.3597 43.1513 37.5749H45.3832C45.4081 37.9407 45.5128 38.2461 45.6975 38.4911C45.8857 38.7326 46.1361 38.9155 46.4486 39.0398C46.7646 39.1605 47.1215 39.2209 47.5192 39.2209C47.9099 39.2209 48.249 39.1641 48.5366 39.0504C48.8278 38.9368 49.0533 38.7788 49.2131 38.5764C49.3729 38.3739 49.4528 38.1413 49.4528 37.8786C49.4528 37.6335 49.38 37.4276 49.2344 37.2607C49.0924 37.0938 48.8829 36.9517 48.6059 36.8345C48.3324 36.7173 47.9969 36.6108 47.5991 36.5149L46.4113 36.2166C45.4915 35.9929 44.7653 35.6431 44.2327 35.1673C43.7 34.6914 43.4354 34.0504 43.439 33.2443C43.4354 32.5838 43.6112 32.0068 43.9663 31.5132C44.325 31.0195 44.8168 30.6342 45.4418 30.3573C46.0668 30.0803 46.777 29.9418 47.5725 29.9418C48.3822 29.9418 49.0888 30.0803 49.6925 30.3573C50.2998 30.6342 50.7721 31.0195 51.1094 31.5132C51.4468 32.0068 51.6208 32.5785 51.6315 33.2283H49.4209Z" fill="#007AD9"/>
<path d="M27 59.5L27 59H27V59.5ZM39.3161 30.0909V29.5909C39.04 29.5909 38.8161 29.8148 38.8161 30.0909H39.3161ZM41.5959 30.0909H42.0959C42.0959 29.8148 41.8721 29.5909 41.5959 29.5909V30.0909ZM41.1219 39.5298L40.6949 39.2696L40.6936 39.2717L41.1219 39.5298ZM39.8168 40.7283L39.5921 40.2817L39.5921 40.2817L39.8168 40.7283ZM36.0828 40.8029L35.8814 41.2606L35.8851 41.2622L36.0828 40.8029ZM34.815 39.7376L34.3962 40.0106L34.3971 40.012L34.815 39.7376ZM34.3516 37.9318V37.4318C34.0764 37.4318 33.853 37.6542 33.8516 37.9294L34.3516 37.9318ZM36.6474 37.9318L37.1473 37.9195C37.1406 37.6482 36.9188 37.4318 36.6474 37.4318V37.9318ZM36.8232 38.6722L36.3822 38.908L36.3872 38.917L36.8232 38.6722ZM37.2866 39.141L37.0411 39.5767L37.0505 39.5817L37.2866 39.141ZM38.7089 39.1197L38.9718 39.545L38.9739 39.5437L38.7089 39.1197ZM39.1616 38.5764L39.6205 38.775L39.6205 38.775L39.1616 38.5764ZM49.4209 33.2283L48.9233 33.2777C48.9487 33.5335 49.1638 33.7283 49.4209 33.7283V33.2283ZM46.603 32.0298L46.7877 32.4945L46.7931 32.4923L46.603 32.0298ZM46.0065 32.4613L45.6064 32.1613L45.6028 32.1663L46.0065 32.4613ZM45.804 33.0899L46.3037 33.108C46.3039 33.102 46.304 33.0959 46.304 33.0899H45.804ZM45.9266 33.6012L45.4996 33.8616L45.5043 33.869L45.9266 33.6012ZM46.3047 33.9794L46.0274 34.3955L46.0339 34.3997L46.3047 33.9794ZM46.8587 34.2511L46.684 34.7196L46.6911 34.7221L46.8587 34.2511ZM47.5299 34.4428L47.6462 33.9565L47.6391 33.9549L47.5299 34.4428ZM48.51 34.6772L48.3937 35.1636L48.4008 35.1651L48.51 34.6772ZM49.8204 35.1033L49.6165 35.5599L49.6165 35.5599L49.8204 35.1033ZM50.8538 35.7585L51.1862 35.3851L51.1862 35.3851L50.8538 35.7585ZM51.5302 36.6747L51.075 36.8816L51.0768 36.8854L51.5302 36.6747ZM51.7806 37.8839L52.2806 37.8865L52.2806 37.88L51.7806 37.8839ZM51.2692 39.6204L50.8574 39.3369L50.857 39.3375L51.2692 39.6204ZM49.8204 40.755L50.0154 41.2154L50.0167 41.2148L49.8204 40.755ZM45.2447 40.7497L45.053 41.2114L45.0539 41.2118L45.2447 40.7497ZM43.7213 39.5511L43.3078 39.8323L43.31 39.8355L43.7213 39.5511ZM43.1513 37.5749V37.0749C43.0168 37.0749 42.8879 37.1292 42.7938 37.2254C42.6997 37.3216 42.6484 37.4517 42.6515 37.5862L43.1513 37.5749ZM45.3832 37.5749L45.8821 37.541C45.8642 37.2787 45.6462 37.0749 45.3832 37.0749V37.5749ZM45.6975 38.4911L45.2981 38.7921L45.3031 38.7985L45.6975 38.4911ZM46.4486 39.0398L46.2638 39.5044L46.2701 39.5069L46.4486 39.0398ZM48.5366 39.0504L48.3549 38.5846L48.3529 38.5854L48.5366 39.0504ZM49.2131 38.5764L49.6056 38.8862L49.6056 38.8862L49.2131 38.5764ZM49.2344 37.2607L48.8536 37.5847L48.8577 37.5894L49.2344 37.2607ZM48.6059 36.8345L48.4089 37.2941L48.4111 37.295L48.6059 36.8345ZM47.5991 36.5149L47.4774 36.9999L47.482 37.001L47.5991 36.5149ZM46.4113 36.2166L46.5331 35.7317L46.5295 35.7308L46.4113 36.2166ZM44.2327 35.1673L43.8996 35.5402L43.8996 35.5402L44.2327 35.1673ZM43.439 33.2443L43.939 33.2465L43.939 33.2416L43.439 33.2443ZM43.9663 31.5132L43.5618 31.2192L43.5604 31.2212L43.9663 31.5132ZM49.6925 30.3573L49.484 30.8117L49.485 30.8122L49.6925 30.3573ZM51.1094 31.5132L50.6966 31.7953L50.6966 31.7953L51.1094 31.5132ZM51.6315 33.2283V33.7283C51.7655 33.7283 51.8939 33.6745 51.9879 33.579C52.0819 33.4834 52.1336 33.3542 52.1314 33.2202L51.6315 33.2283ZM57 59H29.5V60H57V59ZM29.5 59C28.3961 59 27.5 58.1039 27.5 57H26.5C26.5 58.6562 27.8439 60 29.5 60V59ZM27.5 57V19.5H26.5V57H27.5ZM27.5 19.5C27.5 18.3961 28.3961 17.5 29.5 17.5V16.5C27.8439 16.5 26.5 17.8439 26.5 19.5H27.5ZM29.5 17.5H59.5V16.5H29.5V17.5ZM59.5 17.5C60.6039 17.5 61.5 18.3961 61.5 19.5H62.5C62.5 17.8439 61.1562 16.5 59.5 16.5V17.5ZM61.5 19.5V54.5H62.5V19.5H61.5ZM61.5 54.5C61.5 56.9864 59.4864 59 57 59V60C60.0387 60 62.5 57.5387 62.5 54.5H61.5ZM52.5 54.5C52.5 52.8439 51.1562 51.5 49.5 51.5V52.5C50.6039 52.5 51.5 53.3961 51.5 54.5H52.5ZM49.5 51.5H24.5V52.5H49.5V51.5ZM24.5 51.5C22.8439 51.5 21.5 52.8439 21.5 54.5H22.5C22.5 53.3961 23.3961 52.5 24.5 52.5V51.5ZM21.5 54.5C21.5 57.5386 23.9614 60 27 60V59C24.5136 59 22.5 56.9864 22.5 54.5H21.5ZM27 60L57 60L57 59L27 59L27 60ZM57 59C54.5137 59 52.5 56.9864 52.5 54.5H51.5C51.5 57.5386 53.9614 60 57 60V59ZM39.3161 30.5909H41.5959V29.5909H39.3161V30.5909ZM41.0959 30.0909V37.6975H42.0959V30.0909H41.0959ZM41.0959 37.6975C41.0959 38.3235 40.9561 38.8412 40.6949 39.2696L41.5488 39.7901C41.9198 39.1815 42.0959 38.4776 42.0959 37.6975H41.0959ZM40.6936 39.2717C40.4314 39.7068 40.0681 40.0422 39.5921 40.2817L40.0416 41.175C40.6806 40.8534 41.1873 40.3898 41.5501 39.788L40.6936 39.2717ZM39.5921 40.2817C39.116 40.5213 38.5474 40.6492 37.8726 40.6492V41.6492C38.675 41.6492 39.4026 41.4965 40.0416 41.175L39.5921 40.2817ZM37.8726 40.6492C37.2751 40.6492 36.7469 40.5444 36.2805 40.3437L35.8851 41.2622C36.4911 41.5231 37.1561 41.6492 37.8726 41.6492V40.6492ZM36.2842 40.3453C35.8378 40.1489 35.4913 39.8564 35.233 39.4631L34.3971 40.012C34.7638 40.5705 35.2625 40.9882 35.8814 41.2606L36.2842 40.3453ZM35.2339 39.4645C34.9874 39.0864 34.8484 38.5868 34.8516 37.9343L33.8516 37.9294C33.8477 38.7257 34.0177 39.43 34.3962 40.0106L35.2339 39.4645ZM34.3516 38.4318H36.6474V37.4318H34.3516V38.4318ZM36.1476 37.9442C36.1562 38.2921 36.2278 38.619 36.3822 38.9079L37.2642 38.4366C37.1984 38.3136 37.1529 38.1469 37.1473 37.9195L36.1476 37.9442ZM36.3872 38.917C36.544 39.1963 36.7631 39.4199 37.0411 39.5766L37.5321 38.7054C37.4195 38.6419 37.3297 38.553 37.2592 38.4275L36.3872 38.917ZM37.0505 39.5817C37.335 39.7341 37.6536 39.8008 37.9898 39.8008V38.8008C37.7862 38.8008 37.636 38.7609 37.5227 38.7003L37.0505 39.5817ZM37.9898 39.8008C38.3447 39.8008 38.6807 39.7249 38.9718 39.545L38.446 38.6944C38.3465 38.7559 38.203 38.8008 37.9898 38.8008V39.8008ZM38.9739 39.5437C39.2677 39.36 39.4817 39.0957 39.6205 38.775L38.7028 38.3777C38.6356 38.5329 38.5477 38.6308 38.4439 38.6957L38.9739 39.5437ZM39.6205 38.775C39.7582 38.4568 39.8161 38.0917 39.8161 37.6975H38.8161C38.8161 37.9993 38.771 38.22 38.7028 38.3777L39.6205 38.775ZM39.8161 37.6975V30.0909H38.8161V37.6975H39.8161ZM49.9184 33.179C49.863 32.6204 49.6153 32.1531 49.1687 31.8243L48.5758 32.6296C48.7755 32.7766 48.8935 32.9769 48.9233 33.2777L49.9184 33.179ZM49.1687 31.8243C48.7324 31.5031 48.1775 31.37 47.5565 31.37V32.37C48.0435 32.37 48.3658 32.475 48.5758 32.6296L49.1687 31.8243ZM47.5565 31.37C47.136 31.37 46.7494 31.4291 46.413 31.5674L46.7931 32.4923C46.9752 32.4175 47.2242 32.37 47.5565 32.37V31.37ZM46.4184 31.5652C46.0915 31.695 45.8107 31.8889 45.6065 32.1613L46.4065 32.7613C46.4792 32.6644 46.5961 32.5706 46.7876 32.4945L46.4184 31.5652ZM45.6028 32.1663C45.4036 32.4388 45.304 32.7522 45.304 33.0899H46.304C46.304 32.9587 46.3394 32.8531 46.4101 32.7563L45.6028 32.1663ZM45.3044 33.0717C45.2942 33.3502 45.3527 33.6205 45.4997 33.8615L46.3534 33.3409C46.3229 33.2907 46.2996 33.2201 46.3037 33.108L45.3044 33.0717ZM45.5043 33.869C45.6381 34.08 45.8161 34.2546 46.0274 34.3954L46.5821 33.5634C46.4738 33.4912 46.3997 33.4136 46.3488 33.3334L45.5043 33.869ZM46.0339 34.3997C46.2287 34.5252 46.4466 34.631 46.684 34.7196L47.0334 33.7826C46.8519 33.7149 46.7004 33.6396 46.5756 33.5591L46.0339 34.3997ZM46.6911 34.7221C46.9214 34.8041 47.1648 34.8735 47.4207 34.9308L47.6391 33.9549C47.4191 33.9057 47.2151 33.8472 47.0264 33.78L46.6911 34.7221ZM47.4136 34.9291L48.3937 35.1635L48.6263 34.1909L47.6462 33.9565L47.4136 34.9291ZM48.4008 35.1651C48.8479 35.2652 49.2526 35.3974 49.6165 35.5599L50.0242 34.6468C49.5927 34.4542 49.1238 34.3022 48.6192 34.1893L48.4008 35.1651ZM49.6165 35.5599C49.9728 35.719 50.2727 35.9106 50.5213 36.132L51.1862 35.3851C50.8525 35.088 50.4634 34.8428 50.0242 34.6468L49.6165 35.5599ZM50.5213 36.132C50.7609 36.3453 50.9444 36.5942 51.0751 36.8816L51.9854 36.4678C51.7965 36.0522 51.529 35.6902 51.1862 35.3851L50.5213 36.132ZM51.0768 36.8854C51.2053 37.1619 51.2775 37.4925 51.2806 37.8878L52.2806 37.88C52.2766 37.3662 52.1819 36.8906 51.9837 36.464L51.0768 36.8854ZM51.2806 37.8812C51.2775 38.4612 51.131 38.9394 50.8574 39.3369L51.6811 39.9039C52.0821 39.3213 52.2766 38.6418 52.2806 37.8865L51.2806 37.8812ZM50.857 39.3375C50.5852 39.7335 50.1835 40.0563 49.624 40.2951L50.0167 41.2148C50.7215 40.9139 51.2856 40.4803 51.6815 39.9033L50.857 39.3375ZM49.6253 40.2946C49.074 40.5282 48.3859 40.6545 47.5459 40.6545V41.6545C48.4815 41.6545 49.3097 41.5144 50.0154 41.2154L49.6253 40.2946ZM47.5459 40.6545C46.7151 40.6545 46.0156 40.5271 45.4356 40.2875L45.0539 41.2118C45.7807 41.512 46.6153 41.6545 47.5459 41.6545V40.6545ZM45.4365 40.2879C44.8667 40.0512 44.4386 39.7096 44.1326 39.2668L43.31 39.8355C43.7355 40.451 44.3231 40.9083 45.053 41.2114L45.4365 40.2879ZM44.1348 39.27C43.8376 38.833 43.6673 38.2733 43.6512 37.5636L42.6515 37.5862C42.6709 38.4462 42.8806 39.204 43.3078 39.8323L44.1348 39.27ZM43.1513 38.0749H45.3832V37.0749H43.1513V38.0749ZM44.8844 37.6088C44.9145 38.0523 45.0446 38.4556 45.2982 38.7921L46.0968 38.1902C45.9811 38.0367 45.9017 37.8292 45.8821 37.541L44.8844 37.6088ZM45.3031 38.7985C45.5513 39.1169 45.8771 39.3506 46.2638 39.5044L46.6334 38.5752C46.3951 38.4804 46.2201 38.3484 46.0919 38.1838L45.3031 38.7985ZM46.2701 39.5069C46.6522 39.6528 47.071 39.7209 47.5192 39.7209V38.7209C47.172 38.7209 46.877 38.6682 46.627 38.5727L46.2701 39.5069ZM47.5192 39.7209C47.9569 39.7209 48.3611 39.6574 48.7204 39.5155L48.3529 38.5854C48.1369 38.6707 47.8629 38.7209 47.5192 38.7209V39.7209ZM48.7184 39.5162C49.0749 39.3771 49.3801 39.1718 49.6056 38.8862L48.8207 38.2665C48.7266 38.3857 48.5808 38.4965 48.3549 38.5846L48.7184 39.5162ZM49.6056 38.8862C49.8365 38.5937 49.9528 38.2515 49.9528 37.8786H48.9528C48.9528 38.0312 48.9094 38.1542 48.8207 38.2665L49.6056 38.8862ZM49.9528 37.8786C49.9528 37.5265 49.8449 37.1998 49.6112 36.932L48.8577 37.5894C48.9152 37.6553 48.9528 37.7406 48.9528 37.8786H49.9528ZM49.6152 36.9366C49.4074 36.6925 49.1242 36.5109 48.8007 36.374L48.4111 37.295C48.6416 37.3925 48.7773 37.495 48.8537 37.5847L49.6152 36.9366ZM48.8028 36.375C48.4961 36.2435 48.132 36.1291 47.7163 36.0289L47.482 37.001C47.8617 37.0926 48.1688 37.1912 48.4089 37.2941L48.8028 36.375ZM47.7209 36.03L46.5331 35.7317L46.2895 36.7016L47.4774 36.9999L47.7209 36.03ZM46.5295 35.7308C45.6646 35.5204 45.0205 35.2006 44.5658 34.7944L43.8996 35.5402C44.5102 36.0856 45.3185 36.4654 46.2931 36.7025L46.5295 35.7308ZM44.5658 34.7944C44.1542 34.4268 43.936 33.93 43.939 33.2465L42.939 33.2421C42.9349 34.1709 43.2457 34.9561 43.8996 35.5402L44.5658 34.7944ZM43.939 33.2416C43.9359 32.6772 44.0842 32.2055 44.3722 31.8051L43.5604 31.2212C43.1382 31.8081 42.9349 32.4904 42.939 33.247L43.939 33.2416ZM44.3708 31.8071C44.6717 31.393 45.09 31.0601 45.6444 30.8144L45.2392 29.9001C44.5436 30.2084 43.9783 30.6461 43.5618 31.2192L44.3708 31.8071ZM45.6444 30.8144C46.196 30.5699 46.8355 30.4418 47.5725 30.4418V29.4418C46.7186 29.4418 45.9376 29.5906 45.2392 29.9001L45.6444 30.8144ZM47.5725 30.4418C48.3256 30.4418 48.9585 30.5706 49.484 30.8117L49.901 29.9028C49.2192 29.59 48.4387 29.4418 47.5725 29.4418V30.4418ZM49.485 30.8122C50.0193 31.0559 50.4165 31.3854 50.6966 31.7953L51.5222 31.231C51.1277 30.6537 50.5803 30.2126 49.9 29.9023L49.485 30.8122ZM50.6966 31.7953C50.9739 32.201 51.1223 32.6757 51.1315 33.2365L52.1314 33.2202C52.1193 32.4813 51.9196 31.8125 51.5222 31.231L50.6966 31.7953ZM51.6315 32.7283H49.4209V33.7283H51.6315V32.7283Z" fill="white" mask="url(#path-3-outside-1_116_4909)"/>
</g>
<rect x="5" y="1" width="73" height="73" rx="9" stroke="#0078D4" stroke-width="2" stroke-linejoin="round" stroke-dasharray="2 2" shape-rendering="crispEdges"/>
</g>
<defs>
<filter id="filter0_bd_116_4909" x="0" y="-4" width="83" height="87" filterUnits="userSpaceOnUse" color-interpolation-filters="sRGB">
<feFlood flood-opacity="0" result="BackgroundImageFix"/>
<feGaussianBlur in="BackgroundImageFix" stdDeviation="2"/>
<feComposite in2="SourceAlpha" operator="in" result="effect1_backgroundBlur_116_4909"/>
<feColorMatrix in="SourceAlpha" type="matrix" values="0 0 0 0 0 0 0 0 0 0 0 0 0 0 0 0 0 0 127 0" result="hardAlpha"/>
<feOffset dy="4"/>
<feGaussianBlur stdDeviation="2"/>
<feComposite in2="hardAlpha" operator="out"/>
<feColorMatrix type="matrix" values="0 0 0 0 1 0 0 0 0 1 0 0 0 0 1 0 0 0 0.5 0"/>
<feBlend mode="normal" in2="effect1_backgroundBlur_116_4909" result="effect2_dropShadow_116_4909"/>
<feBlend mode="normal" in="SourceGraphic" in2="effect2_dropShadow_116_4909" result="shape"/>
</filter>
<linearGradient id="paint0_linear_116_4909" x1="41.5" y1="0" x2="41.5" y2="75" gradientUnits="userSpaceOnUse">
<stop offset="0.126736" stop-color="#F2F2F2"/>
<stop offset="0.918403" stop-color="#88B0CE"/>
<stop offset="1" stop-color="white" stop-opacity="0.9"/>
</linearGradient>
<linearGradient id="paint1_linear_116_4909" x1="24.0571" y1="17.29" x2="52.7889" y2="61.1254" gradientUnits="userSpaceOnUse">
<stop stop-color="#A8E1F3"/>
<stop offset="0.754" stop-color="#5EBCD9"/>
<stop offset="1" stop-color="#45B0D0"/>
</linearGradient>
<linearGradient id="paint2_linear_116_4909" x1="42" y1="19.4225" x2="42" y2="59.585" gradientUnits="userSpaceOnUse">
<stop stop-color="#0176D0"/>
<stop offset="1" stop-color="#16538C"/>
</linearGradient>
</defs>
</svg>
