<svg width="83" height="83" viewBox="0 0 83 83" fill="none" xmlns="http://www.w3.org/2000/svg">
<g id="presentation" filter="url(#filter0_bd_71_3406)">
<rect x="4" width="75" height="75" rx="10" fill="white" shape-rendering="crispEdges"/>
<rect x="4" width="75" height="75" rx="10" fill="url(#paint0_linear_71_3406)" fill-opacity="0.2" shape-rendering="crispEdges"/>
<g id="Group">
<path id="Vector" d="M64.4592 18.5586H18.5408V50.7015H64.4592V18.5586Z" fill="url(#paint1_linear_71_3406)"/>
<path id="Vector_2" d="M40.3521 50.7014H42.648V57.5892H40.3521V50.7014Z" fill="#64717C"/>
<path id="Vector_3" d="M64.4592 19.7066H18.5408C17.9071 19.7066 17.3929 19.1923 17.3929 18.5586V16.2627C17.3929 15.629 17.9071 15.1147 18.5408 15.1147H64.4592C65.0929 15.1147 65.6071 15.629 65.6071 16.2627V18.5586C65.6071 19.1923 65.0929 19.7066 64.4592 19.7066Z" fill="#35C1F1"/>
<path id="Vector_4" d="M64.4592 49.5535H18.5408V51.8494H64.4592V49.5535Z" fill="#35C1F1"/>
<path id="Vector_5" d="M39.2041 57.5894C39.2041 58.8567 40.2327 59.8853 41.5 59.8853C42.7673 59.8853 43.7959 58.8567 43.7959 57.5894C43.7959 56.322 42.7673 55.2935 41.5 55.2935C40.2327 55.2935 39.2041 56.322 39.2041 57.5894Z" fill="#ABB4BE"/>
<path id="Vector_6" d="M31.1684 26.5942C26.7304 26.5942 23.1327 30.1919 23.1327 34.63C23.1327 39.068 26.7304 42.6657 31.1684 42.6657C35.6064 42.6657 39.2041 39.068 39.2041 34.63H31.1684V26.5942Z" fill="white"/>
<path id="Vector_7" d="M33.4643 24.2983V32.3341H41.5C41.5 27.896 37.9023 24.2983 33.4643 24.2983Z" fill="white"/>
<path id="Vector_8" d="M59.2934 27.7422H46.6658C46.349 27.7422 46.0918 27.4851 46.0918 27.1682V26.0203C46.0918 25.7034 46.349 25.4463 46.6658 25.4463H59.2934C59.6102 25.4463 59.8673 25.7034 59.8673 26.0203V27.1682C59.8673 27.4851 59.6102 27.7422 59.2934 27.7422Z" fill="white"/>
<path id="Vector_9" d="M56.9974 30.0383H46.6658C46.349 30.0383 46.0918 30.2955 46.0918 30.6123V31.7603C46.0918 32.0771 46.349 32.3342 46.6658 32.3342H56.9974C57.3143 32.3342 57.5714 32.0771 57.5714 31.7603V30.6123C57.5714 30.2955 57.3143 30.0383 56.9974 30.0383Z" fill="white"/>
<path id="Vector_10" d="M59.2934 34.6301H46.6658C46.349 34.6301 46.0918 34.8873 46.0918 35.2041V36.3521C46.0918 36.6689 46.349 36.926 46.6658 36.926H59.2934C59.6102 36.926 59.8673 36.6689 59.8673 36.3521V35.2041C59.8673 34.8873 59.6102 34.6301 59.2934 34.6301Z" fill="white"/>
<path id="Vector_11" d="M56.9974 39.2219H46.6658C46.349 39.2219 46.0918 39.4791 46.0918 39.7959V40.9439C46.0918 41.2607 46.349 41.5178 46.6658 41.5178H56.9974C57.3143 41.5178 57.5714 41.2607 57.5714 40.9439V39.7959C57.5714 39.4791 57.3143 39.2219 56.9974 39.2219Z" fill="white"/>
<path id="Vector_12" d="M64.4592 51.8494C65.0932 51.8494 65.6071 51.3354 65.6071 50.7014C65.6071 50.0674 65.0932 49.5535 64.4592 49.5535C63.8252 49.5535 63.3112 50.0674 63.3112 50.7014C63.3112 51.3354 63.8252 51.8494 64.4592 51.8494Z" fill="#35C1F1"/>
<path id="Vector_13" d="M18.5408 51.8494C19.1748 51.8494 19.6888 51.3354 19.6888 50.7014C19.6888 50.0674 19.1748 49.5535 18.5408 49.5535C17.9068 49.5535 17.3929 50.0674 17.3929 50.7014C17.3929 51.3354 17.9068 51.8494 18.5408 51.8494Z" fill="#35C1F1"/>
</g>
<rect x="5" y="1" width="73" height="73" rx="9" stroke="#99B4C8" stroke-width="2" stroke-linejoin="round" stroke-dasharray="2 2" shape-rendering="crispEdges"/>
</g>
<defs>
<filter id="filter0_bd_71_3406" x="0" y="-4" width="83" height="87" filterUnits="userSpaceOnUse" color-interpolation-filters="sRGB">
<feFlood flood-opacity="0" result="BackgroundImageFix"/>
<feGaussianBlur in="BackgroundImageFix" stdDeviation="2"/>
<feComposite in2="SourceAlpha" operator="in" result="effect1_backgroundBlur_71_3406"/>
<feColorMatrix in="SourceAlpha" type="matrix" values="0 0 0 0 0 0 0 0 0 0 0 0 0 0 0 0 0 0 127 0" result="hardAlpha"/>
<feOffset dy="4"/>
<feGaussianBlur stdDeviation="2"/>
<feComposite in2="hardAlpha" operator="out"/>
<feColorMatrix type="matrix" values="0 0 0 0 1 0 0 0 0 1 0 0 0 0 1 0 0 0 0.5 0"/>
<feBlend mode="normal" in2="effect1_backgroundBlur_71_3406" result="effect2_dropShadow_71_3406"/>
<feBlend mode="normal" in="SourceGraphic" in2="effect2_dropShadow_71_3406" result="shape"/>
</filter>
<linearGradient id="paint0_linear_71_3406" x1="41.5" y1="0" x2="41.5" y2="75" gradientUnits="userSpaceOnUse">
<stop offset="0.126736" stop-color="#F2F2F2"/>
<stop offset="0.918403" stop-color="#88B0CE"/>
<stop offset="1" stop-color="white" stop-opacity="0.9"/>
</linearGradient>
<linearGradient id="paint1_linear_71_3406" x1="41.5" y1="18.5586" x2="140" y2="98" gradientUnits="userSpaceOnUse">
<stop stop-color="#0A85D9"/>
<stop offset="1" stop-color="#0A85D9" stop-opacity="0"/>
</linearGradient>
</defs>
</svg>
