<svg width="83" height="83" viewBox="0 0 83 83" fill="none" xmlns="http://www.w3.org/2000/svg">
<g id="print" filter="url(#filter0_bd_71_3420)">
<rect x="4" width="75" height="75" rx="10" fill="white" shape-rendering="crispEdges"/>
<rect x="4" width="75" height="75" rx="10" fill="url(#paint0_linear_71_3420)" fill-opacity="0.2" shape-rendering="crispEdges"/>
<g id="Group">
<path id="Vector" d="M63.1964 56.7858H19.8036C18.4777 56.7858 17.3929 55.701 17.3929 54.3751V29.0626C17.3929 27.7367 18.4777 26.6519 19.8036 26.6519H63.1964C64.5223 26.6519 65.6071 27.7367 65.6071 29.0626V54.3751C65.6071 55.701 64.5223 56.7858 63.1964 56.7858Z" fill="url(#paint1_linear_71_3420)"/>
<path id="Vector_2" d="M58.9777 48.3482H24.0223C23.0243 48.3482 22.2143 47.5382 22.2143 46.5402C22.2143 45.5422 23.0243 44.7322 24.0223 44.7322H58.9777C59.9757 44.7322 60.7857 45.5422 60.7857 46.5402C60.7857 47.5382 59.9757 48.3482 58.9777 48.3482Z" fill="#252525"/>
<path id="Vector_3" d="M54.7589 60.4018H28.2411C26.9091 60.4018 25.8304 59.323 25.8304 57.991V47.1428H57.1696V57.991C57.1696 59.323 56.0908 60.4018 54.7589 60.4018Z" fill="#50E6FF"/>
<path id="Vector_4" d="M60.7857 26.6518H22.2143V21.8304C22.2143 21.165 22.7543 20.625 23.4197 20.625H59.5804C60.2457 20.625 60.7857 21.165 60.7857 21.8304V26.6518Z" fill="#0076D7"/>
<path id="Vector_5" d="M28.2411 14.5981H54.7589C56.0908 14.5981 57.1696 15.6769 57.1696 17.0089V26.6517H25.8304V17.0089C25.8304 15.6769 26.9091 14.5981 28.2411 14.5981Z" fill="#50E6FF"/>
<path id="Vector_6" d="M57.1696 44.7322H25.8304V47.1429H57.1696V44.7322Z" fill="#199AE0"/>
<path id="Vector_7" d="M58.3244 37.5289C59.6558 37.5289 60.7351 36.4496 60.7351 35.1182C60.7351 33.7868 59.6558 32.7075 58.3244 32.7075C56.993 32.7075 55.9137 33.7868 55.9137 35.1182C55.9137 36.4496 56.993 37.5289 58.3244 37.5289Z" fill="#EEF2F3"/>
<path id="Vector_8" d="M58.375 36.2945C59.0407 36.2945 59.5804 35.7548 59.5804 35.0891C59.5804 34.4234 59.0407 33.8838 58.375 33.8838C57.7093 33.8838 57.1696 34.4234 57.1696 35.0891C57.1696 35.7548 57.7093 36.2945 58.375 36.2945Z" fill="url(#paint2_linear_71_3420)"/>
</g>
<rect x="5" y="1" width="73" height="73" rx="9" stroke="#0078D4" stroke-width="2" stroke-linejoin="round" stroke-dasharray="2 2" shape-rendering="crispEdges"/>
</g>
<defs>
<filter id="filter0_bd_71_3420" x="0" y="-4" width="83" height="87" filterUnits="userSpaceOnUse" color-interpolation-filters="sRGB">
<feFlood flood-opacity="0" result="BackgroundImageFix"/>
<feGaussianBlur in="BackgroundImageFix" stdDeviation="2"/>
<feComposite in2="SourceAlpha" operator="in" result="effect1_backgroundBlur_71_3420"/>
<feColorMatrix in="SourceAlpha" type="matrix" values="0 0 0 0 0 0 0 0 0 0 0 0 0 0 0 0 0 0 127 0" result="hardAlpha"/>
<feOffset dy="4"/>
<feGaussianBlur stdDeviation="2"/>
<feComposite in2="hardAlpha" operator="out"/>
<feColorMatrix type="matrix" values="0 0 0 0 1 0 0 0 0 1 0 0 0 0 1 0 0 0 0.5 0"/>
<feBlend mode="normal" in2="effect1_backgroundBlur_71_3420" result="effect2_dropShadow_71_3420"/>
<feBlend mode="normal" in="SourceGraphic" in2="effect2_dropShadow_71_3420" result="shape"/>
</filter>
<linearGradient id="paint0_linear_71_3420" x1="41.5" y1="0" x2="41.5" y2="75" gradientUnits="userSpaceOnUse">
<stop offset="0.126736" stop-color="#F2F2F2"/>
<stop offset="0.918403" stop-color="#88B0CE"/>
<stop offset="1" stop-color="white" stop-opacity="0.9"/>
</linearGradient>
<linearGradient id="paint1_linear_71_3420" x1="41.5" y1="26.3915" x2="41.5" y2="56.6653" gradientUnits="userSpaceOnUse">
<stop offset="0.9" stop-color="#6D7882"/>
<stop offset="0.917" stop-color="#45494D"/>
</linearGradient>
<linearGradient id="paint2_linear_71_3420" x1="57.5614" y1="34.2767" x2="59.355" y2="36.0703" gradientUnits="userSpaceOnUse">
<stop stop-color="#32BDEF"/>
<stop offset="1" stop-color="#1EA2E4"/>
</linearGradient>
</defs>
</svg>
