<svg width="83" height="83" viewBox="0 0 83 83" fill="none" xmlns="http://www.w3.org/2000/svg">
<g id="text" filter="url(#filter0_bd_71_4456)">
<rect x="4" width="75" height="75" rx="10" fill="white" shape-rendering="crispEdges"/>
<rect x="4" width="75" height="75" rx="10" fill="url(#paint0_linear_71_4456)" fill-opacity="0.2" shape-rendering="crispEdges"/>
<path id="Vector" d="M59.5804 13.3928H23.4197C22.7543 13.3928 22.2143 13.9328 22.2143 14.5982V25.4464C22.2143 26.1118 22.7543 26.6518 23.4197 26.6518H25.0143C25.5073 26.6518 25.9509 26.3516 26.1329 25.8936L28.2411 20.625H36.6786V55.5803L31.41 57.6885C30.9519 57.8705 30.6518 58.3141 30.6518 58.8071V60.4017C30.6518 61.0671 31.1918 61.6071 31.8572 61.6071H51.1429C51.8082 61.6071 52.3482 61.0671 52.3482 60.4017V58.8071C52.3482 58.3141 52.0481 57.8705 51.5901 57.6885L46.3214 55.5803V20.625H54.7589L56.8659 25.8936C57.0491 26.3516 57.4927 26.6518 57.9857 26.6518H59.5804C60.2457 26.6518 60.7857 26.1118 60.7857 25.4464V14.5982C60.7857 13.9328 60.2457 13.3928 59.5804 13.3928Z" fill="#0A85D9"/>
<rect x="5" y="1" width="73" height="73" rx="9" stroke="#0078D4" stroke-width="2" stroke-linejoin="round" stroke-dasharray="2 2" shape-rendering="crispEdges"/>
</g>
<defs>
<filter id="filter0_bd_71_4456" x="0" y="-4" width="83" height="87" filterUnits="userSpaceOnUse" color-interpolation-filters="sRGB">
<feFlood flood-opacity="0" result="BackgroundImageFix"/>
<feGaussianBlur in="BackgroundImageFix" stdDeviation="2"/>
<feComposite in2="SourceAlpha" operator="in" result="effect1_backgroundBlur_71_4456"/>
<feColorMatrix in="SourceAlpha" type="matrix" values="0 0 0 0 0 0 0 0 0 0 0 0 0 0 0 0 0 0 127 0" result="hardAlpha"/>
<feOffset dy="4"/>
<feGaussianBlur stdDeviation="2"/>
<feComposite in2="hardAlpha" operator="out"/>
<feColorMatrix type="matrix" values="0 0 0 0 1 0 0 0 0 1 0 0 0 0 1 0 0 0 0.5 0"/>
<feBlend mode="normal" in2="effect1_backgroundBlur_71_4456" result="effect2_dropShadow_71_4456"/>
<feBlend mode="normal" in="SourceGraphic" in2="effect2_dropShadow_71_4456" result="shape"/>
</filter>
<linearGradient id="paint0_linear_71_4456" x1="41.5" y1="0" x2="41.5" y2="75" gradientUnits="userSpaceOnUse">
<stop offset="0.126736" stop-color="#F2F2F2"/>
<stop offset="0.918403" stop-color="#88B0CE"/>
<stop offset="1" stop-color="white" stop-opacity="0.9"/>
</linearGradient>
</defs>
</svg>
