<svg width="83" height="83" viewBox="0 0 83 83" fill="none" xmlns="http://www.w3.org/2000/svg">
<g id="unknown" filter="url(#filter0_bd_71_3585)">
<rect x="4" width="75" height="75" rx="10" fill="white" shape-rendering="crispEdges"/>
<rect x="4" width="75" height="75" rx="10" fill="url(#paint0_linear_71_3585)" fill-opacity="0.2" shape-rendering="crispEdges"/>
<g id="Group">
<path id="Vector" d="M39.8896 52.0269C37.3741 52.0269 34.4897 53.6071 34.4897 56.788C34.4897 59.9689 37.2632 61.607 39.8896 61.607C42.5161 61.607 45.2029 60.1377 45.2029 56.788C45.2029 53.4371 42.4052 52.0269 39.8896 52.0269Z" fill="url(#paint1_linear_71_3585)"/>
<path id="Vector_2" d="M40.1801 13.3928C34.9983 13.3928 30.9929 15.1068 28.9016 16.2688C28.4882 16.499 28.2411 16.9269 28.2411 17.3994C28.2411 18.9146 28.2411 22.3968 28.2411 24.5616C28.2411 25.2861 29.0656 25.7079 29.6477 25.2764C31.7053 23.748 35.0477 21.8303 39.0893 21.8303C39.8523 21.8303 44.0927 21.993 44.0927 26.307C44.0927 33.1582 34.5825 33.5138 34.5825 42.7517C34.5825 43.9257 34.9513 45.6963 35.155 46.5883C35.2297 46.9137 35.5142 47.1428 35.8505 47.1428C37.2065 47.1428 40.6791 47.1428 42.5667 47.1428C43.1658 47.1428 43.5744 46.5449 43.3562 45.9868C43.0959 45.3191 42.8512 44.4693 42.8512 43.6737C42.8524 36.6598 54.7589 35.7184 54.7589 25.4464C54.7589 23.4105 53.9682 13.3928 40.1801 13.3928Z" fill="url(#paint2_linear_71_3585)"/>
</g>
<rect x="5" y="1" width="73" height="73" rx="9" stroke="#0078D4" stroke-width="2" stroke-linejoin="round" stroke-dasharray="2 2" shape-rendering="crispEdges"/>
</g>
<defs>
<filter id="filter0_bd_71_3585" x="0" y="-4" width="83" height="87" filterUnits="userSpaceOnUse" color-interpolation-filters="sRGB">
<feFlood flood-opacity="0" result="BackgroundImageFix"/>
<feGaussianBlur in="BackgroundImageFix" stdDeviation="2"/>
<feComposite in2="SourceAlpha" operator="in" result="effect1_backgroundBlur_71_3585"/>
<feColorMatrix in="SourceAlpha" type="matrix" values="0 0 0 0 0 0 0 0 0 0 0 0 0 0 0 0 0 0 127 0" result="hardAlpha"/>
<feOffset dy="4"/>
<feGaussianBlur stdDeviation="2"/>
<feComposite in2="hardAlpha" operator="out"/>
<feColorMatrix type="matrix" values="0 0 0 0 1 0 0 0 0 1 0 0 0 0 1 0 0 0 0.5 0"/>
<feBlend mode="normal" in2="effect1_backgroundBlur_71_3585" result="effect2_dropShadow_71_3585"/>
<feBlend mode="normal" in="SourceGraphic" in2="effect2_dropShadow_71_3585" result="shape"/>
</filter>
<linearGradient id="paint0_linear_71_3585" x1="41.5" y1="0" x2="41.5" y2="75" gradientUnits="userSpaceOnUse">
<stop offset="0.126736" stop-color="#F2F2F2"/>
<stop offset="0.918403" stop-color="#88B0CE"/>
<stop offset="1" stop-color="white" stop-opacity="0.9"/>
</linearGradient>
<linearGradient id="paint1_linear_71_3585" x1="25.4567" y1="17.0354" x2="42.3522" y2="63.6814" gradientUnits="userSpaceOnUse">
<stop stop-color="#33BEF0"/>
<stop offset="1" stop-color="#0A85D9"/>
</linearGradient>
<linearGradient id="paint2_linear_71_3585" x1="36.9438" y1="12.8745" x2="53.8392" y2="59.5205" gradientUnits="userSpaceOnUse">
<stop stop-color="#33BEF0"/>
<stop offset="1" stop-color="#0A85D9"/>
</linearGradient>
</defs>
</svg>
