<svg width="83" height="83" viewBox="0 0 83 83" fill="none" xmlns="http://www.w3.org/2000/svg">
<g id="change-theme" filter="url(#filter0_bd_71_1430)">
<rect x="4" width="75" height="75" rx="10" fill="white" shape-rendering="crispEdges"/>
<rect x="4" width="75" height="75" rx="10" fill="url(#paint0_linear_71_1430)" fill-opacity="0.2" shape-rendering="crispEdges"/>
<g id="Group">
<path id="Vector" d="M17.3929 19.7368H50.3816V42.5752H19.9305C18.5285 42.5752 17.3929 41.4396 17.3929 40.0376V19.7368Z" fill="url(#paint1_linear_71_1430)"/>
<path id="Vector_2" d="M50.3816 19.7368V17.1992C50.3816 15.7972 49.246 14.6617 47.844 14.6617H19.9305C18.5285 14.6617 17.3929 15.7972 17.3929 17.1992V19.7368H50.3816Z" fill="url(#paint2_linear_71_1430)"/>
<path id="Vector_3" d="M30.0809 36.2312H23.7369C23.0365 36.2312 22.4681 35.6628 22.4681 34.9624V27.3496C22.4681 26.6492 23.0365 26.0808 23.7369 26.0808H30.0809C30.7812 26.0808 31.3497 26.6492 31.3497 27.3496V34.9624C31.3497 35.6628 30.7812 36.2312 30.0809 36.2312Z" fill="url(#paint3_linear_71_1430)"/>
<path id="Vector_4" d="M44.0376 36.2312H37.6937C36.9933 36.2312 36.4249 35.6628 36.4249 34.9624V27.3496C36.4249 26.6492 36.9933 26.0808 37.6937 26.0808H44.0376C44.738 26.0808 45.3064 26.6492 45.3064 27.3496V34.9624C45.3064 35.6628 44.738 36.2312 44.0376 36.2312Z" fill="url(#paint4_linear_71_1430)"/>
<path id="Vector_5" opacity="0.05" d="M50.3816 42.5752V31.156H35.1561C33.0575 31.156 31.3497 32.8638 31.3497 34.9624V42.5752H50.3816Z" fill="black"/>
<path id="Vector_6" opacity="0.07" d="M50.3816 42.5752V31.7904H35.1561C33.4077 31.7904 31.9841 33.214 31.9841 34.9624V42.5752H50.3816Z" fill="black"/>
<path id="Vector_7" d="M32.6185 37.5H65.6072V57.8008C65.6072 59.2028 64.4716 60.3383 63.0696 60.3383H35.1561C33.754 60.3383 32.6185 59.2028 32.6185 57.8008V37.5Z" fill="url(#paint5_linear_71_1430)"/>
<path id="Vector_8" d="M65.6072 37.5V34.9624C65.6072 33.5604 64.4716 32.4248 63.0696 32.4248H35.1561C33.754 32.4248 32.6185 33.5604 32.6185 34.9624V37.5H65.6072Z" fill="url(#paint6_linear_71_1430)"/>
<g id="Group_2">
<path id="Vector_9" d="M45.3064 53.9944H38.9625C38.2621 53.9944 37.6937 53.4259 37.6937 52.7256V45.1128C37.6937 44.4124 38.2621 43.844 38.9625 43.844H45.3064C46.0068 43.844 46.5752 44.4124 46.5752 45.1128V52.7256C46.5752 53.4259 46.0068 53.9944 45.3064 53.9944Z" fill="url(#paint7_linear_71_1430)"/>
<path id="Vector_10" d="M59.2632 53.9944H52.9192C52.2189 53.9944 51.6505 53.4259 51.6505 52.7256V45.1128C51.6505 44.4124 52.2189 43.844 52.9192 43.844H59.2632C59.9636 43.844 60.532 44.4124 60.532 45.1128V52.7256C60.532 53.4259 59.9636 53.9944 59.2632 53.9944Z" fill="url(#paint8_linear_71_1430)"/>
</g>
</g>
<rect x="5" y="1" width="73" height="73" rx="9" stroke="#0078D4" stroke-width="2" stroke-linejoin="round" stroke-dasharray="2 2" shape-rendering="crispEdges"/>
</g>
<defs>
<filter id="filter0_bd_71_1430" x="0" y="-4" width="83" height="87" filterUnits="userSpaceOnUse" color-interpolation-filters="sRGB">
<feFlood flood-opacity="0" result="BackgroundImageFix"/>
<feGaussianBlur in="BackgroundImageFix" stdDeviation="2"/>
<feComposite in2="SourceAlpha" operator="in" result="effect1_backgroundBlur_71_1430"/>
<feColorMatrix in="SourceAlpha" type="matrix" values="0 0 0 0 0 0 0 0 0 0 0 0 0 0 0 0 0 0 127 0" result="hardAlpha"/>
<feOffset dy="4"/>
<feGaussianBlur stdDeviation="2"/>
<feComposite in2="hardAlpha" operator="out"/>
<feColorMatrix type="matrix" values="0 0 0 0 1 0 0 0 0 1 0 0 0 0 1 0 0 0 0.5 0"/>
<feBlend mode="normal" in2="effect1_backgroundBlur_71_1430" result="effect2_dropShadow_71_1430"/>
<feBlend mode="normal" in="SourceGraphic" in2="effect2_dropShadow_71_1430" result="shape"/>
</filter>
<linearGradient id="paint0_linear_71_1430" x1="41.5" y1="0" x2="41.5" y2="75" gradientUnits="userSpaceOnUse">
<stop offset="0.126736" stop-color="#F2F2F2"/>
<stop offset="0.918403" stop-color="#88B0CE"/>
<stop offset="1" stop-color="white" stop-opacity="0.9"/>
</linearGradient>
<linearGradient id="paint1_linear_71_1430" x1="20.9366" y1="17.4619" x2="40.9494" y2="37.4746" gradientUnits="userSpaceOnUse">
<stop stop-color="#7DD8F3"/>
<stop offset="1" stop-color="#45B0D0"/>
</linearGradient>
<linearGradient id="paint2_linear_71_1430" x1="17.3929" y1="17.1992" x2="50.3816" y2="17.1992" gradientUnits="userSpaceOnUse">
<stop stop-color="#0077D2"/>
<stop offset="1" stop-color="#0B59A2"/>
</linearGradient>
<linearGradient id="paint3_linear_71_1430" x1="26.9089" y1="26.0808" x2="26.9089" y2="38.0557" gradientUnits="userSpaceOnUse">
<stop stop-color="#199AE0"/>
<stop offset="1" stop-color="#0782D8"/>
</linearGradient>
<linearGradient id="paint4_linear_71_1430" x1="40.8657" y1="26.0808" x2="40.8657" y2="38.0557" gradientUnits="userSpaceOnUse">
<stop stop-color="#199AE0"/>
<stop offset="1" stop-color="#0782D8"/>
</linearGradient>
<linearGradient id="paint5_linear_71_1430" x1="32.6185" y1="48.9192" x2="65.6072" y2="48.9192" gradientUnits="userSpaceOnUse">
<stop stop-color="#9DFFCE"/>
<stop offset="1" stop-color="#50D18D"/>
</linearGradient>
<linearGradient id="paint6_linear_71_1430" x1="32.6185" y1="34.9624" x2="65.6072" y2="34.9624" gradientUnits="userSpaceOnUse">
<stop stop-color="#21AD64"/>
<stop offset="1" stop-color="#088242"/>
</linearGradient>
<linearGradient id="paint7_linear_71_1430" x1="37.6937" y1="48.9192" x2="46.5752" y2="48.9192" gradientUnits="userSpaceOnUse">
<stop offset="0.824" stop-color="#135D36"/>
<stop offset="0.931" stop-color="#125933"/>
<stop offset="1" stop-color="#11522F"/>
</linearGradient>
<linearGradient id="paint8_linear_71_1430" x1="51.6505" y1="48.9192" x2="60.532" y2="48.9192" gradientUnits="userSpaceOnUse">
<stop offset="0.824" stop-color="#135D36"/>
<stop offset="0.931" stop-color="#125933"/>
<stop offset="1" stop-color="#11522F"/>
</linearGradient>
</defs>
</svg>
