<svg width="195" height="195" viewBox="0 0 195 195" fill="none" xmlns="http://www.w3.org/2000/svg">
<g id="icon=icon-blank">
<g id="icon-blank">
<g id="icon-blank_2">
<g id="sms">
<g id="Group 3" filter="url(#filter0_bd_86_3427)">
<path id="Vector" d="M105.34 138.099H47.5V153.631C47.5 157.922 50.9505 161.398 55.2112 161.398H97.6277C101.888 161.398 105.34 157.922 105.34 153.631V138.099Z" fill="#184F85"/>
<path id="Vector_2" d="M105.34 114.8H47.5V141.982H105.34V114.8Z" fill="#0078D4"/>
<path id="Vector_3" d="M105.34 87.6187H47.5V118.684H105.34V87.6187Z" fill="#B2DFF7"/>
<path id="Vector_4" d="M105.34 72.0862H47.5V95.3851H105.34V72.0862Z" fill="#E9F5FC"/>
<path id="Vector_5" d="M105.34 72.0861H47.5V68.203C47.5 63.9122 50.9505 60.4368 55.2112 60.4368H97.6277C101.888 60.4368 105.34 63.9122 105.34 68.203V72.0861Z" fill="#D4E0E2"/>
<path id="Vector_6" d="M64.8513 68.2033C65.9172 68.2033 66.7801 67.3342 66.7801 66.2619C66.7801 65.1896 65.9172 64.3203 64.8513 64.3203C63.7868 64.3203 62.9238 65.1896 62.9238 66.2619C62.9238 67.3342 63.7868 68.2033 64.8513 68.2033Z" fill="#0C63AD"/>
<path id="Vector_7" d="M84.1315 64.3203C83.6348 64.3203 73.062 64.3203 72.564 64.3203C71.4994 64.3203 70.6365 65.1901 70.6365 66.2619C70.6365 67.3335 71.4994 68.2033 72.564 68.2033C73.062 68.2033 83.6348 68.2033 84.1315 68.2033C85.196 68.2033 86.0603 67.3335 86.0603 66.2619C86.0603 65.1901 85.196 64.3203 84.1315 64.3203Z" fill="#0C63AD"/>
</g>
<g id="Group" filter="url(#filter1_d_86_3427)">
<path id="Vector_8" d="M144.404 33.6021H88.6742C86.9636 33.6021 85.5781 34.9876 85.5781 36.6981V76.9474C85.5781 78.658 86.9636 80.0434 88.6742 80.0434H101.059V92.4247C101.059 93.8043 102.726 94.4947 103.701 93.5194L117.177 80.0434H144.404C146.115 80.0434 147.5 78.658 147.5 76.9474V36.6981C147.5 34.9876 146.115 33.6021 144.404 33.6021Z" fill="url(#paint0_linear_86_3427)"/>
<path id="Vector_2_2" opacity="0.3" d="M116.539 63.0148C119.104 63.0148 121.183 60.9356 121.183 58.3707C121.183 55.8058 119.104 53.7266 116.539 53.7266C113.974 53.7266 111.895 55.8058 111.895 58.3707C111.895 60.9356 113.974 63.0148 116.539 63.0148Z" fill="url(#paint1_radial_86_3427)"/>
<path id="Vector_3_2" d="M116.539 61.4671C118.249 61.4671 119.635 60.0809 119.635 58.371C119.635 56.6611 118.249 55.2749 116.539 55.2749C114.829 55.2749 113.443 56.6611 113.443 58.371C113.443 60.0809 114.829 61.4671 116.539 61.4671Z" fill="white"/>
<path id="Vector_4_2" opacity="0.3" d="M104.155 63.0148C106.72 63.0148 108.799 60.9356 108.799 58.3707C108.799 55.8058 106.72 53.7266 104.155 53.7266C101.59 53.7266 99.5105 55.8058 99.5105 58.3707C99.5105 60.9356 101.59 63.0148 104.155 63.0148Z" fill="url(#paint2_radial_86_3427)"/>
<path id="Vector_5_2" d="M104.155 61.4671C105.865 61.4671 107.251 60.0809 107.251 58.371C107.251 56.6611 105.865 55.2749 104.155 55.2749C102.445 55.2749 101.059 56.6611 101.059 58.371C101.059 60.0809 102.445 61.4671 104.155 61.4671Z" fill="white"/>
<path id="Vector_6_2" opacity="0.3" d="M128.923 63.0148C131.488 63.0148 133.568 60.9356 133.568 58.3707C133.568 55.8058 131.488 53.7266 128.923 53.7266C126.359 53.7266 124.279 55.8058 124.279 58.3707C124.279 60.9356 126.359 63.0148 128.923 63.0148Z" fill="url(#paint3_radial_86_3427)"/>
<path id="Vector_7_2" d="M128.923 61.4671C130.633 61.4671 132.02 60.0809 132.02 58.371C132.02 56.6611 130.633 55.2749 128.923 55.2749C127.214 55.2749 125.827 56.6611 125.827 58.371C125.827 60.0809 127.214 61.4671 128.923 61.4671Z" fill="white"/>
</g>
</g>
</g>
</g>
</g>
<defs>
<filter id="filter0_bd_86_3427" x="43.5" y="56.4368" width="65.8403" height="112.961" filterUnits="userSpaceOnUse" color-interpolation-filters="sRGB">
<feFlood flood-opacity="0" result="BackgroundImageFix"/>
<feGaussianBlur in="BackgroundImageFix" stdDeviation="2"/>
<feComposite in2="SourceAlpha" operator="in" result="effect1_backgroundBlur_86_3427"/>
<feColorMatrix in="SourceAlpha" type="matrix" values="0 0 0 0 0 0 0 0 0 0 0 0 0 0 0 0 0 0 127 0" result="hardAlpha"/>
<feOffset dy="4"/>
<feGaussianBlur stdDeviation="2"/>
<feComposite in2="hardAlpha" operator="out"/>
<feColorMatrix type="matrix" values="0 0 0 0 0 0 0 0 0 0 0 0 0 0 0 0 0 0 0.25 0"/>
<feBlend mode="normal" in2="effect1_backgroundBlur_86_3427" result="effect2_dropShadow_86_3427"/>
<feBlend mode="normal" in="SourceGraphic" in2="effect2_dropShadow_86_3427" result="shape"/>
</filter>
<filter id="filter1_d_86_3427" x="81.5781" y="33.6021" width="69.9219" height="68.374" filterUnits="userSpaceOnUse" color-interpolation-filters="sRGB">
<feFlood flood-opacity="0" result="BackgroundImageFix"/>
<feColorMatrix in="SourceAlpha" type="matrix" values="0 0 0 0 0 0 0 0 0 0 0 0 0 0 0 0 0 0 127 0" result="hardAlpha"/>
<feOffset dy="4"/>
<feGaussianBlur stdDeviation="2"/>
<feComposite in2="hardAlpha" operator="out"/>
<feColorMatrix type="matrix" values="0 0 0 0 1 0 0 0 0 1 0 0 0 0 1 0 0 0 0.25 0"/>
<feBlend mode="normal" in2="BackgroundImageFix" result="effect1_dropShadow_86_3427"/>
<feBlend mode="normal" in="SourceGraphic" in2="effect1_dropShadow_86_3427" result="shape"/>
</filter>
<linearGradient id="paint0_linear_86_3427" x1="99.0245" y1="28.3263" x2="134.465" y2="85.9897" gradientUnits="userSpaceOnUse">
<stop stop-color="#0176D0"/>
<stop offset="1" stop-color="#0A85D9"/>
</linearGradient>
<radialGradient id="paint1_radial_86_3427" cx="0" cy="0" r="1" gradientUnits="userSpaceOnUse" gradientTransform="translate(116.539 58.3707) scale(4.64414)">
<stop/>
<stop offset="1" stop-opacity="0"/>
</radialGradient>
<radialGradient id="paint2_radial_86_3427" cx="0" cy="0" r="1" gradientUnits="userSpaceOnUse" gradientTransform="translate(104.155 58.3707) scale(4.64414)">
<stop/>
<stop offset="1" stop-opacity="0"/>
</radialGradient>
<radialGradient id="paint3_radial_86_3427" cx="0" cy="0" r="1" gradientUnits="userSpaceOnUse" gradientTransform="translate(128.923 58.3707) scale(4.64414)">
<stop/>
<stop offset="1" stop-opacity="0"/>
</radialGradient>
</defs>
</svg>
