<svg width="199" height="201" viewBox="0 0 199 201" fill="none" xmlns="http://www.w3.org/2000/svg">
<g filter="url(#filter0_d_87_5629)">
<path d="M172.887 10H26.1129C18.3186 10 12 16.3186 12 24.1129V170.887C12 178.681 18.3186 185 26.1129 185H172.887C180.681 185 187 178.681 187 170.887V24.1129C187 16.3186 180.681 10 172.887 10Z" fill="white"/>
<path d="M172.887 10H26.1129C18.3186 10 12 16.3186 12 24.1129V170.887C12 178.681 18.3186 185 26.1129 185H172.887C180.681 185 187 178.681 187 170.887V24.1129C187 16.3186 180.681 10 172.887 10Z" stroke="#F2F2F2" stroke-width="15" stroke-linecap="round"/>
<path d="M26.1129 10.5H172.887C180.405 10.5 186.5 16.5948 186.5 24.1129V170.887C186.5 178.405 180.405 184.5 172.887 184.5H26.1129C18.5948 184.5 12.5 178.405 12.5 170.887V24.1129C12.5 16.5947 18.5947 10.5 26.1129 10.5Z" fill="url(#paint0_linear_87_5629)" fill-opacity="0.2" stroke="white"/>
</g>
<g filter="url(#filter1_bd_87_5629)">
<path d="M39.5 139.5V70.5H159.5V139.5C159.5 142.8 156.8 145.5 153.5 145.5H45.5C42.2 145.5 39.5 142.8 39.5 139.5Z" fill="url(#paint1_linear_87_5629)"/>
<path d="M159.5 55.5V70.5H39.5V55.5C39.5 52.2 42.2 49.5 45.5 49.5H153.5C156.8 49.5 159.5 52.2 159.5 55.5Z" fill="url(#paint2_linear_87_5629)"/>
<path d="M77 64.5H152C152.828 64.5 153.5 63.828 153.5 63V57C153.5 56.172 152.828 55.5 152 55.5H77C76.172 55.5 75.5 56.172 75.5 57V63C75.5 63.828 76.172 64.5 77 64.5Z" fill="url(#paint3_linear_87_5629)"/>
<path d="M50 64.5C52.4853 64.5 54.5 62.4853 54.5 60C54.5 57.5148 52.4853 55.5 50 55.5C47.5148 55.5 45.5 57.5148 45.5 60C45.5 62.4853 47.5148 64.5 50 64.5Z" fill="url(#paint4_linear_87_5629)" fill-opacity="0.5"/>
<path d="M64.9907 64.5C67.476 64.5 69.4907 62.4853 69.4907 60C69.4907 57.5148 67.476 55.5 64.9907 55.5C62.5055 55.5 60.4907 57.5148 60.4907 60C60.4907 62.4853 62.5055 64.5 64.9907 64.5Z" fill="url(#paint5_linear_87_5629)" fill-opacity="0.5"/>
<path d="M69.5 105.5C69.5 88.9325 82.9325 75.5 99.5 75.5C116.068 75.5 129.5 88.9325 129.5 105.5C129.5 122.068 116.068 135.5 99.5 135.5C82.9325 135.5 69.5 122.068 69.5 105.5Z" fill="url(#paint6_radial_87_5629)"/>
<path d="M125 105.5C125 100.642 123.99 96.0635 122.241 92H126.264C125.742 90.9665 125.177 89.96 124.542 89H120.774C116.207 80.876 108.381 75.5 99.5 75.5C90.6185 75.5 82.793 80.876 78.2255 89H74.4575C73.823 89.96 73.2575 90.9665 72.7355 92H76.7585C75.0095 96.0635 74 100.642 74 105.5C74 110.359 75.0095 114.937 76.7585 119H72.7355C73.2575 120.034 73.823 121.04 74.4575 122H78.2255C82.793 130.124 90.6185 135.5 99.5 135.5C108.381 135.5 116.207 130.124 120.774 122H124.542C125.177 121.04 125.742 120.034 126.264 119H122.241C123.99 114.937 125 110.359 125 105.5ZM122 105.5C122 110.42 120.879 115.024 118.956 119H110.267C111.081 114.751 111.5 110.08 111.5 105.5C111.5 100.921 111.081 96.2495 110.267 92H118.956C120.879 95.9765 122 100.58 122 105.5ZM99.5 132.5C96.965 132.5 94.2635 128.545 92.489 122H106.512C104.736 128.545 102.035 132.5 99.5 132.5ZM91.772 119C90.9815 115.12 90.5 110.557 90.5 105.5C90.5 100.444 90.9815 95.8805 91.772 92H107.228C108.018 95.8805 108.5 100.444 108.5 105.5C108.5 110.557 108.018 115.12 107.228 119H91.772ZM99.5 78.5C102.035 78.5 104.736 82.4555 106.511 89H92.4875C94.2635 82.4555 96.965 78.5 99.5 78.5ZM117.27 89H109.604C108.665 85.2515 107.385 81.974 105.776 79.5905C110.394 81.2045 114.393 84.548 117.27 89ZM93.224 79.5905C91.6145 81.9755 90.335 85.2515 89.396 89H81.7295C84.6065 84.548 88.6055 81.2045 93.224 79.5905ZM77 105.5C77 100.58 78.1205 95.9765 80.0435 92H88.733C87.9185 96.2495 87.5 100.921 87.5 105.5C87.5 110.08 87.9185 114.751 88.733 119H80.0435C78.1205 115.024 77 110.42 77 105.5ZM81.7295 122H89.396C90.335 125.749 91.6145 129.026 93.224 131.409C88.6055 129.795 84.6065 126.452 81.7295 122ZM105.776 131.409C107.385 129.024 108.665 125.749 109.604 122H117.27C114.393 126.452 110.394 129.795 105.776 131.409Z" fill="url(#paint7_radial_87_5629)"/>
<path d="M105.357 99.5L103.389 108.864L101 99.5H98L95.6105 108.864L93.6425 99.5H90.5L93.5 111.5H97.1765C97.1765 111.5 99.446 103.046 99.5 102.5C99.554 103.046 101.823 111.5 101.823 111.5H105.5L108.5 99.5H105.357Z" fill="white"/>
<path d="M87.3575 99.5L85.3895 108.864L83 99.5H80L77.6105 108.864L75.6425 99.5H72.5L75.5 111.5H79.1765C79.1765 111.5 81.446 103.046 81.5 102.5C81.554 103.046 83.8235 111.5 83.8235 111.5H87.5L90.5 99.5H87.3575Z" fill="white"/>
<path d="M123.357 99.5L121.389 108.864L119 99.5H116L113.61 108.864L111.642 99.5H108.5L111.5 111.5H115.176C115.176 111.5 117.446 103.046 117.5 102.5C117.554 103.046 119.823 111.5 119.823 111.5H123.5L126.5 99.5H123.357Z" fill="white"/>
</g>
<defs>
<filter id="filter0_d_87_5629" x="0.5" y="2.5" width="198" height="198" filterUnits="userSpaceOnUse" color-interpolation-filters="sRGB">
<feFlood flood-opacity="0" result="BackgroundImageFix"/>
<feColorMatrix in="SourceAlpha" type="matrix" values="0 0 0 0 0 0 0 0 0 0 0 0 0 0 0 0 0 0 127 0" result="hardAlpha"/>
<feOffset dy="4"/>
<feGaussianBlur stdDeviation="2"/>
<feComposite in2="hardAlpha" operator="out"/>
<feColorMatrix type="matrix" values="0 0 0 0 0 0 0 0 0 0 0 0 0 0 0 0 0 0 0.25 0"/>
<feBlend mode="normal" in2="BackgroundImageFix" result="effect1_dropShadow_87_5629"/>
<feBlend mode="normal" in="SourceGraphic" in2="effect1_dropShadow_87_5629" result="shape"/>
</filter>
<filter id="filter1_bd_87_5629" x="35.5" y="45.5" width="128" height="106" filterUnits="userSpaceOnUse" color-interpolation-filters="sRGB">
<feFlood flood-opacity="0" result="BackgroundImageFix"/>
<feGaussianBlur in="BackgroundImageFix" stdDeviation="2"/>
<feComposite in2="SourceAlpha" operator="in" result="effect1_backgroundBlur_87_5629"/>
<feColorMatrix in="SourceAlpha" type="matrix" values="0 0 0 0 0 0 0 0 0 0 0 0 0 0 0 0 0 0 127 0" result="hardAlpha"/>
<feOffset dy="2"/>
<feGaussianBlur stdDeviation="2"/>
<feComposite in2="hardAlpha" operator="out"/>
<feColorMatrix type="matrix" values="0 0 0 0 1 0 0 0 0 1 0 0 0 0 1 0 0 0 1 0"/>
<feBlend mode="normal" in2="effect1_backgroundBlur_87_5629" result="effect2_dropShadow_87_5629"/>
<feBlend mode="normal" in="SourceGraphic" in2="effect2_dropShadow_87_5629" result="shape"/>
</filter>
<linearGradient id="paint0_linear_87_5629" x1="99.5" y1="18.4677" x2="99.5" y2="176.532" gradientUnits="userSpaceOnUse">
<stop stop-color="white"/>
<stop offset="0.472222" stop-color="#0D5176" stop-opacity="0.527778"/>
<stop offset="0.940972" stop-color="#12A6F7" stop-opacity="0.465278"/>
</linearGradient>
<linearGradient id="paint1_linear_87_5629" x1="67.94" y1="36.4171" x2="141.902" y2="120.001" gradientUnits="userSpaceOnUse">
<stop stop-color="#7DD8F3"/>
<stop offset="1" stop-color="#45B0D0"/>
</linearGradient>
<linearGradient id="paint2_linear_87_5629" x1="41.342" y1="45.948" x2="160.825" y2="51.2624" gradientUnits="userSpaceOnUse">
<stop stop-color="#0077D2"/>
<stop offset="1" stop-color="#0B59A2"/>
</linearGradient>
<linearGradient id="paint3_linear_87_5629" x1="39.5" y1="97.5" x2="159.5" y2="97.5" gradientUnits="userSpaceOnUse">
<stop stop-color="#7DD8F3"/>
<stop offset="1" stop-color="#45B0D0"/>
</linearGradient>
<linearGradient id="paint4_linear_87_5629" x1="69.54" y1="62.812" x2="106.654" y2="129.92" gradientUnits="userSpaceOnUse">
<stop stop-color="#75DAFF"/>
<stop offset="1" stop-color="#49BEF1"/>
</linearGradient>
<linearGradient id="paint5_linear_87_5629" x1="69.5401" y1="62.812" x2="106.654" y2="129.92" gradientUnits="userSpaceOnUse">
<stop stop-color="#75DAFF"/>
<stop offset="1" stop-color="#49BEF1"/>
</linearGradient>
<radialGradient id="paint6_radial_87_5629" cx="0" cy="0" r="1" gradientUnits="userSpaceOnUse" gradientTransform="translate(78.998 83.2715) scale(60.0615)">
<stop stop-color="#6FCEFC"/>
<stop offset="1" stop-color="#167CF7"/>
</radialGradient>
<radialGradient id="paint7_radial_87_5629" cx="0" cy="0" r="1" gradientUnits="userSpaceOnUse" gradientTransform="translate(78.0882 82.22) scale(67.5139 60.2325)">
<stop offset="0.001" stop-color="#54C0F5"/>
<stop offset="0.998" stop-color="#0B69DB"/>
</radialGradient>
</defs>
</svg>
