<svg width="195" height="195" viewBox="0 0 195 195" fill="none" xmlns="http://www.w3.org/2000/svg">
<g filter="url(#filter0_d_87_5623)">
<path d="M170.887 10H24.1129C16.3186 10 10 16.3186 10 24.1129V170.887C10 178.681 16.3186 185 24.1129 185H170.887C178.681 185 185 178.681 185 170.887V24.1129C185 16.3186 178.681 10 170.887 10Z" fill="url(#paint0_linear_87_5623)" fill-opacity="0.2"/>
<path d="M24.1129 10.5H170.887C178.405 10.5 184.5 16.5948 184.5 24.1129V170.887C184.5 178.405 178.405 184.5 170.887 184.5H24.1129C16.5948 184.5 10.5 178.405 10.5 170.887V24.1129C10.5 16.5947 16.5947 10.5 24.1129 10.5Z" stroke="#F7F7F7" stroke-opacity="0.27"/>
</g>
<g filter="url(#filter1_bd_87_5623)">
<path d="M37.5 139.5V70.5H157.5V139.5C157.5 142.8 154.8 145.5 151.5 145.5H43.5C40.2 145.5 37.5 142.8 37.5 139.5Z" fill="url(#paint1_linear_87_5623)"/>
<path d="M157.5 55.5V70.5H37.5V55.5C37.5 52.2 40.2 49.5 43.5 49.5H151.5C154.8 49.5 157.5 52.2 157.5 55.5Z" fill="url(#paint2_linear_87_5623)"/>
<path d="M75 64.5H150C150.828 64.5 151.5 63.828 151.5 63V57C151.5 56.172 150.828 55.5 150 55.5H75C74.172 55.5 73.5 56.172 73.5 57V63C73.5 63.828 74.172 64.5 75 64.5Z" fill="url(#paint3_linear_87_5623)"/>
<path d="M48 64.5C50.4853 64.5 52.5 62.4853 52.5 60C52.5 57.5148 50.4853 55.5 48 55.5C45.5148 55.5 43.5 57.5148 43.5 60C43.5 62.4853 45.5148 64.5 48 64.5Z" fill="url(#paint4_linear_87_5623)" fill-opacity="0.5"/>
<path d="M62.9907 64.5C65.476 64.5 67.4907 62.4853 67.4907 60C67.4907 57.5148 65.476 55.5 62.9907 55.5C60.5055 55.5 58.4907 57.5148 58.4907 60C58.4907 62.4853 60.5055 64.5 62.9907 64.5Z" fill="url(#paint5_linear_87_5623)" fill-opacity="0.5"/>
<path d="M67.5 105.5C67.5 88.9325 80.9325 75.5 97.5 75.5C114.068 75.5 127.5 88.9325 127.5 105.5C127.5 122.068 114.068 135.5 97.5 135.5C80.9325 135.5 67.5 122.068 67.5 105.5Z" fill="url(#paint6_radial_87_5623)"/>
<path d="M123 105.5C123 100.642 121.99 96.0635 120.241 92H124.264C123.742 90.9665 123.177 89.96 122.542 89H118.774C114.207 80.876 106.381 75.5 97.5 75.5C88.6185 75.5 80.793 80.876 76.2255 89H72.4575C71.823 89.96 71.2575 90.9665 70.7355 92H74.7585C73.0095 96.0635 72 100.642 72 105.5C72 110.359 73.0095 114.937 74.7585 119H70.7355C71.2575 120.034 71.823 121.04 72.4575 122H76.2255C80.793 130.124 88.6185 135.5 97.5 135.5C106.381 135.5 114.207 130.124 118.774 122H122.542C123.177 121.04 123.742 120.034 124.264 119H120.241C121.99 114.937 123 110.359 123 105.5ZM120 105.5C120 110.42 118.879 115.024 116.956 119H108.267C109.081 114.751 109.5 110.08 109.5 105.5C109.5 100.921 109.081 96.2495 108.267 92H116.956C118.879 95.9765 120 100.58 120 105.5ZM97.5 132.5C94.965 132.5 92.2635 128.545 90.489 122H104.512C102.736 128.545 100.035 132.5 97.5 132.5ZM89.772 119C88.9815 115.12 88.5 110.557 88.5 105.5C88.5 100.444 88.9815 95.8805 89.772 92H105.228C106.018 95.8805 106.5 100.444 106.5 105.5C106.5 110.557 106.018 115.12 105.228 119H89.772ZM97.5 78.5C100.035 78.5 102.736 82.4555 104.511 89H90.4875C92.2635 82.4555 94.965 78.5 97.5 78.5ZM115.27 89H107.604C106.665 85.2515 105.385 81.974 103.776 79.5905C108.394 81.2045 112.393 84.548 115.27 89ZM91.224 79.5905C89.6145 81.9755 88.335 85.2515 87.396 89H79.7295C82.6065 84.548 86.6055 81.2045 91.224 79.5905ZM75 105.5C75 100.58 76.1205 95.9765 78.0435 92H86.733C85.9185 96.2495 85.5 100.921 85.5 105.5C85.5 110.08 85.9185 114.751 86.733 119H78.0435C76.1205 115.024 75 110.42 75 105.5ZM79.7295 122H87.396C88.335 125.749 89.6145 129.026 91.224 131.409C86.6055 129.795 82.6065 126.452 79.7295 122ZM103.776 131.409C105.385 129.024 106.665 125.749 107.604 122H115.27C112.393 126.452 108.394 129.795 103.776 131.409Z" fill="url(#paint7_radial_87_5623)"/>
<path d="M103.357 99.5L101.389 108.864L99 99.5H96L93.6105 108.864L91.6425 99.5H88.5L91.5 111.5H95.1765C95.1765 111.5 97.446 103.046 97.5 102.5C97.554 103.046 99.8235 111.5 99.8235 111.5H103.5L106.5 99.5H103.357Z" fill="white"/>
<path d="M85.3575 99.5L83.3895 108.864L81 99.5H78L75.6105 108.864L73.6425 99.5H70.5L73.5 111.5H77.1765C77.1765 111.5 79.446 103.046 79.5 102.5C79.554 103.046 81.8235 111.5 81.8235 111.5H85.5L88.5 99.5H85.3575Z" fill="white"/>
<path d="M121.357 99.5L119.389 108.864L117 99.5H114L111.61 108.864L109.642 99.5H106.5L109.5 111.5H113.176C113.176 111.5 115.446 103.046 115.5 102.5C115.554 103.046 117.823 111.5 117.823 111.5H121.5L124.5 99.5H121.357Z" fill="white"/>
</g>
<defs>
<filter id="filter0_d_87_5623" x="6" y="10" width="183" height="183" filterUnits="userSpaceOnUse" color-interpolation-filters="sRGB">
<feFlood flood-opacity="0" result="BackgroundImageFix"/>
<feColorMatrix in="SourceAlpha" type="matrix" values="0 0 0 0 0 0 0 0 0 0 0 0 0 0 0 0 0 0 127 0" result="hardAlpha"/>
<feOffset dy="4"/>
<feGaussianBlur stdDeviation="2"/>
<feComposite in2="hardAlpha" operator="out"/>
<feColorMatrix type="matrix" values="0 0 0 0 0 0 0 0 0 0 0 0 0 0 0 0 0 0 0.25 0"/>
<feBlend mode="normal" in2="BackgroundImageFix" result="effect1_dropShadow_87_5623"/>
<feBlend mode="normal" in="SourceGraphic" in2="effect1_dropShadow_87_5623" result="shape"/>
</filter>
<filter id="filter1_bd_87_5623" x="33.5" y="45.5" width="128" height="106" filterUnits="userSpaceOnUse" color-interpolation-filters="sRGB">
<feFlood flood-opacity="0" result="BackgroundImageFix"/>
<feGaussianBlur in="BackgroundImageFix" stdDeviation="2"/>
<feComposite in2="SourceAlpha" operator="in" result="effect1_backgroundBlur_87_5623"/>
<feColorMatrix in="SourceAlpha" type="matrix" values="0 0 0 0 0 0 0 0 0 0 0 0 0 0 0 0 0 0 127 0" result="hardAlpha"/>
<feOffset dy="2"/>
<feGaussianBlur stdDeviation="2"/>
<feComposite in2="hardAlpha" operator="out"/>
<feColorMatrix type="matrix" values="0 0 0 0 1 0 0 0 0 1 0 0 0 0 1 0 0 0 1 0"/>
<feBlend mode="normal" in2="effect1_backgroundBlur_87_5623" result="effect2_dropShadow_87_5623"/>
<feBlend mode="normal" in="SourceGraphic" in2="effect2_dropShadow_87_5623" result="shape"/>
</filter>
<linearGradient id="paint0_linear_87_5623" x1="97.5" y1="18.4677" x2="97.5" y2="176.532" gradientUnits="userSpaceOnUse">
<stop stop-color="white"/>
<stop offset="0.472222" stop-color="#0D5176" stop-opacity="0.527778"/>
<stop offset="0.940972" stop-color="#12A6F7" stop-opacity="0.465278"/>
</linearGradient>
<linearGradient id="paint1_linear_87_5623" x1="65.94" y1="36.4171" x2="139.902" y2="120.001" gradientUnits="userSpaceOnUse">
<stop stop-color="#7DD8F3"/>
<stop offset="1" stop-color="#45B0D0"/>
</linearGradient>
<linearGradient id="paint2_linear_87_5623" x1="39.342" y1="45.948" x2="158.825" y2="51.2624" gradientUnits="userSpaceOnUse">
<stop stop-color="#0077D2"/>
<stop offset="1" stop-color="#0B59A2"/>
</linearGradient>
<linearGradient id="paint3_linear_87_5623" x1="37.5" y1="97.5" x2="157.5" y2="97.5" gradientUnits="userSpaceOnUse">
<stop stop-color="#7DD8F3"/>
<stop offset="1" stop-color="#45B0D0"/>
</linearGradient>
<linearGradient id="paint4_linear_87_5623" x1="67.54" y1="62.812" x2="104.654" y2="129.92" gradientUnits="userSpaceOnUse">
<stop stop-color="#75DAFF"/>
<stop offset="1" stop-color="#49BEF1"/>
</linearGradient>
<linearGradient id="paint5_linear_87_5623" x1="67.5401" y1="62.812" x2="104.654" y2="129.92" gradientUnits="userSpaceOnUse">
<stop stop-color="#75DAFF"/>
<stop offset="1" stop-color="#49BEF1"/>
</linearGradient>
<radialGradient id="paint6_radial_87_5623" cx="0" cy="0" r="1" gradientUnits="userSpaceOnUse" gradientTransform="translate(76.998 83.2715) scale(60.0615)">
<stop stop-color="#6FCEFC"/>
<stop offset="1" stop-color="#167CF7"/>
</radialGradient>
<radialGradient id="paint7_radial_87_5623" cx="0" cy="0" r="1" gradientUnits="userSpaceOnUse" gradientTransform="translate(76.0882 82.22) scale(67.5139 60.2325)">
<stop offset="0.001" stop-color="#54C0F5"/>
<stop offset="0.998" stop-color="#0B69DB"/>
</radialGradient>
</defs>
</svg>
