<svg width="195" height="195" viewBox="0 0 195 195" fill="none" xmlns="http://www.w3.org/2000/svg">
<g filter="url(#filter0_d_85_2165)">
<path d="M170.887 10H24.1129C16.3186 10 10 16.3186 10 24.1129V170.887C10 178.681 16.3186 185 24.1129 185H170.887C178.681 185 185 178.681 185 170.887V24.1129C185 16.3186 178.681 10 170.887 10Z" fill="url(#paint0_linear_85_2165)" fill-opacity="0.2"/>
<path d="M24.1129 10.5H170.887C178.405 10.5 184.5 16.5948 184.5 24.1129V170.887C184.5 178.405 178.405 184.5 170.887 184.5H24.1129C16.5948 184.5 10.5 178.405 10.5 170.887V24.1129C10.5 16.5947 16.5947 10.5 24.1129 10.5Z" stroke="#F7F7F7" stroke-opacity="0.27"/>
</g>
<path d="M69.3327 80.9889L63.3408 74.997C59.0262 81.5102 56.5 89.3112 56.5 97.7097C56.5 105.268 58.5461 112.346 62.1025 118.434C62.7062 119.469 64.1506 119.615 64.9975 118.766L68.3767 115.387C68.9433 114.82 69.0484 113.959 68.6693 113.254C66.1781 108.62 64.742 103.339 64.742 97.7097C64.742 91.5983 66.4336 85.897 69.3327 80.9889Z" fill="#50E6FF" fill-opacity="0.5"/>
<path d="M130.678 97.7097C130.678 103.821 128.986 109.523 126.087 114.431L132.079 120.423C136.394 113.91 138.92 106.106 138.92 97.7097C138.92 90.1519 136.874 83.0741 133.317 76.9854C132.714 75.951 131.269 75.8068 130.422 76.6536L127.043 80.0328C126.476 80.5995 126.371 81.4607 126.75 82.1654C129.242 86.7995 130.678 92.0805 130.678 97.7097Z" fill="#199BE2" fill-opacity="0.5"/>
<path d="M80.0328 68.3767C80.5995 68.9433 81.4607 69.0484 82.1654 68.6693C86.7995 66.1781 92.0805 64.742 97.7097 64.742C103.821 64.742 109.523 66.4336 114.431 69.3327L120.425 63.3388C113.91 59.0262 106.109 56.5 97.7097 56.5C90.189 56.5 83.1462 58.5255 77.0781 62.0489C76.0046 62.6732 75.7779 64.1218 76.6557 64.9995L80.0328 68.3767Z" fill="#35C1F1" fill-opacity="0.5"/>
<path d="M115.387 127.043C114.82 126.476 113.959 126.371 113.254 126.75C108.62 129.242 103.339 130.678 97.7097 130.678C91.5983 130.678 85.897 128.986 80.9889 126.087L74.997 132.079C81.5102 136.394 89.3132 138.92 97.7097 138.92C105.268 138.92 112.346 136.874 118.434 133.317C119.469 132.714 119.615 131.269 118.766 130.422L115.387 127.043Z" fill="#0078D4" fill-opacity="0.5"/>
<path d="M122.3 73.1384L112.339 72.7964C111.635 72.7717 111.284 71.9289 111.769 71.4138L121.364 61.1629C121.863 60.6292 122.757 60.963 122.786 61.6925L123.2 72.236C123.219 72.7408 122.805 73.1549 122.3 73.1384Z" fill="#35C1F1" fill-opacity="0.5"/>
<path d="M73.1199 122.281L83.0803 122.623C83.785 122.648 84.1352 123.491 83.651 124.006L74.0554 134.257C73.5567 134.79 72.6625 134.457 72.6336 133.727L72.2195 123.184C72.2009 122.679 72.6151 122.265 73.1199 122.281Z" fill="#0078D4" fill-opacity="0.5"/>
<path d="M122.281 122.3L122.623 112.339C122.648 111.635 123.491 111.284 124.006 111.769L134.257 121.364C134.79 121.863 134.457 122.757 133.727 122.786L123.184 123.2C122.679 123.219 122.265 122.805 122.281 122.3Z" fill="#199BE2" fill-opacity="0.5"/>
<path d="M73.1384 73.1199L72.7964 83.0803C72.7717 83.785 71.9289 84.1352 71.4138 83.651L61.1609 74.0554C60.6272 73.5567 60.961 72.6625 61.6904 72.6336L72.2339 72.2195C72.7408 72.2009 73.1549 72.6151 73.1384 73.1199Z" fill="#50E6FF" fill-opacity="0.5"/>
<rect x="29.5" y="31.5" width="60" height="60" rx="3" fill="url(#paint1_linear_85_2165)"/>
<rect x="29.5" y="31.5" width="60" height="60" rx="3" fill="white" fill-opacity="0.2"/>
<path d="M39.5 61.5C39.5 50.455 48.455 41.5 59.5 41.5C70.545 41.5 79.5 50.455 79.5 61.5C79.5 72.545 70.545 81.5 59.5 81.5C48.455 81.5 39.5 72.545 39.5 61.5Z" fill="url(#paint2_radial_85_2165)"/>
<path d="M76.5 61.5C76.5 58.261 75.827 55.209 74.661 52.5H77.343C76.995 51.811 76.618 51.14 76.195 50.5H73.683C70.638 45.084 65.421 41.5 59.5 41.5C53.579 41.5 48.362 45.084 45.317 50.5H42.805C42.382 51.14 42.005 51.811 41.657 52.5H44.339C43.173 55.209 42.5 58.261 42.5 61.5C42.5 64.739 43.173 67.791 44.339 70.5H41.657C42.005 71.189 42.382 71.86 42.805 72.5H45.317C48.362 77.916 53.579 81.5 59.5 81.5C65.421 81.5 70.638 77.916 73.683 72.5H76.195C76.618 71.86 76.995 71.189 77.343 70.5H74.661C75.827 67.791 76.5 64.739 76.5 61.5ZM74.5 61.5C74.5 64.78 73.753 67.849 72.471 70.5H66.678C67.221 67.667 67.5 64.553 67.5 61.5C67.5 58.447 67.221 55.333 66.678 52.5H72.471C73.753 55.151 74.5 58.22 74.5 61.5ZM59.5 79.5C57.81 79.5 56.009 76.863 54.826 72.5H64.175C62.991 76.863 61.19 79.5 59.5 79.5ZM54.348 70.5C53.821 67.913 53.5 64.871 53.5 61.5C53.5 58.129 53.821 55.087 54.348 52.5H64.652C65.179 55.087 65.5 58.129 65.5 61.5C65.5 64.871 65.179 67.913 64.652 70.5H54.348ZM59.5 43.5C61.19 43.5 62.991 46.137 64.174 50.5H54.825C56.009 46.137 57.81 43.5 59.5 43.5ZM71.347 50.5H66.236C65.61 48.001 64.757 45.816 63.684 44.227C66.763 45.303 69.429 47.532 71.347 50.5ZM55.316 44.227C54.243 45.817 53.39 48.001 52.764 50.5H47.653C49.571 47.532 52.237 45.303 55.316 44.227ZM44.5 61.5C44.5 58.22 45.247 55.151 46.529 52.5H52.322C51.779 55.333 51.5 58.447 51.5 61.5C51.5 64.553 51.779 67.667 52.322 70.5H46.529C45.247 67.849 44.5 64.78 44.5 61.5ZM47.653 72.5H52.764C53.39 74.999 54.243 77.184 55.316 78.773C52.237 77.697 49.571 75.468 47.653 72.5ZM63.684 78.773C64.757 77.183 65.61 74.999 66.236 72.5H71.347C69.429 75.468 66.763 77.697 63.684 78.773Z" fill="url(#paint3_radial_85_2165)"/>
<path d="M63.405 57.5L62.093 63.743L60.5 57.5H58.5L56.907 63.743L55.595 57.5H53.5L55.5 65.5H57.951C57.951 65.5 59.464 59.864 59.5 59.5C59.536 59.864 61.049 65.5 61.049 65.5H63.5L65.5 57.5H63.405Z" fill="white"/>
<path d="M51.405 57.5L50.093 63.743L48.5 57.5H46.5L44.907 63.743L43.595 57.5H41.5L43.5 65.5H45.951C45.951 65.5 47.464 59.864 47.5 59.5C47.536 59.864 49.049 65.5 49.049 65.5H51.5L53.5 57.5H51.405Z" fill="white"/>
<path d="M75.405 57.5L74.093 63.743L72.5 57.5H70.5L68.907 63.743L67.595 57.5H65.5L67.5 65.5H69.951C69.951 65.5 71.464 59.864 71.5 59.5C71.536 59.864 73.049 65.5 73.049 65.5H75.5L77.5 57.5H75.405Z" fill="white"/>
<rect x="28.5" y="30.5" width="62" height="62" rx="4" stroke="#E2E2E2" stroke-opacity="0.59" stroke-width="2"/>
<rect x="97.5" y="102.5" width="60" height="60" rx="3" fill="url(#paint4_linear_85_2165)"/>
<rect x="97.5" y="102.5" width="60" height="60" rx="3" fill="white" fill-opacity="0.2"/>
<path d="M126.574 144.537C131.688 144.537 135.833 140.392 135.833 135.278C135.833 130.164 131.688 126.018 126.574 126.018C121.46 126.018 117.315 130.164 117.315 135.278C117.315 140.392 121.46 144.537 126.574 144.537Z" fill="white"/>
<path d="M149.82 134.095H134.396V127.87H149.249C149.564 127.87 149.82 128.124 149.82 128.436V134.095Z" fill="url(#paint5_linear_85_2165)"/>
<path d="M144.107 134.095H129.825C129.51 134.095 129.254 133.841 129.254 133.529V128.436C129.254 128.124 129.51 127.87 129.825 127.87H144.107C144.423 127.87 144.678 128.124 144.678 128.436V133.529C144.678 133.841 144.423 134.095 144.107 134.095Z" fill="url(#paint6_linear_85_2165)"/>
<path d="M149.82 132.397H129.254V133.529C129.254 133.841 129.51 134.095 129.825 134.095H134.396H144.107H149.82V132.397Z" fill="white" fill-opacity="0.5"/>
<path d="M149.82 132.68H129.254V133.529C129.254 133.841 129.51 134.095 129.825 134.095H134.396H144.107H149.82V132.68Z" fill="white" fill-opacity="0.5"/>
<path d="M149.82 148.241H143.536V132.963H150.391C150.707 132.963 150.962 133.216 150.962 133.529V147.109C150.962 147.734 150.451 148.241 149.82 148.241Z" fill="url(#paint7_linear_85_2165)"/>
<path d="M143.536 148.241H129.254C128.623 148.241 128.112 147.734 128.112 147.109V133.529C128.112 133.216 128.368 132.963 128.683 132.963H144.678V147.109C144.678 147.734 144.167 148.241 143.536 148.241Z" fill="url(#paint8_linear_85_2165)"/>
<path d="M144.678 132.963H128.465C128.248 132.963 128.051 133.084 127.954 133.276L126.605 135.949C126.51 136.137 126.647 136.358 126.86 136.358H142.612C142.828 136.358 143.026 136.237 143.122 136.045L144.678 132.963Z" fill="url(#paint9_linear_85_2165)"/>
<path d="M144.678 132.963H150.609C150.826 132.963 151.024 133.084 151.12 133.276L152.47 135.949C152.564 136.137 152.427 136.358 152.214 136.358H146.745C146.529 136.358 146.331 136.237 146.235 136.045L144.678 132.963Z" fill="url(#paint10_linear_85_2165)"/>
<path d="M105.18 123.549H120.604V116.759H105.751C105.436 116.759 105.18 117.036 105.18 117.377V123.549Z" fill="url(#paint11_linear_85_2165)"/>
<path d="M110.893 123.549H125.175C125.49 123.549 125.746 123.273 125.746 122.932V117.377C125.746 117.036 125.49 116.759 125.175 116.759H110.893C110.577 116.759 110.322 117.036 110.322 117.377V122.932C110.322 123.273 110.577 123.549 110.893 123.549Z" fill="url(#paint12_linear_85_2165)"/>
<path d="M105.18 121.698H125.746L125.746 122.932C125.746 123.273 125.49 123.549 125.175 123.549H120.604H110.893H105.18V121.698Z" fill="white" fill-opacity="0.5"/>
<path d="M105.18 122.006H125.746L125.746 122.932C125.746 123.273 125.49 123.549 125.175 123.549H120.604H110.893H105.18V122.006Z" fill="white" fill-opacity="0.5"/>
<path d="M105.18 138.981H111.464V122.315H104.609C104.293 122.315 104.038 122.591 104.038 122.932V137.747C104.038 138.429 104.549 138.981 105.18 138.981Z" fill="url(#paint13_linear_85_2165)"/>
<path d="M111.464 138.981H125.746C126.377 138.981 126.888 138.429 126.888 137.747V122.932C126.888 122.591 126.632 122.315 126.317 122.315H110.322V137.747C110.322 138.429 110.833 138.981 111.464 138.981Z" fill="url(#paint14_linear_85_2165)"/>
<path d="M110.322 122.315H126.535C126.752 122.315 126.949 122.447 127.046 122.656L128.395 125.572C128.49 125.777 128.353 126.019 128.14 126.019H112.388C112.172 126.019 111.974 125.886 111.878 125.677L110.322 122.315Z" fill="url(#paint15_linear_85_2165)"/>
<path d="M110.322 122.315H104.391C104.174 122.315 103.976 122.447 103.88 122.656L102.531 125.572C102.436 125.777 102.573 126.019 102.786 126.019H108.255C108.471 126.019 108.669 125.886 108.765 125.677L110.322 122.315Z" fill="url(#paint16_linear_85_2165)"/>
<path d="M118.241 133.403V135.78C118.241 136.156 118.696 136.344 118.96 136.076L122.433 132.59C122.733 132.282 122.733 131.79 122.433 131.486L118.96 127.996C118.696 127.728 118.241 127.916 118.241 128.293V131.32" fill="#20C997"/>
<path d="M119.167 130.647H112.222C111.965 130.647 111.759 130.853 111.759 131.11V132.962C111.759 133.219 111.965 133.425 112.222 133.425H119.167" fill="#20C997"/>
<path d="M134.907 140.579V137.552C134.907 137.176 134.452 136.988 134.188 137.255L130.715 140.742C130.415 141.049 130.415 141.541 130.715 141.845L134.188 145.335C134.452 145.603 134.907 145.415 134.907 145.039V142.663" fill="#20C997"/>
<path d="M133.056 142.684H140.926C141.183 142.684 141.389 142.478 141.389 142.221V140.369C141.389 140.113 141.183 139.906 140.926 139.906H133.056" fill="#20C997"/>
<rect x="96.5" y="101.5" width="62" height="62" rx="4" stroke="#E2E2E2" stroke-opacity="0.59" stroke-width="2"/>
<defs>
<filter id="filter0_d_85_2165" x="6" y="10" width="183" height="183" filterUnits="userSpaceOnUse" color-interpolation-filters="sRGB">
<feFlood flood-opacity="0" result="BackgroundImageFix"/>
<feColorMatrix in="SourceAlpha" type="matrix" values="0 0 0 0 0 0 0 0 0 0 0 0 0 0 0 0 0 0 127 0" result="hardAlpha"/>
<feOffset dy="4"/>
<feGaussianBlur stdDeviation="2"/>
<feComposite in2="hardAlpha" operator="out"/>
<feColorMatrix type="matrix" values="0 0 0 0 0 0 0 0 0 0 0 0 0 0 0 0 0 0 0.25 0"/>
<feBlend mode="normal" in2="BackgroundImageFix" result="effect1_dropShadow_85_2165"/>
<feBlend mode="normal" in="SourceGraphic" in2="effect1_dropShadow_85_2165" result="shape"/>
</filter>
<linearGradient id="paint0_linear_85_2165" x1="97.5" y1="18.4677" x2="97.5" y2="176.532" gradientUnits="userSpaceOnUse">
<stop stop-color="white"/>
<stop offset="0.472222" stop-color="#0D5176" stop-opacity="0.527778"/>
<stop offset="0.940972" stop-color="#12A6F7" stop-opacity="0.465278"/>
</linearGradient>
<linearGradient id="paint1_linear_85_2165" x1="59.5" y1="31.5" x2="86.3" y2="99.9" gradientUnits="userSpaceOnUse">
<stop stop-color="#B8DFFC"/>
<stop offset="0.453125" stop-color="#E5EFF7" stop-opacity="0.98"/>
<stop offset="1" stop-color="#8FC3EB"/>
</linearGradient>
<radialGradient id="paint2_radial_85_2165" cx="0" cy="0" r="1" gradientUnits="userSpaceOnUse" gradientTransform="translate(45.832 46.681) scale(40.041)">
<stop stop-color="#6FCEFC"/>
<stop offset="1" stop-color="#167CF7"/>
</radialGradient>
<radialGradient id="paint3_radial_85_2165" cx="0" cy="0" r="1" gradientUnits="userSpaceOnUse" gradientTransform="translate(45.2255 45.98) scale(45.0092 40.155)">
<stop offset="0.001" stop-color="#54C0F5"/>
<stop offset="0.998" stop-color="#0B69DB"/>
</radialGradient>
<linearGradient id="paint4_linear_85_2165" x1="127.5" y1="102.5" x2="154.3" y2="170.9" gradientUnits="userSpaceOnUse">
<stop stop-color="#B8DFFC"/>
<stop offset="0.453125" stop-color="#E5EFF7" stop-opacity="0.98"/>
<stop offset="1" stop-color="#8FC3EB"/>
</linearGradient>
<linearGradient id="paint5_linear_85_2165" x1="106.788" y1="133.872" x2="191.523" y2="161.951" gradientUnits="userSpaceOnUse">
<stop stop-color="#C26715"/>
<stop offset="0.508" stop-color="#B85515"/>
<stop offset="1" stop-color="#AD3F16"/>
</linearGradient>
<linearGradient id="paint6_linear_85_2165" x1="97.8338" y1="79.1068" x2="194.837" y2="104.245" gradientUnits="userSpaceOnUse">
<stop stop-color="#EBA84B"/>
<stop offset="1" stop-color="#D97218"/>
</linearGradient>
<linearGradient id="paint7_linear_85_2165" x1="-58.2416" y1="111.763" x2="-51.7079" y2="169.868" gradientUnits="userSpaceOnUse">
<stop stop-color="#EBA600"/>
<stop offset="1" stop-color="#C28200"/>
</linearGradient>
<linearGradient id="paint8_linear_85_2165" x1="101.686" y1="105.387" x2="136.511" y2="167.622" gradientUnits="userSpaceOnUse">
<stop stop-color="#FFD869"/>
<stop offset="1" stop-color="#FEC52B"/>
</linearGradient>
<linearGradient id="paint9_linear_85_2165" x1="138.3" y1="250.24" x2="138.3" y2="-748.063" gradientUnits="userSpaceOnUse">
<stop stop-color="#EBA600"/>
<stop offset="1" stop-color="#C28200"/>
</linearGradient>
<linearGradient id="paint10_linear_85_2165" x1="127.501" y1="146.819" x2="127.501" y2="125.008" gradientUnits="userSpaceOnUse">
<stop stop-color="#FFD869"/>
<stop offset="1" stop-color="#FEC52B"/>
</linearGradient>
<linearGradient id="paint11_linear_85_2165" x1="123.454" y1="133.872" x2="208.19" y2="161.951" gradientUnits="userSpaceOnUse">
<stop stop-color="#C26715"/>
<stop offset="0.508" stop-color="#B85515"/>
<stop offset="1" stop-color="#AD3F16"/>
</linearGradient>
<linearGradient id="paint12_linear_85_2165" x1="81.1671" y1="79.1064" x2="178.17" y2="104.244" gradientUnits="userSpaceOnUse">
<stop stop-color="#EBA84B"/>
<stop offset="1" stop-color="#D97218"/>
</linearGradient>
<linearGradient id="paint13_linear_85_2165" x1="45.6108" y1="111.763" x2="52.1448" y2="169.868" gradientUnits="userSpaceOnUse">
<stop stop-color="#EBA600"/>
<stop offset="1" stop-color="#C28200"/>
</linearGradient>
<linearGradient id="paint14_linear_85_2165" x1="82.72" y1="105.387" x2="117.545" y2="167.622" gradientUnits="userSpaceOnUse">
<stop stop-color="#FFD869"/>
<stop offset="1" stop-color="#FEC52B"/>
</linearGradient>
<linearGradient id="paint15_linear_85_2165" x1="116.699" y1="250.24" x2="116.699" y2="-748.064" gradientUnits="userSpaceOnUse">
<stop stop-color="#EBA600"/>
<stop offset="1" stop-color="#C28200"/>
</linearGradient>
<linearGradient id="paint16_linear_85_2165" x1="127.499" y1="146.819" x2="127.499" y2="125.007" gradientUnits="userSpaceOnUse">
<stop stop-color="#FFD869"/>
<stop offset="1" stop-color="#FEC52B"/>
</linearGradient>
</defs>
</svg>
