<svg width="199" height="201" viewBox="0 0 199 201" fill="none" xmlns="http://www.w3.org/2000/svg">
<g filter="url(#filter0_d_85_2149)">
<path d="M172.887 10H26.1129C18.3186 10 12 16.3186 12 24.1129V170.887C12 178.681 18.3186 185 26.1129 185H172.887C180.681 185 187 178.681 187 170.887V24.1129C187 16.3186 180.681 10 172.887 10Z" fill="white"/>
<path d="M172.887 10H26.1129C18.3186 10 12 16.3186 12 24.1129V170.887C12 178.681 18.3186 185 26.1129 185H172.887C180.681 185 187 178.681 187 170.887V24.1129C187 16.3186 180.681 10 172.887 10Z" stroke="#D5EAF6" stroke-width="15" stroke-linecap="round"/>
<path d="M172.887 10H26.1129C18.3186 10 12 16.3186 12 24.1129V170.887C12 178.681 18.3186 185 26.1129 185H172.887C180.681 185 187 178.681 187 170.887V24.1129C187 16.3186 180.681 10 172.887 10Z" fill="url(#paint0_linear_85_2149)" fill-opacity="0.2"/>
<path d="M26.1129 10.5H172.887C180.405 10.5 186.5 16.5948 186.5 24.1129V170.887C186.5 178.405 180.405 184.5 172.887 184.5H26.1129C18.5948 184.5 12.5 178.405 12.5 170.887V24.1129C12.5 16.5947 18.5947 10.5 26.1129 10.5Z" stroke="#F7F7F7" stroke-opacity="0.27"/>
</g>
<path d="M71.3327 80.9889L65.3408 74.997C61.0262 81.5102 58.5 89.3112 58.5 97.7097C58.5 105.268 60.5461 112.346 64.1025 118.434C64.7062 119.469 66.1506 119.615 66.9975 118.766L70.3767 115.387C70.9433 114.82 71.0484 113.959 70.6693 113.254C68.1781 108.62 66.742 103.339 66.742 97.7097C66.742 91.5983 68.4336 85.897 71.3327 80.9889Z" fill="#50E6FF" fill-opacity="0.5"/>
<path d="M132.678 97.7097C132.678 103.821 130.986 109.523 128.087 114.431L134.079 120.423C138.394 113.91 140.92 106.106 140.92 97.7097C140.92 90.1519 138.874 83.0741 135.317 76.9854C134.714 75.951 133.269 75.8068 132.422 76.6536L129.043 80.0328C128.476 80.5995 128.371 81.4607 128.75 82.1654C131.242 86.7995 132.678 92.0805 132.678 97.7097Z" fill="#199BE2" fill-opacity="0.5"/>
<path d="M82.0328 68.3767C82.5995 68.9433 83.4607 69.0484 84.1654 68.6693C88.7995 66.1781 94.0805 64.742 99.7097 64.742C105.821 64.742 111.523 66.4336 116.431 69.3327L122.425 63.3388C115.91 59.0262 108.109 56.5 99.7097 56.5C92.189 56.5 85.1462 58.5255 79.0781 62.0489C78.0046 62.6732 77.7779 64.1218 78.6557 64.9995L82.0328 68.3767Z" fill="#35C1F1" fill-opacity="0.5"/>
<path d="M117.387 127.043C116.82 126.476 115.959 126.371 115.254 126.75C110.62 129.242 105.339 130.678 99.7097 130.678C93.5983 130.678 87.897 128.986 82.9889 126.087L76.997 132.079C83.5102 136.394 91.3132 138.92 99.7097 138.92C107.268 138.92 114.346 136.874 120.434 133.317C121.469 132.714 121.615 131.269 120.766 130.422L117.387 127.043Z" fill="#0078D4" fill-opacity="0.5"/>
<path d="M124.3 73.1384L114.339 72.7964C113.635 72.7717 113.284 71.9289 113.769 71.4138L123.364 61.1629C123.863 60.6292 124.757 60.963 124.786 61.6925L125.2 72.236C125.219 72.7408 124.805 73.1549 124.3 73.1384Z" fill="#35C1F1" fill-opacity="0.5"/>
<path d="M75.1199 122.281L85.0803 122.623C85.785 122.648 86.1352 123.491 85.651 124.006L76.0554 134.257C75.5567 134.79 74.6625 134.457 74.6336 133.727L74.2195 123.184C74.2009 122.679 74.6151 122.265 75.1199 122.281Z" fill="#0078D4" fill-opacity="0.5"/>
<path d="M124.281 122.3L124.623 112.339C124.648 111.635 125.491 111.284 126.006 111.769L136.257 121.364C136.79 121.863 136.457 122.757 135.727 122.786L125.184 123.2C124.679 123.219 124.265 122.805 124.281 122.3Z" fill="#199BE2" fill-opacity="0.5"/>
<path d="M75.1384 73.1199L74.7964 83.0803C74.7717 83.785 73.9289 84.1352 73.4138 83.651L63.1609 74.0554C62.6272 73.5567 62.961 72.6625 63.6904 72.6336L74.2339 72.2195C74.7408 72.2009 75.1549 72.6151 75.1384 73.1199Z" fill="#50E6FF" fill-opacity="0.5"/>
<rect x="31.5" y="31.5" width="60" height="60" rx="3" fill="url(#paint1_linear_85_2149)"/>
<rect x="31.5" y="31.5" width="60" height="60" rx="3" fill="white" fill-opacity="0.2"/>
<path d="M41.5 61.5C41.5 50.455 50.455 41.5 61.5 41.5C72.545 41.5 81.5 50.455 81.5 61.5C81.5 72.545 72.545 81.5 61.5 81.5C50.455 81.5 41.5 72.545 41.5 61.5Z" fill="url(#paint2_radial_85_2149)"/>
<path d="M78.5 61.5C78.5 58.261 77.827 55.209 76.661 52.5H79.343C78.995 51.811 78.618 51.14 78.195 50.5H75.683C72.638 45.084 67.421 41.5 61.5 41.5C55.579 41.5 50.362 45.084 47.317 50.5H44.805C44.382 51.14 44.005 51.811 43.657 52.5H46.339C45.173 55.209 44.5 58.261 44.5 61.5C44.5 64.739 45.173 67.791 46.339 70.5H43.657C44.005 71.189 44.382 71.86 44.805 72.5H47.317C50.362 77.916 55.579 81.5 61.5 81.5C67.421 81.5 72.638 77.916 75.683 72.5H78.195C78.618 71.86 78.995 71.189 79.343 70.5H76.661C77.827 67.791 78.5 64.739 78.5 61.5ZM76.5 61.5C76.5 64.78 75.753 67.849 74.471 70.5H68.678C69.221 67.667 69.5 64.553 69.5 61.5C69.5 58.447 69.221 55.333 68.678 52.5H74.471C75.753 55.151 76.5 58.22 76.5 61.5ZM61.5 79.5C59.81 79.5 58.009 76.863 56.826 72.5H66.175C64.991 76.863 63.19 79.5 61.5 79.5ZM56.348 70.5C55.821 67.913 55.5 64.871 55.5 61.5C55.5 58.129 55.821 55.087 56.348 52.5H66.652C67.179 55.087 67.5 58.129 67.5 61.5C67.5 64.871 67.179 67.913 66.652 70.5H56.348ZM61.5 43.5C63.19 43.5 64.991 46.137 66.174 50.5H56.825C58.009 46.137 59.81 43.5 61.5 43.5ZM73.347 50.5H68.236C67.61 48.001 66.757 45.816 65.684 44.227C68.763 45.303 71.429 47.532 73.347 50.5ZM57.316 44.227C56.243 45.817 55.39 48.001 54.764 50.5H49.653C51.571 47.532 54.237 45.303 57.316 44.227ZM46.5 61.5C46.5 58.22 47.247 55.151 48.529 52.5H54.322C53.779 55.333 53.5 58.447 53.5 61.5C53.5 64.553 53.779 67.667 54.322 70.5H48.529C47.247 67.849 46.5 64.78 46.5 61.5ZM49.653 72.5H54.764C55.39 74.999 56.243 77.184 57.316 78.773C54.237 77.697 51.571 75.468 49.653 72.5ZM65.684 78.773C66.757 77.183 67.61 74.999 68.236 72.5H73.347C71.429 75.468 68.763 77.697 65.684 78.773Z" fill="url(#paint3_radial_85_2149)"/>
<path d="M65.405 57.5L64.093 63.743L62.5 57.5H60.5L58.907 63.743L57.595 57.5H55.5L57.5 65.5H59.951C59.951 65.5 61.464 59.864 61.5 59.5C61.536 59.864 63.049 65.5 63.049 65.5H65.5L67.5 57.5H65.405Z" fill="white"/>
<path d="M53.405 57.5L52.093 63.743L50.5 57.5H48.5L46.907 63.743L45.595 57.5H43.5L45.5 65.5H47.951C47.951 65.5 49.464 59.864 49.5 59.5C49.536 59.864 51.049 65.5 51.049 65.5H53.5L55.5 57.5H53.405Z" fill="white"/>
<path d="M77.405 57.5L76.093 63.743L74.5 57.5H72.5L70.907 63.743L69.595 57.5H67.5L69.5 65.5H71.951C71.951 65.5 73.464 59.864 73.5 59.5C73.536 59.864 75.049 65.5 75.049 65.5H77.5L79.5 57.5H77.405Z" fill="white"/>
<rect x="30.5" y="30.5" width="62" height="62" rx="4" stroke="#E2E2E2" stroke-opacity="0.59" stroke-width="2"/>
<rect x="99.5" y="102.5" width="60" height="60" rx="3" fill="url(#paint4_linear_85_2149)"/>
<rect x="99.5" y="102.5" width="60" height="60" rx="3" fill="white" fill-opacity="0.2"/>
<path d="M128.574 144.537C133.688 144.537 137.833 140.392 137.833 135.278C137.833 130.164 133.688 126.018 128.574 126.018C123.46 126.018 119.315 130.164 119.315 135.278C119.315 140.392 123.46 144.537 128.574 144.537Z" fill="white"/>
<path d="M151.82 134.095H136.396V127.87H151.249C151.564 127.87 151.82 128.124 151.82 128.436V134.095Z" fill="url(#paint5_linear_85_2149)"/>
<path d="M146.107 134.095H131.825C131.51 134.095 131.254 133.841 131.254 133.529V128.436C131.254 128.124 131.51 127.87 131.825 127.87H146.107C146.423 127.87 146.678 128.124 146.678 128.436V133.529C146.678 133.841 146.423 134.095 146.107 134.095Z" fill="url(#paint6_linear_85_2149)"/>
<path d="M151.82 132.397H131.254V133.529C131.254 133.841 131.51 134.095 131.825 134.095H136.396H146.107H151.82V132.397Z" fill="white" fill-opacity="0.5"/>
<path d="M151.82 132.68H131.254V133.529C131.254 133.841 131.51 134.095 131.825 134.095H136.396H146.107H151.82V132.68Z" fill="white" fill-opacity="0.5"/>
<path d="M151.82 148.241H145.536V132.963H152.391C152.707 132.963 152.962 133.216 152.962 133.529V147.109C152.962 147.734 152.451 148.241 151.82 148.241Z" fill="url(#paint7_linear_85_2149)"/>
<path d="M145.536 148.241H131.254C130.623 148.241 130.112 147.734 130.112 147.109V133.529C130.112 133.216 130.368 132.963 130.683 132.963H146.678V147.109C146.678 147.734 146.167 148.241 145.536 148.241Z" fill="url(#paint8_linear_85_2149)"/>
<path d="M146.678 132.963H130.465C130.248 132.963 130.051 133.084 129.954 133.276L128.605 135.949C128.51 136.137 128.647 136.358 128.86 136.358H144.612C144.828 136.358 145.026 136.237 145.122 136.045L146.678 132.963Z" fill="url(#paint9_linear_85_2149)"/>
<path d="M146.678 132.963H152.609C152.826 132.963 153.024 133.084 153.12 133.276L154.47 135.949C154.564 136.137 154.427 136.358 154.214 136.358H148.745C148.529 136.358 148.331 136.237 148.235 136.045L146.678 132.963Z" fill="url(#paint10_linear_85_2149)"/>
<path d="M107.18 123.549H122.604V116.759H107.751C107.436 116.759 107.18 117.036 107.18 117.377V123.549Z" fill="url(#paint11_linear_85_2149)"/>
<path d="M112.893 123.549H127.175C127.49 123.549 127.746 123.273 127.746 122.932V117.377C127.746 117.036 127.49 116.759 127.175 116.759H112.893C112.577 116.759 112.322 117.036 112.322 117.377V122.932C112.322 123.273 112.577 123.549 112.893 123.549Z" fill="url(#paint12_linear_85_2149)"/>
<path d="M107.18 121.698H127.746L127.746 122.932C127.746 123.273 127.49 123.549 127.175 123.549H122.604H112.893H107.18V121.698Z" fill="white" fill-opacity="0.5"/>
<path d="M107.18 122.006H127.746L127.746 122.932C127.746 123.273 127.49 123.549 127.175 123.549H122.604H112.893H107.18V122.006Z" fill="white" fill-opacity="0.5"/>
<path d="M107.18 138.981H113.464V122.315H106.609C106.293 122.315 106.038 122.591 106.038 122.932V137.747C106.038 138.429 106.549 138.981 107.18 138.981Z" fill="url(#paint13_linear_85_2149)"/>
<path d="M113.464 138.981H127.746C128.377 138.981 128.888 138.429 128.888 137.747V122.932C128.888 122.591 128.632 122.315 128.317 122.315H112.322V137.747C112.322 138.429 112.833 138.981 113.464 138.981Z" fill="url(#paint14_linear_85_2149)"/>
<path d="M112.322 122.315H128.535C128.752 122.315 128.949 122.447 129.046 122.656L130.395 125.572C130.49 125.777 130.353 126.019 130.14 126.019H114.388C114.172 126.019 113.974 125.886 113.878 125.677L112.322 122.315Z" fill="url(#paint15_linear_85_2149)"/>
<path d="M112.322 122.315H106.391C106.174 122.315 105.976 122.447 105.88 122.656L104.531 125.572C104.436 125.777 104.573 126.019 104.786 126.019H110.255C110.471 126.019 110.669 125.886 110.765 125.677L112.322 122.315Z" fill="url(#paint16_linear_85_2149)"/>
<path d="M120.241 133.403V135.78C120.241 136.156 120.696 136.344 120.96 136.076L124.433 132.59C124.733 132.282 124.733 131.79 124.433 131.486L120.96 127.996C120.696 127.728 120.241 127.916 120.241 128.293V131.32" fill="#20C997"/>
<path d="M121.167 130.647H114.222C113.965 130.647 113.759 130.853 113.759 131.11V132.962C113.759 133.219 113.965 133.425 114.222 133.425H121.167" fill="#20C997"/>
<path d="M136.907 140.579V137.552C136.907 137.176 136.452 136.988 136.188 137.255L132.715 140.742C132.415 141.049 132.415 141.541 132.715 141.845L136.188 145.335C136.452 145.603 136.907 145.415 136.907 145.039V142.663" fill="#20C997"/>
<path d="M135.056 142.684H142.926C143.183 142.684 143.389 142.478 143.389 142.221V140.369C143.389 140.113 143.183 139.906 142.926 139.906H135.056" fill="#20C997"/>
<rect x="98.5" y="101.5" width="62" height="62" rx="4" stroke="#E2E2E2" stroke-opacity="0.59" stroke-width="2"/>
<defs>
<filter id="filter0_d_85_2149" x="0.5" y="2.5" width="198" height="198" filterUnits="userSpaceOnUse" color-interpolation-filters="sRGB">
<feFlood flood-opacity="0" result="BackgroundImageFix"/>
<feColorMatrix in="SourceAlpha" type="matrix" values="0 0 0 0 0 0 0 0 0 0 0 0 0 0 0 0 0 0 127 0" result="hardAlpha"/>
<feOffset dy="4"/>
<feGaussianBlur stdDeviation="2"/>
<feComposite in2="hardAlpha" operator="out"/>
<feColorMatrix type="matrix" values="0 0 0 0 0 0 0 0 0 0 0 0 0 0 0 0 0 0 0.25 0"/>
<feBlend mode="normal" in2="BackgroundImageFix" result="effect1_dropShadow_85_2149"/>
<feBlend mode="normal" in="SourceGraphic" in2="effect1_dropShadow_85_2149" result="shape"/>
</filter>
<linearGradient id="paint0_linear_85_2149" x1="99.5" y1="18.4677" x2="99.5" y2="176.532" gradientUnits="userSpaceOnUse">
<stop stop-color="white"/>
<stop offset="0.472222" stop-color="#0D5176" stop-opacity="0.527778"/>
<stop offset="0.940972" stop-color="#12A6F7" stop-opacity="0.465278"/>
</linearGradient>
<linearGradient id="paint1_linear_85_2149" x1="61.5" y1="31.5" x2="88.3" y2="99.9" gradientUnits="userSpaceOnUse">
<stop stop-color="#B8DFFC"/>
<stop offset="0.453125" stop-color="#E5EFF7" stop-opacity="0.98"/>
<stop offset="1" stop-color="#8FC3EB"/>
</linearGradient>
<radialGradient id="paint2_radial_85_2149" cx="0" cy="0" r="1" gradientUnits="userSpaceOnUse" gradientTransform="translate(47.832 46.681) scale(40.041)">
<stop stop-color="#6FCEFC"/>
<stop offset="1" stop-color="#167CF7"/>
</radialGradient>
<radialGradient id="paint3_radial_85_2149" cx="0" cy="0" r="1" gradientUnits="userSpaceOnUse" gradientTransform="translate(47.2255 45.98) scale(45.0092 40.155)">
<stop offset="0.001" stop-color="#54C0F5"/>
<stop offset="0.998" stop-color="#0B69DB"/>
</radialGradient>
<linearGradient id="paint4_linear_85_2149" x1="129.5" y1="102.5" x2="156.3" y2="170.9" gradientUnits="userSpaceOnUse">
<stop stop-color="#B8DFFC"/>
<stop offset="0.453125" stop-color="#E5EFF7" stop-opacity="0.98"/>
<stop offset="1" stop-color="#8FC3EB"/>
</linearGradient>
<linearGradient id="paint5_linear_85_2149" x1="108.788" y1="133.872" x2="193.523" y2="161.951" gradientUnits="userSpaceOnUse">
<stop stop-color="#C26715"/>
<stop offset="0.508" stop-color="#B85515"/>
<stop offset="1" stop-color="#AD3F16"/>
</linearGradient>
<linearGradient id="paint6_linear_85_2149" x1="99.8338" y1="79.1068" x2="196.837" y2="104.245" gradientUnits="userSpaceOnUse">
<stop stop-color="#EBA84B"/>
<stop offset="1" stop-color="#D97218"/>
</linearGradient>
<linearGradient id="paint7_linear_85_2149" x1="-56.2416" y1="111.763" x2="-49.7079" y2="169.868" gradientUnits="userSpaceOnUse">
<stop stop-color="#EBA600"/>
<stop offset="1" stop-color="#C28200"/>
</linearGradient>
<linearGradient id="paint8_linear_85_2149" x1="103.686" y1="105.387" x2="138.511" y2="167.622" gradientUnits="userSpaceOnUse">
<stop stop-color="#FFD869"/>
<stop offset="1" stop-color="#FEC52B"/>
</linearGradient>
<linearGradient id="paint9_linear_85_2149" x1="140.3" y1="250.24" x2="140.3" y2="-748.063" gradientUnits="userSpaceOnUse">
<stop stop-color="#EBA600"/>
<stop offset="1" stop-color="#C28200"/>
</linearGradient>
<linearGradient id="paint10_linear_85_2149" x1="129.501" y1="146.819" x2="129.501" y2="125.008" gradientUnits="userSpaceOnUse">
<stop stop-color="#FFD869"/>
<stop offset="1" stop-color="#FEC52B"/>
</linearGradient>
<linearGradient id="paint11_linear_85_2149" x1="125.454" y1="133.872" x2="210.19" y2="161.951" gradientUnits="userSpaceOnUse">
<stop stop-color="#C26715"/>
<stop offset="0.508" stop-color="#B85515"/>
<stop offset="1" stop-color="#AD3F16"/>
</linearGradient>
<linearGradient id="paint12_linear_85_2149" x1="83.1671" y1="79.1064" x2="180.17" y2="104.244" gradientUnits="userSpaceOnUse">
<stop stop-color="#EBA84B"/>
<stop offset="1" stop-color="#D97218"/>
</linearGradient>
<linearGradient id="paint13_linear_85_2149" x1="47.6108" y1="111.763" x2="54.1448" y2="169.868" gradientUnits="userSpaceOnUse">
<stop stop-color="#EBA600"/>
<stop offset="1" stop-color="#C28200"/>
</linearGradient>
<linearGradient id="paint14_linear_85_2149" x1="84.72" y1="105.387" x2="119.545" y2="167.622" gradientUnits="userSpaceOnUse">
<stop stop-color="#FFD869"/>
<stop offset="1" stop-color="#FEC52B"/>
</linearGradient>
<linearGradient id="paint15_linear_85_2149" x1="118.699" y1="250.24" x2="118.699" y2="-748.064" gradientUnits="userSpaceOnUse">
<stop stop-color="#EBA600"/>
<stop offset="1" stop-color="#C28200"/>
</linearGradient>
<linearGradient id="paint16_linear_85_2149" x1="129.499" y1="146.819" x2="129.499" y2="125.007" gradientUnits="userSpaceOnUse">
<stop stop-color="#FFD869"/>
<stop offset="1" stop-color="#FEC52B"/>
</linearGradient>
</defs>
</svg>
