<svg width="10" height="16" viewBox="0 0 10 16" fill="none" xmlns="http://www.w3.org/2000/svg">
<g id="account-icon">
<path id="Vector" d="M4.8889 4.44443C6.11614 4.44443 7.11107 3.4495 7.11107 2.22221C7.11107 0.994913 6.11614 0 4.8889 0C3.6616 0 2.66669 0.994913 2.66669 2.22221C2.66669 3.4495 3.6616 4.44443 4.8889 4.44443Z" fill="url(#paint0_linear_2_1154)"/>
<path id="Vector_2" opacity="0.05" d="M9.77785 15.1111V9.33331C9.77785 8.57733 9.60051 7.86355 9.29252 7.224C7.53242 7.644 6.2222 9.22267 6.2222 11.111V15.1111C6.2222 15.6022 6.61997 16 7.11107 16H9.5306C9.6835 15.7373 9.77785 15.4364 9.77785 15.1111Z" fill="black"/>
<path id="Vector_3" opacity="0.067" d="M9.48139 15.1111V9.3333C9.48139 8.61286 9.31016 7.93331 9.01336 7.32574C7.39955 7.82309 6.2222 9.32753 6.2222 11.111V15.1111C6.2222 15.6022 6.61997 16 7.11107 16H9.02049C9.28624 15.8249 9.48139 15.4914 9.48139 15.1111Z" fill="black"/>
<path id="Vector_4" opacity="0.09" d="M9.18527 15.1111V9.3333C9.18527 8.64798 9.02049 8.00264 8.73472 7.42754C7.26668 8.0022 6.2222 9.4324 6.2222 11.111V15.1111C6.2222 15.6022 6.61997 16 7.11107 16H8.51021C8.88847 15.9124 9.18527 15.5466 9.18527 15.1111Z" fill="black"/>
<path id="Vector_5" opacity="0.05" d="M0 15.1111V9.33331C0 8.57733 0.177333 7.86355 0.485332 7.224C2.24534 7.644 3.55555 9.22267 3.55555 11.111V15.1111C3.55555 15.6022 3.15778 16 2.66666 16H0.247112C0.0942324 15.7373 0 15.4364 0 15.1111Z" fill="black"/>
<path id="Vector_6" opacity="0.067" d="M0.296463 15.1111V9.3333C0.296463 8.61286 0.467567 7.93331 0.764468 7.32574C2.37823 7.82309 3.55557 9.32753 3.55557 11.111V15.1111C3.55557 15.6022 3.15778 16 2.66668 16H0.757359C0.491581 15.8249 0.296463 15.4914 0.296463 15.1111Z" fill="black"/>
<path id="Vector_7" opacity="0.09" d="M0.592453 15.1111V9.3333C0.592453 8.64798 0.757347 8.00264 1.04313 7.42754C2.51113 8.0022 3.55556 9.4324 3.55556 11.111V15.1111C3.55556 15.6022 3.15779 16 2.66667 16H1.26757C0.889354 15.9124 0.592453 15.5466 0.592453 15.1111Z" fill="black"/>
<path id="Vector_8" d="M4.88888 5.33331C2.67959 5.33331 0.888916 7.12398 0.888916 9.3333V15.1111C0.888916 15.6022 1.2867 16 1.7778 16H7.99993C8.4912 16 8.88896 15.6022 8.88896 15.1111V9.3333C8.88896 7.12398 7.09816 5.33331 4.88888 5.33331Z" fill="url(#paint1_linear_2_1154)"/>
</g>
<defs>
<linearGradient id="paint0_linear_2_1154" x1="3.38135" y1="0.714659" x2="6.48184" y2="3.8151" gradientUnits="userSpaceOnUse">
<stop stop-color="#32BDEF"/>
<stop offset="1" stop-color="#1EA2E4"/>
</linearGradient>
<linearGradient id="paint1_linear_2_1154" x1="3.63601" y1="5.80309" x2="5.86752" y2="16.96" gradientUnits="userSpaceOnUse">
<stop stop-color="#32BDEF"/>
<stop offset="1" stop-color="#1EA2E4"/>
</linearGradient>
</defs>
</svg>
