<svg width="13" height="16" viewBox="0 0 13 16" fill="none" xmlns="http://www.w3.org/2000/svg">
<g id="document-icon">
<path d="M11.3751 5.19992V15.1999C11.3751 15.6418 11.0117 16 10.5625 16H0.812518C0.363624 16 0 15.6418 0 15.1999V2.39995C0 1.95793 0.363624 1.59994 0.812518 1.59994H7.71899L11.3751 5.19992Z" fill="#199BE2"/>
<path d="M0.812518 1.59994H7.71864L11.3751 5.19992V15.1999H2.3079C1.48198 15.1999 0.812483 14.5408 0.812483 13.7274L0.812518 1.59994Z" fill="black"/>
<path d="M1.21876 1.59994H7.71899L11.3751 5.19992V14.7998H2.37214C1.73513 14.7998 1.21876 14.2916 1.21876 13.6642V1.59994Z" fill="black"/>
<path d="M13 3.99997V13.6C13 14.042 12.6366 14.3998 12.1877 14.3998H2.43752C1.98859 14.3998 1.625 14.042 1.625 13.6V0.799973C1.625 0.357992 1.98859 0 2.43752 0H8.93758L13 3.99997Z" fill="#50E6FF"/>
<path d="M8.93758 0V3.19996C8.93758 3.64198 9.30134 3.99997 9.7502 3.99997H13L8.93758 0Z" fill="url(#paint0_linear_2_1080)"/>
<path d="M10.2852 6.77358H4.1913C4.07916 6.77358 3.98818 6.68387 3.98818 6.57356V6.1735C3.98818 6.06319 4.07916 5.97347 4.1913 5.97347H10.2852C10.3973 5.97347 10.4884 6.06319 10.4884 6.1735V6.57356C10.4884 6.68387 10.3973 6.77358 10.2852 6.77358Z" fill="#057093"/>
<path d="M10.2852 8.37345H4.1913C4.07916 8.37345 3.98818 8.28409 3.98818 8.17342V7.77337C3.98818 7.66306 4.07916 7.57369 4.1913 7.57369H10.2852C10.3973 7.57369 10.4884 7.66306 10.4884 7.77337V8.17342C10.4884 8.28409 10.3973 8.37345 10.2852 8.37345Z" fill="#057093"/>
<path d="M10.2852 9.97333H4.1913C4.07916 9.97333 3.98818 9.88396 3.98818 9.77365V9.37359C3.98818 9.26293 4.07916 9.17357 4.1913 9.17357H10.2852C10.3973 9.17357 10.4884 9.26293 10.4884 9.37359V9.77365C10.4884 9.88396 10.3973 9.97333 10.2852 9.97333Z" fill="#057093"/>
<path d="M8.65997 11.5736H4.1913C4.07916 11.5736 3.98818 11.4838 3.98818 11.3735V10.9735C3.98818 10.8632 4.07916 10.7734 4.1913 10.7734H8.65997C8.77236 10.7734 8.86312 10.8632 8.86312 10.9735V11.3735C8.86312 11.4838 8.77236 11.5736 8.65997 11.5736Z" fill="#057093"/>
</g>
<defs>
<linearGradient id="paint0_linear_2_1080" x1="0.694362" y1="15.1456" x2="7.8292" y2="9.34791" gradientUnits="userSpaceOnUse">
<stop stop-color="#3079D6"/>
<stop offset="1" stop-color="#297CD2"/>
</linearGradient>
</defs>
</svg>
