<svg width="16" height="17" viewBox="0 0 16 17" fill="none" xmlns="http://www.w3.org/2000/svg">
<g id="support-icon">
<path id="Vector" d="M5.90431 0C3.06403 0 0.761648 2.30238 0.761648 5.14266C0.761648 5.927 0.942213 6.66716 1.25648 7.33229C1.25153 7.34371 1.24544 7.35285 1.24125 7.36581L0.0348254 10.1108C-0.114515 10.4506 0.244718 10.79 0.575363 10.6217L3.00156 9.3863C3.82781 9.95274 4.82664 10.2853 5.90431 10.2853C8.74457 10.2853 11.047 7.98292 11.047 5.14266C11.047 2.30238 8.74457 0 5.90431 0Z" fill="url(#paint0_linear_2_1122)"/>
<path id="Vector_2" d="M15.9651 15.5151L14.5722 12.3458C14.9969 11.5634 15.2379 10.6666 15.2379 9.71392C15.2379 6.66337 12.7649 4.19032 9.7144 4.19032C6.66384 4.19032 4.1908 6.66337 4.1908 9.71392C4.1908 12.7644 6.66384 15.2374 9.7144 15.2374C10.7098 15.2374 11.6412 14.9705 12.4477 14.5099L15.4247 16.0257C15.7552 16.1941 16.1146 15.8547 15.9651 15.5151Z" fill="url(#paint1_linear_2_1122)"/>
<path id="Vector_3" d="M9.20546 10.9516C9.18031 10.886 9.12622 10.6918 9.12622 10.4994C9.12622 9.40459 10.2534 9.36267 10.2534 8.55052C10.2534 8.03929 9.74829 8.00768 9.65801 8.00768C9.08432 8.00768 8.63633 8.33568 8.44815 8.50138V7.36656C8.64167 7.25115 9.08432 7.01991 9.79019 7.01991C11.4244 7.01991 11.445 8.1433 11.445 8.38443C11.445 9.68114 10.1068 9.77751 10.1068 10.6083C10.1068 10.7817 10.1696 10.9085 10.197 10.9512H9.20546V10.9516ZM9.75553 12.734C9.44429 12.734 9.11555 12.5397 9.11555 12.1629C9.11555 11.7858 9.45725 11.5988 9.75553 11.5988C10.0538 11.5988 10.3852 11.766 10.3852 12.1629C10.3852 12.5598 10.0668 12.734 9.75553 12.734Z" fill="white"/>
</g>
<defs>
<linearGradient id="paint0_linear_2_1122" x1="2.6652" y1="1.11767" x2="7.15378" y2="10.6259" gradientUnits="userSpaceOnUse">
<stop stop-color="#0176D0"/>
<stop offset="1" stop-color="#22A5E2"/>
</linearGradient>
<linearGradient id="paint1_linear_2_1122" x1="6.89697" y1="4.96211" x2="13.7322" y2="16.49" gradientUnits="userSpaceOnUse">
<stop stop-color="#0176D0"/>
<stop offset="1" stop-color="#16538C"/>
</linearGradient>
</defs>
</svg>
