<svg width="199" height="201" viewBox="0 0 199 201" fill="none" xmlns="http://www.w3.org/2000/svg">
<g filter="url(#filter0_d_87_8039)">
<path d="M172.887 10H26.1129C18.3186 10 12 16.3186 12 24.1129V170.887C12 178.681 18.3186 185 26.1129 185H172.887C180.681 185 187 178.681 187 170.887V24.1129C187 16.3186 180.681 10 172.887 10Z" fill="white"/>
<path d="M172.887 10H26.1129C18.3186 10 12 16.3186 12 24.1129V170.887C12 178.681 18.3186 185 26.1129 185H172.887C180.681 185 187 178.681 187 170.887V24.1129C187 16.3186 180.681 10 172.887 10Z" stroke="#F2F2F2" stroke-width="15" stroke-linecap="round"/>
<path d="M26.1129 10.5H172.887C180.405 10.5 186.5 16.5948 186.5 24.1129V170.887C186.5 178.405 180.405 184.5 172.887 184.5H26.1129C18.5948 184.5 12.5 178.405 12.5 170.887V24.1129C12.5 16.5947 18.5947 10.5 26.1129 10.5Z" fill="url(#paint0_linear_87_8039)" fill-opacity="0.2" stroke="white"/>
</g>
<g filter="url(#filter1_bd_87_8039)">
<path d="M151.826 46.5H47.174C42.953 46.5 39.5 50.1688 39.5 54.6536V140.346C39.5 144.831 42.953 148.5 47.174 148.5H151.826C156.047 148.5 159.5 144.831 159.5 140.346V54.6536C159.5 50.1688 156.047 46.5 151.826 46.5Z" fill="url(#paint1_linear_87_8039)"/>
<path d="M119.09 142.5H148.913C151.448 142.5 153.503 140.445 153.503 137.91V108.09C153.503 105.555 151.448 103.5 148.913 103.5H119.09C116.555 103.5 114.5 105.555 114.5 108.09V137.913C114.5 140.445 116.555 142.5 119.09 142.5Z" fill="url(#paint2_linear_87_8039)"/>
<path d="M98 100.5H53C52.172 100.5 51.5 99.828 51.5 99V96C51.5 95.172 52.172 94.5 53 94.5H98C98.828 94.5 99.5 95.172 99.5 96V99C99.5 99.828 98.828 100.5 98 100.5Z" fill="#0D86AD"/>
<path d="M98 112.5H53C52.172 112.5 51.5 111.828 51.5 111V108C51.5 107.172 52.172 106.5 53 106.5H98C98.828 106.5 99.5 107.172 99.5 108V111C99.5 111.828 98.828 112.5 98 112.5Z" fill="#0D86AD"/>
<path d="M98 124.5H53C52.172 124.5 51.5 123.828 51.5 123V120C51.5 119.172 52.172 118.5 53 118.5H98C98.828 118.5 99.5 119.172 99.5 120V123C99.5 123.828 98.828 124.5 98 124.5Z" fill="#0D86AD"/>
<path d="M89 136.5H53C52.172 136.5 51.5 135.828 51.5 135V132C51.5 131.172 52.172 130.5 53 130.5H89C89.828 130.5 90.5 131.172 90.5 132V135C90.5 135.828 89.828 136.5 89 136.5Z" fill="#0D86AD"/>
<path d="M147.5 111V136.5H138.5V111C138.5 110.172 139.172 109.5 140 109.5H146C146.828 109.5 147.5 110.172 147.5 111Z" fill="#35C1F1"/>
<path d="M138.5 115.5V136.5H129.5V117C129.5 116.172 130.172 115.5 131 115.5H138.5Z" fill="#199BE2"/>
<path d="M129.5 121.5V136.5H120.5V123C120.5 122.172 121.172 121.5 122 121.5H129.5Z" fill="#0078D4"/>
<path d="M119.09 97.5H148.913C151.448 97.5 153.503 95.445 153.503 92.91V63.09C153.503 60.555 151.448 58.5 148.913 58.5H119.09C116.555 58.5 114.5 60.555 114.5 63.09V92.913C114.5 95.445 116.555 97.5 119.09 97.5Z" fill="url(#paint3_linear_87_8039)"/>
<path d="M120.5 78C120.5 85.455 126.545 91.5 134 91.5C141.455 91.5 147.5 85.455 147.5 78H134H120.5Z" fill="#D35230"/>
<path d="M134 64.5V78H147.5C147.5 70.545 141.455 64.5 134 64.5Z" fill="#FF8F6B"/>
<path d="M134 64.5C126.545 64.5 120.5 70.545 120.5 78H134V64.5Z" fill="#ED6C47"/>
<path d="M65.0339 77.0253H62.0476C61.993 76.6389 61.8817 76.2958 61.7135 75.9958C61.5453 75.6912 61.3294 75.4321 61.0658 75.2185C60.8021 75.0048 60.4976 74.8412 60.1521 74.7276C59.8112 74.6139 59.4408 74.5571 59.0408 74.5571C58.318 74.5571 57.6885 74.7367 57.1521 75.0958C56.6158 75.4503 56.1999 75.9685 55.9044 76.6503C55.6089 77.3276 55.4612 78.1503 55.4612 79.1185C55.4612 80.1139 55.6089 80.9503 55.9044 81.6276C56.2044 82.3048 56.6226 82.8162 57.1589 83.1617C57.6953 83.5071 58.3158 83.6798 59.0203 83.6798C59.4158 83.6798 59.7817 83.6276 60.118 83.523C60.4589 83.4185 60.7612 83.2662 61.0249 83.0662C61.2885 82.8617 61.5067 82.6139 61.6794 82.323C61.8567 82.0321 61.9794 81.7003 62.0476 81.3276L65.0339 81.3412C64.9567 81.9821 64.7635 82.6003 64.4544 83.1958C64.1499 83.7867 63.7385 84.3162 63.2203 84.7844C62.7067 85.248 62.093 85.6162 61.3794 85.8889C60.6703 86.1571 59.868 86.2912 58.9726 86.2912C57.7271 86.2912 56.6135 86.0094 55.6317 85.4458C54.6544 84.8821 53.8817 84.0662 53.3135 82.998C52.7499 81.9298 52.468 80.6367 52.468 79.1185C52.468 77.5958 52.7544 76.3003 53.3271 75.2321C53.8999 74.1639 54.6771 73.3503 55.6589 72.7912C56.6408 72.2276 57.7453 71.9458 58.9726 71.9458C59.7817 71.9458 60.5317 72.0594 61.2226 72.2867C61.918 72.5139 62.5339 72.8458 63.0703 73.2821C63.6067 73.7139 64.043 74.2435 64.3794 74.8708C64.7203 75.498 64.9385 76.2162 65.0339 77.0253Z" fill="white"/>
<path d="M67.1511 86.1003V72.1367H72.6602C73.7147 72.1367 74.6147 72.3253 75.3602 72.7026C76.1102 73.0753 76.6806 73.6048 77.0715 74.2912C77.467 74.973 77.6647 75.7753 77.6647 76.698C77.6647 77.6253 77.4647 78.423 77.0647 79.0912C76.6647 79.7548 76.0852 80.2639 75.3261 80.6185C74.5715 80.973 73.6579 81.1503 72.5852 81.1503H68.8965V78.7776H72.1079C72.6715 78.7776 73.1397 78.7003 73.5125 78.5458C73.8852 78.3912 74.1625 78.1594 74.3443 77.8503C74.5306 77.5412 74.6238 77.1571 74.6238 76.698C74.6238 76.2344 74.5306 75.8435 74.3443 75.5253C74.1625 75.2071 73.8829 74.9662 73.5056 74.8026C73.1329 74.6344 72.6625 74.5503 72.0943 74.5503H70.1034V86.1003H67.1511ZM74.692 79.7458L78.1625 86.1003H74.9034L71.5079 79.7458H74.692Z" fill="white"/>
<path d="M79.751 72.1367H83.3919L87.2374 81.5185H87.401L91.2464 72.1367H94.8874V86.1003H92.0237V77.0117H91.9078L88.2942 86.0321H86.3442L82.7305 76.9776H82.6146V86.1003H79.751V72.1367Z" fill="white"/>
</g>
<defs>
<filter id="filter0_d_87_8039" x="0.5" y="2.5" width="198" height="198" filterUnits="userSpaceOnUse" color-interpolation-filters="sRGB">
<feFlood flood-opacity="0" result="BackgroundImageFix"/>
<feColorMatrix in="SourceAlpha" type="matrix" values="0 0 0 0 0 0 0 0 0 0 0 0 0 0 0 0 0 0 127 0" result="hardAlpha"/>
<feOffset dy="4"/>
<feGaussianBlur stdDeviation="2"/>
<feComposite in2="hardAlpha" operator="out"/>
<feColorMatrix type="matrix" values="0 0 0 0 0 0 0 0 0 0 0 0 0 0 0 0 0 0 0.25 0"/>
<feBlend mode="normal" in2="BackgroundImageFix" result="effect1_dropShadow_87_8039"/>
<feBlend mode="normal" in="SourceGraphic" in2="effect1_dropShadow_87_8039" result="shape"/>
</filter>
<filter id="filter1_bd_87_8039" x="35.5" y="42.5" width="128" height="112" filterUnits="userSpaceOnUse" color-interpolation-filters="sRGB">
<feFlood flood-opacity="0" result="BackgroundImageFix"/>
<feGaussianBlur in="BackgroundImageFix" stdDeviation="2"/>
<feComposite in2="SourceAlpha" operator="in" result="effect1_backgroundBlur_87_8039"/>
<feColorMatrix in="SourceAlpha" type="matrix" values="0 0 0 0 0 0 0 0 0 0 0 0 0 0 0 0 0 0 127 0" result="hardAlpha"/>
<feOffset dy="2"/>
<feGaussianBlur stdDeviation="2"/>
<feComposite in2="hardAlpha" operator="out"/>
<feColorMatrix type="matrix" values="0 0 0 0 1 0 0 0 0 1 0 0 0 0 1 0 0 0 1 0"/>
<feBlend mode="normal" in2="effect1_backgroundBlur_87_8039" result="effect2_dropShadow_87_8039"/>
<feBlend mode="normal" in="SourceGraphic" in2="effect2_dropShadow_87_8039" result="shape"/>
</filter>
<linearGradient id="paint0_linear_87_8039" x1="99.5" y1="18.4677" x2="99.5" y2="176.532" gradientUnits="userSpaceOnUse">
<stop stop-color="white"/>
<stop offset="0.472222" stop-color="#0D5176" stop-opacity="0.527778"/>
<stop offset="0.940972" stop-color="#12A6F7" stop-opacity="0.465278"/>
</linearGradient>
<linearGradient id="paint1_linear_87_8039" x1="11.657" y1="45.5533" x2="215.674" y2="152.424" gradientUnits="userSpaceOnUse">
<stop stop-color="#33D7F0"/>
<stop offset="0.187" stop-color="#2FD1ED"/>
<stop offset="0.445" stop-color="#24BFE3"/>
<stop offset="0.744" stop-color="#13A2D4"/>
<stop offset="1" stop-color="#0083C4"/>
</linearGradient>
<linearGradient id="paint2_linear_87_8039" x1="92.1113" y1="61.8863" x2="113.016" y2="201.404" gradientUnits="userSpaceOnUse">
<stop stop-color="#FCFCFC"/>
<stop offset="1" stop-color="#C3C9CD"/>
</linearGradient>
<linearGradient id="paint3_linear_87_8039" x1="92.1113" y1="61.8863" x2="113.016" y2="201.404" gradientUnits="userSpaceOnUse">
<stop stop-color="#FCFCFC"/>
<stop offset="1" stop-color="#C3C9CD"/>
</linearGradient>
</defs>
</svg>
