<svg width="195" height="195" viewBox="0 0 195 195" fill="none" xmlns="http://www.w3.org/2000/svg">
<g filter="url(#filter0_d_87_8033)">
<path d="M170.887 10H24.1129C16.3186 10 10 16.3186 10 24.1129V170.887C10 178.681 16.3186 185 24.1129 185H170.887C178.681 185 185 178.681 185 170.887V24.1129C185 16.3186 178.681 10 170.887 10Z" fill="url(#paint0_linear_87_8033)" fill-opacity="0.2"/>
<path d="M24.1129 10.5H170.887C178.405 10.5 184.5 16.5948 184.5 24.1129V170.887C184.5 178.405 178.405 184.5 170.887 184.5H24.1129C16.5948 184.5 10.5 178.405 10.5 170.887V24.1129C10.5 16.5947 16.5947 10.5 24.1129 10.5Z" stroke="#F7F7F7" stroke-opacity="0.27"/>
</g>
<g filter="url(#filter1_bd_87_8033)">
<path d="M149.826 46.5H45.174C40.953 46.5 37.5 50.1688 37.5 54.6536V140.346C37.5 144.831 40.953 148.5 45.174 148.5H149.826C154.047 148.5 157.5 144.831 157.5 140.346V54.6536C157.5 50.1688 154.047 46.5 149.826 46.5Z" fill="url(#paint1_linear_87_8033)"/>
<path d="M117.09 142.5H146.913C149.448 142.5 151.503 140.445 151.503 137.91V108.09C151.503 105.555 149.448 103.5 146.913 103.5H117.09C114.555 103.5 112.5 105.555 112.5 108.09V137.913C112.5 140.445 114.555 142.5 117.09 142.5Z" fill="url(#paint2_linear_87_8033)"/>
<path d="M96 100.5H51C50.172 100.5 49.5 99.828 49.5 99V96C49.5 95.172 50.172 94.5 51 94.5H96C96.828 94.5 97.5 95.172 97.5 96V99C97.5 99.828 96.828 100.5 96 100.5Z" fill="#0D86AD"/>
<path d="M96 112.5H51C50.172 112.5 49.5 111.828 49.5 111V108C49.5 107.172 50.172 106.5 51 106.5H96C96.828 106.5 97.5 107.172 97.5 108V111C97.5 111.828 96.828 112.5 96 112.5Z" fill="#0D86AD"/>
<path d="M96 124.5H51C50.172 124.5 49.5 123.828 49.5 123V120C49.5 119.172 50.172 118.5 51 118.5H96C96.828 118.5 97.5 119.172 97.5 120V123C97.5 123.828 96.828 124.5 96 124.5Z" fill="#0D86AD"/>
<path d="M87 136.5H51C50.172 136.5 49.5 135.828 49.5 135V132C49.5 131.172 50.172 130.5 51 130.5H87C87.828 130.5 88.5 131.172 88.5 132V135C88.5 135.828 87.828 136.5 87 136.5Z" fill="#0D86AD"/>
<path d="M145.5 111V136.5H136.5V111C136.5 110.172 137.172 109.5 138 109.5H144C144.828 109.5 145.5 110.172 145.5 111Z" fill="#35C1F1"/>
<path d="M136.5 115.5V136.5H127.5V117C127.5 116.172 128.172 115.5 129 115.5H136.5Z" fill="#199BE2"/>
<path d="M127.5 121.5V136.5H118.5V123C118.5 122.172 119.172 121.5 120 121.5H127.5Z" fill="#0078D4"/>
<path d="M117.09 97.5H146.913C149.448 97.5 151.503 95.445 151.503 92.91V63.09C151.503 60.555 149.448 58.5 146.913 58.5H117.09C114.555 58.5 112.5 60.555 112.5 63.09V92.913C112.5 95.445 114.555 97.5 117.09 97.5Z" fill="url(#paint3_linear_87_8033)"/>
<path d="M118.5 78C118.5 85.455 124.545 91.5 132 91.5C139.455 91.5 145.5 85.455 145.5 78H132H118.5Z" fill="#D35230"/>
<path d="M132 64.5V78H145.5C145.5 70.545 139.455 64.5 132 64.5Z" fill="#FF8F6B"/>
<path d="M132 64.5C124.545 64.5 118.5 70.545 118.5 78H132V64.5Z" fill="#ED6C47"/>
<path d="M63.0339 77.0253H60.0476C59.993 76.6389 59.8817 76.2958 59.7135 75.9958C59.5453 75.6912 59.3294 75.4321 59.0658 75.2185C58.8021 75.0048 58.4976 74.8412 58.1521 74.7276C57.8112 74.6139 57.4408 74.5571 57.0408 74.5571C56.318 74.5571 55.6885 74.7367 55.1521 75.0958C54.6158 75.4503 54.1999 75.9685 53.9044 76.6503C53.6089 77.3276 53.4612 78.1503 53.4612 79.1185C53.4612 80.1139 53.6089 80.9503 53.9044 81.6276C54.2044 82.3048 54.6226 82.8162 55.1589 83.1617C55.6953 83.5071 56.3158 83.6798 57.0203 83.6798C57.4158 83.6798 57.7817 83.6276 58.118 83.523C58.4589 83.4185 58.7612 83.2662 59.0249 83.0662C59.2885 82.8617 59.5067 82.6139 59.6794 82.323C59.8567 82.0321 59.9794 81.7003 60.0476 81.3276L63.0339 81.3412C62.9567 81.9821 62.7635 82.6003 62.4544 83.1958C62.1499 83.7867 61.7385 84.3162 61.2203 84.7844C60.7067 85.248 60.093 85.6162 59.3794 85.8889C58.6703 86.1571 57.868 86.2912 56.9726 86.2912C55.7271 86.2912 54.6135 86.0094 53.6317 85.4458C52.6544 84.8821 51.8817 84.0662 51.3135 82.998C50.7499 81.9298 50.468 80.6367 50.468 79.1185C50.468 77.5958 50.7544 76.3003 51.3271 75.2321C51.8999 74.1639 52.6771 73.3503 53.6589 72.7912C54.6408 72.2276 55.7453 71.9458 56.9726 71.9458C57.7817 71.9458 58.5317 72.0594 59.2226 72.2867C59.918 72.5139 60.5339 72.8458 61.0703 73.2821C61.6067 73.7139 62.043 74.2435 62.3794 74.8708C62.7203 75.498 62.9385 76.2162 63.0339 77.0253Z" fill="white"/>
<path d="M65.1511 86.1003V72.1367H70.6602C71.7147 72.1367 72.6147 72.3253 73.3602 72.7026C74.1102 73.0753 74.6806 73.6048 75.0715 74.2912C75.467 74.973 75.6647 75.7753 75.6647 76.698C75.6647 77.6253 75.4647 78.423 75.0647 79.0912C74.6647 79.7548 74.0852 80.2639 73.3261 80.6185C72.5715 80.973 71.6579 81.1503 70.5852 81.1503H66.8965V78.7776H70.1079C70.6715 78.7776 71.1397 78.7003 71.5125 78.5458C71.8852 78.3912 72.1625 78.1594 72.3443 77.8503C72.5306 77.5412 72.6238 77.1571 72.6238 76.698C72.6238 76.2344 72.5306 75.8435 72.3443 75.5253C72.1625 75.2071 71.8829 74.9662 71.5056 74.8026C71.1329 74.6344 70.6625 74.5503 70.0943 74.5503H68.1034V86.1003H65.1511ZM72.692 79.7458L76.1625 86.1003H72.9034L69.5079 79.7458H72.692Z" fill="white"/>
<path d="M77.751 72.1367H81.3919L85.2374 81.5185H85.401L89.2464 72.1367H92.8874V86.1003H90.0237V77.0117H89.9078L86.2942 86.0321H84.3442L80.7305 76.9776H80.6146V86.1003H77.751V72.1367Z" fill="white"/>
</g>
<defs>
<filter id="filter0_d_87_8033" x="6" y="10" width="183" height="183" filterUnits="userSpaceOnUse" color-interpolation-filters="sRGB">
<feFlood flood-opacity="0" result="BackgroundImageFix"/>
<feColorMatrix in="SourceAlpha" type="matrix" values="0 0 0 0 0 0 0 0 0 0 0 0 0 0 0 0 0 0 127 0" result="hardAlpha"/>
<feOffset dy="4"/>
<feGaussianBlur stdDeviation="2"/>
<feComposite in2="hardAlpha" operator="out"/>
<feColorMatrix type="matrix" values="0 0 0 0 0 0 0 0 0 0 0 0 0 0 0 0 0 0 0.25 0"/>
<feBlend mode="normal" in2="BackgroundImageFix" result="effect1_dropShadow_87_8033"/>
<feBlend mode="normal" in="SourceGraphic" in2="effect1_dropShadow_87_8033" result="shape"/>
</filter>
<filter id="filter1_bd_87_8033" x="33.5" y="42.5" width="128" height="112" filterUnits="userSpaceOnUse" color-interpolation-filters="sRGB">
<feFlood flood-opacity="0" result="BackgroundImageFix"/>
<feGaussianBlur in="BackgroundImageFix" stdDeviation="2"/>
<feComposite in2="SourceAlpha" operator="in" result="effect1_backgroundBlur_87_8033"/>
<feColorMatrix in="SourceAlpha" type="matrix" values="0 0 0 0 0 0 0 0 0 0 0 0 0 0 0 0 0 0 127 0" result="hardAlpha"/>
<feOffset dy="2"/>
<feGaussianBlur stdDeviation="2"/>
<feComposite in2="hardAlpha" operator="out"/>
<feColorMatrix type="matrix" values="0 0 0 0 1 0 0 0 0 1 0 0 0 0 1 0 0 0 1 0"/>
<feBlend mode="normal" in2="effect1_backgroundBlur_87_8033" result="effect2_dropShadow_87_8033"/>
<feBlend mode="normal" in="SourceGraphic" in2="effect2_dropShadow_87_8033" result="shape"/>
</filter>
<linearGradient id="paint0_linear_87_8033" x1="97.5" y1="18.4677" x2="97.5" y2="176.532" gradientUnits="userSpaceOnUse">
<stop stop-color="white"/>
<stop offset="0.472222" stop-color="#0D5176" stop-opacity="0.527778"/>
<stop offset="0.940972" stop-color="#12A6F7" stop-opacity="0.465278"/>
</linearGradient>
<linearGradient id="paint1_linear_87_8033" x1="9.657" y1="45.5533" x2="213.674" y2="152.424" gradientUnits="userSpaceOnUse">
<stop stop-color="#33D7F0"/>
<stop offset="0.187" stop-color="#2FD1ED"/>
<stop offset="0.445" stop-color="#24BFE3"/>
<stop offset="0.744" stop-color="#13A2D4"/>
<stop offset="1" stop-color="#0083C4"/>
</linearGradient>
<linearGradient id="paint2_linear_87_8033" x1="90.1113" y1="61.8863" x2="111.016" y2="201.404" gradientUnits="userSpaceOnUse">
<stop stop-color="#FCFCFC"/>
<stop offset="1" stop-color="#C3C9CD"/>
</linearGradient>
<linearGradient id="paint3_linear_87_8033" x1="90.1113" y1="61.8863" x2="111.016" y2="201.404" gradientUnits="userSpaceOnUse">
<stop stop-color="#FCFCFC"/>
<stop offset="1" stop-color="#C3C9CD"/>
</linearGradient>
</defs>
</svg>
