<svg width="199" height="201" viewBox="0 0 199 201" fill="none" xmlns="http://www.w3.org/2000/svg">
<g filter="url(#filter0_d_87_8465)">
<path d="M172.887 10H26.1129C18.3186 10 12 16.3186 12 24.1129V170.887C12 178.681 18.3186 185 26.1129 185H172.887C180.681 185 187 178.681 187 170.887V24.1129C187 16.3186 180.681 10 172.887 10Z" fill="white"/>
<path d="M172.887 10H26.1129C18.3186 10 12 16.3186 12 24.1129V170.887C12 178.681 18.3186 185 26.1129 185H172.887C180.681 185 187 178.681 187 170.887V24.1129C187 16.3186 180.681 10 172.887 10Z" stroke="#D5EAF6" stroke-width="15" stroke-linecap="round"/>
<path d="M172.887 10H26.1129C18.3186 10 12 16.3186 12 24.1129V170.887C12 178.681 18.3186 185 26.1129 185H172.887C180.681 185 187 178.681 187 170.887V24.1129C187 16.3186 180.681 10 172.887 10Z" fill="url(#paint0_linear_87_8465)" fill-opacity="0.2"/>
<path d="M26.1129 10.5H172.887C180.405 10.5 186.5 16.5948 186.5 24.1129V170.887C186.5 178.405 180.405 184.5 172.887 184.5H26.1129C18.5948 184.5 12.5 178.405 12.5 170.887V24.1129C12.5 16.5947 18.5947 10.5 26.1129 10.5Z" stroke="#F7F7F7" stroke-opacity="0.27"/>
</g>
<g filter="url(#filter1_bd_87_8465)">
<path d="M152.489 96.2845L134.22 85.6426V116.745H154.487V99.7612C154.487 98.3287 153.725 97.0061 152.489 96.2845Z" fill="#103262"/>
<path d="M71.3264 59.9436H98.1525V84.0871H71.3264V59.9436Z" fill="#0084D7"/>
<path d="M98.1521 59.9436H124.978V84.0871H98.1521V59.9436Z" fill="#33AFEC"/>
<path d="M124.978 59.9436H151.804V84.0871H124.978V59.9436Z" fill="#54DAFF"/>
<path d="M98.1521 84.0872H124.978V108.231H98.1521V84.0872Z" fill="#027AD4"/>
<path d="M98.1521 108.23H124.978V132.374H98.1521V108.23Z" fill="#0553A4"/>
<path d="M124.978 84.0872H151.804V108.231H124.978V84.0872Z" fill="#25A2E5"/>
<path d="M124.978 108.23H151.804V132.374H124.978V108.23Z" fill="#0262B8"/>
<path opacity="0.019" d="M71.3264 132.374H151.805V98.1382L114.221 119.599L71.3264 98.1382V132.374Z" fill="black"/>
<path opacity="0.038" d="M71.3264 132.374H151.805V98.7769L114.221 120.238L71.3264 98.7769V132.374Z" fill="black"/>
<path opacity="0.057" d="M71.3264 132.374H151.805V99.415L114.221 120.876L71.3264 99.415V132.374Z" fill="black"/>
<path opacity="0.076" d="M71.3264 132.374H151.805V100.054L114.221 121.515L71.3264 100.054V132.374Z" fill="black"/>
<path opacity="0.095" d="M71.3264 132.374H151.805V100.692L114.221 122.153L71.3264 100.692V132.374Z" fill="black"/>
<path opacity="0.114" d="M71.3264 132.374H151.805V101.333L114.221 122.794L71.3264 101.333V132.374Z" fill="black"/>
<path opacity="0.133" d="M71.3264 132.374H151.805V101.972L114.221 123.433L71.3264 101.972V132.374Z" fill="black"/>
<path opacity="0.152" d="M71.3264 132.374H151.805V102.61L114.221 124.071L71.3264 102.61V132.374Z" fill="black"/>
<path opacity="0.171" d="M71.3264 132.374H151.805V103.249L114.221 124.709L71.3264 103.249V132.374Z" fill="black"/>
<path opacity="0.191" d="M71.3264 132.374H151.805V103.887L114.221 125.348L71.3264 103.887V132.374Z" fill="black"/>
<path opacity="0.209" d="M71.3264 132.374H151.805V104.525L114.221 125.986L71.3264 104.525V132.374Z" fill="black"/>
<path opacity="0.229" d="M71.3264 132.374H151.805V105.164L114.221 126.625L71.3264 105.164V132.374Z" fill="black"/>
<path opacity="0.248" d="M71.3264 132.374H151.805V105.802L114.221 127.263L71.3264 105.802V132.374Z" fill="black"/>
<path opacity="0.267" d="M71.3264 132.374H151.805V106.441L114.221 127.902L71.3264 106.441V132.374Z" fill="black"/>
<path opacity="0.286" d="M71.3264 132.374H151.805V107.079L114.221 128.54L71.3264 107.079V132.374Z" fill="black"/>
<path opacity="0.305" d="M71.3264 132.374H151.805V107.721L114.221 129.182L71.3264 107.721V132.374Z" fill="black"/>
<path opacity="0.324" d="M71.3264 132.374H151.805V108.359L114.221 129.82L71.3264 108.359V132.374Z" fill="black"/>
<path opacity="0.343" d="M71.3264 132.374H151.805V108.998L114.221 130.458L71.3264 108.998V132.374Z" fill="black"/>
<path opacity="0.362" d="M71.3264 132.374H151.805V109.636L114.221 131.097L71.3264 109.636V132.374Z" fill="black"/>
<path opacity="0.381" d="M71.3264 132.374H151.805V110.275L114.221 131.736L71.3264 110.275V132.374Z" fill="black"/>
<path opacity="0.4" d="M71.3264 132.374H151.805V110.913L114.221 132.374L71.3264 110.913V132.374Z" fill="black"/>
<path d="M77.8747 145.787H149.133C152.095 145.787 154.495 143.402 154.498 140.438C154.506 128.31 154.487 99.7615 154.487 99.7615C154.487 99.7615 154.469 100.357 149.79 103.013C145.112 105.669 76.0049 144.623 76.0049 144.623C76.0049 144.623 76.6326 145.787 77.8747 145.787Z" fill="url(#paint1_linear_87_8465)"/>
<path d="M151.805 59.9433H71.3264V54.5781C71.3264 51.6138 73.7274 49.2129 76.6916 49.2129H146.44C149.404 49.2129 151.805 51.6138 151.805 54.5781V59.9433Z" fill="url(#paint2_linear_87_8465)"/>
<path d="M71.3264 100.183V140.422C71.3264 143.386 73.7274 145.787 76.6916 145.787H116.931H149.133C150.372 145.787 151.502 145.352 152.408 144.647L71.3264 100.183Z" fill="url(#paint3_linear_87_8465)"/>
<path opacity="0.05" d="M93.6431 67.9915H71.3264V132.374H93.6431C99.0968 132.374 103.518 127.953 103.518 122.499V77.8662C103.518 72.4124 99.0968 67.9915 93.6431 67.9915Z" fill="black"/>
<path opacity="0.07" d="M93.3587 129.691H71.3264V68.8843H93.3587C97.9835 68.8843 101.731 72.6319 101.731 77.2567V121.319C101.728 125.943 97.9808 129.691 93.3587 129.691Z" fill="black"/>
<path opacity="0.09" d="M93.0717 127.009H71.3264V69.7808H93.0717C96.8649 69.7808 99.9392 72.855 99.9392 76.6482V120.141C99.9418 123.935 96.8649 127.009 93.0717 127.009Z" fill="black"/>
<path d="M92.787 124.326H49.8652C46.9009 124.326 44.5 121.925 44.5 118.961V76.0388C44.5 73.0745 46.9009 70.6736 49.8652 70.6736H92.787C95.7513 70.6736 98.1522 73.0745 98.1522 76.0388V118.961C98.1522 121.925 95.7513 124.326 92.787 124.326Z" fill="url(#paint4_linear_87_8465)"/>
<path d="M71.3259 83.2578C62.9803 83.2578 57.9531 89.6344 57.9531 97.4998C57.9531 105.365 62.9616 111.742 71.3259 111.742C79.693 111.742 84.6988 105.365 84.6988 97.5025C84.6988 89.6344 79.6716 83.2578 71.3259 83.2578ZM71.3259 106.935C66.5911 106.935 63.761 102.712 63.761 97.5025C63.761 92.2928 66.6045 88.0704 71.3259 88.0704C76.0473 88.0704 78.8936 92.2955 78.8936 97.5025C78.8936 102.709 76.0581 106.935 71.3259 106.935Z" fill="white"/>
</g>
<defs>
<filter id="filter0_d_87_8465" x="0.5" y="2.5" width="198" height="198" filterUnits="userSpaceOnUse" color-interpolation-filters="sRGB">
<feFlood flood-opacity="0" result="BackgroundImageFix"/>
<feColorMatrix in="SourceAlpha" type="matrix" values="0 0 0 0 0 0 0 0 0 0 0 0 0 0 0 0 0 0 127 0" result="hardAlpha"/>
<feOffset dy="4"/>
<feGaussianBlur stdDeviation="2"/>
<feComposite in2="hardAlpha" operator="out"/>
<feColorMatrix type="matrix" values="0 0 0 0 0 0 0 0 0 0 0 0 0 0 0 0 0 0 0.25 0"/>
<feBlend mode="normal" in2="BackgroundImageFix" result="effect1_dropShadow_87_8465"/>
<feBlend mode="normal" in="SourceGraphic" in2="effect1_dropShadow_87_8465" result="shape"/>
</filter>
<filter id="filter1_bd_87_8465" x="40.5" y="45.2129" width="118" height="106.574" filterUnits="userSpaceOnUse" color-interpolation-filters="sRGB">
<feFlood flood-opacity="0" result="BackgroundImageFix"/>
<feGaussianBlur in="BackgroundImageFix" stdDeviation="2"/>
<feComposite in2="SourceAlpha" operator="in" result="effect1_backgroundBlur_87_8465"/>
<feColorMatrix in="SourceAlpha" type="matrix" values="0 0 0 0 0 0 0 0 0 0 0 0 0 0 0 0 0 0 127 0" result="hardAlpha"/>
<feOffset dy="2"/>
<feGaussianBlur stdDeviation="2"/>
<feComposite in2="hardAlpha" operator="out"/>
<feColorMatrix type="matrix" values="0 0 0 0 1 0 0 0 0 1 0 0 0 0 1 0 0 0 1 0"/>
<feBlend mode="normal" in2="effect1_backgroundBlur_87_8465" result="effect2_dropShadow_87_8465"/>
<feBlend mode="normal" in="SourceGraphic" in2="effect2_dropShadow_87_8465" result="shape"/>
</filter>
<linearGradient id="paint0_linear_87_8465" x1="99.5" y1="18.4677" x2="99.5" y2="176.532" gradientUnits="userSpaceOnUse">
<stop stop-color="white"/>
<stop offset="0.472222" stop-color="#0D5176" stop-opacity="0.527778"/>
<stop offset="0.940972" stop-color="#12A6F7" stop-opacity="0.465278"/>
</linearGradient>
<linearGradient id="paint1_linear_87_8465" x1="140.873" y1="98.9942" x2="123.063" y2="129.756" gradientUnits="userSpaceOnUse">
<stop stop-color="#31ABEC"/>
<stop offset="1" stop-color="#1582D5"/>
</linearGradient>
<linearGradient id="paint2_linear_87_8465" x1="73.1104" y1="51.874" x2="147.204" y2="57.4592" gradientUnits="userSpaceOnUse">
<stop offset="0.042" stop-color="#076DB4"/>
<stop offset="0.85" stop-color="#0461AF"/>
</linearGradient>
<linearGradient id="paint3_linear_87_8465" x1="111.976" y1="122.228" x2="99.864" y2="143.373" gradientUnits="userSpaceOnUse">
<stop stop-color="#33ACEE"/>
<stop offset="1" stop-color="#1B8EDF"/>
</linearGradient>
<linearGradient id="paint4_linear_87_8465" x1="45.9218" y1="72.0954" x2="96.5695" y2="122.743" gradientUnits="userSpaceOnUse">
<stop stop-color="#1784D8"/>
<stop offset="1" stop-color="#0864C5"/>
</linearGradient>
</defs>
</svg>
