<svg width="195" height="195" viewBox="0 0 195 195" fill="none" xmlns="http://www.w3.org/2000/svg">
<g filter="url(#filter0_d_87_8480)">
<path d="M170.887 10H24.1129C16.3186 10 10 16.3186 10 24.1129V170.887C10 178.681 16.3186 185 24.1129 185H170.887C178.681 185 185 178.681 185 170.887V24.1129C185 16.3186 178.681 10 170.887 10Z" fill="url(#paint0_linear_87_8480)" fill-opacity="0.2"/>
<path d="M24.1129 10.5H170.887C178.405 10.5 184.5 16.5948 184.5 24.1129V170.887C184.5 178.405 178.405 184.5 170.887 184.5H24.1129C16.5948 184.5 10.5 178.405 10.5 170.887V24.1129C10.5 16.5947 16.5947 10.5 24.1129 10.5Z" stroke="#F7F7F7" stroke-opacity="0.27"/>
</g>
<g filter="url(#filter1_bd_87_8480)">
<path d="M150.489 96.2845L132.22 85.6426V116.745H152.487V99.7612C152.487 98.3287 151.725 97.0061 150.489 96.2845Z" fill="#103262"/>
<path d="M69.3264 59.9436H96.1525V84.0871H69.3264V59.9436Z" fill="#0084D7"/>
<path d="M96.1521 59.9436H122.978V84.0871H96.1521V59.9436Z" fill="#33AFEC"/>
<path d="M122.978 59.9436H149.804V84.0871H122.978V59.9436Z" fill="#54DAFF"/>
<path d="M96.1521 84.0872H122.978V108.231H96.1521V84.0872Z" fill="#027AD4"/>
<path d="M96.1521 108.23H122.978V132.374H96.1521V108.23Z" fill="#0553A4"/>
<path d="M122.978 84.0872H149.804V108.231H122.978V84.0872Z" fill="#25A2E5"/>
<path d="M122.978 108.23H149.804V132.374H122.978V108.23Z" fill="#0262B8"/>
<path opacity="0.019" d="M69.3264 132.374H149.805V98.1382L112.221 119.599L69.3264 98.1382V132.374Z" fill="black"/>
<path opacity="0.038" d="M69.3264 132.374H149.805V98.7769L112.221 120.238L69.3264 98.7769V132.374Z" fill="black"/>
<path opacity="0.057" d="M69.3264 132.374H149.805V99.415L112.221 120.876L69.3264 99.415V132.374Z" fill="black"/>
<path opacity="0.076" d="M69.3264 132.374H149.805V100.054L112.221 121.515L69.3264 100.054V132.374Z" fill="black"/>
<path opacity="0.095" d="M69.3264 132.374H149.805V100.692L112.221 122.153L69.3264 100.692V132.374Z" fill="black"/>
<path opacity="0.114" d="M69.3264 132.374H149.805V101.333L112.221 122.794L69.3264 101.333V132.374Z" fill="black"/>
<path opacity="0.133" d="M69.3264 132.374H149.805V101.972L112.221 123.433L69.3264 101.972V132.374Z" fill="black"/>
<path opacity="0.152" d="M69.3264 132.374H149.805V102.61L112.221 124.071L69.3264 102.61V132.374Z" fill="black"/>
<path opacity="0.171" d="M69.3264 132.374H149.805V103.249L112.221 124.709L69.3264 103.249V132.374Z" fill="black"/>
<path opacity="0.191" d="M69.3264 132.374H149.805V103.887L112.221 125.348L69.3264 103.887V132.374Z" fill="black"/>
<path opacity="0.209" d="M69.3264 132.374H149.805V104.525L112.221 125.986L69.3264 104.525V132.374Z" fill="black"/>
<path opacity="0.229" d="M69.3264 132.374H149.805V105.164L112.221 126.625L69.3264 105.164V132.374Z" fill="black"/>
<path opacity="0.248" d="M69.3264 132.374H149.805V105.802L112.221 127.263L69.3264 105.802V132.374Z" fill="black"/>
<path opacity="0.267" d="M69.3264 132.374H149.805V106.441L112.221 127.902L69.3264 106.441V132.374Z" fill="black"/>
<path opacity="0.286" d="M69.3264 132.374H149.805V107.079L112.221 128.54L69.3264 107.079V132.374Z" fill="black"/>
<path opacity="0.305" d="M69.3264 132.374H149.805V107.721L112.221 129.182L69.3264 107.721V132.374Z" fill="black"/>
<path opacity="0.324" d="M69.3264 132.374H149.805V108.359L112.221 129.82L69.3264 108.359V132.374Z" fill="black"/>
<path opacity="0.343" d="M69.3264 132.374H149.805V108.998L112.221 130.458L69.3264 108.998V132.374Z" fill="black"/>
<path opacity="0.362" d="M69.3264 132.374H149.805V109.636L112.221 131.097L69.3264 109.636V132.374Z" fill="black"/>
<path opacity="0.381" d="M69.3264 132.374H149.805V110.275L112.221 131.736L69.3264 110.275V132.374Z" fill="black"/>
<path opacity="0.4" d="M69.3264 132.374H149.805V110.913L112.221 132.374L69.3264 110.913V132.374Z" fill="black"/>
<path d="M75.8747 145.787H147.133C150.095 145.787 152.495 143.402 152.498 140.438C152.506 128.31 152.487 99.7615 152.487 99.7615C152.487 99.7615 152.469 100.357 147.79 103.013C143.112 105.669 74.0049 144.623 74.0049 144.623C74.0049 144.623 74.6326 145.787 75.8747 145.787Z" fill="url(#paint1_linear_87_8480)"/>
<path d="M149.805 59.9433H69.3264V54.5781C69.3264 51.6138 71.7274 49.2129 74.6916 49.2129H144.44C147.404 49.2129 149.805 51.6138 149.805 54.5781V59.9433Z" fill="url(#paint2_linear_87_8480)"/>
<path d="M69.3264 100.183V140.422C69.3264 143.386 71.7274 145.787 74.6916 145.787H114.931H147.133C148.372 145.787 149.502 145.352 150.408 144.647L69.3264 100.183Z" fill="url(#paint3_linear_87_8480)"/>
<path opacity="0.05" d="M91.6431 67.9915H69.3264V132.374H91.6431C97.0968 132.374 101.518 127.953 101.518 122.499V77.8662C101.518 72.4124 97.0968 67.9915 91.6431 67.9915Z" fill="black"/>
<path opacity="0.07" d="M91.3587 129.691H69.3264V68.8843H91.3587C95.9835 68.8843 99.7311 72.6319 99.7311 77.2567V121.319C99.7285 125.943 95.9808 129.691 91.3587 129.691Z" fill="black"/>
<path opacity="0.09" d="M91.0717 127.009H69.3264V69.7808H91.0717C94.8649 69.7808 97.9392 72.855 97.9392 76.6482V120.141C97.9418 123.935 94.8649 127.009 91.0717 127.009Z" fill="black"/>
<path d="M90.787 124.326H47.8652C44.9009 124.326 42.5 121.925 42.5 118.961V76.0388C42.5 73.0745 44.9009 70.6736 47.8652 70.6736H90.787C93.7513 70.6736 96.1522 73.0745 96.1522 76.0388V118.961C96.1522 121.925 93.7513 124.326 90.787 124.326Z" fill="url(#paint4_linear_87_8480)"/>
<path d="M69.3259 83.2578C60.9803 83.2578 55.9531 89.6344 55.9531 97.4998C55.9531 105.365 60.9616 111.742 69.3259 111.742C77.693 111.742 82.6988 105.365 82.6988 97.5025C82.6988 89.6344 77.6716 83.2578 69.3259 83.2578ZM69.3259 106.935C64.5911 106.935 61.761 102.712 61.761 97.5025C61.761 92.2928 64.6045 88.0704 69.3259 88.0704C74.0473 88.0704 76.8936 92.2955 76.8936 97.5025C76.8936 102.709 74.0581 106.935 69.3259 106.935Z" fill="white"/>
</g>
<defs>
<filter id="filter0_d_87_8480" x="6" y="10" width="183" height="183" filterUnits="userSpaceOnUse" color-interpolation-filters="sRGB">
<feFlood flood-opacity="0" result="BackgroundImageFix"/>
<feColorMatrix in="SourceAlpha" type="matrix" values="0 0 0 0 0 0 0 0 0 0 0 0 0 0 0 0 0 0 127 0" result="hardAlpha"/>
<feOffset dy="4"/>
<feGaussianBlur stdDeviation="2"/>
<feComposite in2="hardAlpha" operator="out"/>
<feColorMatrix type="matrix" values="0 0 0 0 0 0 0 0 0 0 0 0 0 0 0 0 0 0 0.25 0"/>
<feBlend mode="normal" in2="BackgroundImageFix" result="effect1_dropShadow_87_8480"/>
<feBlend mode="normal" in="SourceGraphic" in2="effect1_dropShadow_87_8480" result="shape"/>
</filter>
<filter id="filter1_bd_87_8480" x="38.5" y="45.2129" width="118" height="106.574" filterUnits="userSpaceOnUse" color-interpolation-filters="sRGB">
<feFlood flood-opacity="0" result="BackgroundImageFix"/>
<feGaussianBlur in="BackgroundImageFix" stdDeviation="2"/>
<feComposite in2="SourceAlpha" operator="in" result="effect1_backgroundBlur_87_8480"/>
<feColorMatrix in="SourceAlpha" type="matrix" values="0 0 0 0 0 0 0 0 0 0 0 0 0 0 0 0 0 0 127 0" result="hardAlpha"/>
<feOffset dy="2"/>
<feGaussianBlur stdDeviation="2"/>
<feComposite in2="hardAlpha" operator="out"/>
<feColorMatrix type="matrix" values="0 0 0 0 1 0 0 0 0 1 0 0 0 0 1 0 0 0 1 0"/>
<feBlend mode="normal" in2="effect1_backgroundBlur_87_8480" result="effect2_dropShadow_87_8480"/>
<feBlend mode="normal" in="SourceGraphic" in2="effect2_dropShadow_87_8480" result="shape"/>
</filter>
<linearGradient id="paint0_linear_87_8480" x1="97.5" y1="18.4677" x2="97.5" y2="176.532" gradientUnits="userSpaceOnUse">
<stop stop-color="white"/>
<stop offset="0.472222" stop-color="#0D5176" stop-opacity="0.527778"/>
<stop offset="0.940972" stop-color="#12A6F7" stop-opacity="0.465278"/>
</linearGradient>
<linearGradient id="paint1_linear_87_8480" x1="138.873" y1="98.9942" x2="121.063" y2="129.756" gradientUnits="userSpaceOnUse">
<stop stop-color="#31ABEC"/>
<stop offset="1" stop-color="#1582D5"/>
</linearGradient>
<linearGradient id="paint2_linear_87_8480" x1="71.1104" y1="51.874" x2="145.204" y2="57.4592" gradientUnits="userSpaceOnUse">
<stop offset="0.042" stop-color="#076DB4"/>
<stop offset="0.85" stop-color="#0461AF"/>
</linearGradient>
<linearGradient id="paint3_linear_87_8480" x1="109.976" y1="122.228" x2="97.864" y2="143.373" gradientUnits="userSpaceOnUse">
<stop stop-color="#33ACEE"/>
<stop offset="1" stop-color="#1B8EDF"/>
</linearGradient>
<linearGradient id="paint4_linear_87_8480" x1="43.9218" y1="72.0954" x2="94.5695" y2="122.743" gradientUnits="userSpaceOnUse">
<stop stop-color="#1784D8"/>
<stop offset="1" stop-color="#0864C5"/>
</linearGradient>
</defs>
</svg>
