<svg width="195" height="195" viewBox="0 0 195 195" fill="none" xmlns="http://www.w3.org/2000/svg">
<g id="icon=icon-blank">
<g id="icon-blank">
<g id="icon-blank_2">
<g id="combo">
<g id="Vector">
<path d="M69.3327 80.9889L63.3408 74.997C59.0262 81.5102 56.5 89.3112 56.5 97.7097C56.5 105.268 58.5461 112.346 62.1025 118.434C62.7062 119.469 64.1506 119.615 64.9975 118.766L68.3767 115.387C68.9433 114.82 69.0484 113.959 68.6693 113.254C66.1781 108.62 64.742 103.339 64.742 97.7097C64.742 91.5983 66.4336 85.897 69.3327 80.9889Z" fill="#50E6FF" fill-opacity="0.5"/>
<path d="M130.678 97.7097C130.678 103.821 128.986 109.523 126.087 114.431L132.079 120.423C136.394 113.91 138.92 106.106 138.92 97.7097C138.92 90.1519 136.874 83.0741 133.317 76.9854C132.714 75.951 131.269 75.8068 130.422 76.6536L127.043 80.0328C126.476 80.5995 126.371 81.4607 126.75 82.1654C129.242 86.7995 130.678 92.0805 130.678 97.7097Z" fill="#199BE2" fill-opacity="0.5"/>
<path d="M80.0328 68.3767C80.5995 68.9433 81.4607 69.0484 82.1654 68.6693C86.7995 66.1781 92.0805 64.742 97.7097 64.742C103.821 64.742 109.523 66.4336 114.431 69.3327L120.425 63.3388C113.91 59.0262 106.109 56.5 97.7097 56.5C90.189 56.5 83.1462 58.5255 77.0781 62.0489C76.0046 62.6732 75.7779 64.1218 76.6557 64.9995L80.0328 68.3767Z" fill="#35C1F1" fill-opacity="0.5"/>
<path d="M115.387 127.043C114.82 126.476 113.959 126.371 113.254 126.75C108.62 129.242 103.339 130.678 97.7097 130.678C91.5983 130.678 85.897 128.986 80.9889 126.087L74.997 132.079C81.5102 136.394 89.3132 138.92 97.7097 138.92C105.268 138.92 112.346 136.874 118.434 133.317C119.469 132.714 119.615 131.269 118.766 130.422L115.387 127.043Z" fill="#0078D4" fill-opacity="0.5"/>
<path d="M122.3 73.1384L112.339 72.7964C111.635 72.7717 111.284 71.9289 111.769 71.4138L121.364 61.1629C121.863 60.6292 122.757 60.963 122.786 61.6925L123.2 72.236C123.219 72.7408 122.805 73.1549 122.3 73.1384Z" fill="#35C1F1" fill-opacity="0.5"/>
<path d="M73.1199 122.281L83.0803 122.623C83.785 122.648 84.1352 123.491 83.651 124.006L74.0554 134.257C73.5567 134.79 72.6625 134.457 72.6336 133.727L72.2195 123.184C72.2009 122.679 72.6151 122.265 73.1199 122.281Z" fill="#0078D4" fill-opacity="0.5"/>
<path d="M122.281 122.3L122.623 112.339C122.648 111.635 123.491 111.284 124.006 111.769L134.257 121.364C134.79 121.863 134.457 122.757 133.727 122.786L123.184 123.2C122.679 123.219 122.265 122.805 122.281 122.3Z" fill="#199BE2" fill-opacity="0.5"/>
<path d="M73.1384 73.1199L72.7964 83.0803C72.7717 83.785 71.9289 84.1352 71.4138 83.651L61.1609 74.0554C60.6272 73.5567 60.961 72.6625 61.6904 72.6336L72.2339 72.2195C72.7408 72.2009 73.1549 72.6151 73.1384 73.1199Z" fill="#50E6FF" fill-opacity="0.5"/>
</g>
<g id="Frame">
<rect x="29.5" y="31.5" width="60" height="60" rx="3" fill="url(#paint0_linear_87_3798)"/>
<rect x="29.5" y="31.5" width="60" height="60" rx="3" fill="white" fill-opacity="0.2"/>
<g id="Group">
<g id="Vector_2">
<path d="M39.5 61.5C39.5 50.455 48.455 41.5 59.5 41.5C70.545 41.5 79.5 50.455 79.5 61.5C79.5 72.545 70.545 81.5 59.5 81.5C48.455 81.5 39.5 72.545 39.5 61.5Z" fill="url(#paint1_radial_87_3798)"/>
<path d="M76.5 61.5C76.5 58.261 75.827 55.209 74.661 52.5H77.343C76.995 51.811 76.618 51.14 76.195 50.5H73.683C70.638 45.084 65.421 41.5 59.5 41.5C53.579 41.5 48.362 45.084 45.317 50.5H42.805C42.382 51.14 42.005 51.811 41.657 52.5H44.339C43.173 55.209 42.5 58.261 42.5 61.5C42.5 64.739 43.173 67.791 44.339 70.5H41.657C42.005 71.189 42.382 71.86 42.805 72.5H45.317C48.362 77.916 53.579 81.5 59.5 81.5C65.421 81.5 70.638 77.916 73.683 72.5H76.195C76.618 71.86 76.995 71.189 77.343 70.5H74.661C75.827 67.791 76.5 64.739 76.5 61.5ZM74.5 61.5C74.5 64.78 73.753 67.849 72.471 70.5H66.678C67.221 67.667 67.5 64.553 67.5 61.5C67.5 58.447 67.221 55.333 66.678 52.5H72.471C73.753 55.151 74.5 58.22 74.5 61.5ZM59.5 79.5C57.81 79.5 56.009 76.863 54.826 72.5H64.175C62.991 76.863 61.19 79.5 59.5 79.5ZM54.348 70.5C53.821 67.913 53.5 64.871 53.5 61.5C53.5 58.129 53.821 55.087 54.348 52.5H64.652C65.179 55.087 65.5 58.129 65.5 61.5C65.5 64.871 65.179 67.913 64.652 70.5H54.348ZM59.5 43.5C61.19 43.5 62.991 46.137 64.174 50.5H54.825C56.009 46.137 57.81 43.5 59.5 43.5ZM71.347 50.5H66.236C65.61 48.001 64.757 45.816 63.684 44.227C66.763 45.303 69.429 47.532 71.347 50.5ZM55.316 44.227C54.243 45.817 53.39 48.001 52.764 50.5H47.653C49.571 47.532 52.237 45.303 55.316 44.227ZM44.5 61.5C44.5 58.22 45.247 55.151 46.529 52.5H52.322C51.779 55.333 51.5 58.447 51.5 61.5C51.5 64.553 51.779 67.667 52.322 70.5H46.529C45.247 67.849 44.5 64.78 44.5 61.5ZM47.653 72.5H52.764C53.39 74.999 54.243 77.184 55.316 78.773C52.237 77.697 49.571 75.468 47.653 72.5ZM63.684 78.773C64.757 77.183 65.61 74.999 66.236 72.5H71.347C69.429 75.468 66.763 77.697 63.684 78.773Z" fill="url(#paint2_radial_87_3798)"/>
<path d="M63.405 57.5L62.093 63.743L60.5 57.5H58.5L56.907 63.743L55.595 57.5H53.5L55.5 65.5H57.951C57.951 65.5 59.464 59.864 59.5 59.5C59.536 59.864 61.049 65.5 61.049 65.5H63.5L65.5 57.5H63.405Z" fill="white"/>
<path d="M51.405 57.5L50.093 63.743L48.5 57.5H46.5L44.907 63.743L43.595 57.5H41.5L43.5 65.5H45.951C45.951 65.5 47.464 59.864 47.5 59.5C47.536 59.864 49.049 65.5 49.049 65.5H51.5L53.5 57.5H51.405Z" fill="white"/>
<path d="M75.405 57.5L74.093 63.743L72.5 57.5H70.5L68.907 63.743L67.595 57.5H65.5L67.5 65.5H69.951C69.951 65.5 71.464 59.864 71.5 59.5C71.536 59.864 73.049 65.5 73.049 65.5H75.5L77.5 57.5H75.405Z" fill="white"/>
</g>
</g>
<rect x="28.5" y="30.5" width="62" height="62" rx="4" stroke="#E2E2E2" stroke-opacity="0.59" stroke-width="2"/>
</g>
<g id="Frame_2">
<rect x="97.5" y="102.5" width="60" height="60" rx="3" fill="url(#paint3_linear_87_3798)"/>
<rect x="97.5" y="102.5" width="60" height="60" rx="3" fill="white" fill-opacity="0.2"/>
<g id="payment">
<path id="Vector_3" d="M147.422 116.875H107.578C105.924 116.875 104.583 118.216 104.583 119.87V145.13C104.583 146.784 105.924 148.125 107.578 148.125H147.422C149.076 148.125 150.417 146.784 150.417 145.13V119.87C150.417 118.216 149.076 116.875 147.422 116.875Z" fill="url(#paint4_linear_87_3798)"/>
<path id="Vector_4" opacity="0.05" d="M129.305 139.792C127.872 139.777 126.34 139.488 125.397 139.054L124.711 138.738L124.526 139.603H119.268L121.189 130.623L117.426 139.603H112.622L109.924 129.173C109.86 128.924 109.83 128.856 109.817 128.84C109.81 128.833 109.781 128.815 109.693 128.766C109.095 128.441 108.019 128.086 106.882 127.838L105.871 127.619L106.333 125.428H112.5C113.729 125.428 114.72 126.261 114.964 127.5L115.616 130.965L117.807 125.428H127.557L127.16 127.292C128.259 125.995 130.124 125.208 132.407 125.208C133.524 125.208 134.567 125.399 135.69 125.808L136.542 126.12L135.53 130.838L134.348 130.296C133.494 129.902 132.728 129.82 132.238 129.82C132.066 129.82 131.928 129.831 131.835 129.843C131.768 129.851 131.707 129.862 131.655 129.875C131.893 130.021 132.208 130.188 132.398 130.287C133.517 130.874 135.104 131.706 135.625 133.401L138.325 126.955C138.72 126.015 139.598 125.429 140.617 125.429H144.133L147.094 139.603H142.073L141.695 137.798H139.259L138.606 139.603H133.027L133.363 138.802C132.29 139.436 130.907 139.792 129.31 139.792H129.305ZM126.84 134.516C127.573 134.859 128.264 135.183 129.489 135.183L129.597 135.182C129.922 135.177 130.216 135.102 130.366 135.029C130.244 134.931 129.977 134.753 129.403 134.474C127.722 133.656 126.673 132.643 126.269 131.451L125.725 133.997L126.84 134.516Z" fill="black"/>
<path id="Vector_5" opacity="0.07" d="M129.305 139.271C127.945 139.257 126.497 138.988 125.615 138.581L125.236 138.407L126.027 134.71L126.62 134.988C127.367 135.338 128.148 135.704 129.489 135.704L129.602 135.703C130.145 135.695 130.956 135.509 130.962 135.034C130.965 134.839 130.804 134.576 129.632 134.005C128.875 133.636 126.573 132.514 126.603 130.24C126.623 127.585 129.01 125.73 132.407 125.73C133.462 125.73 134.449 125.911 135.511 126.299L135.937 126.454L135.157 130.095L134.567 129.823C133.626 129.39 132.781 129.299 132.239 129.299C132.037 129.299 131.876 129.313 131.769 129.326C131.134 129.408 130.898 129.675 130.894 129.833C130.889 130.081 131.594 130.452 132.16 130.75C133.48 131.442 135.286 132.391 135.277 134.616C135.265 137.4 132.868 139.271 129.31 139.271H129.305V139.271ZM142.496 139.082L142.118 137.277H138.894L138.241 139.082H133.809L138.805 127.156C139.118 126.411 139.812 125.95 140.617 125.95H143.71L146.453 139.082H142.496V139.082ZM141.382 133.756L140.941 131.639L140.172 133.756H141.382ZM119.912 139.082L122.722 125.95H126.914L124.105 139.082H119.912ZM113.025 139.082L110.429 129.043C110.3 128.536 110.237 128.468 109.942 128.307C109.304 127.96 108.175 127.586 106.994 127.33L106.489 127.221L106.757 125.95H112.502C113.475 125.95 114.26 126.614 114.455 127.602L115.44 132.832L118.162 125.95H122.584L117.08 139.082H113.025Z" fill="black"/>
<path id="Vector_6" d="M127.123 130.246C127.101 131.988 128.675 132.958 129.86 133.536C131.078 134.129 131.488 134.509 131.483 135.04C131.474 135.851 130.512 136.209 129.61 136.223C128.039 136.247 127.125 135.799 126.399 135.459L125.833 138.108C126.563 138.444 127.912 138.737 129.312 138.75C132.596 138.75 134.746 137.128 134.757 134.615C134.77 131.424 130.344 131.247 130.374 129.821C130.384 129.389 130.797 128.927 131.701 128.809C132.149 128.75 133.384 128.705 134.784 129.35L135.334 126.788C134.581 126.513 133.613 126.25 132.407 126.25C129.316 126.25 127.141 127.894 127.123 130.246ZM140.617 126.471C140.017 126.471 139.512 126.821 139.285 127.357L134.594 138.561H137.876L138.529 136.756H142.541L142.92 138.561H145.813L143.288 126.471H140.617ZM141.076 129.737L142.023 134.278H139.428L141.076 129.737ZM123.144 126.471L120.556 138.561H123.684L126.271 126.471H123.144ZM118.516 126.471L115.259 134.7L113.943 127.703C113.789 126.922 113.178 126.471 112.5 126.471H107.177L107.104 126.822C108.197 127.059 109.439 127.442 110.191 127.851C110.651 128.101 110.782 128.32 110.933 128.914L113.428 138.562H116.734L121.802 126.472L118.516 126.471Z" fill="white"/>
</g>
<rect x="96.5" y="101.5" width="62" height="62" rx="4" stroke="#E2E2E2" stroke-opacity="0.59" stroke-width="2"/>
</g>
</g>
</g>
</g>
</g>
<defs>
<linearGradient id="paint0_linear_87_3798" x1="59.5" y1="31.5" x2="86.3" y2="99.9" gradientUnits="userSpaceOnUse">
<stop stop-color="#B8DFFC"/>
<stop offset="0.453125" stop-color="#E5EFF7" stop-opacity="0.98"/>
<stop offset="1" stop-color="#8FC3EB"/>
</linearGradient>
<radialGradient id="paint1_radial_87_3798" cx="0" cy="0" r="1" gradientUnits="userSpaceOnUse" gradientTransform="translate(45.832 46.681) scale(40.041)">
<stop stop-color="#6FCEFC"/>
<stop offset="1" stop-color="#167CF7"/>
</radialGradient>
<radialGradient id="paint2_radial_87_3798" cx="0" cy="0" r="1" gradientUnits="userSpaceOnUse" gradientTransform="translate(45.2255 45.98) scale(45.0092 40.155)">
<stop offset="0.001" stop-color="#54C0F5"/>
<stop offset="0.998" stop-color="#0B69DB"/>
</radialGradient>
<linearGradient id="paint3_linear_87_3798" x1="127.5" y1="102.5" x2="154.3" y2="170.9" gradientUnits="userSpaceOnUse">
<stop stop-color="#B8DFFC"/>
<stop offset="0.453125" stop-color="#E5EFF7" stop-opacity="0.98"/>
<stop offset="1" stop-color="#8FC3EB"/>
</linearGradient>
<linearGradient id="paint4_linear_87_3798" x1="123.724" y1="119.022" x2="132.446" y2="150.152" gradientUnits="userSpaceOnUse">
<stop stop-color="#00B3EE"/>
<stop offset="1" stop-color="#0082D8"/>
</linearGradient>
</defs>
</svg>
