<svg width="199" height="201" viewBox="0 0 199 201" fill="none" xmlns="http://www.w3.org/2000/svg">
<g filter="url(#filter0_d_86_3576)">
<path d="M172.887 10H26.1129C18.3186 10 12 16.3186 12 24.1129V170.887C12 178.681 18.3186 185 26.1129 185H172.887C180.681 185 187 178.681 187 170.887V24.1129C187 16.3186 180.681 10 172.887 10Z" fill="white"/>
<path d="M172.887 10H26.1129C18.3186 10 12 16.3186 12 24.1129V170.887C12 178.681 18.3186 185 26.1129 185H172.887C180.681 185 187 178.681 187 170.887V24.1129C187 16.3186 180.681 10 172.887 10Z" stroke="#D5EAF6" stroke-width="15" stroke-linecap="round"/>
<path d="M172.887 10H26.1129C18.3186 10 12 16.3186 12 24.1129V170.887C12 178.681 18.3186 185 26.1129 185H172.887C180.681 185 187 178.681 187 170.887V24.1129C187 16.3186 180.681 10 172.887 10Z" fill="url(#paint0_linear_86_3576)" fill-opacity="0.2"/>
<path d="M26.1129 10.5H172.887C180.405 10.5 186.5 16.5948 186.5 24.1129V170.887C186.5 178.405 180.405 184.5 172.887 184.5H26.1129C18.5948 184.5 12.5 178.405 12.5 170.887V24.1129C12.5 16.5947 18.5947 10.5 26.1129 10.5Z" stroke="#F7F7F7" stroke-opacity="0.27"/>
</g>
<path d="M71.3327 80.9889L65.3408 74.997C61.0262 81.5102 58.5 89.3112 58.5 97.7097C58.5 105.268 60.5461 112.346 64.1025 118.434C64.7062 119.469 66.1506 119.615 66.9975 118.766L70.3767 115.387C70.9433 114.82 71.0484 113.959 70.6693 113.254C68.1781 108.62 66.742 103.339 66.742 97.7097C66.742 91.5983 68.4336 85.897 71.3327 80.9889Z" fill="#50E6FF" fill-opacity="0.5"/>
<path d="M132.678 97.7097C132.678 103.821 130.986 109.523 128.087 114.431L134.079 120.423C138.394 113.91 140.92 106.106 140.92 97.7097C140.92 90.1519 138.874 83.0741 135.317 76.9854C134.714 75.951 133.269 75.8068 132.422 76.6536L129.043 80.0328C128.476 80.5995 128.371 81.4607 128.75 82.1654C131.242 86.7995 132.678 92.0805 132.678 97.7097Z" fill="#199BE2" fill-opacity="0.5"/>
<path d="M82.0328 68.3767C82.5995 68.9433 83.4607 69.0484 84.1654 68.6693C88.7995 66.1781 94.0805 64.742 99.7097 64.742C105.821 64.742 111.523 66.4336 116.431 69.3327L122.425 63.3388C115.91 59.0262 108.109 56.5 99.7097 56.5C92.189 56.5 85.1462 58.5255 79.0781 62.0489C78.0046 62.6732 77.7779 64.1218 78.6557 64.9995L82.0328 68.3767Z" fill="#35C1F1" fill-opacity="0.5"/>
<path d="M117.387 127.043C116.82 126.476 115.959 126.371 115.254 126.75C110.62 129.242 105.339 130.678 99.7097 130.678C93.5983 130.678 87.897 128.986 82.9889 126.087L76.997 132.079C83.5102 136.394 91.3132 138.92 99.7097 138.92C107.268 138.92 114.346 136.874 120.434 133.317C121.469 132.714 121.615 131.269 120.766 130.422L117.387 127.043Z" fill="#0078D4" fill-opacity="0.5"/>
<path d="M124.3 73.1384L114.339 72.7964C113.635 72.7717 113.284 71.9289 113.769 71.4138L123.364 61.1629C123.863 60.6292 124.757 60.963 124.786 61.6925L125.2 72.236C125.219 72.7408 124.805 73.1549 124.3 73.1384Z" fill="#35C1F1" fill-opacity="0.5"/>
<path d="M75.1199 122.281L85.0803 122.623C85.785 122.648 86.1352 123.491 85.651 124.006L76.0554 134.257C75.5567 134.79 74.6625 134.457 74.6336 133.727L74.2195 123.184C74.2009 122.679 74.6151 122.265 75.1199 122.281Z" fill="#0078D4" fill-opacity="0.5"/>
<path d="M124.281 122.3L124.623 112.339C124.648 111.635 125.491 111.284 126.006 111.769L136.257 121.364C136.79 121.863 136.457 122.757 135.727 122.786L125.184 123.2C124.679 123.219 124.265 122.805 124.281 122.3Z" fill="#199BE2" fill-opacity="0.5"/>
<path d="M75.1384 73.1199L74.7964 83.0803C74.7717 83.785 73.9289 84.1352 73.4138 83.651L63.1609 74.0554C62.6272 73.5567 62.961 72.6625 63.6904 72.6336L74.2339 72.2195C74.7408 72.2009 75.1549 72.6151 75.1384 73.1199Z" fill="#50E6FF" fill-opacity="0.5"/>
<rect x="31.5" y="31.5" width="60" height="60" rx="3" fill="url(#paint1_linear_86_3576)"/>
<rect x="31.5" y="31.5" width="60" height="60" rx="3" fill="white" fill-opacity="0.2"/>
<g filter="url(#filter1_i_86_3576)">
<path d="M36.5 79V50.25H86.5V79C86.5 80.375 85.375 81.5 84 81.5H39C37.625 81.5 36.5 80.375 36.5 79Z" fill="url(#paint2_linear_86_3576)"/>
<path d="M86.5 44V50.25H36.5V44C36.5 42.625 37.625 41.5 39 41.5H84C85.375 41.5 86.5 42.625 86.5 44Z" fill="url(#paint3_linear_86_3576)"/>
<path d="M52.125 47.75H83.375C83.72 47.75 84 47.47 84 47.125V44.625C84 44.28 83.72 44 83.375 44H52.125C51.78 44 51.5 44.28 51.5 44.625V47.125C51.5 47.47 51.78 47.75 52.125 47.75Z" fill="url(#paint4_linear_86_3576)"/>
<path d="M40.875 47.75C41.9105 47.75 42.75 46.9105 42.75 45.875C42.75 44.8395 41.9105 44 40.875 44C39.8395 44 39 44.8395 39 45.875C39 46.9105 39.8395 47.75 40.875 47.75Z" fill="url(#paint5_linear_86_3576)"/>
<path d="M47.1211 47.75C48.1566 47.75 48.9961 46.9105 48.9961 45.875C48.9961 44.8395 48.1566 44 47.1211 44C46.0856 44 45.2461 44.8395 45.2461 45.875C45.2461 46.9105 46.0856 47.75 47.1211 47.75Z" fill="url(#paint6_linear_86_3576)"/>
<path d="M66.8333 68.5202C66.8333 62.8654 58.6397 63.9697 58.6397 60.6289C58.6397 58.8841 60.5637 58.7928 61.1661 58.7928C62.6129 58.7928 64.0079 59.1877 65.0725 59.6971C65.4083 59.8577 65.7938 59.6201 65.7938 59.2427V57.597C65.7938 57.0447 65.5896 56.718 65.2646 56.5893C64.5346 56.3 63.4875 56.0898 61.9371 56.037V54.2262C61.9371 54.0095 61.7642 53.8335 61.5517 53.8335H60.7807C60.568 53.8335 60.3953 54.0095 60.3953 54.2262V56.0667C57.9919 56.3065 55.5 57.6883 55.5 60.9039C55.5 66.7652 63.6938 65.6035 63.6938 68.6906C63.6938 69.6606 63.0858 70.4968 61.1672 70.4968C59.2389 70.4968 57.4683 69.8114 56.4879 69.2997C56.1565 69.126 55.7678 69.3747 55.7678 69.7522V71.6256C55.7678 71.9852 55.9805 72.3043 56.3044 72.4452C57.4661 72.9481 59.024 73.3285 60.3942 73.4397V75.4406C60.3942 75.6577 60.5669 75.8335 60.7796 75.8335H61.5504C61.7633 75.8335 61.9358 75.6577 61.9358 75.4406V73.4439C65.5333 73.1381 66.8333 70.6852 66.8333 68.5202Z" fill="#FCFCFC"/>
</g>
<rect x="30.5" y="30.5" width="62" height="62" rx="4" stroke="#E2E2E2" stroke-opacity="0.59" stroke-width="2"/>
<rect x="99.5" y="102.5" width="60" height="60" rx="3" fill="url(#paint7_linear_86_3576)"/>
<rect x="99.5" y="102.5" width="60" height="60" rx="3" fill="white" fill-opacity="0.2"/>
<g filter="url(#filter2_bd_86_3576)">
<path d="M107 142.727V117.159H147.909V142.727C147.909 143.852 146.989 144.773 145.864 144.773H109.045C107.92 144.773 107 143.852 107 142.727Z" fill="url(#paint8_linear_86_3576)"/>
<path d="M142.284 126.364H118.761C118.455 126.364 118.25 126.159 118.25 125.852V124.83C118.25 124.523 118.455 124.318 118.761 124.318H142.284C142.591 124.318 142.795 124.523 142.795 124.83V125.852C142.795 126.159 142.591 126.364 142.284 126.364Z" fill="#0F94BF"/>
<path d="M142.284 131.478H118.761C118.455 131.478 118.25 131.273 118.25 130.966V129.943C118.25 129.637 118.455 129.432 118.761 129.432H142.284C142.591 129.432 142.795 129.637 142.795 129.943V130.966C142.795 131.273 142.591 131.478 142.284 131.478Z" fill="#0F94BF"/>
<path d="M142.284 136.591H118.761C118.455 136.591 118.25 136.387 118.25 136.08V135.057C118.25 134.75 118.455 134.546 118.761 134.546H142.284C142.591 134.546 142.795 134.75 142.795 135.057V136.08C142.795 136.387 142.591 136.591 142.284 136.591Z" fill="#0F94BF"/>
<path d="M147.909 114.091V117.16H107V114.091C107 112.966 107.92 112.046 109.045 112.046H145.864C146.989 112.046 147.909 112.966 147.909 114.091Z" fill="url(#paint9_linear_86_3576)"/>
<path d="M112.625 126.364H113.648C113.954 126.364 114.159 126.159 114.159 125.852V124.83C114.159 124.523 113.954 124.318 113.648 124.318H112.625C112.318 124.318 112.114 124.523 112.114 124.83V125.852C112.114 126.159 112.318 126.364 112.625 126.364Z" fill="#0F94BF"/>
<path d="M112.625 131.478H113.648C113.954 131.478 114.159 131.273 114.159 130.966V129.943C114.159 129.637 113.954 129.432 113.648 129.432H112.625C112.318 129.432 112.114 129.637 112.114 129.943V130.966C112.114 131.273 112.318 131.478 112.625 131.478Z" fill="#0F94BF"/>
<path d="M112.625 136.591H113.648C113.954 136.591 114.159 136.387 114.159 136.08V135.057C114.159 134.75 113.954 134.546 113.648 134.546H112.625C112.318 134.546 112.114 134.75 112.114 135.057V136.08C112.114 136.387 112.318 136.591 112.625 136.591Z" fill="#0F94BF"/>
<path d="M141.773 130.455C135.023 130.455 129.5 135.978 129.5 142.728C129.5 143.444 129.602 144.057 129.705 144.773H145.864C146.989 144.773 147.909 143.853 147.909 142.728V132.091C146.068 131.069 144.023 130.455 141.773 130.455Z" fill="url(#paint10_radial_86_3576)"/>
<path d="M141.773 152.955C147.421 152.955 152 148.376 152 142.727C152 137.079 147.421 132.5 141.773 132.5C136.124 132.5 131.545 137.079 131.545 142.727C131.545 148.376 136.124 152.955 141.773 152.955Z" fill="url(#paint11_linear_86_3576)"/>
<path d="M141.773 150.91C146.291 150.91 149.955 147.246 149.955 142.728C149.955 138.209 146.291 134.546 141.773 134.546C137.254 134.546 133.591 138.209 133.591 142.728C133.591 147.246 137.254 150.91 141.773 150.91Z" fill="url(#paint12_radial_86_3576)"/>
<path d="M144.739 148.557C144.534 148.659 144.33 148.557 144.227 148.352L141.466 142.932C141.364 142.727 141.466 142.523 141.67 142.42C141.875 142.318 142.08 142.42 142.182 142.625L144.943 148.045C145.045 148.148 144.943 148.455 144.739 148.557Z" fill="#D83B01"/>
<path d="M141.773 143.137C141.67 143.137 141.568 143.137 141.466 143.034C141.364 142.932 141.364 142.625 141.466 142.523L145.761 138.228C145.864 138.125 146.17 138.125 146.273 138.228C146.375 138.33 146.375 138.637 146.273 138.739L141.977 143.034C141.977 143.034 141.875 143.137 141.773 143.137Z" fill="#45494D"/>
<path d="M141.773 143.341C141.67 143.341 141.568 143.341 141.466 143.239L137.477 141.296C137.17 141.193 137.068 140.784 137.17 140.477C137.273 140.171 137.682 140.068 137.989 140.171L141.977 142.114C142.284 142.216 142.386 142.625 142.284 142.932C142.284 143.239 141.977 143.341 141.773 143.341Z" fill="#45494D"/>
<path d="M141.773 143.75C142.338 143.75 142.795 143.292 142.795 142.727C142.795 142.162 142.338 141.705 141.773 141.705C141.208 141.705 140.75 142.162 140.75 142.727C140.75 143.292 141.208 143.75 141.773 143.75Z" fill="#1E2021"/>
</g>
<rect x="98.5" y="101.5" width="62" height="62" rx="4" stroke="#E2E2E2" stroke-opacity="0.59" stroke-width="2"/>
<defs>
<filter id="filter0_d_86_3576" x="0.5" y="2.5" width="198" height="198" filterUnits="userSpaceOnUse" color-interpolation-filters="sRGB">
<feFlood flood-opacity="0" result="BackgroundImageFix"/>
<feColorMatrix in="SourceAlpha" type="matrix" values="0 0 0 0 0 0 0 0 0 0 0 0 0 0 0 0 0 0 127 0" result="hardAlpha"/>
<feOffset dy="4"/>
<feGaussianBlur stdDeviation="2"/>
<feComposite in2="hardAlpha" operator="out"/>
<feColorMatrix type="matrix" values="0 0 0 0 0 0 0 0 0 0 0 0 0 0 0 0 0 0 0.25 0"/>
<feBlend mode="normal" in2="BackgroundImageFix" result="effect1_dropShadow_86_3576"/>
<feBlend mode="normal" in="SourceGraphic" in2="effect1_dropShadow_86_3576" result="shape"/>
</filter>
<filter id="filter1_i_86_3576" x="36.5" y="41.5" width="50" height="44" filterUnits="userSpaceOnUse" color-interpolation-filters="sRGB">
<feFlood flood-opacity="0" result="BackgroundImageFix"/>
<feBlend mode="normal" in="SourceGraphic" in2="BackgroundImageFix" result="shape"/>
<feColorMatrix in="SourceAlpha" type="matrix" values="0 0 0 0 0 0 0 0 0 0 0 0 0 0 0 0 0 0 127 0" result="hardAlpha"/>
<feOffset dy="4"/>
<feGaussianBlur stdDeviation="2"/>
<feComposite in2="hardAlpha" operator="arithmetic" k2="-1" k3="1"/>
<feColorMatrix type="matrix" values="0 0 0 0 1 0 0 0 0 1 0 0 0 0 1 0 0 0 0.25 0"/>
<feBlend mode="normal" in2="shape" result="effect1_innerShadow_86_3576"/>
</filter>
<filter id="filter2_bd_86_3576" x="103" y="108.046" width="53" height="52.9087" filterUnits="userSpaceOnUse" color-interpolation-filters="sRGB">
<feFlood flood-opacity="0" result="BackgroundImageFix"/>
<feGaussianBlur in="BackgroundImageFix" stdDeviation="2"/>
<feComposite in2="SourceAlpha" operator="in" result="effect1_backgroundBlur_86_3576"/>
<feColorMatrix in="SourceAlpha" type="matrix" values="0 0 0 0 0 0 0 0 0 0 0 0 0 0 0 0 0 0 127 0" result="hardAlpha"/>
<feOffset dy="4"/>
<feGaussianBlur stdDeviation="2"/>
<feComposite in2="hardAlpha" operator="out"/>
<feColorMatrix type="matrix" values="0 0 0 0 1 0 0 0 0 1 0 0 0 0 1 0 0 0 0.25 0"/>
<feBlend mode="normal" in2="effect1_backgroundBlur_86_3576" result="effect2_dropShadow_86_3576"/>
<feBlend mode="normal" in="SourceGraphic" in2="effect2_dropShadow_86_3576" result="shape"/>
</filter>
<linearGradient id="paint0_linear_86_3576" x1="99.5" y1="18.4677" x2="99.5" y2="176.532" gradientUnits="userSpaceOnUse">
<stop stop-color="white"/>
<stop offset="0.472222" stop-color="#0D5176" stop-opacity="0.527778"/>
<stop offset="0.940972" stop-color="#12A6F7" stop-opacity="0.465278"/>
</linearGradient>
<linearGradient id="paint1_linear_86_3576" x1="61.5" y1="31.5" x2="88.3" y2="99.9" gradientUnits="userSpaceOnUse">
<stop stop-color="#B8DFFC"/>
<stop offset="0.453125" stop-color="#E5EFF7" stop-opacity="0.98"/>
<stop offset="1" stop-color="#8FC3EB"/>
</linearGradient>
<linearGradient id="paint2_linear_86_3576" x1="48.35" y1="36.0488" x2="79.1675" y2="70.8754" gradientUnits="userSpaceOnUse">
<stop stop-color="#7DD8F3"/>
<stop offset="1" stop-color="#45B0D0"/>
</linearGradient>
<linearGradient id="paint3_linear_86_3576" x1="37.2675" y1="40.02" x2="87.0521" y2="42.2343" gradientUnits="userSpaceOnUse">
<stop stop-color="#0077D2"/>
<stop offset="1" stop-color="#0B59A2"/>
</linearGradient>
<linearGradient id="paint4_linear_86_3576" x1="36.5" y1="61.5" x2="86.5" y2="61.5" gradientUnits="userSpaceOnUse">
<stop stop-color="#7DD8F3"/>
<stop offset="1" stop-color="#45B0D0"/>
</linearGradient>
<linearGradient id="paint5_linear_86_3576" x1="49.0167" y1="47.0467" x2="64.4808" y2="75.0083" gradientUnits="userSpaceOnUse">
<stop stop-color="#75DAFF"/>
<stop offset="1" stop-color="#49BEF1"/>
</linearGradient>
<linearGradient id="paint6_linear_86_3576" x1="49.0167" y1="47.0467" x2="64.4808" y2="75.0083" gradientUnits="userSpaceOnUse">
<stop stop-color="#75DAFF"/>
<stop offset="1" stop-color="#49BEF1"/>
</linearGradient>
<linearGradient id="paint7_linear_86_3576" x1="129.5" y1="102.5" x2="156.3" y2="170.9" gradientUnits="userSpaceOnUse">
<stop stop-color="#B8DFFC"/>
<stop offset="0.453125" stop-color="#E5EFF7" stop-opacity="0.98"/>
<stop offset="1" stop-color="#8FC3EB"/>
</linearGradient>
<linearGradient id="paint8_linear_86_3576" x1="116.275" y1="114.09" x2="135.561" y2="141.986" gradientUnits="userSpaceOnUse">
<stop stop-color="#7DD8F3"/>
<stop offset="1" stop-color="#45B0D0"/>
</linearGradient>
<linearGradient id="paint9_linear_86_3576" x1="107.826" y1="110.798" x2="146.631" y2="118.689" gradientUnits="userSpaceOnUse">
<stop stop-color="#0077D2"/>
<stop offset="1" stop-color="#0B59A2"/>
</linearGradient>
<radialGradient id="paint10_radial_86_3576" cx="0" cy="0" r="1" gradientUnits="userSpaceOnUse" gradientTransform="translate(141.577 143.098) scale(12.7125 12.7125)">
<stop/>
<stop offset="0.979" stop-opacity="0"/>
</radialGradient>
<linearGradient id="paint11_linear_86_3576" x1="134.541" y1="135.496" x2="149.004" y2="149.959" gradientUnits="userSpaceOnUse">
<stop stop-color="#889097"/>
<stop offset="1" stop-color="#64717C"/>
</linearGradient>
<radialGradient id="paint12_radial_86_3576" cx="0" cy="0" r="1" gradientUnits="userSpaceOnUse" gradientTransform="translate(141.72 134.736) scale(18.2332)">
<stop stop-color="#FAFAFB"/>
<stop offset="1" stop-color="#C8CDD1"/>
</radialGradient>
</defs>
</svg>
