<svg width="195" height="195" viewBox="0 0 195 195" fill="none" xmlns="http://www.w3.org/2000/svg">
<path d="M69.3327 80.9889L63.3408 74.997C59.0262 81.5102 56.5 89.3112 56.5 97.7097C56.5 105.268 58.5461 112.346 62.1025 118.434C62.7062 119.469 64.1506 119.615 64.9975 118.766L68.3767 115.387C68.9433 114.82 69.0484 113.959 68.6693 113.254C66.1781 108.62 64.742 103.339 64.742 97.7097C64.742 91.5983 66.4336 85.897 69.3327 80.9889Z" fill="#50E6FF" fill-opacity="0.5"/>
<path d="M130.678 97.7097C130.678 103.821 128.986 109.523 126.087 114.431L132.079 120.423C136.394 113.91 138.92 106.106 138.92 97.7097C138.92 90.1519 136.874 83.0741 133.317 76.9854C132.714 75.951 131.269 75.8068 130.422 76.6536L127.043 80.0328C126.476 80.5995 126.371 81.4607 126.75 82.1654C129.242 86.7995 130.678 92.0805 130.678 97.7097Z" fill="#199BE2" fill-opacity="0.5"/>
<path d="M80.0328 68.3767C80.5995 68.9433 81.4607 69.0484 82.1654 68.6693C86.7995 66.1781 92.0805 64.742 97.7097 64.742C103.821 64.742 109.523 66.4336 114.431 69.3327L120.425 63.3388C113.91 59.0262 106.109 56.5 97.7097 56.5C90.189 56.5 83.1462 58.5255 77.0781 62.0489C76.0046 62.6732 75.7779 64.1218 76.6557 64.9995L80.0328 68.3767Z" fill="#35C1F1" fill-opacity="0.5"/>
<path d="M115.387 127.043C114.82 126.476 113.959 126.371 113.254 126.75C108.62 129.242 103.339 130.678 97.7097 130.678C91.5983 130.678 85.897 128.986 80.9889 126.087L74.997 132.079C81.5102 136.394 89.3132 138.92 97.7097 138.92C105.268 138.92 112.346 136.874 118.434 133.317C119.469 132.714 119.615 131.269 118.766 130.422L115.387 127.043Z" fill="#0078D4" fill-opacity="0.5"/>
<path d="M122.3 73.1384L112.339 72.7964C111.635 72.7717 111.284 71.9289 111.769 71.4138L121.364 61.1629C121.863 60.6292 122.757 60.963 122.786 61.6925L123.2 72.236C123.219 72.7408 122.805 73.1549 122.3 73.1384Z" fill="#35C1F1" fill-opacity="0.5"/>
<path d="M73.1199 122.281L83.0803 122.623C83.785 122.648 84.1352 123.491 83.651 124.006L74.0554 134.257C73.5567 134.79 72.6625 134.457 72.6336 133.727L72.2195 123.184C72.2009 122.679 72.6151 122.265 73.1199 122.281Z" fill="#0078D4" fill-opacity="0.5"/>
<path d="M122.281 122.3L122.623 112.339C122.648 111.635 123.491 111.284 124.006 111.769L134.257 121.364C134.79 121.863 134.457 122.757 133.727 122.786L123.184 123.2C122.679 123.219 122.265 122.805 122.281 122.3Z" fill="#199BE2" fill-opacity="0.5"/>
<path d="M73.1384 73.1199L72.7964 83.0803C72.7717 83.785 71.9289 84.1352 71.4138 83.651L61.1609 74.0554C60.6272 73.5567 60.961 72.6625 61.6904 72.6336L72.2339 72.2195C72.7408 72.2009 73.1549 72.6151 73.1384 73.1199Z" fill="#50E6FF" fill-opacity="0.5"/>
<rect x="29.5" y="31.5" width="60" height="60" rx="3" fill="url(#paint0_linear_86_3602)"/>
<rect x="29.5" y="31.5" width="60" height="60" rx="3" fill="white" fill-opacity="0.2"/>
<g filter="url(#filter0_i_86_3602)">
<path d="M34.5 79V50.25H84.5V79C84.5 80.375 83.375 81.5 82 81.5H37C35.625 81.5 34.5 80.375 34.5 79Z" fill="url(#paint1_linear_86_3602)"/>
<path d="M84.5 44V50.25H34.5V44C34.5 42.625 35.625 41.5 37 41.5H82C83.375 41.5 84.5 42.625 84.5 44Z" fill="url(#paint2_linear_86_3602)"/>
<path d="M50.125 47.75H81.375C81.72 47.75 82 47.47 82 47.125V44.625C82 44.28 81.72 44 81.375 44H50.125C49.78 44 49.5 44.28 49.5 44.625V47.125C49.5 47.47 49.78 47.75 50.125 47.75Z" fill="url(#paint3_linear_86_3602)"/>
<path d="M38.875 47.75C39.9105 47.75 40.75 46.9105 40.75 45.875C40.75 44.8395 39.9105 44 38.875 44C37.8395 44 37 44.8395 37 45.875C37 46.9105 37.8395 47.75 38.875 47.75Z" fill="url(#paint4_linear_86_3602)"/>
<path d="M45.1211 47.75C46.1566 47.75 46.9961 46.9105 46.9961 45.875C46.9961 44.8395 46.1566 44 45.1211 44C44.0856 44 43.2461 44.8395 43.2461 45.875C43.2461 46.9105 44.0856 47.75 45.1211 47.75Z" fill="url(#paint5_linear_86_3602)"/>
<path d="M64.8333 68.5202C64.8333 62.8654 56.6397 63.9697 56.6397 60.6289C56.6397 58.8841 58.5637 58.7928 59.1661 58.7928C60.6129 58.7928 62.0079 59.1877 63.0725 59.6971C63.4083 59.8577 63.7938 59.6201 63.7938 59.2427V57.597C63.7938 57.0447 63.5896 56.718 63.2646 56.5893C62.5346 56.3 61.4875 56.0898 59.9371 56.037V54.2262C59.9371 54.0095 59.7642 53.8335 59.5517 53.8335H58.7807C58.568 53.8335 58.3953 54.0095 58.3953 54.2262V56.0667C55.9919 56.3065 53.5 57.6883 53.5 60.9039C53.5 66.7652 61.6938 65.6035 61.6938 68.6906C61.6938 69.6606 61.0858 70.4968 59.1672 70.4968C57.2389 70.4968 55.4683 69.8114 54.4879 69.2997C54.1565 69.126 53.7678 69.3747 53.7678 69.7522V71.6256C53.7678 71.9852 53.9805 72.3043 54.3044 72.4452C55.4661 72.9481 57.024 73.3285 58.3942 73.4397V75.4406C58.3942 75.6577 58.5669 75.8335 58.7796 75.8335H59.5504C59.7633 75.8335 59.9358 75.6577 59.9358 75.4406V73.4439C63.5333 73.1381 64.8333 70.6852 64.8333 68.5202Z" fill="#FCFCFC"/>
</g>
<rect x="28.5" y="30.5" width="62" height="62" rx="4" stroke="#E2E2E2" stroke-opacity="0.59" stroke-width="2"/>
<rect x="97.5" y="102.5" width="60" height="60" rx="3" fill="url(#paint6_linear_86_3602)"/>
<rect x="97.5" y="102.5" width="60" height="60" rx="3" fill="white" fill-opacity="0.2"/>
<g filter="url(#filter1_bd_86_3602)">
<path d="M105 142.727V117.159H145.909V142.727C145.909 143.852 144.989 144.773 143.864 144.773H107.045C105.92 144.773 105 143.852 105 142.727Z" fill="url(#paint7_linear_86_3602)"/>
<path d="M140.284 126.364H116.761C116.455 126.364 116.25 126.159 116.25 125.852V124.83C116.25 124.523 116.455 124.318 116.761 124.318H140.284C140.591 124.318 140.795 124.523 140.795 124.83V125.852C140.795 126.159 140.591 126.364 140.284 126.364Z" fill="#0F94BF"/>
<path d="M140.284 131.478H116.761C116.455 131.478 116.25 131.273 116.25 130.966V129.943C116.25 129.637 116.455 129.432 116.761 129.432H140.284C140.591 129.432 140.795 129.637 140.795 129.943V130.966C140.795 131.273 140.591 131.478 140.284 131.478Z" fill="#0F94BF"/>
<path d="M140.284 136.591H116.761C116.455 136.591 116.25 136.387 116.25 136.08V135.057C116.25 134.75 116.455 134.546 116.761 134.546H140.284C140.591 134.546 140.795 134.75 140.795 135.057V136.08C140.795 136.387 140.591 136.591 140.284 136.591Z" fill="#0F94BF"/>
<path d="M145.909 114.091V117.16H105V114.091C105 112.966 105.92 112.046 107.045 112.046H143.864C144.989 112.046 145.909 112.966 145.909 114.091Z" fill="url(#paint8_linear_86_3602)"/>
<path d="M110.625 126.364H111.648C111.954 126.364 112.159 126.159 112.159 125.852V124.83C112.159 124.523 111.954 124.318 111.648 124.318H110.625C110.318 124.318 110.114 124.523 110.114 124.83V125.852C110.114 126.159 110.318 126.364 110.625 126.364Z" fill="#0F94BF"/>
<path d="M110.625 131.478H111.648C111.954 131.478 112.159 131.273 112.159 130.966V129.943C112.159 129.637 111.954 129.432 111.648 129.432H110.625C110.318 129.432 110.114 129.637 110.114 129.943V130.966C110.114 131.273 110.318 131.478 110.625 131.478Z" fill="#0F94BF"/>
<path d="M110.625 136.591H111.648C111.954 136.591 112.159 136.387 112.159 136.08V135.057C112.159 134.75 111.954 134.546 111.648 134.546H110.625C110.318 134.546 110.114 134.75 110.114 135.057V136.08C110.114 136.387 110.318 136.591 110.625 136.591Z" fill="#0F94BF"/>
<path d="M139.773 130.455C133.023 130.455 127.5 135.978 127.5 142.728C127.5 143.444 127.602 144.057 127.705 144.773H143.864C144.989 144.773 145.909 143.853 145.909 142.728V132.091C144.068 131.069 142.023 130.455 139.773 130.455Z" fill="url(#paint9_radial_86_3602)"/>
<path d="M139.773 152.955C145.421 152.955 150 148.376 150 142.727C150 137.079 145.421 132.5 139.773 132.5C134.124 132.5 129.545 137.079 129.545 142.727C129.545 148.376 134.124 152.955 139.773 152.955Z" fill="url(#paint10_linear_86_3602)"/>
<path d="M139.773 150.91C144.291 150.91 147.955 147.246 147.955 142.728C147.955 138.209 144.291 134.546 139.773 134.546C135.254 134.546 131.591 138.209 131.591 142.728C131.591 147.246 135.254 150.91 139.773 150.91Z" fill="url(#paint11_radial_86_3602)"/>
<path d="M142.739 148.557C142.534 148.659 142.33 148.557 142.227 148.352L139.466 142.932C139.364 142.727 139.466 142.523 139.67 142.42C139.875 142.318 140.08 142.42 140.182 142.625L142.943 148.045C143.045 148.148 142.943 148.455 142.739 148.557Z" fill="#D83B01"/>
<path d="M139.773 143.137C139.67 143.137 139.568 143.137 139.466 143.034C139.364 142.932 139.364 142.625 139.466 142.523L143.761 138.228C143.864 138.125 144.17 138.125 144.273 138.228C144.375 138.33 144.375 138.637 144.273 138.739L139.977 143.034C139.977 143.034 139.875 143.137 139.773 143.137Z" fill="#45494D"/>
<path d="M139.773 143.341C139.67 143.341 139.568 143.341 139.466 143.239L135.477 141.296C135.17 141.193 135.068 140.784 135.17 140.477C135.273 140.171 135.682 140.068 135.989 140.171L139.977 142.114C140.284 142.216 140.386 142.625 140.284 142.932C140.284 143.239 139.977 143.341 139.773 143.341Z" fill="#45494D"/>
<path d="M139.773 143.75C140.338 143.75 140.795 143.292 140.795 142.727C140.795 142.162 140.338 141.705 139.773 141.705C139.208 141.705 138.75 142.162 138.75 142.727C138.75 143.292 139.208 143.75 139.773 143.75Z" fill="#1E2021"/>
</g>
<rect x="96.5" y="101.5" width="62" height="62" rx="4" stroke="#E2E2E2" stroke-opacity="0.59" stroke-width="2"/>
<defs>
<filter id="filter0_i_86_3602" x="34.5" y="41.5" width="50" height="44" filterUnits="userSpaceOnUse" color-interpolation-filters="sRGB">
<feFlood flood-opacity="0" result="BackgroundImageFix"/>
<feBlend mode="normal" in="SourceGraphic" in2="BackgroundImageFix" result="shape"/>
<feColorMatrix in="SourceAlpha" type="matrix" values="0 0 0 0 0 0 0 0 0 0 0 0 0 0 0 0 0 0 127 0" result="hardAlpha"/>
<feOffset dy="4"/>
<feGaussianBlur stdDeviation="2"/>
<feComposite in2="hardAlpha" operator="arithmetic" k2="-1" k3="1"/>
<feColorMatrix type="matrix" values="0 0 0 0 1 0 0 0 0 1 0 0 0 0 1 0 0 0 0.25 0"/>
<feBlend mode="normal" in2="shape" result="effect1_innerShadow_86_3602"/>
</filter>
<filter id="filter1_bd_86_3602" x="101" y="108.046" width="53" height="52.9087" filterUnits="userSpaceOnUse" color-interpolation-filters="sRGB">
<feFlood flood-opacity="0" result="BackgroundImageFix"/>
<feGaussianBlur in="BackgroundImageFix" stdDeviation="2"/>
<feComposite in2="SourceAlpha" operator="in" result="effect1_backgroundBlur_86_3602"/>
<feColorMatrix in="SourceAlpha" type="matrix" values="0 0 0 0 0 0 0 0 0 0 0 0 0 0 0 0 0 0 127 0" result="hardAlpha"/>
<feOffset dy="4"/>
<feGaussianBlur stdDeviation="2"/>
<feComposite in2="hardAlpha" operator="out"/>
<feColorMatrix type="matrix" values="0 0 0 0 1 0 0 0 0 1 0 0 0 0 1 0 0 0 0.25 0"/>
<feBlend mode="normal" in2="effect1_backgroundBlur_86_3602" result="effect2_dropShadow_86_3602"/>
<feBlend mode="normal" in="SourceGraphic" in2="effect2_dropShadow_86_3602" result="shape"/>
</filter>
<linearGradient id="paint0_linear_86_3602" x1="59.5" y1="31.5" x2="86.3" y2="99.9" gradientUnits="userSpaceOnUse">
<stop stop-color="#B8DFFC"/>
<stop offset="0.453125" stop-color="#E5EFF7" stop-opacity="0.98"/>
<stop offset="1" stop-color="#8FC3EB"/>
</linearGradient>
<linearGradient id="paint1_linear_86_3602" x1="46.35" y1="36.0488" x2="77.1675" y2="70.8754" gradientUnits="userSpaceOnUse">
<stop stop-color="#7DD8F3"/>
<stop offset="1" stop-color="#45B0D0"/>
</linearGradient>
<linearGradient id="paint2_linear_86_3602" x1="35.2675" y1="40.02" x2="85.0521" y2="42.2343" gradientUnits="userSpaceOnUse">
<stop stop-color="#0077D2"/>
<stop offset="1" stop-color="#0B59A2"/>
</linearGradient>
<linearGradient id="paint3_linear_86_3602" x1="34.5" y1="61.5" x2="84.5" y2="61.5" gradientUnits="userSpaceOnUse">
<stop stop-color="#7DD8F3"/>
<stop offset="1" stop-color="#45B0D0"/>
</linearGradient>
<linearGradient id="paint4_linear_86_3602" x1="47.0167" y1="47.0467" x2="62.4808" y2="75.0083" gradientUnits="userSpaceOnUse">
<stop stop-color="#75DAFF"/>
<stop offset="1" stop-color="#49BEF1"/>
</linearGradient>
<linearGradient id="paint5_linear_86_3602" x1="47.0167" y1="47.0467" x2="62.4808" y2="75.0083" gradientUnits="userSpaceOnUse">
<stop stop-color="#75DAFF"/>
<stop offset="1" stop-color="#49BEF1"/>
</linearGradient>
<linearGradient id="paint6_linear_86_3602" x1="127.5" y1="102.5" x2="154.3" y2="170.9" gradientUnits="userSpaceOnUse">
<stop stop-color="#B8DFFC"/>
<stop offset="0.453125" stop-color="#E5EFF7" stop-opacity="0.98"/>
<stop offset="1" stop-color="#8FC3EB"/>
</linearGradient>
<linearGradient id="paint7_linear_86_3602" x1="114.275" y1="114.09" x2="133.561" y2="141.986" gradientUnits="userSpaceOnUse">
<stop stop-color="#7DD8F3"/>
<stop offset="1" stop-color="#45B0D0"/>
</linearGradient>
<linearGradient id="paint8_linear_86_3602" x1="105.826" y1="110.798" x2="144.631" y2="118.689" gradientUnits="userSpaceOnUse">
<stop stop-color="#0077D2"/>
<stop offset="1" stop-color="#0B59A2"/>
</linearGradient>
<radialGradient id="paint9_radial_86_3602" cx="0" cy="0" r="1" gradientUnits="userSpaceOnUse" gradientTransform="translate(139.577 143.098) scale(12.7125 12.7125)">
<stop/>
<stop offset="0.979" stop-opacity="0"/>
</radialGradient>
<linearGradient id="paint10_linear_86_3602" x1="132.541" y1="135.496" x2="147.004" y2="149.959" gradientUnits="userSpaceOnUse">
<stop stop-color="#889097"/>
<stop offset="1" stop-color="#64717C"/>
</linearGradient>
<radialGradient id="paint11_radial_86_3602" cx="0" cy="0" r="1" gradientUnits="userSpaceOnUse" gradientTransform="translate(139.72 134.736) scale(18.2332)">
<stop stop-color="#FAFAFB"/>
<stop offset="1" stop-color="#C8CDD1"/>
</radialGradient>
</defs>
</svg>
