<svg width="195" height="195" viewBox="0 0 195 195" fill="none" xmlns="http://www.w3.org/2000/svg">
<g id="icon=icon-blank">
<g id="icon-blank">
<g id="icon-blank_2">
<g id="combo">
<g id="Vector">
<path d="M69.3327 80.9889L63.3408 74.997C59.0262 81.5102 56.5 89.3112 56.5 97.7097C56.5 105.268 58.5461 112.346 62.1025 118.434C62.7062 119.469 64.1506 119.615 64.9975 118.766L68.3767 115.387C68.9433 114.82 69.0484 113.959 68.6693 113.254C66.1781 108.62 64.742 103.339 64.742 97.7097C64.742 91.5983 66.4336 85.897 69.3327 80.9889Z" fill="#50E6FF" fill-opacity="0.5"/>
<path d="M130.678 97.7097C130.678 103.821 128.986 109.523 126.087 114.431L132.079 120.423C136.394 113.91 138.92 106.106 138.92 97.7097C138.92 90.1519 136.874 83.0741 133.317 76.9854C132.714 75.951 131.269 75.8068 130.422 76.6536L127.043 80.0328C126.476 80.5995 126.371 81.4607 126.75 82.1654C129.242 86.7995 130.678 92.0805 130.678 97.7097Z" fill="#199BE2" fill-opacity="0.5"/>
<path d="M80.0328 68.3767C80.5995 68.9433 81.4607 69.0484 82.1654 68.6693C86.7995 66.1781 92.0805 64.742 97.7097 64.742C103.821 64.742 109.523 66.4336 114.431 69.3327L120.425 63.3388C113.91 59.0262 106.109 56.5 97.7097 56.5C90.189 56.5 83.1462 58.5255 77.0781 62.0489C76.0046 62.6732 75.7779 64.1218 76.6557 64.9995L80.0328 68.3767Z" fill="#35C1F1" fill-opacity="0.5"/>
<path d="M115.387 127.043C114.82 126.476 113.959 126.371 113.254 126.75C108.62 129.242 103.339 130.678 97.7097 130.678C91.5983 130.678 85.897 128.986 80.9889 126.087L74.997 132.079C81.5102 136.394 89.3132 138.92 97.7097 138.92C105.268 138.92 112.346 136.874 118.434 133.317C119.469 132.714 119.615 131.269 118.766 130.422L115.387 127.043Z" fill="#0078D4" fill-opacity="0.5"/>
<path d="M122.3 73.1384L112.339 72.7964C111.635 72.7717 111.284 71.9289 111.769 71.4138L121.364 61.1629C121.863 60.6292 122.757 60.963 122.786 61.6925L123.2 72.236C123.219 72.7408 122.805 73.1549 122.3 73.1384Z" fill="#35C1F1" fill-opacity="0.5"/>
<path d="M73.1199 122.281L83.0803 122.623C83.785 122.648 84.1352 123.491 83.651 124.006L74.0554 134.257C73.5567 134.79 72.6625 134.457 72.6336 133.727L72.2195 123.184C72.2009 122.679 72.6151 122.265 73.1199 122.281Z" fill="#0078D4" fill-opacity="0.5"/>
<path d="M122.281 122.3L122.623 112.339C122.648 111.635 123.491 111.284 124.006 111.769L134.257 121.364C134.79 121.863 134.457 122.757 133.727 122.786L123.184 123.2C122.679 123.219 122.265 122.805 122.281 122.3Z" fill="#199BE2" fill-opacity="0.5"/>
<path d="M73.1384 73.1199L72.7964 83.0803C72.7717 83.785 71.9289 84.1352 71.4138 83.651L61.1609 74.0554C60.6272 73.5567 60.961 72.6625 61.6904 72.6336L72.2339 72.2195C72.7408 72.2009 73.1549 72.6151 73.1384 73.1199Z" fill="#50E6FF" fill-opacity="0.5"/>
</g>
<g id="Frame">
<rect x="29.5" y="31.5" width="60" height="60" rx="3" fill="url(#paint0_linear_87_6637)"/>
<rect x="29.5" y="31.5" width="60" height="60" rx="3" fill="white" fill-opacity="0.2"/>
<g id="Group">
<g id="Vector_2">
<path d="M39.5 61.5C39.5 50.455 48.455 41.5 59.5 41.5C70.545 41.5 79.5 50.455 79.5 61.5C79.5 72.545 70.545 81.5 59.5 81.5C48.455 81.5 39.5 72.545 39.5 61.5Z" fill="url(#paint1_radial_87_6637)"/>
<path d="M76.5 61.5C76.5 58.261 75.827 55.209 74.661 52.5H77.343C76.995 51.811 76.618 51.14 76.195 50.5H73.683C70.638 45.084 65.421 41.5 59.5 41.5C53.579 41.5 48.362 45.084 45.317 50.5H42.805C42.382 51.14 42.005 51.811 41.657 52.5H44.339C43.173 55.209 42.5 58.261 42.5 61.5C42.5 64.739 43.173 67.791 44.339 70.5H41.657C42.005 71.189 42.382 71.86 42.805 72.5H45.317C48.362 77.916 53.579 81.5 59.5 81.5C65.421 81.5 70.638 77.916 73.683 72.5H76.195C76.618 71.86 76.995 71.189 77.343 70.5H74.661C75.827 67.791 76.5 64.739 76.5 61.5ZM74.5 61.5C74.5 64.78 73.753 67.849 72.471 70.5H66.678C67.221 67.667 67.5 64.553 67.5 61.5C67.5 58.447 67.221 55.333 66.678 52.5H72.471C73.753 55.151 74.5 58.22 74.5 61.5ZM59.5 79.5C57.81 79.5 56.009 76.863 54.826 72.5H64.175C62.991 76.863 61.19 79.5 59.5 79.5ZM54.348 70.5C53.821 67.913 53.5 64.871 53.5 61.5C53.5 58.129 53.821 55.087 54.348 52.5H64.652C65.179 55.087 65.5 58.129 65.5 61.5C65.5 64.871 65.179 67.913 64.652 70.5H54.348ZM59.5 43.5C61.19 43.5 62.991 46.137 64.174 50.5H54.825C56.009 46.137 57.81 43.5 59.5 43.5ZM71.347 50.5H66.236C65.61 48.001 64.757 45.816 63.684 44.227C66.763 45.303 69.429 47.532 71.347 50.5ZM55.316 44.227C54.243 45.817 53.39 48.001 52.764 50.5H47.653C49.571 47.532 52.237 45.303 55.316 44.227ZM44.5 61.5C44.5 58.22 45.247 55.151 46.529 52.5H52.322C51.779 55.333 51.5 58.447 51.5 61.5C51.5 64.553 51.779 67.667 52.322 70.5H46.529C45.247 67.849 44.5 64.78 44.5 61.5ZM47.653 72.5H52.764C53.39 74.999 54.243 77.184 55.316 78.773C52.237 77.697 49.571 75.468 47.653 72.5ZM63.684 78.773C64.757 77.183 65.61 74.999 66.236 72.5H71.347C69.429 75.468 66.763 77.697 63.684 78.773Z" fill="url(#paint2_radial_87_6637)"/>
<path d="M63.405 57.5L62.093 63.743L60.5 57.5H58.5L56.907 63.743L55.595 57.5H53.5L55.5 65.5H57.951C57.951 65.5 59.464 59.864 59.5 59.5C59.536 59.864 61.049 65.5 61.049 65.5H63.5L65.5 57.5H63.405Z" fill="white"/>
<path d="M51.405 57.5L50.093 63.743L48.5 57.5H46.5L44.907 63.743L43.595 57.5H41.5L43.5 65.5H45.951C45.951 65.5 47.464 59.864 47.5 59.5C47.536 59.864 49.049 65.5 49.049 65.5H51.5L53.5 57.5H51.405Z" fill="white"/>
<path d="M75.405 57.5L74.093 63.743L72.5 57.5H70.5L68.907 63.743L67.595 57.5H65.5L67.5 65.5H69.951C69.951 65.5 71.464 59.864 71.5 59.5C71.536 59.864 73.049 65.5 73.049 65.5H75.5L77.5 57.5H75.405Z" fill="white"/>
</g>
</g>
<rect x="28.5" y="30.5" width="62" height="62" rx="4" stroke="#E2E2E2" stroke-opacity="0.59" stroke-width="2"/>
</g>
<g id="Frame_2">
<rect x="97.5" y="102.5" width="60" height="60" rx="3" fill="url(#paint3_linear_87_6637)"/>
<rect x="97.5" y="102.5" width="60" height="60" rx="3" fill="white" fill-opacity="0.2"/>
<g id="link-tracker" filter="url(#filter0_bd_87_6637)">
<path id="Vector_3" d="M150 132.5C150 144.925 139.925 155 127.5 155C115.074 155 105 144.925 105 132.5C105 120.074 115.074 110 127.5 110C139.925 110 150 120.074 150 132.5Z" fill="url(#paint4_radial_87_6637)"/>
<path id="Vector_4" d="M146.625 132.5C146.625 129.727 146.176 127.08 145.392 124.625H148.555C148.266 123.854 147.94 123.103 147.572 122.375H144.555C141.4 115.046 134.949 110 127.5 110C120.051 110 113.601 115.046 110.444 122.375H107.427C107.059 123.103 106.734 123.854 106.445 124.625H109.607C108.824 127.08 108.375 129.727 108.375 132.5C108.375 135.273 108.824 137.92 109.608 140.375H106.446C106.734 141.145 107.06 141.897 107.428 142.625H110.445C113.602 149.955 120.051 155 127.5 155C134.949 155 141.4 149.955 144.557 142.625H147.575C147.942 141.897 148.267 141.145 148.557 140.375H145.394C146.176 137.92 146.625 135.273 146.625 132.5ZM144.375 132.5C144.375 135.291 143.901 137.953 143.046 140.375H135.949C136.312 137.826 136.5 135.144 136.5 132.5C136.5 129.856 136.313 127.174 135.949 124.625H143.046C143.901 127.047 144.375 129.709 144.375 132.5ZM127.5 152.75C125.322 152.75 122.976 148.875 121.704 142.625H133.296C132.024 148.875 129.678 152.75 127.5 152.75ZM121.313 140.375C120.958 137.998 120.75 135.356 120.75 132.5C120.75 129.644 120.958 127.002 121.313 124.625H133.688C134.042 127.002 134.25 129.644 134.25 132.5C134.25 135.356 134.042 137.998 133.688 140.375H121.313ZM127.5 112.25C129.678 112.25 132.024 116.126 133.296 122.375H121.704C122.976 116.126 125.322 112.25 127.5 112.25ZM142.091 122.375H135.575C134.856 118.629 133.727 115.319 132.207 113.068C136.412 114.537 139.936 117.918 142.091 122.375ZM122.793 113.068C121.274 115.32 120.144 118.629 119.425 122.375H112.909C115.064 117.918 118.588 114.537 122.793 113.068ZM110.625 132.5C110.625 129.709 111.099 127.047 111.954 124.625H119.051C118.687 127.174 118.5 129.856 118.5 132.5C118.5 135.144 118.687 137.826 119.051 140.375H111.954C111.099 137.953 110.625 135.291 110.625 132.5ZM112.909 142.625H119.425C120.144 146.371 121.273 149.681 122.793 151.932C118.588 150.463 115.064 147.082 112.909 142.625ZM132.207 151.932C133.726 149.68 134.856 146.371 135.575 142.625H142.091C139.936 147.082 136.412 150.463 132.207 151.932Z" fill="url(#paint5_radial_87_6637)"/>
<g id="Group 9">
<g id="Vector_5">
<path d="M112.77 133.07C112.841 136.437 115.628 139.108 118.995 139.038C120.568 139.004 123.775 138.936 125.348 138.903C128.715 138.832 131.387 136.045 131.316 132.678C131.244 129.311 128.457 126.639 125.09 126.71C123.517 126.744 120.31 126.812 118.737 126.845C115.371 126.916 112.699 129.703 112.77 133.07ZM118.806 130.053C119.731 130.034 124.466 129.934 125.158 129.919C126.753 129.885 128.074 131.151 128.107 132.746C128.141 134.34 126.875 135.661 125.281 135.694C124.588 135.709 119.854 135.809 118.928 135.829C117.333 135.863 116.013 134.597 115.979 133.002C115.945 131.408 117.211 130.087 118.806 130.053Z" fill="#FFD869"/>
<path d="M127.97 131.894C127.97 131.894 128.357 130.925 129.717 130.786L130.96 130.759C130.196 128.619 128.276 127.044 125.966 126.761C124.206 127.834 123.234 129.96 123.234 129.96C124.177 129.94 124.933 129.924 125.158 129.919C126.465 129.892 127.553 130.698 127.97 131.894Z" fill="#EDEDED" fill-opacity="0.42"/>
<path d="M127.748 131.4C128.004 131.057 128.564 130.383 129.707 130.304C129.77 130.303 130.551 130.278 130.753 130.273C130.021 128.586 128.515 127.331 126.704 126.899C125.165 127.716 124.104 129.317 123.78 129.948C124.454 129.934 124.982 129.923 125.158 129.919C126.274 129.895 127.231 130.48 127.748 131.4Z" fill="#EDEDED" fill-opacity="0.42"/>
<path d="M142.207 132.448C142.136 129.081 139.349 126.409 135.981 126.48C134.409 126.513 131.201 126.581 129.628 126.614C126.262 126.686 123.59 129.473 123.661 132.84C123.733 136.207 126.52 138.878 129.887 138.807C131.46 138.774 134.667 138.706 136.24 138.673C139.606 138.602 142.278 135.814 142.207 132.448ZM136.171 135.464C135.246 135.484 130.511 135.584 129.818 135.598C128.224 135.632 126.903 134.366 126.87 132.772C126.836 131.178 128.101 129.857 129.696 129.823C130.389 129.809 135.123 129.708 136.049 129.689C137.643 129.655 138.964 130.921 138.998 132.515C139.032 134.11 137.766 135.431 136.171 135.464Z" fill="white"/>
<path d="M127.012 133.614C127.012 133.614 126.619 134.593 125.26 134.732L124.017 134.759C124.78 136.898 126.7 138.474 129.011 138.757C130.77 137.683 131.743 135.558 131.743 135.558C130.8 135.578 130.044 135.594 129.818 135.598C128.512 135.626 127.393 134.797 127.012 133.614Z" fill="#EDEDED" fill-opacity="0.42"/>
<path d="M127.237 134.123C126.98 134.467 126.413 135.134 125.27 135.213C125.207 135.215 124.435 135.231 124.233 135.235C124.964 136.923 126.484 138.191 128.31 138.584C129.848 137.767 130.874 136.201 131.197 135.569C130.522 135.583 129.995 135.595 129.818 135.598C128.702 135.623 127.718 134.998 127.237 134.123Z" fill="#EDEDED" fill-opacity="0.42"/>
<path d="M128.107 132.746C128.141 134.34 126.875 135.661 125.281 135.694C124.588 135.709 119.854 135.809 118.928 135.829L118.996 139.038C120.569 139.005 123.776 138.937 125.348 138.904C128.716 138.833 131.387 136.046 131.316 132.678L128.107 132.746Z" fill="#FFD869"/>
</g>
</g>
</g>
<rect x="96.5" y="101.5" width="62" height="62" rx="4" stroke="#E2E2E2" stroke-opacity="0.59" stroke-width="2"/>
</g>
</g>
</g>
</g>
</g>
<defs>
<filter id="filter0_bd_87_6637" x="101" y="106" width="53" height="55" filterUnits="userSpaceOnUse" color-interpolation-filters="sRGB">
<feFlood flood-opacity="0" result="BackgroundImageFix"/>
<feGaussianBlur in="BackgroundImageFix" stdDeviation="2"/>
<feComposite in2="SourceAlpha" operator="in" result="effect1_backgroundBlur_87_6637"/>
<feColorMatrix in="SourceAlpha" type="matrix" values="0 0 0 0 0 0 0 0 0 0 0 0 0 0 0 0 0 0 127 0" result="hardAlpha"/>
<feOffset dy="2"/>
<feGaussianBlur stdDeviation="2"/>
<feComposite in2="hardAlpha" operator="out"/>
<feColorMatrix type="matrix" values="0 0 0 0 1 0 0 0 0 1 0 0 0 0 1 0 0 0 1 0"/>
<feBlend mode="normal" in2="effect1_backgroundBlur_87_6637" result="effect2_dropShadow_87_6637"/>
<feBlend mode="normal" in="SourceGraphic" in2="effect2_dropShadow_87_6637" result="shape"/>
</filter>
<linearGradient id="paint0_linear_87_6637" x1="59.5" y1="31.5" x2="86.3" y2="99.9" gradientUnits="userSpaceOnUse">
<stop stop-color="#B8DFFC"/>
<stop offset="0.453125" stop-color="#E5EFF7" stop-opacity="0.98"/>
<stop offset="1" stop-color="#8FC3EB"/>
</linearGradient>
<radialGradient id="paint1_radial_87_6637" cx="0" cy="0" r="1" gradientUnits="userSpaceOnUse" gradientTransform="translate(45.832 46.681) scale(40.041)">
<stop stop-color="#6FCEFC"/>
<stop offset="1" stop-color="#167CF7"/>
</radialGradient>
<radialGradient id="paint2_radial_87_6637" cx="0" cy="0" r="1" gradientUnits="userSpaceOnUse" gradientTransform="translate(45.2255 45.98) scale(45.0092 40.155)">
<stop offset="0.001" stop-color="#54C0F5"/>
<stop offset="0.998" stop-color="#0B69DB"/>
</radialGradient>
<linearGradient id="paint3_linear_87_6637" x1="127.5" y1="102.5" x2="154.3" y2="170.9" gradientUnits="userSpaceOnUse">
<stop stop-color="#B8DFFC"/>
<stop offset="0.453125" stop-color="#E5EFF7" stop-opacity="0.98"/>
<stop offset="1" stop-color="#8FC3EB"/>
</linearGradient>
<radialGradient id="paint4_radial_87_6637" cx="0" cy="0" r="1" gradientUnits="userSpaceOnUse" gradientTransform="translate(111.82 116.118) scale(46.0304)">
<stop stop-color="#6FCEFC"/>
<stop offset="1" stop-color="#167CF7"/>
</radialGradient>
<radialGradient id="paint5_radial_87_6637" cx="0" cy="0" r="1" gradientUnits="userSpaceOnUse" gradientTransform="translate(111.506 114.556) scale(49.1896 46.0329)">
<stop offset="0.001" stop-color="#54C0F5"/>
<stop offset="0.998" stop-color="#0B69DB"/>
</radialGradient>
</defs>
</svg>
