<svg width="195" height="195" viewBox="0 0 195 195" fill="none" xmlns="http://www.w3.org/2000/svg">
<g id="icon=icon-blank">
<g id="icon-blank">
<g id="icon-blank_2">
<g id="combo">
<g id="Vector">
<path d="M69.3327 80.9889L63.3408 74.997C59.0262 81.5102 56.5 89.3112 56.5 97.7097C56.5 105.268 58.5461 112.346 62.1025 118.434C62.7062 119.469 64.1506 119.615 64.9975 118.766L68.3767 115.387C68.9433 114.82 69.0484 113.959 68.6693 113.254C66.1781 108.62 64.742 103.339 64.742 97.7097C64.742 91.5983 66.4336 85.897 69.3327 80.9889Z" fill="#50E6FF" fill-opacity="0.5"/>
<path d="M130.678 97.7097C130.678 103.821 128.986 109.523 126.087 114.431L132.079 120.423C136.394 113.91 138.92 106.106 138.92 97.7097C138.92 90.1519 136.874 83.0741 133.317 76.9854C132.714 75.951 131.269 75.8068 130.422 76.6536L127.043 80.0328C126.476 80.5995 126.371 81.4607 126.75 82.1654C129.242 86.7995 130.678 92.0805 130.678 97.7097Z" fill="#199BE2" fill-opacity="0.5"/>
<path d="M80.0328 68.3767C80.5995 68.9433 81.4607 69.0484 82.1654 68.6693C86.7995 66.1781 92.0805 64.742 97.7097 64.742C103.821 64.742 109.523 66.4336 114.431 69.3327L120.425 63.3388C113.91 59.0262 106.109 56.5 97.7097 56.5C90.189 56.5 83.1462 58.5255 77.0781 62.0489C76.0046 62.6732 75.7779 64.1218 76.6557 64.9995L80.0328 68.3767Z" fill="#35C1F1" fill-opacity="0.5"/>
<path d="M115.387 127.043C114.82 126.476 113.959 126.371 113.254 126.75C108.62 129.242 103.339 130.678 97.7097 130.678C91.5983 130.678 85.897 128.986 80.9889 126.087L74.997 132.079C81.5102 136.394 89.3132 138.92 97.7097 138.92C105.268 138.92 112.346 136.874 118.434 133.317C119.469 132.714 119.615 131.269 118.766 130.422L115.387 127.043Z" fill="#0078D4" fill-opacity="0.5"/>
<path d="M122.3 73.1384L112.339 72.7964C111.635 72.7717 111.284 71.9289 111.769 71.4138L121.364 61.1629C121.863 60.6292 122.757 60.963 122.786 61.6925L123.2 72.236C123.219 72.7408 122.805 73.1549 122.3 73.1384Z" fill="#35C1F1" fill-opacity="0.5"/>
<path d="M73.1199 122.281L83.0803 122.623C83.785 122.648 84.1352 123.491 83.651 124.006L74.0554 134.257C73.5567 134.79 72.6625 134.457 72.6336 133.727L72.2195 123.184C72.2009 122.679 72.6151 122.265 73.1199 122.281Z" fill="#0078D4" fill-opacity="0.5"/>
<path d="M122.281 122.3L122.623 112.339C122.648 111.635 123.491 111.284 124.006 111.769L134.257 121.364C134.79 121.863 134.457 122.757 133.727 122.786L123.184 123.2C122.679 123.219 122.265 122.805 122.281 122.3Z" fill="#199BE2" fill-opacity="0.5"/>
<path d="M73.1384 73.1199L72.7964 83.0803C72.7717 83.785 71.9289 84.1352 71.4138 83.651L61.1609 74.0554C60.6272 73.5567 60.961 72.6625 61.6904 72.6336L72.2339 72.2195C72.7408 72.2009 73.1549 72.6151 73.1384 73.1199Z" fill="#50E6FF" fill-opacity="0.5"/>
</g>
<g id="Frame">
<rect x="29.5" y="31.5" width="60" height="60" rx="3" fill="url(#paint0_linear_87_4206)"/>
<rect x="29.5" y="31.5" width="60" height="60" rx="3" fill="white" fill-opacity="0.2"/>
<g id="Group">
<g id="Vector_2">
<path d="M39.5 61.5C39.5 50.455 48.455 41.5 59.5 41.5C70.545 41.5 79.5 50.455 79.5 61.5C79.5 72.545 70.545 81.5 59.5 81.5C48.455 81.5 39.5 72.545 39.5 61.5Z" fill="url(#paint1_radial_87_4206)"/>
<path d="M76.5 61.5C76.5 58.261 75.827 55.209 74.661 52.5H77.343C76.995 51.811 76.618 51.14 76.195 50.5H73.683C70.638 45.084 65.421 41.5 59.5 41.5C53.579 41.5 48.362 45.084 45.317 50.5H42.805C42.382 51.14 42.005 51.811 41.657 52.5H44.339C43.173 55.209 42.5 58.261 42.5 61.5C42.5 64.739 43.173 67.791 44.339 70.5H41.657C42.005 71.189 42.382 71.86 42.805 72.5H45.317C48.362 77.916 53.579 81.5 59.5 81.5C65.421 81.5 70.638 77.916 73.683 72.5H76.195C76.618 71.86 76.995 71.189 77.343 70.5H74.661C75.827 67.791 76.5 64.739 76.5 61.5ZM74.5 61.5C74.5 64.78 73.753 67.849 72.471 70.5H66.678C67.221 67.667 67.5 64.553 67.5 61.5C67.5 58.447 67.221 55.333 66.678 52.5H72.471C73.753 55.151 74.5 58.22 74.5 61.5ZM59.5 79.5C57.81 79.5 56.009 76.863 54.826 72.5H64.175C62.991 76.863 61.19 79.5 59.5 79.5ZM54.348 70.5C53.821 67.913 53.5 64.871 53.5 61.5C53.5 58.129 53.821 55.087 54.348 52.5H64.652C65.179 55.087 65.5 58.129 65.5 61.5C65.5 64.871 65.179 67.913 64.652 70.5H54.348ZM59.5 43.5C61.19 43.5 62.991 46.137 64.174 50.5H54.825C56.009 46.137 57.81 43.5 59.5 43.5ZM71.347 50.5H66.236C65.61 48.001 64.757 45.816 63.684 44.227C66.763 45.303 69.429 47.532 71.347 50.5ZM55.316 44.227C54.243 45.817 53.39 48.001 52.764 50.5H47.653C49.571 47.532 52.237 45.303 55.316 44.227ZM44.5 61.5C44.5 58.22 45.247 55.151 46.529 52.5H52.322C51.779 55.333 51.5 58.447 51.5 61.5C51.5 64.553 51.779 67.667 52.322 70.5H46.529C45.247 67.849 44.5 64.78 44.5 61.5ZM47.653 72.5H52.764C53.39 74.999 54.243 77.184 55.316 78.773C52.237 77.697 49.571 75.468 47.653 72.5ZM63.684 78.773C64.757 77.183 65.61 74.999 66.236 72.5H71.347C69.429 75.468 66.763 77.697 63.684 78.773Z" fill="url(#paint2_radial_87_4206)"/>
<path d="M63.405 57.5L62.093 63.743L60.5 57.5H58.5L56.907 63.743L55.595 57.5H53.5L55.5 65.5H57.951C57.951 65.5 59.464 59.864 59.5 59.5C59.536 59.864 61.049 65.5 61.049 65.5H63.5L65.5 57.5H63.405Z" fill="white"/>
<path d="M51.405 57.5L50.093 63.743L48.5 57.5H46.5L44.907 63.743L43.595 57.5H41.5L43.5 65.5H45.951C45.951 65.5 47.464 59.864 47.5 59.5C47.536 59.864 49.049 65.5 49.049 65.5H51.5L53.5 57.5H51.405Z" fill="white"/>
<path d="M75.405 57.5L74.093 63.743L72.5 57.5H70.5L68.907 63.743L67.595 57.5H65.5L67.5 65.5H69.951C69.951 65.5 71.464 59.864 71.5 59.5C71.536 59.864 73.049 65.5 73.049 65.5H75.5L77.5 57.5H75.405Z" fill="white"/>
</g>
</g>
<rect x="28.5" y="30.5" width="62" height="62" rx="4" stroke="#E2E2E2" stroke-opacity="0.59" stroke-width="2"/>
</g>
<g id="Frame_2">
<rect x="97.5" y="102.5" width="60" height="60" rx="3" fill="url(#paint3_linear_87_4206)"/>
<rect x="97.5" y="102.5" width="60" height="60" rx="3" fill="white" fill-opacity="0.2"/>
<g id="Group 9" filter="url(#filter0_bd_87_4206)">
<path id="Vector_3" d="M147.122 113.375H107.878C106.295 113.375 105 114.751 105 116.433V148.567C105 150.249 106.295 151.625 107.878 151.625H147.122C148.705 151.625 150 150.249 150 148.567V116.433C150 114.751 148.705 113.375 147.122 113.375Z" fill="url(#paint4_linear_87_4206)"/>
<path id="Vector_4" d="M134.846 149.375H146.03C146.98 149.375 147.751 148.604 147.751 147.654V136.471C147.751 135.521 146.98 134.75 146.03 134.75H134.846C133.896 134.75 133.125 135.521 133.125 136.471V147.655C133.125 148.604 133.896 149.375 134.846 149.375Z" fill="url(#paint5_linear_87_4206)"/>
<path id="Vector_5" d="M126.938 133.625H110.062C109.752 133.625 109.5 133.373 109.5 133.062V131.938C109.5 131.627 109.752 131.375 110.062 131.375H126.938C127.248 131.375 127.5 131.627 127.5 131.938V133.062C127.5 133.373 127.248 133.625 126.938 133.625Z" fill="#0D86AD"/>
<path id="Vector_6" d="M126.938 138.125H110.062C109.752 138.125 109.5 137.873 109.5 137.562V136.438C109.5 136.127 109.752 135.875 110.062 135.875H126.938C127.248 135.875 127.5 136.127 127.5 136.438V137.562C127.5 137.873 127.248 138.125 126.938 138.125Z" fill="#0D86AD"/>
<path id="Vector_7" d="M126.938 142.625H110.062C109.752 142.625 109.5 142.373 109.5 142.062V140.938C109.5 140.627 109.752 140.375 110.062 140.375H126.938C127.248 140.375 127.5 140.627 127.5 140.938V142.062C127.5 142.373 127.248 142.625 126.938 142.625Z" fill="#0D86AD"/>
<path id="Vector_8" d="M123.562 147.125H110.062C109.752 147.125 109.5 146.873 109.5 146.562V145.438C109.5 145.127 109.752 144.875 110.062 144.875H123.562C123.873 144.875 124.125 145.127 124.125 145.438V146.562C124.125 146.873 123.873 147.125 123.562 147.125Z" fill="#0D86AD"/>
<path id="Vector_9" d="M145.5 137.562V147.125H142.125V137.562C142.125 137.252 142.377 137 142.688 137H144.938C145.248 137 145.5 137.252 145.5 137.562Z" fill="#35C1F1"/>
<path id="Vector_10" d="M142.125 139.25V147.125H138.75V139.812C138.75 139.502 139.002 139.25 139.312 139.25H142.125Z" fill="#199BE2"/>
<path id="Vector_11" d="M138.75 141.5V147.125H135.375V142.062C135.375 141.752 135.627 141.5 135.938 141.5H138.75Z" fill="#0078D4"/>
<path id="Vector_12" d="M134.846 132.5H146.03C146.98 132.5 147.751 131.729 147.751 130.779V119.596C147.751 118.646 146.98 117.875 146.03 117.875H134.846C133.896 117.875 133.125 118.646 133.125 119.596V130.78C133.125 131.729 133.896 132.5 134.846 132.5Z" fill="url(#paint6_linear_87_4206)"/>
<path id="Vector_13" d="M135.375 125.188C135.375 127.983 137.642 130.25 140.438 130.25C143.233 130.25 145.5 127.983 145.5 125.188H140.438H135.375Z" fill="#D35230"/>
<path id="Vector_14" d="M140.438 120.125V125.188H145.5C145.5 122.392 143.233 120.125 140.438 120.125Z" fill="#FF8F6B"/>
<path id="Vector_15" d="M140.438 120.125C137.642 120.125 135.375 122.392 135.375 125.188H140.438V120.125Z" fill="#ED6C47"/>
<path id="Vector_16" d="M114.575 124.822H113.455C113.435 124.677 113.393 124.548 113.33 124.436C113.267 124.322 113.186 124.225 113.087 124.144C112.988 124.064 112.874 124.003 112.745 123.96C112.617 123.918 112.478 123.896 112.328 123.896C112.057 123.896 111.821 123.964 111.62 124.098C111.418 124.231 111.262 124.426 111.152 124.681C111.041 124.935 110.985 125.244 110.985 125.607C110.985 125.98 111.041 126.294 111.152 126.548C111.264 126.802 111.421 126.994 111.622 127.123C111.823 127.253 112.056 127.317 112.32 127.317C112.468 127.317 112.606 127.298 112.732 127.259C112.86 127.219 112.973 127.162 113.072 127.087C113.171 127.011 113.253 126.918 113.317 126.809C113.384 126.7 113.43 126.575 113.455 126.435L114.575 126.441C114.546 126.681 114.474 126.913 114.358 127.136C114.244 127.358 114.089 127.556 113.895 127.732C113.703 127.906 113.472 128.044 113.205 128.146C112.939 128.246 112.638 128.297 112.302 128.297C111.835 128.297 111.418 128.191 111.049 127.98C110.683 127.768 110.393 127.462 110.18 127.062C109.969 126.661 109.863 126.176 109.863 125.607C109.863 125.036 109.97 124.55 110.185 124.15C110.4 123.749 110.691 123.444 111.06 123.234C111.428 123.023 111.842 122.917 112.302 122.917C112.606 122.917 112.887 122.96 113.146 123.045C113.407 123.13 113.638 123.255 113.839 123.418C114.04 123.58 114.204 123.779 114.33 124.014C114.458 124.249 114.539 124.519 114.575 124.822Z" fill="white"/>
<path id="Vector_17" d="M115.369 128.225V122.989H117.435C117.83 122.989 118.168 123.059 118.448 123.201C118.729 123.341 118.943 123.539 119.089 123.797C119.238 124.052 119.312 124.353 119.312 124.699C119.312 125.047 119.237 125.346 119.087 125.597C118.937 125.846 118.719 126.036 118.435 126.169C118.152 126.302 117.809 126.369 117.407 126.369H116.024V125.479H117.228C117.439 125.479 117.615 125.45 117.755 125.392C117.894 125.334 117.998 125.247 118.067 125.131C118.136 125.015 118.171 124.871 118.171 124.699C118.171 124.525 118.136 124.379 118.067 124.259C117.998 124.14 117.894 124.05 117.752 123.988C117.612 123.925 117.436 123.894 117.223 123.894H116.476V128.225H115.369ZM118.197 125.842L119.498 128.225H118.276L117.003 125.842H118.197Z" fill="white"/>
<path id="Vector_18" d="M120.094 122.989H121.459L122.902 126.507H122.963L124.405 122.989H125.77V128.225H124.696V124.817H124.653L123.298 128.2H122.567L121.211 124.804H121.168V128.225H120.094V122.989Z" fill="white"/>
</g>
<rect x="96.5" y="101.5" width="62" height="62" rx="4" stroke="#E2E2E2" stroke-opacity="0.59" stroke-width="2"/>
</g>
</g>
</g>
</g>
</g>
<defs>
<filter id="filter0_bd_87_4206" x="101" y="109.375" width="53" height="48.25" filterUnits="userSpaceOnUse" color-interpolation-filters="sRGB">
<feFlood flood-opacity="0" result="BackgroundImageFix"/>
<feGaussianBlur in="BackgroundImageFix" stdDeviation="2"/>
<feComposite in2="SourceAlpha" operator="in" result="effect1_backgroundBlur_87_4206"/>
<feColorMatrix in="SourceAlpha" type="matrix" values="0 0 0 0 0 0 0 0 0 0 0 0 0 0 0 0 0 0 127 0" result="hardAlpha"/>
<feOffset dy="2"/>
<feGaussianBlur stdDeviation="2"/>
<feComposite in2="hardAlpha" operator="out"/>
<feColorMatrix type="matrix" values="0 0 0 0 1 0 0 0 0 1 0 0 0 0 1 0 0 0 1 0"/>
<feBlend mode="normal" in2="effect1_backgroundBlur_87_4206" result="effect2_dropShadow_87_4206"/>
<feBlend mode="normal" in="SourceGraphic" in2="effect2_dropShadow_87_4206" result="shape"/>
</filter>
<linearGradient id="paint0_linear_87_4206" x1="59.5" y1="31.5" x2="86.3" y2="99.9" gradientUnits="userSpaceOnUse">
<stop stop-color="#B8DFFC"/>
<stop offset="0.453125" stop-color="#E5EFF7" stop-opacity="0.98"/>
<stop offset="1" stop-color="#8FC3EB"/>
</linearGradient>
<radialGradient id="paint1_radial_87_4206" cx="0" cy="0" r="1" gradientUnits="userSpaceOnUse" gradientTransform="translate(45.832 46.681) scale(40.041)">
<stop stop-color="#6FCEFC"/>
<stop offset="1" stop-color="#167CF7"/>
</radialGradient>
<radialGradient id="paint2_radial_87_4206" cx="0" cy="0" r="1" gradientUnits="userSpaceOnUse" gradientTransform="translate(45.2255 45.98) scale(45.0092 40.155)">
<stop offset="0.001" stop-color="#54C0F5"/>
<stop offset="0.998" stop-color="#0B69DB"/>
</radialGradient>
<linearGradient id="paint3_linear_87_4206" x1="127.5" y1="102.5" x2="154.3" y2="170.9" gradientUnits="userSpaceOnUse">
<stop stop-color="#B8DFFC"/>
<stop offset="0.453125" stop-color="#E5EFF7" stop-opacity="0.98"/>
<stop offset="1" stop-color="#8FC3EB"/>
</linearGradient>
<linearGradient id="paint4_linear_87_4206" x1="94.5589" y1="113.02" x2="171.065" y2="153.096" gradientUnits="userSpaceOnUse">
<stop stop-color="#33D7F0"/>
<stop offset="0.187" stop-color="#2FD1ED"/>
<stop offset="0.445" stop-color="#24BFE3"/>
<stop offset="0.744" stop-color="#13A2D4"/>
<stop offset="1" stop-color="#0083C4"/>
</linearGradient>
<linearGradient id="paint5_linear_87_4206" x1="124.729" y1="119.145" x2="132.568" y2="171.464" gradientUnits="userSpaceOnUse">
<stop stop-color="#FCFCFC"/>
<stop offset="1" stop-color="#C3C9CD"/>
</linearGradient>
<linearGradient id="paint6_linear_87_4206" x1="124.729" y1="119.145" x2="132.568" y2="171.464" gradientUnits="userSpaceOnUse">
<stop stop-color="#FCFCFC"/>
<stop offset="1" stop-color="#C3C9CD"/>
</linearGradient>
</defs>
</svg>
