<svg width="199" height="201" viewBox="0 0 199 201" fill="none" xmlns="http://www.w3.org/2000/svg">
<g filter="url(#filter0_d_84_17075)">
<path d="M172.887 10H26.1129C18.3186 10 12 16.3186 12 24.1129V170.887C12 178.681 18.3186 185 26.1129 185H172.887C180.681 185 187 178.681 187 170.887V24.1129C187 16.3186 180.681 10 172.887 10Z" fill="white"/>
<path d="M172.887 10H26.1129C18.3186 10 12 16.3186 12 24.1129V170.887C12 178.681 18.3186 185 26.1129 185H172.887C180.681 185 187 178.681 187 170.887V24.1129C187 16.3186 180.681 10 172.887 10Z" stroke="#F2F2F2" stroke-width="15" stroke-linecap="round"/>
<path d="M26.1129 10.5H172.887C180.405 10.5 186.5 16.5948 186.5 24.1129V170.887C186.5 178.405 180.405 184.5 172.887 184.5H26.1129C18.5948 184.5 12.5 178.405 12.5 170.887V24.1129C12.5 16.5947 18.5947 10.5 26.1129 10.5Z" fill="url(#paint0_linear_84_17075)" fill-opacity="0.2" stroke="white"/>
</g>
<path d="M71.3327 80.9889L65.3408 74.997C61.0262 81.5102 58.5 89.3112 58.5 97.7097C58.5 105.268 60.5461 112.346 64.1025 118.434C64.7062 119.469 66.1506 119.615 66.9975 118.766L70.3767 115.387C70.9433 114.82 71.0484 113.959 70.6693 113.254C68.1781 108.62 66.742 103.339 66.742 97.7097C66.742 91.5983 68.4336 85.897 71.3327 80.9889Z" fill="#50E6FF" fill-opacity="0.5"/>
<path d="M132.678 97.7097C132.678 103.821 130.986 109.523 128.087 114.431L134.079 120.423C138.394 113.91 140.92 106.106 140.92 97.7097C140.92 90.1519 138.874 83.0741 135.317 76.9854C134.714 75.951 133.269 75.8068 132.422 76.6536L129.043 80.0328C128.476 80.5995 128.371 81.4607 128.75 82.1654C131.242 86.7995 132.678 92.0805 132.678 97.7097Z" fill="#199BE2" fill-opacity="0.5"/>
<path d="M82.0328 68.3767C82.5995 68.9433 83.4607 69.0484 84.1654 68.6693C88.7995 66.1781 94.0805 64.742 99.7097 64.742C105.821 64.742 111.523 66.4336 116.431 69.3327L122.425 63.3388C115.91 59.0262 108.109 56.5 99.7097 56.5C92.189 56.5 85.1462 58.5255 79.0781 62.0489C78.0046 62.6732 77.7779 64.1218 78.6557 64.9995L82.0328 68.3767Z" fill="#35C1F1" fill-opacity="0.5"/>
<path d="M117.387 127.043C116.82 126.476 115.959 126.371 115.254 126.75C110.62 129.242 105.339 130.678 99.7097 130.678C93.5983 130.678 87.897 128.986 82.9889 126.087L76.997 132.079C83.5102 136.394 91.3132 138.92 99.7097 138.92C107.268 138.92 114.346 136.874 120.434 133.317C121.469 132.714 121.615 131.269 120.766 130.422L117.387 127.043Z" fill="#0078D4" fill-opacity="0.5"/>
<path d="M124.3 73.1384L114.339 72.7964C113.635 72.7717 113.284 71.9289 113.769 71.4138L123.364 61.1629C123.863 60.6292 124.757 60.963 124.786 61.6925L125.2 72.236C125.219 72.7408 124.805 73.1549 124.3 73.1384Z" fill="#35C1F1" fill-opacity="0.5"/>
<path d="M75.1199 122.281L85.0803 122.623C85.785 122.648 86.1352 123.491 85.651 124.006L76.0554 134.257C75.5567 134.79 74.6625 134.457 74.6336 133.727L74.2195 123.184C74.2009 122.679 74.6151 122.265 75.1199 122.281Z" fill="#0078D4" fill-opacity="0.5"/>
<path d="M124.281 122.3L124.623 112.339C124.648 111.635 125.491 111.284 126.006 111.769L136.257 121.364C136.79 121.863 136.457 122.757 135.727 122.786L125.184 123.2C124.679 123.219 124.265 122.805 124.281 122.3Z" fill="#199BE2" fill-opacity="0.5"/>
<path d="M75.1384 73.1199L74.7964 83.0803C74.7717 83.785 73.9289 84.1352 73.4138 83.651L63.1609 74.0554C62.6272 73.5567 62.961 72.6625 63.6904 72.6336L74.2339 72.2195C74.7408 72.2009 75.1549 72.6151 75.1384 73.1199Z" fill="#50E6FF" fill-opacity="0.5"/>
<rect x="31.5" y="31.5" width="60" height="60" rx="3" fill="url(#paint1_linear_84_17075)"/>
<rect x="31.5" y="31.5" width="60" height="60" rx="3" fill="white" fill-opacity="0.2"/>
<path d="M41.5 61.5C41.5 50.455 50.455 41.5 61.5 41.5C72.545 41.5 81.5 50.455 81.5 61.5C81.5 72.545 72.545 81.5 61.5 81.5C50.455 81.5 41.5 72.545 41.5 61.5Z" fill="url(#paint2_radial_84_17075)"/>
<path d="M78.5 61.5C78.5 58.261 77.827 55.209 76.661 52.5H79.343C78.995 51.811 78.618 51.14 78.195 50.5H75.683C72.638 45.084 67.421 41.5 61.5 41.5C55.579 41.5 50.362 45.084 47.317 50.5H44.805C44.382 51.14 44.005 51.811 43.657 52.5H46.339C45.173 55.209 44.5 58.261 44.5 61.5C44.5 64.739 45.173 67.791 46.339 70.5H43.657C44.005 71.189 44.382 71.86 44.805 72.5H47.317C50.362 77.916 55.579 81.5 61.5 81.5C67.421 81.5 72.638 77.916 75.683 72.5H78.195C78.618 71.86 78.995 71.189 79.343 70.5H76.661C77.827 67.791 78.5 64.739 78.5 61.5ZM76.5 61.5C76.5 64.78 75.753 67.849 74.471 70.5H68.678C69.221 67.667 69.5 64.553 69.5 61.5C69.5 58.447 69.221 55.333 68.678 52.5H74.471C75.753 55.151 76.5 58.22 76.5 61.5ZM61.5 79.5C59.81 79.5 58.009 76.863 56.826 72.5H66.175C64.991 76.863 63.19 79.5 61.5 79.5ZM56.348 70.5C55.821 67.913 55.5 64.871 55.5 61.5C55.5 58.129 55.821 55.087 56.348 52.5H66.652C67.179 55.087 67.5 58.129 67.5 61.5C67.5 64.871 67.179 67.913 66.652 70.5H56.348ZM61.5 43.5C63.19 43.5 64.991 46.137 66.174 50.5H56.825C58.009 46.137 59.81 43.5 61.5 43.5ZM73.347 50.5H68.236C67.61 48.001 66.757 45.816 65.684 44.227C68.763 45.303 71.429 47.532 73.347 50.5ZM57.316 44.227C56.243 45.817 55.39 48.001 54.764 50.5H49.653C51.571 47.532 54.237 45.303 57.316 44.227ZM46.5 61.5C46.5 58.22 47.247 55.151 48.529 52.5H54.322C53.779 55.333 53.5 58.447 53.5 61.5C53.5 64.553 53.779 67.667 54.322 70.5H48.529C47.247 67.849 46.5 64.78 46.5 61.5ZM49.653 72.5H54.764C55.39 74.999 56.243 77.184 57.316 78.773C54.237 77.697 51.571 75.468 49.653 72.5ZM65.684 78.773C66.757 77.183 67.61 74.999 68.236 72.5H73.347C71.429 75.468 68.763 77.697 65.684 78.773Z" fill="url(#paint3_radial_84_17075)"/>
<path d="M65.405 57.5L64.093 63.743L62.5 57.5H60.5L58.907 63.743L57.595 57.5H55.5L57.5 65.5H59.951C59.951 65.5 61.464 59.864 61.5 59.5C61.536 59.864 63.049 65.5 63.049 65.5H65.5L67.5 57.5H65.405Z" fill="white"/>
<path d="M53.405 57.5L52.093 63.743L50.5 57.5H48.5L46.907 63.743L45.595 57.5H43.5L45.5 65.5H47.951C47.951 65.5 49.464 59.864 49.5 59.5C49.536 59.864 51.049 65.5 51.049 65.5H53.5L55.5 57.5H53.405Z" fill="white"/>
<path d="M77.405 57.5L76.093 63.743L74.5 57.5H72.5L70.907 63.743L69.595 57.5H67.5L69.5 65.5H71.951C71.951 65.5 73.464 59.864 73.5 59.5C73.536 59.864 75.049 65.5 75.049 65.5H77.5L79.5 57.5H77.405Z" fill="white"/>
<rect x="30.5" y="30.5" width="62" height="62" rx="4" stroke="#E2E2E2" stroke-opacity="0.59" stroke-width="2"/>
<rect x="99.5" y="102.5" width="60" height="60" rx="3" fill="url(#paint4_linear_84_17075)"/>
<rect x="99.5" y="102.5" width="60" height="60" rx="3" fill="white" fill-opacity="0.2"/>
<g filter="url(#filter1_bd_84_17075)">
<path d="M106.73 113.541H108.685C110.274 113.541 111.642 114.658 111.962 116.212L115.058 131.248" stroke="url(#paint5_linear_84_17075)" stroke-width="0.75" stroke-miterlimit="10" stroke-linecap="round" stroke-linejoin="round"/>
<path d="M145.763 153.689C147.611 153.689 149.109 152.191 149.109 150.344C149.109 148.496 147.611 146.998 145.763 146.998C143.916 146.998 142.418 148.496 142.418 150.344C142.418 152.191 143.916 153.689 145.763 153.689Z" fill="#5C5F61"/>
<path opacity="0.15" d="M145.763 151.459C146.379 151.459 146.879 150.96 146.879 150.344C146.879 149.728 146.379 149.229 145.763 149.229C145.147 149.229 144.648 149.728 144.648 150.344C144.648 150.96 145.147 151.459 145.763 151.459Z" fill="black"/>
<path d="M121.228 153.689C123.076 153.689 124.574 152.191 124.574 150.344C124.574 148.496 123.076 146.998 121.228 146.998C119.381 146.998 117.883 148.496 117.883 150.344C117.883 152.191 119.381 153.689 121.228 153.689Z" fill="#5C5F61"/>
<path opacity="0.15" d="M121.228 151.459C121.844 151.459 122.344 150.96 122.344 150.344C122.344 149.728 121.844 149.229 121.228 149.229C120.612 149.229 120.113 149.728 120.113 150.344C120.113 150.96 120.612 151.459 121.228 151.459Z" fill="black"/>
<path d="M150.224 146.998H118.998C117.15 146.998 115.652 145.5 115.652 143.652C115.652 141.804 117.15 140.307 118.998 140.307H146.879" stroke="url(#paint6_linear_84_17075)" stroke-width="0.75" stroke-miterlimit="10" stroke-linecap="round" stroke-linejoin="round"/>
<path d="M108.961 113.541C108.961 114.772 107.962 115.772 106.73 115.772C105.499 115.772 104.5 114.772 104.5 113.541C104.5 112.31 105.499 111.311 106.73 111.311C107.962 111.311 108.961 112.31 108.961 113.541Z" fill="url(#paint7_linear_84_17075)"/>
<path d="M115.307 139.609C115.507 140.661 116.427 141.422 117.498 141.422H149.45C150.541 141.422 151.471 140.634 151.651 139.558L153.951 125.753L112.053 122.53L115.307 139.609Z" fill="url(#paint8_linear_84_17075)"/>
<path d="M153.471 121.254L111.191 118.002L112.053 122.53L153.95 125.753L154.484 122.55C154.593 121.904 154.123 121.304 153.471 121.254Z" fill="url(#paint9_linear_84_17075)"/>
<path d="M132.336 128.441C132.336 128.441 133.534 127.102 135.013 127.102C136.491 127.102 137.689 128.317 137.689 129.779C137.689 132.295 133.747 135.167 132.628 135.931C132.451 136.052 132.221 136.052 132.044 135.931C130.925 135.167 126.983 132.295 126.983 129.779C126.983 128.317 128.181 127.102 129.66 127.102C131.138 127.102 132.336 128.441 132.336 128.441Z" fill="url(#paint10_linear_84_17075)"/>
</g>
<rect x="98.5" y="101.5" width="62" height="62" rx="4" stroke="#E2E2E2" stroke-opacity="0.59" stroke-width="2"/>
<defs>
<filter id="filter0_d_84_17075" x="0.5" y="2.5" width="198" height="198" filterUnits="userSpaceOnUse" color-interpolation-filters="sRGB">
<feFlood flood-opacity="0" result="BackgroundImageFix"/>
<feColorMatrix in="SourceAlpha" type="matrix" values="0 0 0 0 0 0 0 0 0 0 0 0 0 0 0 0 0 0 127 0" result="hardAlpha"/>
<feOffset dy="4"/>
<feGaussianBlur stdDeviation="2"/>
<feComposite in2="hardAlpha" operator="out"/>
<feColorMatrix type="matrix" values="0 0 0 0 0 0 0 0 0 0 0 0 0 0 0 0 0 0 0.25 0"/>
<feBlend mode="normal" in2="BackgroundImageFix" result="effect1_dropShadow_84_17075"/>
<feBlend mode="normal" in="SourceGraphic" in2="effect1_dropShadow_84_17075" result="shape"/>
</filter>
<filter id="filter1_bd_84_17075" x="100.5" y="107.311" width="58" height="52.3787" filterUnits="userSpaceOnUse" color-interpolation-filters="sRGB">
<feFlood flood-opacity="0" result="BackgroundImageFix"/>
<feGaussianBlur in="BackgroundImageFix" stdDeviation="2"/>
<feComposite in2="SourceAlpha" operator="in" result="effect1_backgroundBlur_84_17075"/>
<feColorMatrix in="SourceAlpha" type="matrix" values="0 0 0 0 0 0 0 0 0 0 0 0 0 0 0 0 0 0 127 0" result="hardAlpha"/>
<feOffset dy="2"/>
<feGaussianBlur stdDeviation="2"/>
<feComposite in2="hardAlpha" operator="out"/>
<feColorMatrix type="matrix" values="0 0 0 0 1 0 0 0 0 1 0 0 0 0 1 0 0 0 1 0"/>
<feBlend mode="normal" in2="effect1_backgroundBlur_84_17075" result="effect2_dropShadow_84_17075"/>
<feBlend mode="normal" in="SourceGraphic" in2="effect2_dropShadow_84_17075" result="shape"/>
</filter>
<linearGradient id="paint0_linear_84_17075" x1="99.5" y1="18.4677" x2="99.5" y2="176.532" gradientUnits="userSpaceOnUse">
<stop stop-color="white"/>
<stop offset="0.472222" stop-color="#0D5176" stop-opacity="0.527778"/>
<stop offset="0.940972" stop-color="#12A6F7" stop-opacity="0.465278"/>
</linearGradient>
<linearGradient id="paint1_linear_84_17075" x1="61.5" y1="31.5" x2="88.3" y2="99.9" gradientUnits="userSpaceOnUse">
<stop stop-color="#B8DFFC"/>
<stop offset="0.453125" stop-color="#E5EFF7" stop-opacity="0.98"/>
<stop offset="1" stop-color="#8FC3EB"/>
</linearGradient>
<radialGradient id="paint2_radial_84_17075" cx="0" cy="0" r="1" gradientUnits="userSpaceOnUse" gradientTransform="translate(47.832 46.681) scale(40.041)">
<stop stop-color="#6FCEFC"/>
<stop offset="1" stop-color="#167CF7"/>
</radialGradient>
<radialGradient id="paint3_radial_84_17075" cx="0" cy="0" r="1" gradientUnits="userSpaceOnUse" gradientTransform="translate(47.2255 45.98) scale(45.0092 40.155)">
<stop offset="0.001" stop-color="#54C0F5"/>
<stop offset="0.998" stop-color="#0B69DB"/>
</radialGradient>
<linearGradient id="paint4_linear_84_17075" x1="129.5" y1="102.5" x2="156.3" y2="170.9" gradientUnits="userSpaceOnUse">
<stop stop-color="#B8DFFC"/>
<stop offset="0.453125" stop-color="#E5EFF7" stop-opacity="0.98"/>
<stop offset="1" stop-color="#8FC3EB"/>
</linearGradient>
<linearGradient id="paint5_linear_84_17075" x1="110.895" y1="132.363" x2="110.895" y2="112.426" gradientUnits="userSpaceOnUse">
<stop stop-color="#92A3B0"/>
<stop offset="0.015" stop-color="#A3B5C4"/>
<stop offset="0.032" stop-color="#AEC2D1"/>
<stop offset="0.046" stop-color="#B2C6D6"/>
</linearGradient>
<linearGradient id="paint6_linear_84_17075" x1="132.938" y1="148.113" x2="132.938" y2="139.191" gradientUnits="userSpaceOnUse">
<stop stop-color="#92A3B0"/>
<stop offset="0.015" stop-color="#A3B5C4"/>
<stop offset="0.032" stop-color="#AEC2D1"/>
<stop offset="0.046" stop-color="#B2C6D6"/>
</linearGradient>
<linearGradient id="paint7_linear_84_17075" x1="105.343" y1="112.154" x2="108.274" y2="115.085" gradientUnits="userSpaceOnUse">
<stop stop-color="#199AE0"/>
<stop offset="1" stop-color="#0782D8"/>
</linearGradient>
<linearGradient id="paint8_linear_84_17075" x1="112.053" y1="131.976" x2="153.951" y2="131.976" gradientUnits="userSpaceOnUse">
<stop stop-color="#3079D6"/>
<stop offset="1" stop-color="#297CD2"/>
</linearGradient>
<linearGradient id="paint9_linear_84_17075" x1="111.191" y1="121.878" x2="154.5" y2="121.878" gradientUnits="userSpaceOnUse">
<stop stop-color="#42A3F2"/>
<stop offset="1" stop-color="#42A4EB"/>
</linearGradient>
<linearGradient id="paint10_linear_84_17075" x1="130.194" y1="126.559" x2="135.225" y2="134.307" gradientUnits="userSpaceOnUse">
<stop stop-color="#F44F5A"/>
<stop offset="0.443" stop-color="#EE3D4A"/>
<stop offset="1" stop-color="#E52030"/>
</linearGradient>
</defs>
</svg>
