<svg width="195" height="195" viewBox="0 0 195 195" fill="none" xmlns="http://www.w3.org/2000/svg">
<g filter="url(#filter0_d_86_4494)">
<path d="M170.887 10H24.1129C16.3186 10 10 16.3186 10 24.1129V170.887C10 178.681 16.3186 185 24.1129 185H170.887C178.681 185 185 178.681 185 170.887V24.1129C185 16.3186 178.681 10 170.887 10Z" fill="url(#paint0_linear_86_4494)" fill-opacity="0.2"/>
<path d="M24.1129 10.5H170.887C178.405 10.5 184.5 16.5948 184.5 24.1129V170.887C184.5 178.405 178.405 184.5 170.887 184.5H24.1129C16.5948 184.5 10.5 178.405 10.5 170.887V24.1129C10.5 16.5947 16.5947 10.5 24.1129 10.5Z" stroke="#F7F7F7" stroke-opacity="0.27"/>
</g>
<g filter="url(#filter1_bd_86_4494)">
<path d="M59.7111 46.6238C59.1588 46.6238 58.7111 47.0715 58.7111 47.6238C58.7111 47.6473 58.7119 47.6706 58.7135 47.6937V65.8652H49.0056C48.4534 65.8652 48.0056 66.3129 48.0056 66.8652V78.8911C48.0056 79.4434 48.4534 79.8911 49.0056 79.8911H58.7135V122.177C58.6514 126.311 59.5377 129.605 61.558 131.869C63.5968 134.154 66.6271 135.21 70.4454 135.21H82.5602C83.1125 135.21 83.5602 134.762 83.5602 134.21V122.184C83.5602 121.632 83.1125 121.184 82.5602 121.184H73.9395V79.8911H82.5602C83.1125 79.8911 83.5602 79.4434 83.5602 78.8911V66.8652C83.5602 66.3129 83.1125 65.8652 82.5602 65.8652H73.9395V47.6238C73.9395 47.0715 73.4918 46.6238 72.9395 46.6238H59.7135H59.7111ZM107.819 100.553L86.5374 133.657C86.432 133.815 86.3706 134.006 86.3706 134.21C86.3706 134.762 86.8183 135.21 87.3706 135.21H104.207C104.545 135.21 104.86 135.039 105.045 134.756L117.435 115.731L129.826 134.756C130.01 135.039 130.326 135.21 130.664 135.21H147.5C147.87 135.21 148.21 135.006 148.384 134.678C148.557 134.351 148.535 133.955 148.327 133.649L125.859 100.538L148.327 67.4267C148.535 67.1203 148.557 66.7241 148.384 66.3969C148.21 66.0698 147.87 65.8652 147.5 65.8652H130.664C130.329 65.8652 130.017 66.0323 129.832 66.3105L116.269 86.654L103.858 66.3437C103.676 66.0465 103.353 65.8652 103.004 65.8652H86.168C85.7977 65.8652 85.4578 66.0698 85.2844 66.3969C85.111 66.7241 85.1326 67.1203 85.3405 67.4267L107.819 100.553ZM54.5147 138.041C54.4498 138.027 54.3827 138.02 54.3139 138.02H47.5C46.9477 138.02 46.5 138.468 46.5 139.02V140.565C46.5 141.117 46.9477 141.565 47.5 141.565H48.9918V147.376C48.9918 147.928 49.4395 148.376 49.9918 148.376H51.8197C52.372 148.376 52.8197 147.928 52.8197 147.376V141.565H53.7155V147.376C53.7155 147.928 54.1632 148.376 54.7155 148.376H56.4232C56.9755 148.376 57.4232 147.928 57.4232 147.376V147.362L57.5423 147.705C57.6822 148.107 58.0612 148.376 58.4868 148.376H59.8963C60.3232 148.376 60.703 148.105 60.8419 147.701L60.9575 147.365V147.376C60.9575 147.928 61.4052 148.376 61.9575 148.376H63.6676C64.2199 148.376 64.6676 147.928 64.6676 147.376V139.02C64.6676 138.468 64.2199 138.02 63.6676 138.02H61.0941C60.659 138.02 60.2738 138.302 60.1415 138.716L59.2194 141.603L58.2362 138.7C58.0987 138.294 57.7177 138.02 57.2891 138.02H54.7155C54.6467 138.02 54.5796 138.027 54.5147 138.041Z" fill="url(#paint1_linear_86_4494)" stroke="white" stroke-width="2" stroke-linejoin="round"/>
</g>
<defs>
<filter id="filter0_d_86_4494" x="6" y="10" width="183" height="183" filterUnits="userSpaceOnUse" color-interpolation-filters="sRGB">
<feFlood flood-opacity="0" result="BackgroundImageFix"/>
<feColorMatrix in="SourceAlpha" type="matrix" values="0 0 0 0 0 0 0 0 0 0 0 0 0 0 0 0 0 0 127 0" result="hardAlpha"/>
<feOffset dy="4"/>
<feGaussianBlur stdDeviation="2"/>
<feComposite in2="hardAlpha" operator="out"/>
<feColorMatrix type="matrix" values="0 0 0 0 0 0 0 0 0 0 0 0 0 0 0 0 0 0 0.25 0"/>
<feBlend mode="normal" in2="BackgroundImageFix" result="effect1_dropShadow_86_4494"/>
<feBlend mode="normal" in="SourceGraphic" in2="effect1_dropShadow_86_4494" result="shape"/>
</filter>
<filter id="filter1_bd_86_4494" x="41.5" y="41.6238" width="112" height="113.752" filterUnits="userSpaceOnUse" color-interpolation-filters="sRGB">
<feFlood flood-opacity="0" result="BackgroundImageFix"/>
<feGaussianBlur in="BackgroundImageFix" stdDeviation="2"/>
<feComposite in2="SourceAlpha" operator="in" result="effect1_backgroundBlur_86_4494"/>
<feColorMatrix in="SourceAlpha" type="matrix" values="0 0 0 0 0 0 0 0 0 0 0 0 0 0 0 0 0 0 127 0" result="hardAlpha"/>
<feOffset dy="2"/>
<feGaussianBlur stdDeviation="2"/>
<feComposite in2="hardAlpha" operator="out"/>
<feColorMatrix type="matrix" values="0 0 0 0 1 0 0 0 0 1 0 0 0 0 1 0 0 0 0.25 0"/>
<feBlend mode="normal" in2="effect1_backgroundBlur_86_4494" result="effect2_dropShadow_86_4494"/>
<feBlend mode="normal" in="SourceGraphic" in2="effect2_dropShadow_86_4494" result="shape"/>
</filter>
<linearGradient id="paint0_linear_86_4494" x1="97.5" y1="18.4677" x2="97.5" y2="176.532" gradientUnits="userSpaceOnUse">
<stop stop-color="white"/>
<stop offset="0.472222" stop-color="#0D5176" stop-opacity="0.527778"/>
<stop offset="0.940972" stop-color="#12A6F7" stop-opacity="0.465278"/>
</linearGradient>
<linearGradient id="paint1_linear_86_4494" x1="97.5" y1="47.6238" x2="164" y2="175.124" gradientUnits="userSpaceOnUse">
<stop stop-color="#0078D4"/>
<stop offset="1" stop-color="#4994CE"/>
</linearGradient>
</defs>
</svg>
