<svg width="199" height="201" viewBox="0 0 199 201" fill="none" xmlns="http://www.w3.org/2000/svg">
<g filter="url(#filter0_d_86_4500)">
<path d="M172.887 10H26.1129C18.3186 10 12 16.3186 12 24.1129V170.887C12 178.681 18.3186 185 26.1129 185H172.887C180.681 185 187 178.681 187 170.887V24.1129C187 16.3186 180.681 10 172.887 10Z" fill="white"/>
<path d="M172.887 10H26.1129C18.3186 10 12 16.3186 12 24.1129V170.887C12 178.681 18.3186 185 26.1129 185H172.887C180.681 185 187 178.681 187 170.887V24.1129C187 16.3186 180.681 10 172.887 10Z" stroke="#F2F2F2" stroke-width="15" stroke-linecap="round"/>
<path d="M26.1129 10.5H172.887C180.405 10.5 186.5 16.5948 186.5 24.1129V170.887C186.5 178.405 180.405 184.5 172.887 184.5H26.1129C18.5948 184.5 12.5 178.405 12.5 170.887V24.1129C12.5 16.5947 18.5947 10.5 26.1129 10.5Z" fill="url(#paint0_linear_86_4500)" fill-opacity="0.2" stroke="white"/>
</g>
<g filter="url(#filter1_bd_86_4500)">
<path d="M61.7111 46.6238C61.1588 46.6238 60.7111 47.0715 60.7111 47.6238C60.7111 47.6473 60.7119 47.6706 60.7135 47.6937V65.8652H51.0056C50.4534 65.8652 50.0056 66.3129 50.0056 66.8652V78.8911C50.0056 79.4434 50.4534 79.8911 51.0056 79.8911H60.7135V122.177C60.6514 126.311 61.5377 129.605 63.558 131.869C65.5968 134.154 68.6271 135.21 72.4454 135.21H84.5602C85.1125 135.21 85.5602 134.762 85.5602 134.21V122.184C85.5602 121.632 85.1125 121.184 84.5602 121.184H75.9395V79.8911H84.5602C85.1125 79.8911 85.5602 79.4434 85.5602 78.8911V66.8652C85.5602 66.3129 85.1125 65.8652 84.5602 65.8652H75.9395V47.6238C75.9395 47.0715 75.4918 46.6238 74.9395 46.6238H61.7135H61.7111ZM109.819 100.553L88.5374 133.657C88.432 133.815 88.3706 134.006 88.3706 134.21C88.3706 134.762 88.8183 135.21 89.3706 135.21H106.207C106.545 135.21 106.86 135.039 107.045 134.756L119.435 115.731L131.826 134.756C132.01 135.039 132.326 135.21 132.664 135.21H149.5C149.87 135.21 150.21 135.006 150.384 134.678C150.557 134.351 150.535 133.955 150.327 133.649L127.859 100.538L150.327 67.4267C150.535 67.1203 150.557 66.7241 150.384 66.3969C150.21 66.0698 149.87 65.8652 149.5 65.8652H132.664C132.329 65.8652 132.017 66.0323 131.832 66.3105L118.269 86.654L105.858 66.3437C105.676 66.0465 105.353 65.8652 105.004 65.8652H88.168C87.7977 65.8652 87.4578 66.0698 87.2844 66.3969C87.111 66.7241 87.1326 67.1203 87.3405 67.4267L109.819 100.553ZM56.5147 138.041C56.4498 138.027 56.3827 138.02 56.3139 138.02H49.5C48.9477 138.02 48.5 138.468 48.5 139.02V140.565C48.5 141.117 48.9477 141.565 49.5 141.565H50.9918V147.376C50.9918 147.928 51.4395 148.376 51.9918 148.376H53.8197C54.372 148.376 54.8197 147.928 54.8197 147.376V141.565H55.7155V147.376C55.7155 147.928 56.1632 148.376 56.7155 148.376H58.4232C58.9755 148.376 59.4232 147.928 59.4232 147.376V147.362L59.5423 147.705C59.6822 148.107 60.0612 148.376 60.4868 148.376H61.8963C62.3232 148.376 62.703 148.105 62.8419 147.701L62.9575 147.365V147.376C62.9575 147.928 63.4052 148.376 63.9575 148.376H65.6676C66.2199 148.376 66.6676 147.928 66.6676 147.376V139.02C66.6676 138.468 66.2199 138.02 65.6676 138.02H63.0941C62.659 138.02 62.2738 138.302 62.1415 138.716L61.2194 141.603L60.2362 138.7C60.0987 138.294 59.7177 138.02 59.2891 138.02H56.7155C56.6467 138.02 56.5796 138.027 56.5147 138.041Z" fill="url(#paint1_linear_86_4500)" stroke="white" stroke-width="2" stroke-linejoin="round"/>
</g>
<defs>
<filter id="filter0_d_86_4500" x="0.5" y="2.5" width="198" height="198" filterUnits="userSpaceOnUse" color-interpolation-filters="sRGB">
<feFlood flood-opacity="0" result="BackgroundImageFix"/>
<feColorMatrix in="SourceAlpha" type="matrix" values="0 0 0 0 0 0 0 0 0 0 0 0 0 0 0 0 0 0 127 0" result="hardAlpha"/>
<feOffset dy="4"/>
<feGaussianBlur stdDeviation="2"/>
<feComposite in2="hardAlpha" operator="out"/>
<feColorMatrix type="matrix" values="0 0 0 0 0 0 0 0 0 0 0 0 0 0 0 0 0 0 0.25 0"/>
<feBlend mode="normal" in2="BackgroundImageFix" result="effect1_dropShadow_86_4500"/>
<feBlend mode="normal" in="SourceGraphic" in2="effect1_dropShadow_86_4500" result="shape"/>
</filter>
<filter id="filter1_bd_86_4500" x="43.5" y="41.6238" width="112" height="113.752" filterUnits="userSpaceOnUse" color-interpolation-filters="sRGB">
<feFlood flood-opacity="0" result="BackgroundImageFix"/>
<feGaussianBlur in="BackgroundImageFix" stdDeviation="2"/>
<feComposite in2="SourceAlpha" operator="in" result="effect1_backgroundBlur_86_4500"/>
<feColorMatrix in="SourceAlpha" type="matrix" values="0 0 0 0 0 0 0 0 0 0 0 0 0 0 0 0 0 0 127 0" result="hardAlpha"/>
<feOffset dy="2"/>
<feGaussianBlur stdDeviation="2"/>
<feComposite in2="hardAlpha" operator="out"/>
<feColorMatrix type="matrix" values="0 0 0 0 1 0 0 0 0 1 0 0 0 0 1 0 0 0 0.25 0"/>
<feBlend mode="normal" in2="effect1_backgroundBlur_86_4500" result="effect2_dropShadow_86_4500"/>
<feBlend mode="normal" in="SourceGraphic" in2="effect2_dropShadow_86_4500" result="shape"/>
</filter>
<linearGradient id="paint0_linear_86_4500" x1="99.5" y1="18.4677" x2="99.5" y2="176.532" gradientUnits="userSpaceOnUse">
<stop stop-color="white"/>
<stop offset="0.472222" stop-color="#0D5176" stop-opacity="0.527778"/>
<stop offset="0.940972" stop-color="#12A6F7" stop-opacity="0.465278"/>
</linearGradient>
<linearGradient id="paint1_linear_86_4500" x1="99.5" y1="47.6238" x2="166" y2="175.124" gradientUnits="userSpaceOnUse">
<stop stop-color="#0078D4"/>
<stop offset="1" stop-color="#4994CE"/>
</linearGradient>
</defs>
</svg>
